<?xml version="1.0" standalone="no"?>
<!DOCTYPE svg PUBLIC "-//W3C//DTD SVG 20010904//EN"
 "http://www.w3.org/TR/2001/REC-SVG-20010904/DTD/svg10.dtd">
<svg version="1.0" xmlns="http://www.w3.org/2000/svg"
 width="1500.000000pt" height="500.000000pt" viewBox="0 0 1500.000000 500.000000"
 preserveAspectRatio="xMidYMid meet">

<g transform="translate(0.000000,500.000000) scale(0.100000,-0.100000)"
fill="#000000" stroke="none">
<path d="M0 4525 l0 -475 24 0 c34 0 74 -36 85 -76 16 -60 -26 -175 -88 -241
-20 -22 -21 -31 -21 -357 l0 -335 54 -51 c59 -55 73 -92 50 -127 -16 -26 -71
-32 -92 -11 -9 9 -12 -314 -12 -1420 l0 -1432 2614 0 c2081 0 2615 3 2619 13
4 9 6 9 6 -1 1 -10 57 -12 261 -11 151 0 260 4 260 10 0 5 7 9 15 9 8 0 15 -4
15 -10 0 -7 1542 -10 4605 -10 l4605 0 0 1163 -1 1162 -39 24 c-22 14 -38 26
-37 27 1 2 19 -1 40 -5 28 -7 37 -6 37 4 0 21 -141 26 -157 6 -10 -13 -6 -22
30 -53 23 -21 37 -38 30 -38 -6 0 -14 4 -17 9 -3 5 -15 11 -27 14 -21 6 -21 5
3 -21 33 -36 71 -92 66 -97 -2 -3 -32 18 -65 45 -34 28 -64 50 -67 50 -2 0 18
-33 44 -72 27 -40 47 -75 44 -77 -2 -3 -30 20 -60 50 l-56 54 22 -45 c13 -25
34 -62 47 -83 14 -22 22 -41 20 -43 -10 -11 -99 105 -130 168 -17 37 -35 68
-39 68 -5 0 -8 -28 -8 -62 0 -63 -7 -72 -16 -22 -6 35 -14 44 -14 18 0 -26
-51 -132 -57 -117 -2 6 2 45 10 87 8 42 13 76 12 76 -2 0 -20 -34 -40 -75 -21
-42 -41 -77 -45 -80 -9 -6 4 69 19 108 6 16 11 31 11 35 0 10 -57 -76 -81
-121 -29 -55 -32 -41 -8 33 22 67 68 143 99 162 15 10 16 13 4 26 -12 11 -26
12 -78 3 -86 -15 -98 -13 -51 9 l40 19 -45 1 c-25 1 -61 7 -80 14 l-35 13 55
7 c30 3 71 7 90 9 31 3 32 4 10 9 -14 4 -53 12 -87 19 -34 7 -60 16 -57 21 3
4 35 8 72 9 l67 1 -45 15 c-25 8 -67 21 -95 28 l-50 14 80 -2 c71 -2 84 -5
118 -31 32 -24 40 -27 48 -15 14 22 11 34 -21 74 -17 21 -30 40 -30 42 0 3 17
-6 37 -18 l38 -23 -21 29 c-27 40 -56 104 -52 116 2 5 26 -20 53 -56 27 -37
51 -62 53 -57 1 4 -11 41 -28 82 -17 40 -29 75 -26 77 2 2 21 -22 42 -54 21
-32 42 -62 46 -67 8 -11 -13 70 -35 134 -9 24 -15 46 -13 48 11 11 96 -165 96
-199 0 -16 4 -19 23 -13 28 8 24 3 35 44 l10 35 2 -40 c1 -38 2 -39 12 -15 15
33 70 122 73 118 3 -3 -17 -88 -31 -130 -3 -10 -1 -18 5 -18 6 0 11 5 11 10 0
13 72 122 77 117 3 -3 -21 -80 -42 -132 -11 -27 1 -14 64 68 28 38 51 66 51
63 0 -18 -38 -98 -65 -136 -26 -38 -30 -50 -22 -73 8 -25 12 -27 50 -21 l42 5
-35 -20 -35 -20 53 -1 52 0 0 1249 c0 1126 -2 1249 -16 1255 -17 7 -6024 8
-6024 2 0 -3 4 -16 10 -31 8 -21 6 -29 -11 -46 -12 -12 -24 -17 -28 -12 -3 4
-39 27 -80 51 l-73 42 -1409 0 -1409 0 -13 -32 c-8 -18 -33 -58 -56 -88 l-41
-55 51 -8 c89 -13 174 -63 271 -159 104 -103 104 -104 -7 -167 -115 -66 -226
-82 -365 -55 l-29 6 24 -58 c34 -85 39 -154 20 -249 -14 -70 -65 -203 -86
-229 -4 -5 -28 3 -53 17 -30 17 -47 21 -50 14 -3 -8 -5 -8 -5 1 -1 7 -25 37
-55 65 -30 29 -68 81 -85 116 l-32 62 -56 -51 c-31 -28 -86 -66 -122 -84 -82
-42 -188 -73 -202 -59 -5 5 -14 45 -21 90 -9 63 -9 96 1 150 12 71 50 164 78
195 15 17 14 18 -25 18 -22 0 -48 3 -58 7 -11 4 -15 3 -10 -5 3 -6 2 -13 -3
-16 -5 -3 -11 3 -14 14 -3 11 -12 20 -21 20 -48 0 -260 141 -286 190 -13 25
65 97 150 138 105 51 209 64 308 38 47 -13 69 -8 41 10 -15 9 -69 124 -69 146
0 17 -108 18 -1984 18 l-1984 0 -15 -45 c-9 -25 -14 -45 -11 -45 2 0 40 18 84
40 85 43 90 44 90 32 0 -4 -36 -26 -80 -47 -44 -21 -80 -42 -80 -45 0 -4 41
-19 90 -33 50 -15 90 -32 90 -37 0 -13 7 -14 -95 20 -49 16 -90 28 -92 26 -3
-2 14 -41 37 -86 23 -45 39 -85 36 -88 -8 -7 -8 -8 -50 78 -21 41 -41 78 -45
83 -4 4 -19 -33 -34 -83 -15 -49 -32 -90 -38 -90 -7 0 -8 7 -4 18 4 9 16 46
27 81 11 35 22 70 25 78 4 9 -27 -2 -78 -29 -106 -54 -99 -51 -99 -41 0 5 17
17 37 28 21 11 59 32 86 46 l48 26 -73 23 c-102 32 -122 40 -115 46 3 3 44 -6
92 -21 48 -14 89 -24 92 -22 2 3 -5 23 -17 46 l-20 41 -530 0 -530 0 0 -475z
m10010 455 c0 -5 -4 -10 -10 -10 -5 0 -10 5 -10 10 0 6 5 10 10 10 6 0 10 -4
10 -10z m1220 -4 c0 -3 -4 -8 -10 -11 -5 -3 -10 -1 -10 4 0 6 5 11 10 11 6 0
10 -2 10 -4z m-8600 -31 c0 -8 -4 -15 -10 -15 -5 0 -10 7 -10 15 0 8 5 15 10
15 6 0 10 -7 10 -15z m5539 -30 c9 -9 17 -47 21 -102 7 -90 24 -145 60 -190
48 -62 6 -58 -76 8 -126 100 -174 201 -128 267 29 42 89 50 123 17z m2831 9
c0 -8 -4 -12 -10 -9 -5 3 -10 10 -10 16 0 5 5 9 10 9 6 0 10 -7 10 -16z
m-10790 -9 c0 -8 -2 -15 -4 -15 -2 0 -6 7 -10 15 -3 8 -1 15 4 15 6 0 10 -7
10 -15z m2320 5 c0 -5 -5 -10 -11 -10 -5 0 -7 5 -4 10 3 6 8 10 11 10 2 0 4
-4 4 -10z m6540 -18 c0 -5 -7 -9 -15 -9 -8 0 -12 4 -9 9 3 4 9 8 15 8 5 0 9
-4 9 -8z m-8793 -34 c-3 -8 -6 -5 -6 6 -1 11 2 17 5 13 3 -3 4 -12 1 -19z
m10303 -3 c0 -8 -4 -15 -10 -15 -5 0 -10 7 -10 15 0 8 5 15 10 15 6 0 10 -7
10 -15z m-8473 -17 c-3 -8 -6 -5 -6 6 -1 11 2 17 5 13 3 -3 4 -12 1 -19z
m3813 18 c0 -3 -4 -8 -10 -11 -5 -3 -10 -1 -10 4 0 6 5 11 10 11 6 0 10 -2 10
-4z m6970 -6 c0 -5 -5 -10 -11 -10 -5 0 -7 5 -4 10 3 6 8 10 11 10 2 0 4 -4 4
-10z m-3925 -20 c15 -16 17 -26 9 -48 -17 -50 -94 -39 -94 14 0 49 52 70 85
34z m882 -6 c-9 -9 -28 6 -21 18 4 6 10 6 17 -1 6 -6 8 -13 4 -17z m-679 -6
c7 -7 12 -24 12 -38 0 -14 -5 -31 -12 -38 -28 -28 -88 -2 -88 38 0 40 60 66
88 38z m595 -13 c-3 -9 -8 -14 -10 -11 -3 3 -2 9 2 15 9 16 15 13 8 -4z m3597
5 c0 -5 -5 -10 -11 -10 -5 0 -7 5 -4 10 3 6 8 10 11 10 2 0 4 -4 4 -10z
m-4520 -8 c0 -13 -12 -22 -22 -16 -10 6 -1 24 13 24 5 0 9 -4 9 -8z m1297 -14
c-3 -8 -6 -5 -6 6 -1 11 2 17 5 13 3 -3 4 -12 1 -19z m-8280 -10 c-3 -8 -6 -5
-6 6 -1 11 2 17 5 13 3 -3 4 -12 1 -19z m923 12 c0 -5 -7 -10 -16 -10 -8 0
-12 5 -9 10 3 6 10 10 16 10 5 0 9 -4 9 -10z m5220 0 c0 -5 -2 -10 -4 -10 -3
0 -8 5 -11 10 -3 6 -1 10 4 10 6 0 11 -4 11 -10z m2690 6 c0 -3 -4 -8 -10 -11
-5 -3 -10 -1 -10 4 0 6 5 11 10 11 6 0 10 -2 10 -4z m1230 -26 c0 -5 -4 -10
-10 -10 -5 0 -10 5 -10 10 0 6 5 10 10 10 6 0 10 -4 10 -10z m40 0 c0 -5 -2
-10 -4 -10 -3 0 -8 5 -11 10 -3 6 -1 10 4 10 6 0 11 -4 11 -10z m-480 -10 c0
-5 -5 -10 -11 -10 -5 0 -7 5 -4 10 3 6 8 10 11 10 2 0 4 -4 4 -10z m-2270 -10
c0 -5 -5 -10 -11 -10 -5 0 -7 5 -4 10 3 6 8 10 11 10 2 0 4 -4 4 -10z m1625
-10 c3 -5 1 -10 -4 -10 -6 0 -11 5 -11 10 0 6 2 10 4 10 3 0 8 -4 11 -10z
m2735 -10 c24 -24 25 -48 4 -78 -21 -31 -67 -29 -92 3 -23 29 -19 59 11 80 29
20 53 19 77 -5z m-7330 0 c0 -5 -4 -10 -10 -10 -5 0 -10 5 -10 10 0 6 5 10 10
10 6 0 10 -4 10 -10z m487 -80 c15 -49 30 -90 33 -90 3 0 25 39 49 88 24 48
46 82 48 75 2 -6 -14 -48 -37 -92 -22 -45 -36 -81 -32 -81 5 0 45 11 88 25 85
27 104 30 89 16 -6 -5 -47 -21 -92 -36 -46 -14 -83 -28 -83 -31 0 -2 37 -22
83 -45 92 -46 93 -47 84 -55 -3 -3 -42 13 -87 36 -44 24 -83 40 -86 37 -3 -3
7 -42 21 -87 15 -44 25 -84 21 -87 -9 -9 -10 -7 -40 91 l-28 89 -45 -86 c-25
-48 -49 -87 -54 -87 -5 0 11 41 36 90 l45 90 -27 -6 c-16 -3 -32 -12 -38 -19
-5 -6 -15 -10 -20 -8 -6 2 -32 -3 -58 -11 -82 -24 -51 1 36 30 45 14 86 29 90
31 9 5 0 10 -108 65 -33 17 -55 33 -48 35 6 2 46 -15 88 -37 42 -23 78 -40 81
-38 2 3 -10 44 -26 93 -34 101 -33 95 -21 95 5 0 22 -40 38 -90z m4233 50 c0
-5 -4 -10 -10 -10 -5 0 -10 5 -10 10 0 6 5 10 10 10 6 0 10 -4 10 -10z m-950
-10 c0 -5 -4 -10 -10 -10 -5 0 -10 5 -10 10 0 6 5 10 10 10 6 0 10 -4 10 -10z
m-3450 -14 c0 -2 -7 -6 -15 -10 -8 -3 -15 -1 -15 4 0 6 7 10 15 10 8 0 15 -2
15 -4z m7566 -24 c41 -30 94 -93 94 -111 0 -19 -53 -12 -106 13 -75 35 -107
91 -66 115 26 16 36 13 78 -17z m-12549 -4 c-3 -8 -6 -5 -6 6 -1 11 2 17 5 13
3 -3 4 -12 1 -19z m3053 8 c0 -3 -4 -8 -10 -11 -5 -3 -10 -1 -10 4 0 6 5 11
10 11 6 0 10 -2 10 -4z m6040 0 c0 -3 -4 -8 -10 -11 -5 -3 -10 -1 -10 4 0 6 5
11 10 11 6 0 10 -2 10 -4z m1500 -6 c0 -5 -5 -10 -11 -10 -5 0 -7 5 -4 10 3 6
8 10 11 10 2 0 4 -4 4 -10z m-1765 -10 c-3 -5 -13 -10 -21 -10 -8 0 -12 5 -9
10 3 6 13 10 21 10 8 0 12 -4 9 -10z m75 6 c0 -2 -7 -9 -15 -16 -12 -10 -15
-10 -15 4 0 9 7 16 15 16 8 0 15 -2 15 -4z m-6430 -16 c0 -5 -4 -10 -10 -10
-5 0 -10 5 -10 10 0 6 5 10 10 10 6 0 10 -4 10 -10z m6787 -20 c2 -19 -8 -26
-20 -14 -7 7 2 34 12 34 4 0 7 -9 8 -20z m-694 -85 l30 -89 41 84 c50 103 45
95 53 86 4 -4 -12 -45 -35 -91 -23 -47 -40 -85 -37 -85 2 0 41 14 87 30 89 32
98 35 98 21 0 -4 -20 -14 -45 -21 -25 -7 -45 -19 -45 -26 0 -8 -6 -11 -15 -8
-18 7 -65 -3 -65 -15 0 -4 36 -25 80 -45 44 -21 80 -42 80 -47 0 -14 -4 -12
-90 31 -44 22 -82 40 -84 40 -3 0 -1 -12 4 -27 17 -58 32 -92 38 -92 19 3 32
-2 32 -12 0 -8 -6 -7 -17 2 -15 13 -16 11 -9 -23 13 -70 -10 -39 -39 52 -16
50 -32 90 -35 90 -4 0 -26 -41 -50 -92 -24 -51 -45 -87 -47 -81 -2 6 14 49 36
97 22 47 36 86 32 86 -16 0 -101 -32 -101 -38 0 -4 -18 -8 -40 -9 -39 -2 -39
-2 -20 17 21 21 35 27 26 11 -6 -8 122 34 132 43 2 3 -19 16 -47 30 -28 15
-51 23 -51 19 0 -5 -4 -3 -8 2 -4 6 -20 17 -37 24 -16 7 -25 16 -18 18 6 2 46
-12 89 -31 42 -20 79 -34 82 -31 3 3 1 15 -5 28 -26 57 -52 148 -41 145 6 -2
25 -44 41 -93z m-9946 53 c-3 -8 -6 -5 -6 6 -1 11 2 17 5 13 3 -3 4 -12 1 -19z
m12063 18 c0 -3 -4 -8 -10 -11 -5 -3 -10 -1 -10 4 0 6 5 11 10 11 6 0 10 -2
10 -4z m2320 0 c0 -3 -4 -8 -10 -11 -5 -3 -10 -1 -10 4 0 6 5 11 10 11 6 0 10
-2 10 -4z m-10225 -86 c-7 -50 -43 -72 -90 -54 -25 10 -37 50 -23 79 15 34 55
46 90 26 23 -14 27 -21 23 -51z m25 66 c0 -3 -4 -8 -10 -11 -5 -3 -10 -1 -10
4 0 6 5 11 10 11 6 0 10 -2 10 -4z m-3513 -38 c-3 -8 -6 -5 -6 6 -1 11 2 17 5
13 3 -3 4 -12 1 -19z m73 -8 c0 -5 -2 -10 -4 -10 -3 0 -8 5 -11 10 -3 6 -1 10
4 10 6 0 11 -4 11 -10z m5641 -23 c-16 -16 -26 0 -10 19 9 11 15 12 17 4 2 -6
-1 -17 -7 -23z m3299 29 c0 -3 -4 -8 -10 -11 -5 -3 -10 -1 -10 4 0 6 5 11 10
11 6 0 10 -2 10 -4z m-2256 -22 c8 -22 8 -24 -8 -24 -18 0 -29 16 -21 30 9 15
22 12 29 -6z m6711 6 c11 -5 15 -9 8 -9 -6 -1 -13 -11 -15 -23 -4 -29 -51 -33
-56 -5 -8 42 17 57 63 37z m-7145 -10 c0 -5 -5 -10 -11 -10 -5 0 -7 5 -4 10 3
6 8 10 11 10 2 0 4 -4 4 -10z m3845 -10 c3 -6 -1 -7 -9 -4 -18 7 -21 14 -7 14
6 0 13 -4 16 -10z m-2515 -9 c0 -17 -18 -21 -24 -6 -3 9 0 15 9 15 8 0 15 -4
15 -9z m1980 0 c0 -6 -4 -13 -10 -16 -5 -3 -10 1 -10 9 0 9 5 16 10 16 6 0 10
-4 10 -9z m3728 -34 c4 -18 -36 -48 -119 -87 -68 -32 -98 -36 -130 -20 -24 14
-25 61 -1 88 18 21 108 52 129 45 7 -3 20 0 29 5 21 12 88 -11 92 -31z m-5781
11 c-3 -8 -6 -5 -6 6 -1 11 2 17 5 13 3 -3 4 -12 1 -19z m703 18 c0 -3 -4 -8
-10 -11 -5 -3 -10 -1 -10 4 0 6 5 11 10 11 6 0 10 -2 10 -4z m-7375 -41 c28
-27 30 -37 15 -65 -35 -66 -123 -28 -108 46 3 17 41 43 61 44 4 0 19 -11 32
-25z m8600 -5 c3 -5 1 -10 -4 -10 -6 0 -11 5 -11 10 0 6 2 10 4 10 3 0 8 -4
11 -10z m1145 0 c0 -5 -2 -10 -4 -10 -3 0 -8 5 -11 10 -3 6 -1 10 4 10 6 0 11
-4 11 -10z m-3340 -50 c0 -5 -4 -10 -10 -10 -5 0 -10 5 -10 10 0 6 5 10 10 10
6 0 10 -4 10 -10z m6560 -23 c1 -39 38 -106 89 -160 61 -65 68 -90 31 -127
-31 -31 -75 -26 -113 13 -18 18 -34 41 -36 52 -8 48 -6 240 3 247 15 10 26 0
26 -25z m-9910 -1 c0 -3 -4 -8 -10 -11 -5 -3 -10 -1 -10 4 0 6 5 11 10 11 6 0
10 -2 10 -4z m1140 -26 c0 -5 -5 -10 -11 -10 -5 0 -7 5 -4 10 3 6 8 10 11 10
2 0 4 -4 4 -10z m7366 -85 c16 -47 31 -85 34 -85 3 0 24 36 45 80 21 44 43 80
47 80 12 0 11 -5 -32 -90 -22 -44 -40 -82 -40 -84 0 -3 39 8 87 25 91 30 114
35 98 20 -6 -5 -47 -21 -92 -36 -46 -14 -83 -28 -83 -31 0 -2 39 -24 88 -48
48 -25 79 -45 69 -45 -10 -1 -49 15 -88 35 -39 19 -73 33 -75 31 -3 -2 9 -43
25 -90 16 -48 26 -89 21 -92 -5 -3 -23 39 -41 92 l-32 98 -38 -79 c-21 -43
-40 -83 -42 -90 -2 -6 -7 -8 -11 -5 -4 3 10 41 30 83 20 43 33 80 31 83 -3 3
-42 -7 -87 -22 -84 -28 -121 -28 -55 -1 21 9 43 16 49 17 6 0 31 8 56 19 l45
18 -87 41 c-49 22 -88 45 -88 51 0 10 31 -3 133 -55 26 -14 47 -22 47 -18 0 5
-14 46 -30 92 -31 87 -35 106 -22 97 5 -3 22 -44 38 -91z m-4291 75 c4 -6 -3
-36 -15 -68 -31 -82 -37 -194 -15 -280 22 -82 15 -116 -25 -137 -104 -54 -200
41 -171 168 6 27 9 53 5 58 -3 5 0 9 6 9 6 0 14 8 17 18 19 52 163 242 183
242 5 0 12 -5 15 -10z m1495 0 c0 -5 -4 -10 -10 -10 -5 0 -10 5 -10 10 0 6 5
10 10 10 6 0 10 -4 10 -10z m1540 6 c0 -3 -4 -8 -10 -11 -5 -3 -10 -1 -10 4 0
6 5 11 10 11 6 0 10 -2 10 -4z m-2080 -30 c0 -3 -4 -8 -10 -11 -5 -3 -10 -1
-10 4 0 6 5 11 10 11 6 0 10 -2 10 -4z m-5000 -32 c0 -8 -7 -14 -15 -14 -15 0
-21 21 -9 33 10 9 24 -2 24 -19z m3630 16 c0 -5 -2 -10 -4 -10 -3 0 -8 5 -11
10 -3 6 -1 10 4 10 6 0 11 -4 11 -10z m-2760 -30 c0 -5 -5 -10 -11 -10 -5 0
-7 5 -4 10 3 6 8 10 11 10 2 0 4 -4 4 -10z m-1313 -22 c-3 -8 -6 -5 -6 6 -1
11 2 17 5 13 3 -3 4 -12 1 -19z m3993 2 c0 -5 -2 -10 -4 -10 -3 0 -8 5 -11 10
-3 6 -1 10 4 10 6 0 11 -4 11 -10z m-4480 -15 c0 -8 -4 -15 -10 -15 -5 0 -10
7 -10 15 0 8 5 15 10 15 6 0 10 -7 10 -15z m6630 5 c0 -5 -2 -10 -4 -10 -3 0
-8 5 -11 10 -3 6 -1 10 4 10 6 0 11 -4 11 -10z m-5783 -32 c-3 -8 -6 -5 -6 6
-1 11 2 17 5 13 3 -3 4 -12 1 -19z m2248 2 c3 -5 1 -10 -4 -10 -6 0 -11 5 -11
10 0 6 2 10 4 10 3 0 8 -4 11 -10z m3995 -10 c-8 -5 -19 -10 -25 -10 -5 0 -3
5 5 10 8 5 20 10 25 10 6 0 3 -5 -5 -10z m-3122 -12 c17 -17 15 -55 -4 -62
-29 -11 -44 -6 -56 19 -19 41 28 75 60 43z m2965 -13 c-3 -9 -8 -14 -10 -11
-3 3 -2 9 2 15 9 16 15 13 8 -4z m-2218 -5 c3 -5 1 -10 -4 -10 -6 0 -11 5 -11
10 0 6 2 10 4 10 3 0 8 -4 11 -10z m2745 -16 c0 -8 -4 -14 -10 -14 -5 0 -10 9
-10 21 0 11 5 17 10 14 6 -3 10 -13 10 -21z m-10570 -5 c0 -5 -4 -9 -10 -9 -5
0 -10 7 -10 16 0 8 5 12 10 9 6 -3 10 -10 10 -16z m9060 6 c0 -8 -4 -15 -9
-15 -13 0 -22 16 -14 24 11 11 23 6 23 -9z m3590 11 c0 -3 -4 -8 -10 -11 -5
-3 -10 -1 -10 4 0 6 5 11 10 11 6 0 10 -2 10 -4z m-10540 -16 c0 -5 -4 -10
-10 -10 -5 0 -10 5 -10 10 0 6 5 10 10 10 6 0 10 -4 10 -10z m4148 -2 c-6 -18
-28 -21 -28 -4 0 9 7 16 16 16 9 0 14 -5 12 -12z m1432 -9 c0 -18 -2 -19 -15
-9 -8 7 -15 16 -15 21 0 5 7 9 15 9 9 0 15 -9 15 -21z m-1562 -17 c2 -7 -3
-12 -12 -12 -9 0 -16 7 -16 16 0 17 22 14 28 -4z m850 -4 c4 -21 -87 -120
-142 -156 -44 -28 -105 -34 -130 -13 -9 7 -16 28 -16 47 0 45 46 81 147 116
88 30 136 32 141 6z m-1998 2 c0 -5 -4 -10 -10 -10 -5 0 -10 5 -10 10 0 6 5
10 10 10 6 0 10 -4 10 -10z m5241 -53 c-1 -12 -15 -9 -19 4 -3 6 1 10 8 8 6
-3 11 -8 11 -12z m-3976 -6 c3 -5 1 -12 -5 -16 -5 -3 -10 1 -10 9 0 18 6 21
15 7z m804 -98 c4 -48 5 -90 2 -93 -3 -3 -11 -14 -17 -25 -6 -11 -22 -22 -35
-24 -13 -1 -27 -8 -31 -15 -5 -6 -8 -2 -8 11 0 12 -4 25 -10 28 -26 16 8 159
47 201 34 37 44 22 52 -83z m1991 103 c0 -3 -4 -8 -10 -11 -5 -3 -10 -1 -10 4
0 6 5 11 10 11 6 0 10 -2 10 -4z m-3360 -16 c0 -5 -8 -10 -17 -10 -15 0 -16 2
-3 10 19 12 20 12 20 0z m1470 0 c0 -5 -2 -10 -4 -10 -3 0 -8 5 -11 10 -3 6
-1 10 4 10 6 0 11 -4 11 -10z m-3565 -78 c13 -39 26 -80 29 -89 7 -18 6 -21
68 102 17 33 33 54 35 48 3 -7 -14 -47 -37 -88 -23 -42 -40 -78 -38 -81 3 -2
42 10 89 26 93 33 99 34 99 21 0 -8 -17 -16 -55 -26 -54 -14 -125 -40 -125
-45 0 -3 37 -24 82 -45 45 -22 83 -46 86 -53 2 -7 -37 7 -87 32 -50 26 -91 42
-91 38 0 -5 11 -42 25 -82 26 -76 31 -105 17 -96 -5 3 -19 40 -32 83 -12 43
-26 82 -30 87 -8 8 -60 -82 -60 -104 0 -15 -33 -50 -47 -50 -7 0 -13 5 -13 12
0 6 3 8 7 5 5 -6 70 104 87 148 3 9 -25 3 -82 -16 -92 -31 -102 -33 -102 -21
0 4 36 18 79 31 43 13 85 27 92 31 8 5 -17 23 -72 50 -94 47 -95 48 -86 56 3
3 42 -13 86 -37 45 -23 83 -40 86 -37 3 2 -8 44 -25 92 -16 48 -24 86 -19 84
6 -2 21 -36 34 -76z m2835 64 c0 -3 -4 -8 -10 -11 -5 -3 -10 -1 -10 4 0 6 5
11 10 11 6 0 10 -2 10 -4z m3740 -6 c0 -5 -4 -10 -10 -10 -5 0 -10 5 -10 10 0
6 5 10 10 10 6 0 10 -4 10 -10z m2580 6 c0 -3 -4 -8 -10 -11 -5 -3 -10 -1 -10
4 0 6 5 11 10 11 6 0 10 -2 10 -4z m-8893 -28 c-3 -8 -6 -5 -6 6 -1 11 2 17 5
13 3 -3 4 -12 1 -19z m1493 8 c0 -8 -4 -17 -9 -21 -12 -7 -24 12 -16 25 9 15
25 12 25 -4z m520 -1 c0 -8 -4 -15 -9 -15 -13 0 -22 16 -14 24 11 11 23 6 23
-9z m-445 -4 c3 -5 1 -12 -4 -15 -5 -3 -11 1 -15 9 -6 16 9 21 19 6z m4319 -7
c34 -33 10 -104 -35 -104 -10 0 -19 -5 -19 -11 0 -19 -41 39 -49 69 -7 22 -3
30 18 44 32 22 65 23 85 2z m-3596 -19 c-3 -3 -9 2 -12 12 -6 14 -5 15 5 6 7
-7 10 -15 7 -18z m5712 1 c0 -3 -4 -8 -10 -11 -5 -3 -10 -1 -10 4 0 6 5 11 10
11 6 0 10 -2 10 -4z m-11900 -35 c36 -24 -21 -196 -65 -196 -18 0 -20 6 -18
78 2 107 32 149 83 118z m4400 -1 c0 -5 -5 -10 -11 -10 -5 0 -7 5 -4 10 3 6 8
10 11 10 2 0 4 -4 4 -10z m4270 0 c0 -5 -5 -10 -11 -10 -5 0 -7 5 -4 10 3 6 8
10 11 10 2 0 4 -4 4 -10z m307 -12 c-3 -8 -6 -5 -6 6 -1 11 2 17 5 13 3 -3 4
-12 1 -19z m263 6 c0 -8 -4 -12 -10 -9 -5 3 -10 10 -10 16 0 5 5 9 10 9 6 0
10 -7 10 -16z m-2010 -4 c0 -5 -4 -10 -10 -10 -5 0 -10 5 -10 10 0 6 5 10 10
10 6 0 10 -4 10 -10z m1623 -4 c15 -12 15 -14 3 -19 -9 -4 -18 -2 -21 4 -4 5
-11 7 -16 4 -10 -7 -12 8 -2 18 9 10 15 8 36 -7z m-626 -22 c-9 -9 -28 6 -21
18 4 6 10 6 17 -1 6 -6 8 -13 4 -17z m-2547 -4 c0 -5 -4 -10 -10 -10 -5 0 -10
5 -10 10 0 6 5 10 10 10 6 0 10 -4 10 -10z m50 -20 c0 -5 -4 -10 -10 -10 -5 0
-10 5 -10 10 0 6 5 10 10 10 6 0 10 -4 10 -10z m1154 -11 c-3 -5 -10 -7 -15
-3 -5 3 -7 10 -3 15 3 5 10 7 15 3 5 -3 7 -10 3 -15z m2366 11 c0 -5 -4 -10
-10 -10 -5 0 -10 5 -10 10 0 6 5 10 10 10 6 0 10 -4 10 -10z m-3280 -20 c0 -5
-5 -10 -11 -10 -5 0 -7 5 -4 10 3 6 8 10 11 10 2 0 4 -4 4 -10z m2270 -4 c0
-3 -4 -8 -10 -11 -5 -3 -10 -1 -10 4 0 6 5 11 10 11 6 0 10 -2 10 -4z m770 -6
c0 -5 -4 -10 -9 -10 -6 0 -13 5 -16 10 -3 6 1 10 9 10 9 0 16 -4 16 -10z
m-6954 -27 c-10 -10 -19 5 -10 18 6 11 8 11 12 0 2 -7 1 -15 -2 -18z m3064 17
c0 -5 -5 -10 -11 -10 -5 0 -7 5 -4 10 3 6 8 10 11 10 2 0 4 -4 4 -10z m-4730
-15 c0 -8 -4 -15 -10 -15 -5 0 -10 7 -10 15 0 8 5 15 10 15 6 0 10 -7 10 -15z
m80 -1 c0 -8 -4 -12 -10 -9 -5 3 -10 10 -10 16 0 5 5 9 10 9 6 0 10 -7 10 -16z
m3987 -16 c-3 -8 -6 -5 -6 6 -1 11 2 17 5 13 3 -3 4 -12 1 -19z m-4632 3 c3
-5 1 -12 -5 -16 -5 -3 -10 1 -10 9 0 18 6 21 15 7z m390 -11 c40 -44 -10 -99
-109 -120 -106 -23 -135 -24 -142 -6 -9 23 45 78 111 117 60 34 114 38 140 9z
m4625 10 c0 -5 -4 -10 -10 -10 -5 0 -10 5 -10 10 0 6 5 10 10 10 6 0 10 -4 10
-10z m190 0 c0 -5 -5 -10 -11 -10 -5 0 -7 5 -4 10 3 6 8 10 11 10 2 0 4 -4 4
-10z m240 6 c0 -3 -4 -8 -10 -11 -5 -3 -10 -1 -10 4 0 6 5 11 10 11 6 0 10 -2
10 -4z m3555 -5 c3 -5 1 -12 -5 -16 -5 -3 -10 1 -10 9 0 18 6 21 15 7z m509
-7 c3 -8 2 -12 -4 -9 -6 3 -10 10 -10 16 0 14 7 11 14 -7z m-3304 -4 c0 -5 -2
-10 -4 -10 -3 0 -8 5 -11 10 -3 6 -1 10 4 10 6 0 11 -4 11 -10z m495 -8 c0
-18 -20 -15 -23 4 -3 10 1 15 10 12 7 -3 13 -10 13 -16z m3670 -2 c3 -5 1 -10
-4 -10 -6 0 -11 5 -11 10 0 6 2 10 4 10 3 0 8 -4 11 -10z m-9375 -10 c0 -5 -4
-10 -10 -10 -5 0 -10 5 -10 10 0 6 5 10 10 10 6 0 10 -4 10 -10z m3500 -9 c0
-6 -4 -13 -10 -16 -5 -3 -10 1 -10 9 0 9 5 16 10 16 6 0 10 -4 10 -9z m4890
-1 c0 -5 -2 -10 -4 -10 -3 0 -8 5 -11 10 -3 6 -1 10 4 10 6 0 11 -4 11 -10z
m-3670 -10 c0 -5 -4 -10 -10 -10 -5 0 -10 5 -10 10 0 6 5 10 10 10 6 0 10 -4
10 -10z m450 -8 c0 -13 -12 -22 -22 -16 -10 6 -1 24 13 24 5 0 9 -4 9 -8z
m-6203 -24 c-3 -8 -6 -5 -6 6 -1 11 2 17 5 13 3 -3 4 -12 1 -19z m8384 7 c11
6 11 5 2 -5 -12 -14 -33 -6 -33 13 0 8 3 7 9 -2 5 -8 14 -10 22 -6z m689 5 c0
-5 -4 -10 -10 -10 -5 0 -10 5 -10 10 0 6 5 10 10 10 6 0 10 -4 10 -10z m-1580
-10 c0 -5 -5 -10 -11 -10 -5 0 -7 5 -4 10 3 6 8 10 11 10 2 0 4 -4 4 -10z
m1070 0 c0 -5 -4 -10 -10 -10 -5 0 -10 5 -10 10 0 6 5 10 10 10 6 0 10 -4 10
-10z m-3933 -22 c-3 -8 -6 -5 -6 6 -1 11 2 17 5 13 3 -3 4 -12 1 -19z m7883
18 c0 -3 -4 -8 -10 -11 -5 -3 -10 -1 -10 4 0 6 5 11 10 11 6 0 10 -2 10 -4z
m-7070 -16 c0 -5 -4 -10 -10 -10 -5 0 -10 5 -10 10 0 6 5 10 10 10 6 0 10 -4
10 -10z m1147 -12 c-3 -8 -6 -5 -6 6 -1 11 2 17 5 13 3 -3 4 -12 1 -19z
m-1227 8 c0 -3 -4 -8 -10 -11 -5 -3 -10 -1 -10 4 0 6 5 11 10 11 6 0 10 -2 10
-4z m-576 -21 c-4 -8 -8 -15 -10 -15 -2 0 -4 7 -4 15 0 8 4 15 10 15 5 0 7 -7
4 -15z m854 -10 c-3 -3 -9 2 -12 12 -6 14 -5 15 5 6 7 -7 10 -15 7 -18z m2912
10 c0 -7 -11 -17 -25 -23 -20 -9 -25 -9 -25 1 0 7 5 18 10 23 14 14 40 13 40
-1z m180 5 c0 -5 -4 -10 -10 -10 -5 0 -10 5 -10 10 0 6 5 10 10 10 6 0 10 -4
10 -10z m324 1 c3 -5 -1 -11 -9 -15 -9 -3 -15 0 -15 9 0 16 16 20 24 6z
m-8929 -36 c0 -35 -31 -47 -51 -20 -18 25 0 57 29 53 17 -2 22 -10 22 -33z
m6637 13 c-7 -7 -12 -8 -12 -2 0 14 12 26 19 19 2 -3 -1 -11 -7 -17z m338 8
c0 -8 -5 -18 -10 -21 -17 -11 -40 3 -34 20 8 19 44 20 44 1z m48 -9 c2 -12 -1
-15 -12 -11 -19 7 -22 38 -3 32 6 -3 13 -12 15 -21z m2552 13 c0 -5 -4 -10
-10 -10 -5 0 -10 5 -10 10 0 6 5 10 10 10 6 0 10 -4 10 -10z m930 -4 c0 -3 -4
-8 -10 -11 -5 -3 -10 -1 -10 4 0 6 5 11 10 11 6 0 10 -2 10 -4z m1260 -21 c0
-8 -4 -15 -10 -15 -5 0 -10 7 -10 15 0 8 5 15 10 15 6 0 10 -7 10 -15z m-5254
-22 c-10 -10 -19 5 -10 18 6 11 8 11 12 0 2 -7 1 -15 -2 -18z m2064 17 c0 -5
-4 -10 -9 -10 -6 0 -13 5 -16 10 -3 6 1 10 9 10 9 0 16 -4 16 -10z m-3160 -21
c0 -11 -4 -17 -10 -14 -5 3 -10 13 -10 21 0 8 5 14 10 14 6 0 10 -9 10 -21z
m550 17 c0 -3 -4 -8 -10 -11 -5 -3 -10 -1 -10 4 0 6 5 11 10 11 6 0 10 -2 10
-4z m2210 -11 c0 -8 -4 -15 -10 -15 -5 0 -10 7 -10 15 0 8 5 15 10 15 6 0 10
-7 10 -15z m530 5 c0 -5 -2 -10 -4 -10 -3 0 -8 5 -11 10 -3 6 -1 10 4 10 6 0
11 -4 11 -10z m4685 -10 c23 -25 23 -70 -1 -87 -59 -43 -128 24 -83 80 24 32
59 35 84 7z m-4485 0 c0 -5 -4 -10 -10 -10 -5 0 -10 5 -10 10 0 6 5 10 10 10
6 0 10 -4 10 -10z m-3960 -15 c0 -8 -4 -15 -10 -15 -5 0 -10 7 -10 15 0 8 5
15 10 15 6 0 10 -7 10 -15z m1800 0 c0 -8 -4 -15 -10 -15 -5 0 -10 7 -10 15 0
8 5 15 10 15 6 0 10 -7 10 -15z m2630 5 c0 -5 -4 -10 -10 -10 -5 0 -10 5 -10
10 0 6 5 10 10 10 6 0 10 -4 10 -10z m-2450 -10 c0 -5 -2 -10 -4 -10 -3 0 -8
5 -11 10 -3 6 -1 10 4 10 6 0 11 -4 11 -10z m894 -6 c4 -10 1 -14 -6 -12 -15
5 -23 28 -10 28 5 0 13 -7 16 -16z m-574 -9 c0 -8 -4 -15 -9 -15 -5 0 -14 7
-21 15 -10 13 -9 15 9 15 12 0 21 -6 21 -15z m-2360 -9 c0 -3 -4 -8 -10 -11
-5 -3 -10 -1 -10 4 0 6 5 11 10 11 6 0 10 -2 10 -4z m-2393 -28 c-3 -8 -6 -5
-6 6 -1 11 2 17 5 13 3 -3 4 -12 1 -19z m3638 -88 c10 -49 19 -90 21 -90 2 0
26 36 55 80 28 44 55 78 60 74 5 -3 -1 -18 -12 -34 -13 -16 -18 -33 -14 -41 5
-7 4 -10 -2 -6 -10 7 -69 -71 -60 -79 2 -3 43 4 91 14 48 10 89 15 92 11 3 -5
-8 -11 -23 -15 -15 -3 -59 -14 -97 -23 l-69 -17 82 -49 c70 -44 96 -65 75 -65
-9 0 -96 52 -131 78 l-32 23 5 -38 c3 -21 11 -63 19 -93 8 -31 11 -58 6 -63
-5 -5 -19 34 -31 88 -12 53 -25 93 -30 88 -4 -4 -29 -42 -55 -83 -27 -41 -50
-70 -52 -63 -3 7 9 32 24 55 16 24 39 59 51 79 l22 36 -82 -19 c-45 -10 -92
-17 -103 -15 -28 5 -10 11 95 35 l85 19 -82 53 c-46 29 -80 56 -77 61 4 8 65
-26 139 -77 11 -8 22 -14 26 -14 3 0 -2 37 -12 83 -21 93 -23 110 -10 103 5
-3 16 -46 26 -96z m505 90 c0 -5 -4 -10 -10 -10 -5 0 -10 5 -10 10 0 6 5 10
10 10 6 0 10 -4 10 -10z m1601 -4 c5 3 9 -2 9 -12 0 -13 -3 -14 -15 -4 -8 7
-15 18 -14 24 0 7 2 6 6 -2 2 -6 9 -10 14 -6z m389 4 c0 -5 -4 -10 -10 -10 -5
0 -10 5 -10 10 0 6 5 10 10 10 6 0 10 -4 10 -10z m-60 -8 c0 -5 -7 -17 -15
-28 -15 -19 -20 -8 -9 20 6 17 24 22 24 8z m-6913 -24 c-3 -8 -6 -5 -6 6 -1
11 2 17 5 13 3 -3 4 -12 1 -19z m2316 2 c-5 -19 -23 -29 -23 -12 0 7 20 32 26
32 1 0 0 -9 -3 -20z m617 5 c0 -8 -4 -15 -9 -15 -13 0 -22 16 -14 24 11 11 23
6 23 -9z m2533 1 c4 -10 1 -13 -9 -9 -10 3 -14 -2 -14 -18 -1 -21 -2 -22 -11
-7 -7 13 -6 22 3 33 17 18 24 19 31 1z m-4573 -6 c0 -5 -2 -10 -4 -10 -3 0 -8
5 -11 10 -3 6 -1 10 4 10 6 0 11 -4 11 -10z m277 -12 c-3 -8 -6 -5 -6 6 -1 11
2 17 5 13 3 -3 4 -12 1 -19z m9048 -8 c9 -29 -16 -73 -47 -84 -34 -12 -36 -10
-42 38 -6 47 9 65 51 66 23 0 33 -5 38 -20z m-10535 0 c0 -5 -4 -10 -10 -10
-5 0 -10 5 -10 10 0 6 5 10 10 10 6 0 10 -4 10 -10z m2120 -5 c0 -8 -4 -15
-10 -15 -5 0 -10 7 -10 15 0 8 5 15 10 15 6 0 10 -7 10 -15z m4994 0 c-4 -8
-8 -15 -10 -15 -2 0 -4 7 -4 15 0 8 4 15 10 15 5 0 7 -7 4 -15z m1570 -1 c3
-8 2 -12 -4 -9 -6 3 -10 10 -10 16 0 14 7 11 14 -7z m-1508 -18 c2 -13 1 -13
-3 -1 -2 8 -9 13 -14 10 -5 -4 -9 -1 -9 5 0 18 25 5 26 -14z m80 -5 c-2 -14
-5 -28 -5 -31 -1 -2 -8 6 -17 18 -17 24 -13 39 11 39 11 0 14 -8 11 -26z
m-416 4 c0 -8 -4 -15 -10 -15 -5 0 -10 7 -10 15 0 8 5 15 10 15 6 0 10 -7 10
-15z m-3460 -4 c0 -5 -7 -11 -14 -14 -10 -4 -13 -1 -9 9 6 15 23 19 23 5z
m837 -13 c-3 -8 -6 -5 -6 6 -1 11 2 17 5 13 3 -3 4 -12 1 -19z m2693 18 c0 -3
-4 -8 -10 -11 -5 -3 -10 -1 -10 4 0 6 5 11 10 11 6 0 10 -2 10 -4z m1710 -6
c0 -5 -4 -10 -10 -10 -5 0 -10 5 -10 10 0 6 5 10 10 10 6 0 10 -4 10 -10z
m-4253 -22 c-3 -8 -6 -5 -6 6 -1 11 2 17 5 13 3 -3 4 -12 1 -19z m2773 12 c0
-5 -2 -10 -4 -10 -3 0 -8 5 -11 10 -3 6 -1 10 4 10 6 0 11 -4 11 -10z m-100
-16 c0 -8 -4 -12 -10 -9 -5 3 -10 10 -10 16 0 5 5 9 10 9 6 0 10 -7 10 -16z
m1770 0 c0 -17 -22 -14 -28 4 -2 7 3 12 12 12 9 0 16 -7 16 -16z m-7863 -16
c-3 -8 -6 -5 -6 6 -1 11 2 17 5 13 3 -3 4 -12 1 -19z m3463 -9 c0 -5 -4 -9
-10 -9 -5 0 -10 7 -10 16 0 8 5 12 10 9 6 -3 10 -10 10 -16z m3530 11 c0 -5
-2 -10 -4 -10 -3 0 -8 5 -11 10 -3 6 -1 10 4 10 6 0 11 -4 11 -10z m-7503 -22
c-3 -8 -6 -5 -6 6 -1 11 2 17 5 13 3 -3 4 -12 1 -19z m6433 6 c0 -14 -3 -14
-15 -4 -8 7 -15 14 -15 16 0 2 7 4 15 4 8 0 15 -7 15 -16z m-1750 -20 c0 -17
-22 -14 -28 4 -2 7 3 12 12 12 9 0 16 -7 16 -16z m4390 12 c0 -3 -4 -8 -10
-11 -5 -3 -10 -1 -10 4 0 6 5 11 10 11 6 0 10 -2 10 -4z m-5466 -47 c-4 -6
-11 -6 -20 2 -21 17 -17 31 6 19 11 -6 18 -15 14 -21z m2746 16 c0 -8 -4 -15
-10 -15 -5 0 -10 7 -10 15 0 8 5 15 10 15 6 0 10 -7 10 -15z m-2173 -17 c-3
-8 -6 -5 -6 6 -1 11 2 17 5 13 3 -3 4 -12 1 -19z m2256 -6 c-6 -24 -23 -30
-23 -9 0 13 21 39 26 34 2 -2 1 -13 -3 -25z m296 -9 c0 -25 -1 -26 -9 -8 -12
27 -12 35 0 35 6 0 10 -12 9 -27z m1445 14 c39 -29 10 -107 -40 -107 -22 0
-64 42 -64 64 0 45 65 72 104 43z m1909 -34 c7 -39 -35 -73 -60 -48 -21 22
-20 80 2 71 8 -3 14 -2 14 2 -5 33 37 9 44 -25z m-8233 27 c0 -5 -5 -10 -11
-10 -5 0 -7 5 -4 10 3 6 8 10 11 10 2 0 4 -4 4 -10z m-1210 -14 c0 -16 -18
-31 -27 -22 -8 8 5 36 17 36 5 0 10 -6 10 -14z m3060 4 c0 -5 -7 -10 -15 -10
-8 0 -15 5 -15 10 0 6 7 10 15 10 8 0 15 -4 15 -10z m-700 -21 c0 -6 -4 -7
-10 -4 -5 3 -10 11 -10 16 0 6 5 7 10 4 6 -3 10 -11 10 -16z m2238 9 c-6 -18
-28 -21 -28 -4 0 9 7 16 16 16 9 0 14 -5 12 -12z m1047 3 c3 -5 1 -12 -5 -16
-5 -3 -10 1 -10 9 0 18 6 21 15 7z m281 -3 c4 -7 3 -8 -4 -4 -7 4 -12 2 -12
-5 0 -7 -3 -10 -6 -6 -6 5 3 27 11 27 2 0 7 -5 11 -12z m2074 -14 c0 -8 -4
-12 -10 -9 -5 3 -10 10 -10 16 0 5 5 9 10 9 6 0 10 -7 10 -16z m2487 10 c-3
-3 -12 -4 -19 -1 -8 3 -5 6 6 6 11 1 17 -2 13 -5z m-8970 -36 c-3 -7 -5 -2 -5
12 0 14 2 19 5 13 2 -7 2 -19 0 -25z m2963 22 c0 -5 -5 -10 -11 -10 -5 0 -7 5
-4 10 3 6 8 10 11 10 2 0 4 -4 4 -10z m-7097 -80 c63 -69 97 -133 97 -185 0
-38 -37 -75 -75 -75 -54 0 -68 23 -62 99 5 69 -12 157 -38 194 -19 27 -19 37
-1 37 8 0 43 -32 79 -70z m3727 60 c0 -5 -5 -10 -11 -10 -5 0 -7 5 -4 10 3 6
8 10 11 10 2 0 4 -4 4 -10z m2073 -23 c-3 -5 -10 -4 -15 1 -6 6 -7 16 -3 22 6
9 9 9 16 -1 4 -7 5 -17 2 -22z m1762 23 c3 -5 1 -10 -4 -10 -6 0 -11 5 -11 10
0 6 2 10 4 10 3 0 8 -4 11 -10z m1105 -5 c0 -9 -9 -15 -21 -15 -18 0 -19 2 -9
15 7 8 16 15 21 15 5 0 9 -7 9 -15z m-2728 -10 c0 -5 -5 -11 -11 -13 -6 -2
-11 4 -11 13 0 9 5 15 11 13 6 -2 11 -8 11 -13z m118 5 c0 -5 -7 -7 -15 -4 -8
4 -15 8 -15 10 0 2 7 4 15 4 8 0 15 -4 15 -10z m5150 0 c0 -5 -4 -10 -10 -10
-5 0 -10 5 -10 10 0 6 5 10 10 10 6 0 10 -4 10 -10z m-190 -4 c0 -3 -4 -8 -10
-11 -5 -3 -10 -1 -10 4 0 6 5 11 10 11 6 0 10 -2 10 -4z m-6235 -16 c3 -5 1
-10 -4 -10 -6 0 -11 5 -11 10 0 6 2 10 4 10 3 0 8 -4 11 -10z m-1290 -20 c0
-7 -6 -15 -12 -17 -8 -3 -13 4 -13 17 0 13 5 20 13 18 6 -3 12 -11 12 -18z
m1755 16 c0 -3 -4 -8 -10 -11 -5 -3 -10 -1 -10 4 0 6 5 11 10 11 6 0 10 -2 10
-4z m970 0 c0 -3 -4 -8 -10 -11 -5 -3 -10 -1 -10 4 0 6 5 11 10 11 6 0 10 -2
10 -4z m7070 -3 c-1 -5 -16 -46 -34 -93 -19 -47 -33 -86 -31 -88 1 -1 41 16
90 38 95 43 95 44 95 32 0 -8 -30 -24 -118 -62 -49 -22 -56 -37 -21 -44 8 -2
30 -10 50 -19 19 -9 47 -19 62 -22 27 -7 47 -25 28 -25 -5 0 -47 14 -92 30
-45 17 -84 29 -86 26 -7 -7 59 -146 67 -141 5 3 6 -4 3 -15 -3 -11 -7 -20 -10
-20 -2 0 -22 38 -43 85 -21 47 -41 85 -43 85 -3 0 -19 -40 -37 -90 -18 -49
-36 -87 -40 -85 -5 3 7 44 26 92 18 48 32 88 30 90 -2 2 -42 -14 -89 -36 -48
-22 -89 -36 -91 -32 -3 4 35 25 83 47 49 21 87 42 85 45 -2 3 -38 19 -81 34
-43 15 -82 32 -87 36 -19 17 19 8 94 -21 41 -17 78 -30 82 -30 4 0 -11 39 -32
86 -44 94 -44 94 -32 94 5 0 23 -35 42 -77 18 -43 36 -82 41 -86 6 -8 69 139
69 163 0 5 5 10 10 10 6 0 10 -3 10 -7z m-9020 -28 c20 -21 22 -30 14 -52 -5
-15 -23 -34 -39 -43 -16 -8 -35 -22 -42 -30 -10 -13 -12 -11 -13 12 0 15 -4
30 -10 33 -20 12 -11 73 12 89 31 22 51 20 78 -9z m1227 3 c-3 -8 -6 -5 -6 6
-1 11 2 17 5 13 3 -3 4 -12 1 -19z m-1727 -8 c0 -5 -5 -10 -11 -10 -5 0 -7 5
-4 10 3 6 8 10 11 10 2 0 4 -4 4 -10z m1710 -11 c0 -5 -7 -9 -15 -9 -15 0 -20
12 -9 23 8 8 24 -1 24 -14z m110 11 c0 -5 -4 -10 -10 -10 -5 0 -10 5 -10 10 0
6 5 10 10 10 6 0 10 -4 10 -10z m2881 -3 c-1 -12 -15 -9 -19 4 -3 6 1 10 8 8
6 -3 11 -8 11 -12z m1626 7 c-3 -3 -12 -4 -19 -1 -8 3 -5 6 6 6 11 1 17 -2 13
-5z m-4217 -13 c0 -17 -18 -21 -24 -6 -3 9 0 15 9 15 8 0 15 -4 15 -9z m160
-6 c0 -8 -4 -15 -9 -15 -13 0 -22 16 -14 24 11 11 23 6 23 -9z m780 0 c0 -8
-7 -15 -15 -15 -8 0 -15 7 -15 15 0 8 7 15 15 15 8 0 15 -7 15 -15z m1720 5
c0 -5 -4 -10 -10 -10 -5 0 -10 5 -10 10 0 6 5 10 10 10 6 0 10 -4 10 -10z
m-1830 -10 c0 -5 -4 -10 -10 -10 -5 0 -10 5 -10 10 0 6 5 10 10 10 6 0 10 -4
10 -10z m360 0 c0 -5 -2 -10 -4 -10 -3 0 -8 5 -11 10 -3 6 -1 10 4 10 6 0 11
-4 11 -10z m4974 4 c21 -8 21 -67 0 -85 -34 -28 -73 41 -43 77 13 16 20 17 43
8z m-8444 -8 c0 -3 -4 -8 -10 -11 -5 -3 -10 -1 -10 4 0 6 5 11 10 11 6 0 10
-2 10 -4z m1236 -23 c-10 -10 -19 5 -10 18 6 11 8 11 12 0 2 -7 1 -15 -2 -18z
m2474 7 c0 -5 -2 -10 -4 -10 -3 0 -8 5 -11 10 -3 6 -1 10 4 10 6 0 11 -4 11
-10z m-2334 -27 c-10 -10 -19 5 -10 18 6 11 8 11 12 0 2 -7 1 -15 -2 -18z
m1310 -21 c-4 -3 -11 -1 -18 6 -8 8 -8 15 3 28 13 16 14 16 17 -5 2 -13 1 -25
-2 -29z m4114 34 c0 -3 -4 -8 -10 -11 -5 -3 -10 -1 -10 4 0 6 5 11 10 11 6 0
10 -2 10 -4z m-6610 -32 c0 -8 -7 -14 -15 -14 -17 0 -18 2 -9 24 7 18 24 12
24 -10z m2660 16 c0 -5 -4 -10 -10 -10 -5 0 -10 5 -10 10 0 6 5 10 10 10 6 0
10 -4 10 -10z m6188 -6 c26 -18 30 -65 6 -88 -23 -24 -70 -20 -88 6 -21 30
-20 54 4 78 24 24 48 25 78 4z m-12498 -20 c0 -8 -4 -12 -10 -9 -5 3 -10 10
-10 16 0 5 5 9 10 9 6 0 10 -7 10 -16z m6832 -1 c24 -21 23 -65 -1 -87 -15
-14 -29 -16 -58 -12 -35 6 -38 10 -40 41 -5 62 56 97 99 58z m-1637 -11 c0
-18 -20 -15 -23 4 -3 10 1 15 10 12 7 -3 13 -10 13 -16z m3000 -7 c0 -11 -7
-21 -16 -23 -18 -3 -33 23 -23 39 10 17 39 5 39 -16z m315 15 c0 -5 -4 -10
-10 -10 -5 0 -10 5 -10 10 0 6 5 10 10 10 6 0 10 -4 10 -10z m-3500 -20 c0 -5
-4 -10 -10 -10 -5 0 -10 5 -10 10 0 6 5 10 10 10 6 0 10 -4 10 -10z m970 -5
c0 -8 -4 -15 -10 -15 -5 0 -10 7 -10 15 0 8 5 15 10 15 6 0 10 -7 10 -15z
m-3175 -19 c40 -60 -34 -127 -87 -79 -22 20 -24 66 -2 87 24 25 71 20 89 -8z
m3213 -16 c0 -16 -1 -30 -4 -30 -9 0 -24 52 -18 61 10 16 21 1 22 -31z m222
25 c0 -8 -4 -15 -10 -15 -5 0 -10 7 -10 15 0 8 5 15 10 15 6 0 10 -7 10 -15z
m1125 -5 c3 -5 1 -10 -4 -10 -6 0 -11 5 -11 10 0 6 2 10 4 10 3 0 8 -4 11 -10z
m4653 -6 c7 -2 12 -12 11 -21 -2 -10 2 -28 9 -40 10 -19 9 -24 -10 -37 -12 -8
-25 -13 -30 -10 -4 3 -8 0 -8 -5 0 -6 -4 -11 -10 -11 -5 0 -10 6 -10 14 0 8
-7 13 -17 10 -51 -10 -103 -10 -103 0 0 6 -4 5 -9 -3 -5 -8 -25 -14 -46 -14
-42 0 -55 14 -55 59 0 40 16 53 62 50 20 0 34 2 32 6 -2 3 21 7 52 7 31 0 58
2 61 5 5 5 38 1 71 -10z m-3811 -26 c-3 -7 -5 -2 -5 12 0 14 2 19 5 13 2 -7 2
-19 0 -25z m-7347 13 c0 -6 -4 -13 -10 -16 -5 -3 -10 1 -10 9 0 9 5 16 10 16
6 0 10 -4 10 -9z m4770 -12 c0 -5 -4 -9 -10 -9 -5 0 -10 7 -10 16 0 8 5 12 10
9 6 -3 10 -10 10 -16z m-750 -10 c0 -5 -7 -9 -15 -9 -15 0 -20 12 -9 23 8 8
24 -1 24 -14z m-1334 -16 c-10 -10 -19 5 -10 18 6 11 8 11 12 0 2 -7 1 -15 -2
-18z m162 1 c2 -11 -3 -26 -11 -32 -18 -16 -50 17 -41 42 9 24 48 16 52 -10z
m1662 7 c0 -6 -4 -13 -10 -16 -5 -3 -10 1 -10 9 0 9 5 16 10 16 6 0 10 -4 10
-9z m5036 -17 c-4 -9 -9 -15 -11 -12 -3 3 -3 13 1 22 4 9 9 15 11 12 3 -3 3
-13 -1 -22z m-6606 1 c0 -8 -4 -15 -10 -15 -5 0 -10 7 -10 15 0 8 5 15 10 15
6 0 10 -7 10 -15z m6390 -11 c0 -16 -16 -19 -25 -4 -3 6 -1 10 5 10 6 0 8 5 4
12 -4 7 -3 8 4 4 7 -4 12 -14 12 -22z m-8824 -11 c-10 -10 -19 5 -10 18 6 11
8 11 12 0 2 -7 1 -15 -2 -18z m3404 8 c0 -6 -4 -13 -10 -16 -5 -3 -10 1 -10 9
0 9 5 16 10 16 6 0 10 -4 10 -9z m410 -11 c0 -4 -6 -10 -14 -13 -10 -4 -12 0
-9 14 5 18 23 18 23 -1z m1770 -1 c0 -5 -7 -9 -15 -9 -15 0 -20 12 -9 23 8 8
24 -1 24 -14z m-3040 -4 c0 -8 -4 -15 -10 -15 -5 0 -10 7 -10 15 0 8 5 15 10
15 6 0 10 -7 10 -15z m1617 -7 c-3 -8 -6 -5 -6 6 -1 11 2 17 5 13 3 -3 4 -12
1 -19z m-3380 -10 c-3 -8 -6 -5 -6 6 -1 11 2 17 5 13 3 -3 4 -12 1 -19z m1933
12 c0 -5 -4 -10 -10 -10 -5 0 -10 5 -10 10 0 6 5 10 10 10 6 0 10 -4 10 -10z
m1360 -10 c0 -5 -4 -10 -10 -10 -5 0 -10 5 -10 10 0 6 5 10 10 10 6 0 10 -4
10 -10z m2090 -6 c0 -8 -4 -12 -10 -9 -5 3 -10 10 -10 16 0 5 5 9 10 9 6 0 10
-7 10 -16z m217 -6 c-3 -8 -6 -5 -6 6 -1 11 2 17 5 13 3 -3 4 -12 1 -19z m373
6 c0 -8 -5 -12 -10 -9 -6 4 -8 11 -5 16 9 14 15 11 15 -7z m-3379 -17 c-13
-13 -26 -3 -16 12 3 6 11 8 17 5 6 -4 6 -10 -1 -17z m375 1 c1 -12 -4 -18 -16
-18 -18 0 -34 23 -22 34 11 12 35 1 38 -16z m1674 12 c0 -5 -4 -10 -10 -10 -5
0 -10 5 -10 10 0 6 5 10 10 10 6 0 10 -4 10 -10z m880 -10 c0 -5 -5 -10 -11
-10 -5 0 -7 5 -4 10 3 6 8 10 11 10 2 0 4 -4 4 -10z m-1220 -10 c0 -5 -4 -10
-10 -10 -5 0 -10 5 -10 10 0 6 5 10 10 10 6 0 10 -4 10 -10z m710 -16 c0 -8
-4 -12 -10 -9 -5 3 -10 10 -10 16 0 5 5 9 10 9 6 0 10 -7 10 -16z m370 -24 c0
-23 -25 -27 -33 -6 -7 16 1 26 20 26 7 0 13 -9 13 -20z m85 -19 c3 -7 3 -16 0
-19 -7 -7 -45 34 -45 48 0 14 38 -10 45 -29z m4398 19 c7 0 29 -36 50 -80 20
-44 42 -80 47 -80 6 0 23 -12 39 -26 32 -28 84 -59 181 -106 36 -17 67 -34 70
-38 3 -4 16 -11 30 -15 14 -4 37 -16 52 -26 14 -11 31 -19 38 -19 39 0 214
-180 255 -261 15 -30 32 -56 36 -57 5 -2 6 -8 3 -13 -3 -6 -1 -16 5 -23 21
-25 50 -131 61 -221 14 -116 -1 -243 -40 -329 -31 -68 -102 -155 -170 -207
-25 -18 -47 -36 -50 -39 -12 -13 -198 -100 -220 -104 -18 -3 -136 -39 -239
-73 -41 -13 -86 -33 -101 -43 -15 -11 -31 -16 -35 -12 -5 4 -5 2 -2 -4 4 -6
-2 -19 -13 -29 -11 -10 -20 -22 -20 -27 0 -5 -14 -24 -32 -43 -46 -51 -74 -47
-129 16 -52 60 -120 112 -174 132 -22 8 -49 18 -60 23 -11 4 -24 8 -30 9 -5 2
-37 12 -71 23 -33 12 -71 23 -85 25 -25 5 -132 50 -159 67 -8 6 -35 20 -59 32
-24 12 -77 54 -117 94 -59 58 -82 90 -115 160 -29 62 -40 96 -37 120 2 18 0
30 -4 28 -4 -3 -8 11 -8 32 0 31 2 35 15 24 8 -7 13 -16 10 -20 -3 -5 -1 -11
4 -14 22 -14 19 13 -4 38 -21 23 -25 37 -25 92 0 36 7 91 16 122 23 86 24 88
32 76 4 -6 18 -15 32 -19 l25 -7 -28 24 c-15 13 -24 28 -20 32 8 8 9 13 12 41
0 9 13 20 29 26 24 10 25 12 8 18 -17 7 -17 9 7 35 14 15 24 33 21 39 -7 22
194 217 224 217 5 0 21 9 36 21 14 11 30 17 36 14 5 -3 10 -2 10 2 0 5 56 38
126 73 96 49 138 77 181 122 58 58 85 97 77 110 -2 3 0 9 6 13 6 4 8 11 5 16
-4 5 1 9 9 9 9 0 16 4 16 10 0 11 223 19 228 8 2 -5 9 -8 15 -8z m-8526 -12
c-3 -8 -6 -5 -6 6 -1 11 2 17 5 13 3 -3 4 -12 1 -19z m3803 6 c0 -8 -4 -12
-10 -9 -5 3 -10 10 -10 16 0 5 5 9 10 9 6 0 10 -7 10 -16z m-1539 -9 c0 -5 -9
-11 -21 -13 -20 -3 -27 8 -13 22 10 9 34 3 34 -9z m1518 -24 c-16 -5 -33 15
-24 30 6 9 12 7 22 -7 9 -13 10 -20 2 -23z m151 33 c0 -3 -7 -12 -15 -20 -16
-17 -18 -14 -9 10 6 15 24 23 24 10z m380 2 c0 -3 -4 -8 -10 -11 -5 -3 -10 -1
-10 4 0 6 5 11 10 11 6 0 10 -2 10 -4z m-3710 -22 c0 -17 -22 -14 -28 4 -2 7
3 12 12 12 9 0 16 -7 16 -16z m3060 6 c0 -5 -2 -10 -4 -10 -3 0 -8 5 -11 10
-3 6 -1 10 4 10 6 0 11 -4 11 -10z m225 1 c3 -5 1 -12 -5 -16 -5 -3 -10 1 -10
9 0 18 6 21 15 7z m1675 -1 c0 -5 -5 -10 -11 -10 -5 0 -7 5 -4 10 3 6 8 10 11
10 2 0 4 -4 4 -10z m1330 -16 c0 -8 -4 -14 -9 -14 -11 0 -22 26 -14 34 9 9 23
-3 23 -20z m-4850 1 c0 -8 -4 -15 -10 -15 -5 0 -10 7 -10 15 0 8 5 15 10 15 6
0 10 -7 10 -15z m1363 0 c-3 -9 -8 -14 -10 -11 -3 3 -2 9 2 15 9 16 15 13 8
-4z m327 3 c0 -15 -18 -17 -30 -3 -9 11 -8 14 9 12 12 -1 21 -5 21 -9z m-5200
-13 c0 -8 -4 -15 -10 -15 -5 0 -10 7 -10 15 0 8 5 15 10 15 6 0 10 -7 10 -15z
m3260 5 c0 -5 -4 -10 -10 -10 -5 0 -10 5 -10 10 0 6 5 10 10 10 6 0 10 -4 10
-10z m1500 -19 c3 -2 -3 -1 -12 2 -12 4 -18 0 -21 -16 -3 -15 -5 -11 -6 12 -1
34 3 34 39 2z m322 -11 c-18 -17 -25 -19 -42 -8 -11 7 -20 19 -20 27 0 10 4
11 13 3 8 -7 18 -6 31 4 30 22 45 -1 18 -26z m1078 36 c0 -3 -4 -8 -10 -11 -5
-3 -10 -1 -10 4 0 6 5 11 10 11 6 0 10 -2 10 -4z m-30 -10 c0 -3 -4 -8 -10
-11 -5 -3 -10 -1 -10 4 0 6 5 11 10 11 6 0 10 -2 10 -4z m-4220 -21 c0 -21
-30 -31 -40 -14 -11 17 -3 29 21 29 10 0 19 -7 19 -15z m3250 1 c0 -3 -4 -8
-10 -11 -5 -3 -10 -1 -10 4 0 6 5 11 10 11 6 0 10 -2 10 -4z m250 -22 c0 -8
-4 -12 -10 -9 -5 3 -10 13 -10 21 0 8 5 12 10 9 6 -3 10 -13 10 -21z m390 16
c0 -5 -4 -10 -10 -10 -5 0 -10 5 -10 10 0 6 5 10 10 10 6 0 10 -4 10 -10z
m-470 -10 c0 -5 -4 -10 -10 -10 -5 0 -10 5 -10 10 0 6 5 10 10 10 6 0 10 -4
10 -10z m-1490 -10 c0 -5 -2 -10 -4 -10 -3 0 -8 5 -11 10 -3 6 -1 10 4 10 6 0
11 -4 11 -10z m1687 -12 c-3 -8 -6 -5 -6 6 -1 11 2 17 5 13 3 -3 4 -12 1 -19z
m-3017 3 c0 -5 -7 -11 -14 -14 -10 -4 -13 -1 -9 9 6 15 23 19 23 5z m460 0 c0
-5 -7 -11 -15 -15 -9 -3 -15 0 -15 9 0 8 7 15 15 15 8 0 15 -4 15 -9z m1075
-21 c-5 -8 -11 -8 -17 -2 -6 6 -7 16 -3 22 5 8 11 8 17 2 6 -6 7 -16 3 -22z
m255 15 c0 -8 -7 -15 -15 -15 -8 0 -15 7 -15 15 0 8 7 15 15 15 8 0 15 -7 15
-15z m680 0 c0 -8 -4 -15 -10 -15 -5 0 -10 7 -10 15 0 8 5 15 10 15 6 0 10 -7
10 -15z m1607 -17 c-3 -7 -5 -2 -5 12 0 14 2 19 5 13 2 -7 2 -19 0 -25z
m-4848 15 c0 -5 -4 -17 -9 -28 -8 -18 -9 -17 -9 8 -1 15 4 27 9 27 6 0 10 -3
9 -7z m1417 -20 c-10 -10 -19 5 -10 18 6 11 8 11 12 0 2 -7 1 -15 -2 -18z
m2354 19 c0 -4 -9 -8 -20 -9 -11 -1 -20 2 -20 5 0 4 9 8 20 9 11 1 20 -2 20
-5z m-1925 -12 c3 -5 2 -10 -4 -10 -5 0 -13 5 -16 10 -3 6 -2 10 4 10 5 0 13
-4 16 -10z m-4778 -22 c-3 -8 -6 -5 -6 6 -1 11 2 17 5 13 3 -3 4 -12 1 -19z
m5633 12 c0 -5 -7 -10 -16 -10 -8 0 -12 5 -9 10 3 6 10 10 16 10 5 0 9 -4 9
-10z m357 -12 c-3 -8 -6 -5 -6 6 -1 11 2 17 5 13 3 -3 4 -12 1 -19z m123 6 c0
-8 -4 -12 -10 -9 -5 3 -10 10 -10 16 0 5 5 9 10 9 6 0 10 -7 10 -16z m1556
-12 c-22 -5 -30 3 -21 18 5 8 11 7 22 -2 15 -12 14 -13 -1 -16z m31 6 c-3 -8
-6 -5 -6 6 -1 11 2 17 5 13 3 -3 4 -12 1 -19z m-3677 2 c0 -5 -5 -10 -11 -10
-5 0 -7 5 -4 10 3 6 8 10 11 10 2 0 4 -4 4 -10z m1720 -4 c0 -8 -4 -18 -10
-21 -5 -3 -10 -1 -10 4 0 6 -4 11 -10 11 -5 0 -10 -9 -10 -20 0 -25 -17 -27
-22 -2 -2 9 5 22 17 29 28 16 45 15 45 -1z m699 -8 c-9 -16 -14 -19 -17 -9 -2
7 2 17 9 22 20 13 21 11 8 -13z m-4129 -3 c0 -8 -4 -15 -10 -15 -5 0 -10 7
-10 15 0 8 5 15 10 15 6 0 10 -7 10 -15z m1570 5 c0 -5 -4 -10 -10 -10 -5 0
-10 5 -10 10 0 6 5 10 10 10 6 0 10 -4 10 -10z m2376 -26 c-45 -39 -54 -38
-33 3 11 20 23 28 43 30 l29 1 -39 -34z m471 14 c-3 -8 -6 -5 -6 6 -1 11 2 17
5 13 3 -3 4 -12 1 -19z m5378 12 c3 -5 1 -10 -4 -10 -6 0 -11 5 -11 10 0 6 2
10 4 10 3 0 8 -4 11 -10z m-8315 -9 c0 -6 -4 -13 -10 -16 -5 -3 -10 1 -10 9 0
9 5 16 10 16 6 0 10 -4 10 -9z m6030 -1 c0 -5 -2 -10 -4 -10 -3 0 -8 5 -11 10
-3 6 -1 10 4 10 6 0 11 -4 11 -10z m-4347 -20 c-6 -21 -24 -23 -30 -3 -2 6 4
13 14 16 10 3 19 5 20 6 0 0 -1 -8 -4 -19z m706 -20 c17 0 19 -3 10 -13 -7 -7
-31 -13 -53 -12 -38 0 -41 2 -37 25 4 35 23 44 43 20 9 -11 26 -20 37 -20z
m301 19 c0 -6 -4 -7 -10 -4 -5 3 -10 11 -10 16 0 6 5 7 10 4 6 -3 10 -11 10
-16z m450 11 c0 -5 -4 -10 -10 -10 -5 0 -10 5 -10 10 0 6 5 10 10 10 6 0 10
-4 10 -10z m-3490 -15 c0 -8 -4 -15 -10 -15 -5 0 -10 7 -10 15 0 8 5 15 10 15
6 0 10 -7 10 -15z m885 6 c3 -5 1 -12 -5 -16 -5 -3 -10 1 -10 9 0 18 6 21 15
7z m1284 -18 c0 -25 -1 -26 -9 -8 -12 27 -12 35 0 35 6 0 10 -12 9 -27z m429
13 c-7 -8 -15 -12 -17 -11 -5 6 10 25 20 25 5 0 4 -6 -3 -14z m1242 4 c0 -5
-4 -10 -10 -10 -5 0 -10 5 -10 10 0 6 5 10 10 10 6 0 10 -4 10 -10z m-2460
-10 c0 -5 -4 -10 -10 -10 -5 0 -10 5 -10 10 0 6 5 10 10 10 6 0 10 -4 10 -10z
m1057 -4 c-3 -7 -1 -18 5 -24 6 -6 6 -12 -2 -17 -17 -11 -30 15 -19 37 11 21
24 24 16 4z m-6005 -13 c22 -20 24 -66 2 -87 -24 -25 -71 -20 -89 8 -40 60 34
127 87 79z m3368 -9 c0 -8 -4 -14 -10 -14 -5 0 -10 9 -10 21 0 11 5 17 10 14
6 -3 10 -13 10 -21z m950 13 c0 -7 -9 -18 -21 -25 -12 -8 -18 -9 -14 -3 3 7
-2 11 -14 11 -12 0 -21 -6 -21 -14 0 -22 -20 -30 -36 -15 -18 19 -3 41 30 42
14 1 26 4 26 7 0 3 11 7 25 8 14 1 25 -4 25 -11z m600 -8 c0 -5 -7 -9 -15 -9
-15 0 -20 12 -9 23 8 8 24 -1 24 -14z m1847 -1 c-3 -8 -6 -5 -6 6 -1 11 2 17
5 13 3 -3 4 -12 1 -19z m-5747 -3 c0 -8 -4 -15 -10 -15 -5 0 -10 7 -10 15 0 8
5 15 10 15 6 0 10 -7 10 -15z m135 -5 c3 -6 -1 -7 -9 -4 -18 7 -21 14 -7 14 6
0 13 -4 16 -10z m3222 -12 c-3 -8 -6 -5 -6 6 -1 11 2 17 5 13 3 -3 4 -12 1
-19z m1073 6 c0 -8 -5 -12 -10 -9 -6 4 -8 11 -5 16 9 14 15 11 15 -7z m-2030
-4 c0 -5 -7 -10 -16 -10 -8 0 -12 5 -9 10 3 6 10 10 16 10 5 0 9 -4 9 -10z
m1320 -5 c0 -8 -7 -15 -15 -15 -8 0 -15 7 -15 15 0 8 7 15 15 15 8 0 15 -7 15
-15z m961 -28 c-6 -6 -11 -19 -11 -29 0 -11 -5 -15 -15 -12 -17 7 -21 34 -5
34 6 0 10 8 10 18 0 27 12 35 23 16 6 -10 5 -20 -2 -27z m3144 34 c3 -5 1 -12
-5 -16 -5 -3 -10 1 -10 9 0 18 6 21 15 7z m-4505 -11 c0 -5 -5 -10 -11 -10 -5
0 -7 5 -4 10 3 6 8 10 11 10 2 0 4 -4 4 -10z m3822 -12 c-7 -7 -12 -8 -12 -2
0 14 12 26 19 19 2 -3 -1 -11 -7 -17z m-5872 -6 c0 -19 31 -331 56 -562 8 -74
15 -144 16 -155 1 -29 76 -827 113 -1196 5 -51 4 -57 -15 -62 -11 -3 -20 -12
-20 -20 0 -9 -18 -19 -45 -27 -25 -7 -48 -17 -51 -21 -11 -19 -31 -7 -41 23
-6 18 -34 98 -61 178 -62 179 -64 192 -34 205 16 7 21 16 18 30 -3 11 -6 28
-6 37 0 10 -15 24 -35 34 -20 9 -41 26 -47 37 -10 19 -11 19 -24 -11 -13 -31
-19 -34 -96 -47 -43 -7 -39 -17 -42 120 -1 39 -5 81 -10 95 -10 30 -56 81 -66
75 -4 -3 -13 2 -20 10 -7 8 -9 15 -5 15 4 0 3 6 -3 13 -8 10 -7 21 5 43 8 16
18 39 22 51 3 13 10 22 16 22 19 -1 21 36 4 65 -10 16 -16 33 -13 38 7 10 -15
50 -24 44 -11 -7 -30 7 -34 24 -2 8 -13 25 -26 38 -27 28 -23 39 6 23 12 -6
31 -11 43 -11 l23 0 -25 28 c-14 15 -38 48 -53 74 -76 134 -174 236 -275 288
-36 19 -150 41 -198 38 -24 -1 -45 0 -47 3 -3 3 -8 37 -10 76 -3 38 -8 77 -12
86 -5 15 -8 15 -21 2 -15 -16 -52 -21 -54 -7 0 4 -2 15 -4 25 -4 22 33 63 45
50 4 -4 10 -17 13 -28 l5 -20 1 20 c2 44 -13 48 -68 21 -38 -20 -77 -29 -149
-36 -154 -15 -269 -13 -297 6 -20 13 -39 15 -95 9 l-71 -7 6 -29 c6 -27 4 -29
-23 -29 -17 0 -37 -3 -46 -6 -11 -4 -16 0 -16 14 0 11 7 22 15 26 22 8 18 26
-5 26 -16 0 -20 7 -20 33 0 17 -3 41 -6 53 -5 19 0 21 58 27 35 4 194 20 353
37 296 30 386 36 384 23 -4 -26 2 -63 10 -59 5 3 8 20 7 37 -1 16 0 32 4 34 3
2 190 22 415 44 226 22 426 42 445 44 19 2 56 5 83 5 39 2 47 -1 47 -16z
m4590 3 c0 -8 -9 -15 -20 -15 -11 0 -20 5 -20 11 0 6 7 9 15 5 8 -3 15 -1 15
4 0 6 2 10 5 10 3 0 5 -7 5 -15z m305 5 c3 -5 1 -10 -4 -10 -6 0 -11 5 -11 10
0 6 2 10 4 10 3 0 8 -4 11 -10z m-4668 -22 c-3 -8 -6 -5 -6 6 -1 11 2 17 5 13
3 -3 4 -12 1 -19z m2489 -5 c-10 -10 -19 5 -10 18 6 11 8 11 12 0 2 -7 1 -15
-2 -18z m186 5 c-7 -7 -12 -8 -12 -2 0 14 12 26 19 19 2 -3 -1 -11 -7 -17z
m388 12 c0 -5 -7 -10 -16 -10 -8 0 -12 5 -9 10 3 6 10 10 16 10 5 0 9 -4 9
-10z m339 -12 c-9 -17 -13 -18 -20 -7 -13 21 -11 25 11 26 17 2 19 -1 9 -19z
m773 0 c-7 -7 -12 -8 -12 -2 0 14 12 26 19 19 2 -3 -1 -11 -7 -17z m758 18 c0
-3 -4 -8 -10 -11 -5 -3 -10 -1 -10 4 0 6 5 11 10 11 6 0 10 -2 10 -4z m-1180
-16 c0 -5 -2 -10 -4 -10 -3 0 -8 5 -11 10 -3 6 -1 10 4 10 6 0 11 -4 11 -10z
m-2640 -17 c-1 -18 -18 -35 -24 -24 -4 6 -4 16 -1 21 7 12 25 13 25 3z m3724
-9 c3 -8 2 -12 -4 -9 -6 3 -10 10 -10 16 0 14 7 11 14 -7z m-1934 -37 c0 -5
-9 -5 -20 -2 -11 4 -20 2 -20 -4 0 -6 -7 -11 -15 -11 -24 0 -17 17 10 24 18 5
23 11 18 24 -5 14 -3 13 10 -3 9 -11 17 -24 17 -28z m1120 38 c0 -3 -9 -14
-20 -25 -13 -13 -20 -15 -20 -7 0 7 5 18 12 25 12 12 28 16 28 7z m-940 -20
c0 -8 -7 -15 -15 -15 -8 0 -15 7 -15 15 0 8 7 15 15 15 8 0 15 -7 15 -15z
m354 0 c-4 -8 -10 -12 -15 -9 -14 8 -10 24 6 24 9 0 12 -6 9 -15z m-1704 1 c0
-2 -7 -6 -15 -10 -8 -3 -15 -1 -15 4 0 6 7 10 15 10 8 0 15 -2 15 -4z m1040
-21 c0 -8 4 -15 9 -15 5 0 9 -12 9 -27 0 -37 18 -82 37 -89 17 -7 21 -38 4
-32 -6 2 -10 7 -9 12 1 4 -10 17 -24 30 -19 16 -26 31 -26 59 0 21 -5 47 -10
58 -7 13 -7 19 0 19 5 0 10 -7 10 -15z m370 5 c0 -5 -4 -10 -10 -10 -5 0 -10
5 -10 10 0 6 5 10 10 10 6 0 10 -4 10 -10z m520 0 c0 -5 -5 -10 -11 -10 -5 0
-7 5 -4 10 3 6 8 10 11 10 2 0 4 -4 4 -10z m-280 -33 c0 -5 -4 -6 -9 -3 -5 4
-12 0 -15 -6 -4 -10 -2 10 3 42 2 7 21 -23 21 -33z m420 13 c0 -10 -31 -23
-38 -15 -8 7 19 35 29 29 5 -3 9 -9 9 -14z m-3600 -10 c0 -11 -7 -20 -15 -20
-15 0 -21 21 -8 33 12 13 23 7 23 -13z m3653 -1 c-6 -21 -29 -36 -39 -26 -9 9
16 47 30 47 9 0 12 -7 9 -21z m-6346 -11 c-3 -8 -6 -5 -6 6 -1 11 2 17 5 13 3
-3 4 -12 1 -19z m550 0 c-3 -8 -6 -5 -6 6 -1 11 2 17 5 13 3 -3 4 -12 1 -19z
m2686 -10 c-10 -11 -19 -15 -21 -8 -5 15 18 41 30 34 5 -3 1 -15 -9 -26z
m2937 28 c0 -3 -4 -8 -10 -11 -5 -3 -10 -1 -10 4 0 6 5 11 10 11 6 0 10 -2 10
-4z m1268 -20 c3 -12 -1 -17 -10 -14 -7 3 -15 13 -16 22 -3 12 1 17 10 14 7
-3 15 -13 16 -22z m112 10 c0 -8 -4 -18 -10 -21 -5 -3 -10 -4 -10 -1 0 2 -3
11 -6 20 -4 11 -1 16 10 16 9 0 16 -6 16 -14z m-4797 -10 c3 -8 -1 -20 -9 -26
-12 -10 -14 -8 -14 14 0 28 14 35 23 12z m1303 -22 c-5 -13 -10 -14 -18 -6 -6
6 -8 18 -4 28 5 13 10 14 18 6 6 -6 8 -18 4 -28z m124 26 c0 -5 -4 -10 -10
-10 -5 0 -10 5 -10 10 0 6 5 10 10 10 6 0 10 -4 10 -10z m1030 0 c0 -5 -4 -10
-10 -10 -5 0 -10 5 -10 10 0 6 5 10 10 10 6 0 10 -4 10 -10z m717 -22 c-3 -7
-5 -2 -5 12 0 14 2 19 5 13 2 -7 2 -19 0 -25z m-2457 12 c0 -5 -2 -10 -4 -10
-3 0 -8 5 -11 10 -3 6 -1 10 4 10 6 0 11 -4 11 -10z m1540 0 c0 -5 -4 -10 -10
-10 -5 0 -10 5 -10 10 0 6 5 10 10 10 6 0 10 -4 10 -10z m1510 0 c0 -5 -4 -10
-10 -10 -5 0 -10 5 -10 10 0 6 5 10 10 10 6 0 10 -4 10 -10z m-410 -26 c0 -8
-7 -14 -15 -14 -8 0 -15 -5 -15 -12 0 -6 -2 -9 -5 -6 -3 3 -1 17 5 32 10 27
30 27 30 0z m570 16 c0 -5 -5 -10 -11 -10 -5 0 -7 5 -4 10 3 6 8 10 11 10 2 0
4 -4 4 -10z m-4240 -10 c0 -5 -5 -10 -11 -10 -5 0 -7 5 -4 10 3 6 8 10 11 10
2 0 4 -4 4 -10z m2900 0 c10 15 30 4 30 -16 0 -11 -6 -13 -21 -9 -19 6 -20 5
-9 -15 6 -11 9 -26 6 -33 -2 -7 -5 -4 -5 6 -1 9 -5 17 -10 17 -11 0 -22 41
-14 54 4 6 8 5 11 -3 3 -10 6 -11 12 -1z m378 -29 c-15 -5 -21 7 -13 26 7 17
8 17 15 -2 4 -11 3 -22 -2 -24z m518 15 c-1 -21 -6 -24 -33 -23 -46 3 -53 27
-8 27 19 0 35 5 35 10 0 6 2 10 4 10 2 0 3 -11 2 -24z m-2296 4 c0 -5 -4 -10
-10 -10 -5 0 -10 5 -10 10 0 6 5 10 10 10 6 0 10 -4 10 -10z m180 -10 c0 -11
-7 -20 -15 -20 -8 0 -15 9 -15 20 0 11 7 20 15 20 8 0 15 -9 15 -20z m860 10
c0 -5 -4 -10 -10 -10 -5 0 -10 5 -10 10 0 6 5 10 10 10 6 0 10 -4 10 -10z
m700 0 c0 -6 -2 -10 -4 -10 -2 0 -11 -3 -19 -6 -8 -3 -17 1 -20 8 -3 9 4 15
19 16 13 1 24 -3 24 -8z m275 -10 c3 -5 1 -10 -4 -10 -6 0 -11 5 -11 10 0 6 2
10 4 10 3 0 8 -4 11 -10z m3346 -3 c-1 -12 -15 -9 -19 4 -3 6 1 10 8 8 6 -3
11 -8 11 -12z m-2861 -12 c0 -8 -4 -15 -10 -15 -5 0 -10 7 -10 15 0 8 5 15 10
15 6 0 10 -7 10 -15z m-980 -16 c0 -5 -4 -9 -10 -9 -5 0 -10 7 -10 16 0 8 5
12 10 9 6 -3 10 -10 10 -16z m160 5 c0 -8 -4 -12 -10 -9 -5 3 -10 10 -10 16 0
5 5 9 10 9 6 0 10 -7 10 -16z m-1963 -20 c-9 -9 -28 6 -21 18 4 6 10 6 17 -1
6 -6 8 -13 4 -17z m2383 16 c0 -5 -2 -10 -4 -10 -3 0 -8 5 -11 10 -3 6 -1 10
4 10 6 0 11 -4 11 -10z m-2120 -15 c0 -8 -4 -15 -9 -15 -13 0 -22 16 -14 24
11 11 23 6 23 -9z m100 11 c0 -3 -4 -8 -10 -11 -5 -3 -10 -1 -10 4 0 6 5 11
10 11 6 0 10 -2 10 -4z m387 -18 c-3 -8 -6 -5 -6 6 -1 11 2 17 5 13 3 -3 4
-12 1 -19z m2063 12 c0 -5 -4 -10 -10 -10 -5 0 -10 5 -10 10 0 6 5 10 10 10 6
0 10 -4 10 -10z m389 -24 c-3 -3 -11 5 -18 17 -13 21 -12 21 5 5 10 -10 16
-20 13 -22z m-559 -1 c0 -8 -4 -15 -10 -15 -5 0 -10 7 -10 15 0 8 5 15 10 15
6 0 10 -7 10 -15z m-1650 -5 c0 -5 -5 -10 -11 -10 -5 0 -7 5 -4 10 3 6 8 10
11 10 2 0 4 -4 4 -10z m390 2 c0 -13 -12 -22 -22 -16 -10 6 -1 24 13 24 5 0 9
-4 9 -8z m425 -11 c-3 -6 -14 -11 -25 -11 -13 0 -17 -5 -13 -20 4 -14 0 -20
-11 -20 -33 0 -16 39 24 57 28 12 35 10 25 -6z m1002 13 c-3 -3 -12 -4 -19 -1
-8 3 -5 6 6 6 11 1 17 -2 13 -5z m-7360 -26 c-3 -8 -6 -5 -6 6 -1 11 2 17 5
13 3 -3 4 -12 1 -19z m1063 12 c0 -5 -4 -10 -10 -10 -5 0 -10 5 -10 10 0 6 5
10 10 10 6 0 10 -4 10 -10z m260 -15 c0 -8 -4 -15 -10 -15 -5 0 -10 7 -10 15
0 8 5 15 10 15 6 0 10 -7 10 -15z m5185 5 c3 -5 1 -10 -4 -10 -6 0 -11 5 -11
10 0 6 2 10 4 10 3 0 8 -4 11 -10z m84 7 c-2 -1 -12 -9 -21 -16 -15 -12 -18
-11 -18 3 0 10 8 16 22 16 12 0 19 -1 17 -3z m971 -13 c0 -8 -5 -12 -10 -9 -6
4 -8 11 -5 16 9 14 15 11 15 -7z m-2445 -4 c3 -5 1 -10 -4 -10 -6 0 -11 5 -11
10 0 6 2 10 4 10 3 0 8 -4 11 -10z m2005 -4 c0 -8 -4 -18 -10 -21 -5 -3 -10 3
-10 14 0 12 5 21 10 21 6 0 10 -6 10 -14z m3224 -2 c3 -8 2 -12 -4 -9 -6 3
-10 10 -10 16 0 14 7 11 14 -7z m-3974 -28 c0 -3 -7 -6 -15 -6 -9 0 -15 9 -15
21 0 18 2 19 15 5 8 -8 15 -17 15 -20z m415 25 c3 -5 1 -12 -5 -16 -5 -3 -10
1 -10 9 0 18 6 21 15 7z m175 5 c0 -3 -4 -8 -10 -11 -5 -3 -10 -1 -10 4 0 6 5
11 10 11 6 0 10 -2 10 -4z m-2790 -10 c0 -3 -4 -8 -10 -11 -5 -3 -10 -1 -10 4
0 6 5 11 10 11 6 0 10 -2 10 -4z m2159 -80 c0 -6 -3 -5 -6 2 -2 6 -11 12 -19
12 -15 0 -19 12 -7 24 8 8 33 -22 32 -38z m101 3 c0 -4 -9 -5 -20 -2 -20 5
-26 23 -13 37 7 7 33 -21 33 -35z m560 31 c0 -5 -4 -10 -10 -10 -5 0 -10 5
-10 10 0 6 5 10 10 10 6 0 10 -4 10 -10z m-863 -22 c-3 -8 -6 -5 -6 6 -1 11 2
17 5 13 3 -3 4 -12 1 -19z m683 9 c0 -7 -9 -18 -20 -25 -20 -12 -25 -6 -14 22
7 19 34 21 34 3z m70 3 c0 -5 -2 -10 -4 -10 -3 0 -8 5 -11 10 -3 6 -1 10 4 10
6 0 11 -4 11 -10z m-5349 -15 c-1 -15 -24 -12 -29 3 -3 9 2 13 12 10 10 -1 17
-7 17 -13z m3669 0 c0 -8 -4 -15 -9 -15 -13 0 -22 16 -14 24 11 11 23 6 23 -9z
m-5570 -11 c0 -8 -4 -12 -10 -9 -5 3 -10 10 -10 16 0 5 5 9 10 9 6 0 10 -7 10
-16z m2025 5 c10 -15 -1 -23 -20 -15 -9 3 -13 10 -10 16 8 13 22 13 30 -1z
m253 -7 c8 -7 17 -10 22 -7 4 3 3 -6 -3 -19 -7 -14 -14 -23 -16 -20 -3 2 -15
-6 -28 -18 -17 -16 -20 -24 -12 -35 6 -7 16 -10 23 -6 6 3 8 2 3 -2 -4 -5 1
-17 10 -28 10 -11 13 -17 6 -14 -15 9 -11 -16 6 -37 13 -15 8 -21 -13 -17 -5
1 -4 -4 2 -12 10 -11 9 -17 -5 -28 -9 -8 -14 -9 -10 -3 4 6 -2 19 -13 29 -26
23 -26 16 0 -111 13 -64 16 -102 10 -108 -16 -16 -12 -23 20 -30 l30 -6 1
-132 c0 -134 6 -186 29 -269 12 -41 11 -47 -6 -67 -21 -25 -54 -29 -54 -7 0 8
-7 15 -15 15 -17 0 -19 -18 -5 -40 6 -9 5 -19 -2 -28 -8 -9 0 -8 25 4 42 20
67 8 67 -31 0 -12 7 -28 16 -36 13 -10 45 -62 49 -79 1 -3 7 -18 14 -35 7 -16
11 -31 9 -31 -2 -1 6 -12 17 -25 11 -12 15 -19 8 -15 -7 4 1 -18 17 -49 16
-31 24 -53 17 -49 -7 4 -3 -2 7 -14 11 -12 16 -22 11 -22 -4 0 -1 -8 6 -17 12
-15 12 -16 -1 -8 -8 4 -5 -3 8 -17 12 -13 22 -28 22 -33 0 -5 15 -25 33 -44
22 -25 25 -30 7 -16 -17 13 -14 7 10 -20 19 -22 38 -41 43 -43 4 -2 7 -9 7
-15 0 -6 10 -22 23 -35 12 -14 15 -21 7 -17 -13 8 -13 6 -1 -8 7 -9 17 -14 22
-11 5 3 9 2 8 -3 -4 -26 2 -44 14 -37 8 6 8 3 -1 -9 -12 -14 -11 -16 8 -12 17
3 19 1 11 -9 -9 -10 -7 -17 6 -27 17 -13 17 -13 3 6 -14 19 -14 19 2 6 10 -7
16 -17 13 -21 -3 -4 2 -13 10 -20 8 -7 15 -19 15 -27 0 -8 5 -11 12 -7 7 5 8
3 2 -7 -12 -20 -14 -40 -3 -33 5 3 6 11 2 17 -3 7 3 3 15 -7 17 -15 19 -22 11
-33 -11 -12 -5 -18 16 -13 5 1 7 -2 3 -6 -4 -4 -3 -13 3 -20 7 -8 7 -14 -1
-19 -6 -4 -9 -3 -8 2 2 4 -1 9 -5 10 -5 0 -22 14 -38 29 -16 15 -29 24 -29 19
0 -4 -9 0 -20 10 -11 10 -17 22 -13 28 3 5 1 7 -4 4 -6 -4 -17 1 -24 10 -12
14 -12 16 1 8 13 -8 13 -6 2 7 -7 9 -22 15 -33 13 -11 -2 -17 0 -15 4 3 5 -4
17 -17 27 -21 19 -21 19 -7 -1 14 -19 14 -19 -3 -6 -13 10 -15 17 -6 27 8 10
6 12 -10 9 -12 -2 -20 1 -18 8 1 7 -4 11 -12 9 -12 -3 -12 0 -2 12 11 13 10
15 -8 11 -19 -4 -27 9 -22 38 0 4 -5 6 -11 5 -7 -2 -12 3 -10 10 1 6 -4 11
-10 10 -7 -2 -12 4 -10 12 2 8 0 12 -4 7 -4 -4 -18 3 -31 15 -17 16 -20 25
-12 34 8 10 6 12 -9 9 -25 -4 -49 19 -31 31 8 5 9 3 4 -6 -6 -9 -4 -11 5 -5 9
6 11 4 5 -5 -6 -9 -4 -11 4 -5 14 8 -1 30 -22 30 -7 1 -11 6 -10 13 2 7 -2 11
-9 9 -7 -1 -12 3 -13 8 -1 19 -16 35 -27 29 -6 -4 -8 -2 -5 3 4 6 0 16 -8 23
-12 10 -13 16 -3 28 7 9 8 13 3 10 -6 -4 -17 8 -24 25 -8 18 -23 43 -35 56
-12 14 -14 21 -6 16 8 -4 3 5 -12 22 -16 16 -28 33 -28 38 0 5 -8 17 -17 28
-13 15 -14 18 -3 12 13 -8 13 -7 1 8 -7 9 -10 17 -6 17 5 0 0 10 -11 22 -12
13 -13 18 -4 13 11 -6 10 -3 -3 12 -9 11 -14 24 -10 28 5 5 0 3 -9 -4 -40 -30
-30 -132 23 -231 17 -33 48 -107 90 -215 11 -27 22 -57 26 -65 18 -47 -5 -170
-40 -208 -11 -12 -17 -22 -12 -22 4 0 1 -8 -8 -18 -20 -22 -81 -23 -99 -2 -11
12 -10 12 4 2 13 -11 18 -10 24 0 4 7 4 10 -1 6 -4 -4 -15 -2 -23 4 -20 17
-99 18 -99 1 0 -6 5 -9 11 -5 14 9 76 10 71 2 -2 -4 -17 -6 -32 -5 -15 1 -37
-5 -48 -14 -11 -9 -17 -12 -13 -7 13 15 -12 38 -27 26 -9 -8 -15 -8 -20 0 -4
7 -11 8 -18 1 -7 -5 -16 -10 -22 -10 -5 -1 -10 -4 -10 -8 -1 -5 -10 -26 -20
-48 l-20 -40 -7 55 c-4 30 -5 81 -1 112 6 65 6 68 -4 68 -9 -1 -21 68 -22 127
-1 32 4 45 18 53 17 9 20 6 27 -23 4 -17 9 -35 10 -39 1 -5 2 -11 3 -14 0 -3
5 -3 10 0 5 3 5 21 1 40 -5 22 -4 38 3 45 15 15 27 14 27 -4 0 -28 15 -15 55
46 22 34 57 75 78 92 20 17 37 33 37 36 0 12 -47 27 -61 19 -28 -16 -75 -31
-101 -33 -16 -2 -29 -4 -30 -5 -9 -8 -95 -4 -96 4 -5 43 -32 273 -32 279 0 5
4 6 8 3 5 -3 9 1 9 9 0 8 -4 12 -8 10 -8 -6 -14 29 -29 169 -9 89 -9 101 7
120 14 16 15 18 2 8 -19 -15 -22 -3 -39 196 -9 100 -9 127 2 140 8 10 8 13 1
9 -12 -7 -15 5 -28 91 -7 43 8 60 20 22 5 -17 12 -19 48 -14 23 4 43 8 44 9 2
1 -2 15 -7 31 -5 16 -14 48 -20 72 -9 37 -13 41 -29 32 -13 -7 -22 -6 -28 3
-16 21 -9 42 13 39 18 -2 21 1 17 21 -5 23 -2 24 89 35 51 7 104 14 118 17 14
3 36 7 50 10 49 9 65 13 81 20 10 3 20 1 24 -4 11 -19 25 -1 25 33 0 18 2 35
5 38 10 9 50 3 63 -10z m5455 -2 c3 -11 1 -18 -4 -14 -5 3 -9 0 -9 -5 0 -6 -4
-11 -10 -11 -5 0 -10 11 -10 25 0 30 25 34 33 5z m-1841 -12 c-7 -7 -12 -8
-12 -2 0 14 12 26 19 19 2 -3 -1 -11 -7 -17z m-5612 -113 c38 38 73 66 77 62
4 -4 -24 -39 -62 -77 l-69 -70 97 0 c58 0 97 -4 97 -10 0 -6 -39 -10 -97 -10
l-97 0 69 -70 c38 -38 66 -73 62 -77 -4 -4 -39 24 -77 62 l-70 69 -2 -99 -2
-100 -3 98 c-2 53 -7 97 -10 97 -13 0 -43 -34 -43 -48 0 -9 -3 -12 -7 -8 -4 3
-26 -12 -50 -36 -23 -23 -46 -39 -50 -35 -4 4 24 39 62 77 l69 70 -97 0 c-58
0 -97 4 -97 10 0 6 39 10 97 10 l97 0 -69 70 c-38 38 -66 73 -62 77 4 4 38
-23 75 -60 37 -37 71 -67 76 -67 4 0 7 37 6 83 -2 45 -1 89 1 97 2 8 5 -30 6
-84 l4 -100 69 69z m6017 103 c-3 -8 -6 -5 -6 6 -1 11 2 17 5 13 3 -3 4 -12 1
-19z m1013 6 c0 -8 -4 -12 -10 -9 -5 3 -10 10 -10 16 0 5 5 9 10 9 6 0 10 -7
10 -16z m-2404 -31 c-10 -10 -19 5 -10 18 6 11 8 11 12 0 2 -7 1 -15 -2 -18z
m1924 6 c0 -6 -4 -7 -10 -4 -5 3 -10 11 -10 16 0 6 5 7 10 4 6 -3 10 -11 10
-16z m380 5 c0 -17 -22 -14 -28 4 -2 7 3 12 12 12 9 0 16 -7 16 -16z m40 6 c0
-5 -4 -10 -10 -10 -5 0 -10 5 -10 10 0 6 5 10 10 10 6 0 10 -4 10 -10z m675 1
c3 -5 1 -12 -5 -16 -5 -3 -10 1 -10 9 0 18 6 21 15 7z m-495 -11 c0 -5 -4 -10
-10 -10 -5 0 -10 5 -10 10 0 6 5 10 10 10 6 0 10 -4 10 -10z m-706 -12 c-5
-10 -4 -10 5 -2 16 14 58 6 65 -13 5 -12 -3 -14 -41 -11 -36 2 -49 8 -51 21
-2 10 3 17 13 17 10 0 14 -5 9 -12z m3041 3 c3 -5 1 -12 -5 -16 -5 -3 -10 1
-10 9 0 18 6 21 15 7z m-775 -11 c0 -5 -4 -10 -10 -10 -5 0 -10 5 -10 10 0 6
5 10 10 10 6 0 10 -4 10 -10z m-1900 -10 c0 -5 -5 -10 -11 -10 -5 0 -7 5 -4
10 3 6 8 10 11 10 2 0 4 -4 4 -10z m-2220 -10 c0 -5 -5 -10 -11 -10 -5 0 -7 5
-4 10 3 6 8 10 11 10 2 0 4 -4 4 -10z m1704 -5 c-7 -17 -24 -20 -24 -4 0 5 -5
7 -11 4 -6 -4 -8 -14 -4 -24 5 -12 3 -13 -6 -4 -18 18 -3 43 25 43 18 0 24 -4
20 -15z m-2647 -17 c-3 -8 -6 -5 -6 6 -1 11 2 17 5 13 3 -3 4 -12 1 -19z m173
13 c0 -5 -6 -14 -14 -20 -12 -10 -13 -8 -9 8 5 21 23 30 23 12z m600 -1 c0 -5
-5 -10 -11 -10 -5 0 -7 5 -4 10 3 6 8 10 11 10 2 0 4 -4 4 -10z m1587 -27 c-3
-10 -5 -4 -5 12 0 17 2 24 5 18 2 -7 2 -21 0 -30z m383 -16 c0 -41 -3 -48 -16
-43 -9 3 -20 6 -25 6 -5 0 -9 7 -9 15 0 8 3 14 8 14 29 -5 34 2 19 25 -17 26
-15 33 8 33 11 0 15 -12 15 -50z m890 32 c0 -5 -7 -9 -15 -9 -15 0 -20 12 -9
23 8 8 24 -1 24 -14z m-5155 -30 c-3 -4 0 -11 6 -15 7 -4 9 -3 5 4 -3 6 -2 13
4 17 14 9 12 -7 -6 -46 -16 -37 -23 -48 -55 -94 l-21 -30 7 30 c14 59 13 63 0
61 -8 -1 -17 -5 -21 -9 -14 -13 -25 5 -12 21 7 9 8 13 2 9 -7 -4 -17 -1 -23 7
-9 11 -6 13 18 11 22 -2 28 2 26 14 -1 9 7 26 18 38 19 21 22 22 38 7 10 -9
16 -20 14 -25z m4295 31 c0 -5 -4 -10 -10 -10 -5 0 -10 5 -10 10 0 6 5 10 10
10 6 0 10 -4 10 -10z m83 -14 c-10 -13 -20 -22 -22 -20 -4 4 29 44 36 44 2 0
-4 -11 -14 -24z m-2229 -7 c-3 -5 -10 -7 -15 -3 -5 3 -7 10 -3 15 3 5 10 7 15
3 5 -3 7 -10 3 -15z m2626 -5 c0 -8 -4 -14 -10 -14 -5 0 -10 9 -10 21 0 11 5
17 10 14 6 -3 10 -13 10 -21z m-6070 -5 c0 -5 -4 -9 -10 -9 -5 0 -10 7 -10 16
0 8 5 12 10 9 6 -3 10 -10 10 -16z m5390 11 c0 -5 -5 -10 -11 -10 -5 0 -7 5
-4 10 3 6 8 10 11 10 2 0 4 -4 4 -10z m1160 -10 c0 -5 -2 -10 -4 -10 -3 0 -8
5 -11 10 -3 6 -1 10 4 10 6 0 11 -4 11 -10z m5810 0 c0 -5 -5 -10 -11 -10 -5
0 -7 5 -4 10 3 6 8 10 11 10 2 0 4 -4 4 -10z m-5890 -10 c0 -5 -2 -10 -4 -10
-3 0 -8 5 -11 10 -3 6 -1 10 4 10 6 0 11 -4 11 -10z m-5250 -6 c0 -8 -19 -13
-24 -6 -3 5 1 9 9 9 8 0 15 -2 15 -3z m4225 -3 c3 -5 1 -12 -5 -16 -5 -3 -10
1 -10 9 0 18 6 21 15 7z m315 -18 c0 -21 -3 -24 -9 -14 -5 8 -7 20 -4 28 8 21
13 15 13 -14z m287 -5 c-3 -8 -6 -5 -6 6 -1 11 2 17 5 13 3 -3 4 -12 1 -19z
m-816 -21 c-1 -12 -15 -9 -19 4 -3 6 1 10 8 8 6 -3 11 -8 11 -12z m969 3 c0
-5 -4 -10 -10 -10 -5 0 -10 5 -10 10 0 6 5 10 10 10 6 0 10 -4 10 -10z m-6093
-22 c-3 -8 -6 -5 -6 6 -1 11 2 17 5 13 3 -3 4 -12 1 -19z m6633 7 c0 -8 -4
-15 -10 -15 -5 0 -7 7 -4 15 4 8 8 15 10 15 2 0 4 -7 4 -15z m2830 -5 c0 -5
-2 -10 -4 -10 -3 0 -8 5 -11 10 -3 6 -1 10 4 10 6 0 11 -4 11 -10z m-3825 -40
c-6 -9 -9 -9 -16 1 -10 17 0 34 13 21 6 -6 7 -16 3 -22z m495 13 c0 -5 -5 -15
-10 -23 -8 -12 -10 -11 -10 8 0 12 5 22 10 22 6 0 10 -3 10 -7z m1040 -8 c0
-8 -4 -15 -10 -15 -5 0 -10 7 -10 15 0 8 5 15 10 15 6 0 10 -7 10 -15z m-4170
-4 c0 -6 -4 -13 -10 -16 -5 -3 -10 1 -10 9 0 9 5 16 10 16 6 0 10 -4 10 -9z
m257 -13 c-3 -8 -6 -5 -6 6 -1 11 2 17 5 13 3 -3 4 -12 1 -19z m2593 2 c0 -5
-2 -10 -4 -10 -3 0 -8 5 -11 10 -3 6 -1 10 4 10 6 0 11 -4 11 -10z m3330 0 c0
-5 -5 -10 -11 -10 -5 0 -7 5 -4 10 3 6 8 10 11 10 2 0 4 -4 4 -10z m-5805 -9
c3 -5 1 -12 -5 -16 -5 -3 -10 1 -10 9 0 18 6 21 15 7z m2895 5 c0 -11 -19 -15
-25 -6 -3 5 1 10 9 10 9 0 16 -2 16 -4z m-290 -52 c0 -16 -16 -19 -25 -4 -8
13 4 32 16 25 5 -4 9 -13 9 -21z m920 16 c0 -5 -4 -10 -10 -10 -5 0 -10 5 -10
10 0 6 5 10 10 10 6 0 10 -4 10 -10z m-3635 -9 c3 -5 1 -12 -5 -16 -5 -3 -10
1 -10 9 0 18 6 21 15 7z m1653 -8 c-5 -7 -14 -10 -19 -7 -16 10 -9 23 10 21
15 -1 17 -4 9 -14z m3122 1 c0 -8 -5 -12 -10 -9 -6 4 -8 11 -5 16 9 14 15 11
15 -7z m-5570 -4 c0 -5 -2 -10 -4 -10 -3 0 -8 5 -11 10 -3 6 -1 10 4 10 6 0
11 -4 11 -10z m3195 0 c3 -5 1 -10 -4 -10 -6 0 -11 5 -11 10 0 6 2 10 4 10 3
0 8 -4 11 -10z m1525 -6 c0 -8 -5 -12 -10 -9 -6 4 -8 11 -5 16 9 14 15 11 15
-7z m-5723 -41 c44 -20 83 -52 83 -68 0 -6 11 -22 25 -35 14 -13 25 -20 25
-15 0 5 3 5 7 1 12 -11 -69 -76 -94 -76 -12 0 -25 -5 -29 -11 -4 -8 -9 -8 -17
0 -8 8 -16 6 -29 -6 -10 -9 -18 -13 -18 -8 0 4 -6 2 -14 -4 -8 -7 -30 -13 -50
-15 -31 -3 -35 -2 -24 11 9 12 9 19 -1 35 -10 15 -10 18 0 13 9 -6 9 -4 3 6
-5 8 -9 19 -9 24 -1 6 -7 9 -15 7 -8 -2 -12 0 -8 4 4 4 2 14 -4 22 -28 33 -13
56 70 103 58 33 53 33 99 12z m4703 3 c0 -3 -4 -8 -10 -11 -5 -3 -10 -1 -10 4
0 6 5 11 10 11 6 0 10 -2 10 -4z m2560 -16 c0 -5 -4 -10 -10 -10 -5 0 -10 5
-10 10 0 6 5 10 10 10 6 0 10 -4 10 -10z m-5080 -15 c0 -8 -7 -15 -15 -15 -9
0 -12 6 -9 15 4 8 10 15 15 15 5 0 9 -7 9 -15z m1407 -11 c-9 -9 -28 6 -21 18
4 6 10 6 17 -1 6 -6 8 -13 4 -17z m213 22 c0 -3 -4 -8 -10 -11 -5 -3 -10 -1
-10 4 0 6 5 11 10 11 6 0 10 -2 10 -4z m1570 -6 c0 -5 -4 -10 -10 -10 -5 0
-10 5 -10 10 0 6 5 10 10 10 6 0 10 -4 10 -10z m250 0 c0 -5 -4 -10 -10 -10
-5 0 -10 5 -10 10 0 6 5 10 10 10 6 0 10 -4 10 -10z m-1658 -25 c0 -5 -5 -11
-11 -13 -6 -2 -11 4 -11 13 0 9 5 15 11 13 6 -2 11 -8 11 -13z m2298 5 c0 -5
-5 -10 -11 -10 -5 0 -7 5 -4 10 3 6 8 10 11 10 2 0 4 -4 4 -10z m-7192 -23 c2
-10 -3 -17 -12 -17 -10 0 -16 9 -16 21 0 24 23 21 28 -4z m4442 13 c0 -5 -4
-10 -10 -10 -5 0 -10 5 -10 10 0 6 5 10 10 10 6 0 10 -4 10 -10z m-1269 -23
c-13 -13 -26 -3 -16 12 3 6 11 8 17 5 6 -4 6 -10 -1 -17z m2445 -34 c-10 -10
-19 5 -10 18 6 11 8 11 12 0 2 -7 1 -15 -2 -18z m-2016 -3 c0 -5 -5 -10 -11
-10 -5 0 -7 5 -4 10 3 6 8 10 11 10 2 0 4 -4 4 -10z m540 0 c0 -5 -4 -10 -10
-10 -5 0 -10 5 -10 10 0 6 5 10 10 10 6 0 10 -4 10 -10z m-980 -21 c0 -5 -4
-9 -10 -9 -5 0 -10 7 -10 16 0 8 5 12 10 9 6 -3 10 -10 10 -16z m770 -11 c-27
-25 -35 -19 -14 10 8 12 20 20 25 16 6 -4 2 -14 -11 -26z m3210 16 c0 -8 -5
-12 -10 -9 -6 4 -8 11 -5 16 9 14 15 11 15 -7z m-5220 -3 c0 -6 -4 -13 -10
-16 -5 -3 -10 1 -10 9 0 9 5 16 10 16 6 0 10 -4 10 -9z m1884 -6 c-4 -8 -11
-15 -16 -15 -6 0 -5 6 2 15 7 8 14 15 16 15 2 0 1 -7 -2 -15z m1909 0 c-3 -9
-8 -14 -10 -11 -3 3 -2 9 2 15 9 16 15 13 8 -4z m-5876 -52 c-3 -10 -5 -4 -5
12 0 17 2 24 5 18 2 -7 2 -21 0 -30z m3697 -9 c3 -8 2 -12 -4 -9 -6 3 -10 10
-10 16 0 14 7 11 14 -7z m5796 6 c0 -5 -2 -10 -4 -10 -3 0 -8 5 -11 10 -3 6
-1 10 4 10 6 0 11 -4 11 -10z m-3845 -10 c3 -5 1 -10 -4 -10 -6 0 -11 5 -11
10 0 6 2 10 4 10 3 0 8 -4 11 -10z m-5788 -22 c-3 -8 -6 -5 -6 6 -1 11 2 17 5
13 3 -3 4 -12 1 -19z m103 2 c0 -11 -4 -20 -9 -20 -11 0 -22 26 -14 34 12 12
23 5 23 -14z m4883 -10 c-7 -28 -13 -25 -13 6 0 14 4 23 9 20 5 -3 7 -15 4
-26z m607 20 c0 -5 -5 -10 -11 -10 -5 0 -7 5 -4 10 3 6 8 10 11 10 2 0 4 -4 4
-10z m1845 1 c3 -5 1 -12 -5 -16 -5 -3 -10 1 -10 9 0 18 6 21 15 7z m-3188
-23 c-3 -8 -6 -5 -6 6 -1 11 2 17 5 13 3 -3 4 -12 1 -19z m2603 8 c0 -3 -4 -8
-10 -11 -5 -3 -10 -1 -10 4 0 6 5 11 10 11 6 0 10 -2 10 -4z m-4325 -15 c3 -5
1 -12 -5 -16 -5 -3 -10 1 -10 9 0 18 6 21 15 7z m675 -1 c0 -5 -5 -10 -11 -10
-5 0 -7 5 -4 10 3 6 8 10 11 10 2 0 4 -4 4 -10z m215 0 c3 -5 1 -10 -4 -10 -6
0 -11 5 -11 10 0 6 2 10 4 10 3 0 8 -4 11 -10z m3255 0 c0 -5 -5 -10 -11 -10
-5 0 -7 5 -4 10 3 6 8 10 11 10 2 0 4 -4 4 -10z m-650 -21 c0 -6 -4 -7 -10 -4
-5 3 -10 11 -10 16 0 6 5 7 10 4 6 -3 10 -11 10 -16z m-4490 -54 c0 -12 -9
-30 -20 -40 -17 -16 -23 -16 -62 -3 -24 8 -49 13 -55 12 -7 -1 -19 -2 -26 -3
-8 0 -14 -8 -14 -16 0 -11 4 -12 13 -4 8 6 14 7 18 0 4 -5 -10 -26 -30 -45
-34 -33 -40 -35 -78 -29 -50 7 -52 9 -36 28 10 12 10 15 -5 15 -10 0 -35 -17
-56 -39 -22 -21 -39 -36 -39 -34 0 3 -6 0 -14 -6 -18 -15 -40 11 -31 38 6 18
95 71 121 71 19 0 33 24 36 58 3 37 13 40 44 11 22 -21 25 -21 58 -5 19 9 39
16 45 16 6 0 28 9 48 20 l37 20 23 -22 c13 -12 23 -31 23 -43z m1395 55 c-3
-5 -10 -10 -16 -10 -5 0 -9 5 -9 10 0 6 7 10 16 10 8 0 12 -4 9 -10z m2345 0
c0 -5 -4 -10 -10 -10 -5 0 -10 5 -10 10 0 6 5 10 10 10 6 0 10 -4 10 -10z
m2320 -5 c0 -8 -4 -15 -10 -15 -5 0 -10 7 -10 15 0 8 5 15 10 15 6 0 10 -7 10
-15z m-3910 -19 c0 -8 -4 -18 -10 -21 -5 -3 -10 3 -10 14 0 12 5 21 10 21 6 0
10 -6 10 -14z m1115 -16 c3 -5 1 -10 -4 -10 -6 0 -11 5 -11 10 0 6 2 10 4 10
3 0 8 -4 11 -10z m-1498 -26 c8 -21 -13 -42 -28 -27 -13 13 -5 43 11 43 6 0
13 -7 17 -16z m2795 1 c0 -5 -5 -11 -11 -13 -6 -2 -11 4 -11 13 0 9 5 15 11
13 6 -2 11 -8 11 -13z m108 6 c0 -6 -4 -13 -10 -16 -5 -3 -10 1 -10 9 0 9 5
16 10 16 6 0 10 -4 10 -9z m-1940 -21 c0 -5 -5 -10 -11 -10 -5 0 -7 5 -4 10 3
6 8 10 11 10 2 0 4 -4 4 -10z m3147 -12 c-3 -8 -6 -5 -6 6 -1 11 2 17 5 13 3
-3 4 -12 1 -19z m-2070 -10 c-3 -8 -6 -5 -6 6 -1 11 2 17 5 13 3 -3 4 -12 1
-19z m-2797 -2 c0 -3 -4 -8 -10 -11 -5 -3 -10 -1 -10 4 0 6 5 11 10 11 6 0 10
-2 10 -4z m985 -6 c3 -5 1 -10 -4 -10 -6 0 -11 5 -11 10 0 6 2 10 4 10 3 0 8
-4 11 -10z m2375 6 c0 -3 -4 -8 -10 -11 -5 -3 -10 -1 -10 4 0 6 5 11 10 11 6
0 10 -2 10 -4z m-5840 -26 c0 -11 -4 -20 -10 -20 -5 0 -10 9 -10 20 0 11 5 20
10 20 6 0 10 -9 10 -20z m4550 16 c0 -3 -4 -8 -10 -11 -5 -3 -10 -1 -10 4 0 6
5 11 10 11 6 0 10 -2 10 -4z m1540 -27 c0 -5 -130 -9 -335 -9 -212 0 -335 4
-335 10 0 6 74 11 188 12 270 4 482 -1 482 -13z m42 6 c0 -5 -5 -11 -11 -13
-6 -2 -11 4 -11 13 0 9 5 15 11 13 6 -2 11 -8 11 -13z m-2572 -5 c0 -5 -5 -10
-11 -10 -5 0 -7 5 -4 10 3 6 8 10 11 10 2 0 4 -4 4 -10z m335 0 c3 -5 -1 -10
-10 -10 -9 0 -13 5 -10 10 3 6 8 10 10 10 2 0 7 -4 10 -10z m-5013 -22 c-7 -7
-12 -8 -12 -2 0 14 12 26 19 19 2 -3 -1 -11 -7 -17z m5608 12 c0 -5 -4 -10
-10 -10 -5 0 -10 5 -10 10 0 6 5 10 10 10 6 0 10 -4 10 -10z m5355 1 c3 -5 1
-12 -5 -16 -5 -3 -10 1 -10 9 0 18 6 21 15 7z m-6795 -21 c0 -5 -2 -10 -4 -10
-3 0 -8 5 -11 10 -3 6 -1 10 4 10 6 0 11 -4 11 -10z m1930 -15 c0 -8 -4 -15
-10 -15 -5 0 -10 7 -10 15 0 8 5 15 10 15 6 0 10 -7 10 -15z m770 5 c0 -5 -2
-10 -4 -10 -3 0 -8 5 -11 10 -3 6 -1 10 4 10 6 0 11 -4 11 -10z m-106 -8 c3
-5 -1 -9 -9 -9 -8 0 -15 4 -15 9 0 4 4 8 9 8 6 0 12 -4 15 -8z m-1699 -12 c3
-5 1 -10 -4 -10 -6 0 -11 5 -11 10 0 6 2 10 4 10 3 0 8 -4 11 -10z m1465 2 c0
-13 -12 -22 -22 -16 -10 6 -1 24 13 24 5 0 9 -4 9 -8z m-2323 -34 c-3 -8 -6
-5 -6 6 -1 11 2 17 5 13 3 -3 4 -12 1 -19z m793 12 c0 -5 -2 -10 -4 -10 -3 0
-8 5 -11 10 -3 6 -1 10 4 10 6 0 11 -4 11 -10z m-2560 -10 c0 -14 -35 -30 -67
-29 l-28 0 25 11 c14 5 32 14 40 18 20 12 30 12 30 0z m6363 -16 c-4 -10 -9
-12 -15 -6 -12 12 -1 35 12 27 5 -3 6 -13 3 -21z m-8563 0 c0 -8 -5 -12 -10
-9 -6 4 -8 11 -5 16 9 14 15 11 15 -7z m4258 -7 c2 -10 -3 -17 -12 -17 -18 0
-29 16 -21 31 9 14 29 6 33 -14z m2412 7 c0 -8 -5 -12 -10 -9 -6 4 -8 11 -5
16 9 14 15 11 15 -7z m-2608 -9 c0 -5 -5 -11 -11 -13 -6 -2 -11 4 -11 13 0 9
5 15 11 13 6 -2 11 -8 11 -13z m2028 5 c0 -5 -2 -10 -4 -10 -3 0 -8 5 -11 10
-3 6 -1 10 4 10 6 0 11 -4 11 -10z m110 -6 c0 -8 -4 -12 -10 -9 -5 3 -10 10
-10 16 0 5 5 9 10 9 6 0 10 -7 10 -16z m-2100 -9 c0 -8 -4 -15 -10 -15 -5 0
-10 7 -10 15 0 8 5 15 10 15 6 0 10 -7 10 -15z m4057 -27 c-3 -8 -6 -5 -6 6
-1 11 2 17 5 13 3 -3 4 -12 1 -19z m-5876 -11 c-6 -8 -7 -17 -3 -21 4 -4 3 -7
-3 -6 -5 1 -12 1 -15 0 -3 -1 -13 -3 -23 -5 -15 -3 -16 -1 -6 11 6 7 15 12 19
9 4 -3 13 2 20 10 7 8 15 15 17 15 3 0 0 -6 -6 -13z m795 -14 c-10 -10 -19 5
-10 18 6 11 8 11 12 0 2 -7 1 -15 -2 -18z m1464 6 c0 -5 -4 -9 -10 -9 -5 0
-10 7 -10 16 0 8 5 12 10 9 6 -3 10 -10 10 -16z m1050 11 c0 -5 -4 -10 -10
-10 -5 0 -10 5 -10 10 0 6 5 10 10 10 6 0 10 -4 10 -10z m-5650 -26 c0 -8 -4
-12 -10 -9 -5 3 -10 10 -10 16 0 5 5 9 10 9 6 0 10 -7 10 -16z m12645 6 c3 -5
1 -10 -4 -10 -6 0 -11 5 -11 10 0 6 2 10 4 10 3 0 8 -4 11 -10z m-12195 -50
c0 -8 -7 -2 -15 14 -19 36 -19 45 0 20 8 -10 14 -26 15 -34z m5190 35 c0 -8
-4 -15 -10 -15 -5 0 -10 7 -10 15 0 8 5 15 10 15 6 0 10 -7 10 -15z m-4810
-17 c0 -11 -5 -18 -12 -16 -19 7 -21 35 -3 35 8 0 15 -9 15 -19z m8283 -8 c-7
-28 -13 -25 -13 6 0 14 4 23 9 20 5 -3 7 -15 4 -26z m-2644 6 c8 -10 9 -16 1
-21 -5 -3 -10 1 -10 10 0 9 -4 13 -10 10 -5 -3 -10 -1 -10 4 0 15 15 14 29 -3z
m-2262 -18 c-3 -8 -6 -5 -6 6 -1 11 2 17 5 13 3 -3 4 -12 1 -19z m5903 6 c0
-8 -5 -12 -10 -9 -6 4 -8 11 -5 16 9 14 15 11 15 -7z m-6370 -4 c0 -5 -4 -10
-10 -10 -5 0 -10 5 -10 10 0 6 5 10 10 10 6 0 10 -4 10 -10z m940 -5 c0 -8 -4
-15 -10 -15 -5 0 -10 7 -10 15 0 8 5 15 10 15 6 0 10 -7 10 -15z m1618 4 c-2
-6 -8 -10 -13 -10 -5 0 -11 4 -13 10 -2 6 4 11 13 11 9 0 15 -5 13 -11z m58
-20 c10 -17 -13 -36 -27 -22 -12 12 -4 33 11 33 5 0 12 -5 16 -11z m-5456 -20
c0 -5 -4 -9 -10 -9 -5 0 -10 7 -10 16 0 8 5 12 10 9 6 -3 10 -10 10 -16z
m-1343 -11 c-3 -8 -6 -5 -6 6 -1 11 2 17 5 13 3 -3 4 -12 1 -19z m5665 -13 c0
-5 -5 -11 -11 -13 -6 -2 -11 4 -11 13 0 9 5 15 11 13 6 -2 11 -8 11 -13z
m1154 -10 c-3 -9 -11 -13 -16 -10 -8 5 -7 11 1 21 14 18 24 11 15 -11z m-5509
-7 c-3 -8 -6 -5 -6 6 -1 11 2 17 5 13 3 -3 4 -12 1 -19z m7743 12 c0 -5 -5
-10 -11 -10 -5 0 -7 5 -4 10 3 6 8 10 11 10 2 0 4 -4 4 -10z m-720 -10 c0 -5
-4 -10 -10 -10 -5 0 -10 5 -10 10 0 6 5 10 10 10 6 0 10 -4 10 -10z m-3660
-10 c0 -5 -4 -10 -10 -10 -5 0 -10 5 -10 10 0 6 5 10 10 10 6 0 10 -4 10 -10z
m-4340 -32 c0 -16 -3 -19 -11 -11 -6 6 -8 16 -5 22 11 17 16 13 16 -11z m1043
-11 c-3 -5 -10 -4 -15 1 -6 6 -7 16 -3 22 6 9 9 9 16 -1 4 -7 5 -17 2 -22z
m2817 23 c0 -5 -2 -10 -4 -10 -3 0 -8 5 -11 10 -3 6 -1 10 4 10 6 0 11 -4 11
-10z m2070 0 c0 -5 -4 -10 -10 -10 -5 0 -10 5 -10 10 0 6 5 10 10 10 6 0 10
-4 10 -10z m4540 -11 c0 -5 -4 -9 -10 -9 -5 0 -10 7 -10 16 0 8 5 12 10 9 6
-3 10 -10 10 -16z m-5285 2 c3 -5 1 -12 -5 -16 -5 -3 -10 1 -10 9 0 18 6 21
15 7z m-3940 -31 c-6 -9 -9 -9 -16 1 -10 17 0 34 13 21 6 -6 7 -16 3 -22z
m5355 26 c0 -3 -4 -8 -10 -11 -5 -3 -10 -1 -10 4 0 6 5 11 10 11 6 0 10 -2 10
-4z m-6100 -10 c0 -3 -4 -8 -10 -11 -5 -3 -10 -1 -10 4 0 6 5 11 10 11 6 0 10
-2 10 -4z m317 -18 c-3 -8 -6 -5 -6 6 -1 11 2 17 5 13 3 -3 4 -12 1 -19z
m-920 -10 c-3 -8 -6 -5 -6 6 -1 11 2 17 5 13 3 -3 4 -12 1 -19z m7020 7 c3 -9
3 -19 -1 -22 -8 -9 -37 18 -30 28 8 14 24 11 31 -6z m-5997 -15 c0 -5 -5 -10
-11 -10 -5 0 -7 5 -4 10 3 6 8 10 11 10 2 0 4 -4 4 -10z m5097 -12 c-3 -8 -6
-5 -6 6 -1 11 2 17 5 13 3 -3 4 -12 1 -19z m1403 12 c0 -5 -4 -10 -10 -10 -5
0 -10 5 -10 10 0 6 5 10 10 10 6 0 10 -4 10 -10z m250 -5 c0 -8 -4 -15 -10
-15 -5 0 -10 7 -10 15 0 8 5 15 10 15 6 0 10 -7 10 -15z m3610 5 c0 -5 -5 -10
-11 -10 -5 0 -7 5 -4 10 3 6 8 10 11 10 2 0 4 -4 4 -10z m-10670 -50 c0 -5 -5
-10 -11 -10 -5 0 -7 5 -4 10 3 6 8 10 11 10 2 0 4 -4 4 -10z m240 -4 c0 -9 -7
-12 -20 -9 -11 3 -17 9 -14 14 8 14 34 10 34 -5z m5678 -9 c2 -10 -3 -17 -12
-17 -10 0 -16 9 -16 21 0 24 23 21 28 -4z m-6871 -19 c-3 -8 -6 -5 -6 6 -1 11
2 17 5 13 3 -3 4 -12 1 -19z m1121 -21 c-13 -26 -22 -14 -14 20 6 20 10 23 16
13 5 -8 4 -22 -2 -33z m-332 22 c3 -6 1 -16 -5 -22 -8 -8 -11 -8 -11 2 0 7 -4
9 -10 6 -5 -3 -10 1 -10 9 0 18 25 22 36 5z m581 -31 c-3 -8 -6 -5 -6 6 -1 11
2 17 5 13 3 -3 4 -12 1 -19z m-310 -30 c-3 -7 -5 -2 -5 12 0 14 2 19 5 13 2
-7 2 -19 0 -25z m-467 7 c0 -8 -4 -15 -10 -15 -5 0 -10 7 -10 15 0 8 5 15 10
15 6 0 10 -7 10 -15z m4830 11 c0 -3 -4 -8 -10 -11 -5 -3 -10 -1 -10 4 0 6 5
11 10 11 6 0 10 -2 10 -4z m697 -18 c-3 -8 -6 -5 -6 6 -1 11 2 17 5 13 3 -3 4
-12 1 -19z m-1937 -8 c0 -5 -2 -10 -4 -10 -3 0 -8 5 -11 10 -3 6 -1 10 4 10 6
0 11 -4 11 -10z m-952 -12 c17 -21 17 -24 6 -39 -9 -12 -11 -33 -4 -41 8 -11
6 -37 -3 -35 -7 1 -11 -4 -9 -11 1 -8 -2 -11 -8 -7 -8 5 -6 13 4 24 14 15 14
18 1 18 -8 0 -13 -3 -10 -5 3 -3 0 -11 -6 -19 -6 -7 -8 -13 -4 -13 4 0 1 -8
-6 -17 -8 -9 -9 -14 -3 -10 6 3 11 0 11 -8 0 -7 -8 -12 -18 -10 -10 2 -22 -1
-25 -7 -4 -6 -2 -8 4 -4 6 3 13 2 16 -3 4 -5 -2 -8 -11 -7 -10 2 -18 9 -18 17
-1 8 -7 13 -14 11 -7 -1 -10 2 -6 8 3 6 12 7 18 3 7 -3 4 3 -6 14 -9 11 -14
23 -10 26 3 4 1 7 -5 7 -7 0 -12 9 -12 21 0 11 -4 18 -8 15 -5 -3 -9 1 -9 9 0
8 5 11 11 8 8 -5 8 -3 0 8 -18 25 -11 44 18 44 14 0 30 3 34 8 12 12 61 8 72
-5z m4092 -33 c0 -8 -4 -15 -10 -15 -5 0 -10 7 -10 15 0 8 5 15 10 15 6 0 10
-7 10 -15z m220 -10 c0 -8 -4 -15 -9 -15 -13 0 -22 16 -14 24 11 11 23 6 23
-9z m-6663 -27 c-3 -8 -6 -5 -6 6 -1 11 2 17 5 13 3 -3 4 -12 1 -19z m3477 7
c-4 -8 -8 -15 -10 -15 -2 0 -4 7 -4 15 0 8 4 15 10 15 5 0 7 -7 4 -15z m-474
-21 c0 -8 -4 -12 -10 -9 -5 3 -10 10 -10 16 0 5 5 9 10 9 6 0 10 -7 10 -16z
m-223 -26 c-3 -8 -6 -5 -6 6 -1 11 2 17 5 13 3 -3 4 -12 1 -19z m5633 2 c0 -5
-4 -10 -10 -10 -5 0 -10 5 -10 10 0 6 5 10 10 10 6 0 10 -4 10 -10z m-1840
-75 c9 -11 10 -22 4 -36 -10 -21 -10 -21 -34 -1 -21 17 -22 22 -11 36 17 20
25 20 41 1z m-3210 1 c0 -3 -4 -8 -10 -11 -5 -3 -10 -1 -10 4 0 6 5 11 10 11
6 0 10 -2 10 -4z m625 -6 c3 -5 1 -10 -4 -10 -6 0 -11 5 -11 10 0 6 2 10 4 10
3 0 8 -4 11 -10z m-945 -20 c0 -5 -7 -10 -16 -10 -8 0 -12 5 -9 10 3 6 10 10
16 10 5 0 9 -4 9 -10z m2950 0 c0 -5 -4 -10 -10 -10 -5 0 -10 5 -10 10 0 6 5
10 10 10 6 0 10 -4 10 -10z m4599 -13 c0 -9 -2 -8 -6 1 -2 6 -10 9 -15 6 -7
-4 -8 -2 -4 5 9 13 26 5 25 -12z m-4502 -39 c-3 -7 -5 -2 -5 12 0 14 2 19 5
13 2 -7 2 -19 0 -25z m-6212 4 c0 -18 -20 -15 -23 4 -3 10 1 15 10 12 7 -3 13
-10 13 -16z m-708 -14 c-3 -8 -6 -5 -6 6 -1 11 2 17 5 13 3 -3 4 -12 1 -19z
m9423 2 c0 -5 -4 -10 -10 -10 -5 0 -10 5 -10 10 0 6 5 10 10 10 6 0 10 -4 10
-10z m-5693 -42 c-3 -8 -6 -5 -6 6 -1 11 2 17 5 13 3 -3 4 -12 1 -19z m2773
12 c0 -5 -4 -10 -10 -10 -5 0 -10 5 -10 10 0 6 5 10 10 10 6 0 10 -4 10 -10z
m-5273 -32 c-3 -8 -6 -5 -6 6 -1 11 2 17 5 13 3 -3 4 -12 1 -19z m9248 3 c3
-5 1 -12 -5 -16 -5 -3 -10 1 -10 9 0 18 6 21 15 7z m1005 -17 c0 -8 -5 -12
-10 -9 -6 4 -8 11 -5 16 9 14 15 11 15 -7z m2545 6 c3 -5 1 -10 -4 -10 -6 0
-11 5 -11 10 0 6 2 10 4 10 3 0 8 -4 11 -10z m-2750 -20 c3 -5 1 -10 -4 -10
-6 0 -11 5 -11 10 0 6 2 10 4 10 3 0 8 -4 11 -10z m-7581 -16 c3 -8 2 -12 -4
-9 -6 3 -10 10 -10 16 0 14 7 11 14 -7z m2046 -14 c0 -5 -4 -10 -10 -10 -5 0
-10 5 -10 10 0 6 5 10 10 10 6 0 10 -4 10 -10z m-5713 -32 c-3 -8 -6 -5 -6 6
-1 11 2 17 5 13 3 -3 4 -12 1 -19z m7453 -48 c0 -5 -4 -10 -10 -10 -5 0 -10 5
-10 10 0 6 5 10 10 10 6 0 10 -4 10 -10z m1050 -10 c0 -5 -4 -10 -10 -10 -5 0
-10 5 -10 10 0 6 5 10 10 10 6 0 10 -4 10 -10z m-5135 -60 c-3 -5 -15 -10 -26
-10 -19 0 -25 23 -13 54 5 13 9 12 26 -9 10 -14 16 -29 13 -35z m6942 38 c-3
-8 -6 -5 -6 6 -1 11 2 17 5 13 3 -3 4 -12 1 -19z m-7311 -16 c-3 -2 -1 -15 4
-28 5 -13 5 -26 1 -29 -5 -2 -55 -10 -111 -16 -96 -10 -103 -10 -122 8 -19 20
-19 20 39 32 32 7 74 15 93 18 19 3 43 8 54 12 21 8 49 10 42 3z m-1171 -22
c8 7 12 5 12 -5 0 -8 -3 -13 -5 -10 -3 3 -14 -3 -24 -12 -11 -10 -19 -13 -18
-8 5 24 -2 27 -22 9 -14 -12 -18 -13 -10 -3 6 9 8 20 4 24 -4 5 -2 5 5 1 6 -3
15 -1 18 5 5 8 10 8 18 0 7 -7 15 -7 22 -1z m3635 -10 c0 -11 -4 -20 -9 -20
-14 0 -23 18 -16 30 10 17 25 11 25 -10z m-1800 0 c0 -5 -4 -10 -10 -10 -5 0
-10 5 -10 10 0 6 5 10 10 10 6 0 10 -4 10 -10z m-1646 -18 c3 -5 -1 -9 -9 -9
-8 0 -12 4 -9 9 3 4 7 8 9 8 2 0 6 -4 9 -8z m5064 -13 c-2 -6 -8 -10 -13 -10
-5 0 -11 4 -13 10 -2 6 4 11 13 11 9 0 15 -5 13 -11z m-2098 -8 c0 -6 -4 -13
-10 -16 -5 -3 -10 1 -10 9 0 9 5 16 10 16 6 0 10 -4 10 -9z m660 -1 c0 -5 -4
-10 -10 -10 -5 0 -10 5 -10 10 0 6 5 10 10 10 6 0 10 -4 10 -10z m643 -4 c4
-10 1 -13 -9 -9 -7 3 -14 9 -14 14 0 14 17 10 23 -5z m87 -16 c0 -5 -5 -10
-11 -10 -5 0 -7 5 -4 10 3 6 8 10 11 10 2 0 4 -4 4 -10z m-890 -36 c0 -8 -4
-12 -10 -9 -5 3 -10 10 -10 16 0 5 5 9 10 9 6 0 10 -7 10 -16z m294 -19 c-4
-8 -10 -12 -15 -9 -14 8 -10 24 6 24 9 0 12 -6 9 -15z m-4874 -5 c0 -5 -5 -10
-11 -10 -5 0 -7 5 -4 10 3 6 8 10 11 10 2 0 4 -4 4 -10z m-460 -56 c0 -8 -5
-12 -10 -9 -6 4 -8 11 -5 16 9 14 15 11 15 -7z m4567 -6 c-3 -8 -6 -5 -6 6 -1
11 2 17 5 13 3 -3 4 -12 1 -19z m-2087 -3 c0 -8 -4 -15 -10 -15 -5 0 -10 7
-10 15 0 8 5 15 10 15 6 0 10 -7 10 -15z m8540 1 c0 -3 -4 -8 -10 -11 -5 -3
-10 -1 -10 4 0 6 5 11 10 11 6 0 10 -2 10 -4z m-7013 -28 c-3 -8 -6 -5 -6 6
-1 11 2 17 5 13 3 -3 4 -12 1 -19z m-2667 -8 c0 -11 -4 -20 -10 -20 -5 0 -10
9 -10 20 0 11 5 20 10 20 6 0 10 -9 10 -20z m1750 4 c0 -8 -4 -12 -10 -9 -5 3
-10 10 -10 16 0 5 5 9 10 9 6 0 10 -7 10 -16z m3040 -30 c0 -8 -4 -12 -10 -9
-5 3 -10 10 -10 16 0 5 5 9 10 9 6 0 10 -7 10 -16z m1330 0 c0 -8 -4 -12 -10
-9 -5 3 -10 10 -10 16 0 5 5 9 10 9 6 0 10 -7 10 -16z m-770 -4 c0 -5 -4 -10
-10 -10 -5 0 -10 5 -10 10 0 6 5 10 10 10 6 0 10 -4 10 -10z m0 -40 c0 -5 -4
-10 -10 -10 -5 0 -10 5 -10 10 0 6 5 10 10 10 6 0 10 -4 10 -10z m2306 -47
c-10 -10 -19 5 -10 18 6 11 8 11 12 0 2 -7 1 -15 -2 -18z m1559 17 c3 -5 1
-10 -4 -10 -6 0 -11 5 -11 10 0 6 2 10 4 10 3 0 8 -4 11 -10z m-8498 -22 c-3
-8 -6 -5 -6 6 -1 11 2 17 5 13 3 -3 4 -12 1 -19z m6323 -14 c0 -8 -7 -14 -15
-14 -15 0 -21 21 -9 33 10 9 24 -2 24 -19z m-2540 -20 c0 -17 -22 -14 -28 4
-2 7 3 12 12 12 9 0 16 -7 16 -16z m200 6 c0 -5 -4 -10 -10 -10 -5 0 -10 5
-10 10 0 6 5 10 10 10 6 0 10 -4 10 -10z m1660 -12 c0 -18 -2 -20 -9 -8 -6 8
-7 18 -5 22 9 14 14 9 14 -14z m-6403 -10 c-3 -8 -6 -5 -6 6 -1 11 2 17 5 13
3 -3 4 -12 1 -19z m4933 12 c0 -5 -4 -10 -10 -10 -5 0 -10 5 -10 10 0 6 5 10
10 10 6 0 10 -4 10 -10z m-700 -10 c0 -5 -4 -10 -10 -10 -5 0 -10 5 -10 10 0
6 5 10 10 10 6 0 10 -4 10 -10z"/>
<path d="M12450 2760 c-24 -19 -24 -19 -2 -13 12 3 25 10 28 15 11 18 -1 17
-26 -2z"/>
<path d="M12100 2540 c0 -6 7 -10 15 -10 8 0 15 2 15 4 0 2 -7 6 -15 10 -8 3
-15 1 -15 -4z"/>
<path d="M11750 2180 c-13 -9 -13 -10 0 -10 13 0 13 -1 0 -10 -9 -6 -10 -10
-3 -10 6 0 14 4 18 10 3 5 13 6 22 3 11 -4 14 -2 11 8 -6 18 -28 22 -48 9z"/>
<path d="M11856 2151 c-4 -7 -5 -15 -2 -18 9 -9 19 4 14 18 -4 11 -6 11 -12 0z"/>
<path d="M11731 2076 c-1 -19 25 -45 44 -45 6 0 2 4 -8 10 -10 6 -22 20 -27
32 -8 19 -9 20 -9 3z"/>
<path d="M11695 1970 c3 -5 8 -10 11 -10 2 0 4 5 4 10 0 6 -5 10 -11 10 -5 0
-7 -4 -4 -10z"/>
<path d="M11701 1914 c0 -11 3 -14 6 -6 3 7 2 16 -1 19 -3 4 -6 -2 -5 -13z"/>
<path d="M11740 1889 c0 -5 9 -9 20 -9 11 0 20 2 20 4 0 2 -9 6 -20 9 -11 3
-20 1 -20 -4z"/>
<path d="M11715 1860 c-3 -5 -1 -10 4 -10 6 0 11 5 11 10 0 6 -2 10 -4 10 -3
0 -8 -4 -11 -10z"/>
<path d="M11735 1650 c-3 -5 -1 -10 4 -10 6 0 11 5 11 10 0 6 -2 10 -4 10 -3
0 -8 -4 -11 -10z"/>
<path d="M11930 1529 c0 -5 5 -7 10 -4 6 3 10 8 10 11 0 2 -4 4 -10 4 -5 0
-10 -5 -10 -11z"/>
<path d="M11830 1495 c7 -8 17 -12 22 -9 6 4 5 10 -3 15 -22 14 -33 10 -19 -6z"/>
<path d="M12651 1034 c0 -11 3 -14 6 -6 3 7 2 16 -1 19 -3 4 -6 -2 -5 -13z"/>
<path d="M2138 1305 c-3 -3 -16 -8 -28 -10 -30 -6 -33 -10 -26 -32 5 -15 14
-18 46 -15 43 4 43 5 34 40 -6 21 -15 27 -26 17z"/>
<path d="M2706 708 c3 -5 10 -6 15 -3 13 9 11 12 -6 12 -8 0 -12 -4 -9 -9z"/>
<path d="M2984 443 c2 -10 6 -17 10 -16 15 3 16 11 2 22 -12 10 -14 9 -12 -6z"/>
<path d="M3042 428 c2 -7 -4 -12 -12 -10 -11 3 -10 -2 4 -17 21 -23 35 -29 17
-8 -7 10 -7 17 0 24 8 8 7 13 0 18 -7 4 -10 1 -9 -7z"/>
<path d="M1101 4958 l22 -43 13 30 c20 47 17 55 -21 55 l-35 0 21 -42z"/>
<path d="M5424 4821 c-59 -36 -79 -77 -83 -169 l-3 -83 44 -43 c96 -91 241
-82 300 20 39 67 20 148 -53 222 -72 72 -144 90 -205 53z m2 -52 c9 -15 -11
-33 -30 -26 -9 4 -13 13 -10 22 7 17 30 20 40 4z m66 -21 c-15 -15 -26 -4 -18
18 5 13 9 15 18 6 9 -9 9 -15 0 -24z m-85 -54 c8 -21 -13 -42 -28 -27 -13 13
-5 43 11 43 6 0 13 -7 17 -16z m116 -10 c9 -10 -4 -34 -18 -34 -17 0 -28 17
-20 30 7 11 28 13 38 4z m-63 -19 c0 -8 -7 -15 -15 -15 -16 0 -20 12 -8 23 11
12 23 8 23 -8z m-40 -61 c0 -9 -5 -14 -12 -12 -18 6 -21 28 -4 28 9 0 16 -7
16 -16z m108 -31 c-5 -26 -38 -29 -38 -4 0 15 6 21 21 21 14 0 19 -5 17 -17z
m-108 -38 c0 -8 -4 -15 -9 -15 -13 0 -22 16 -14 24 11 11 23 6 23 -9z m75 -5
c0 -8 -10 -16 -22 -18 -22 -3 -32 16 -16 32 12 11 38 2 38 -14z m143 -7 c5
-17 -26 -29 -40 -15 -6 6 -7 15 -3 22 9 14 37 9 43 -7z m-83 -33 c-5 -8 -11
-8 -17 -2 -6 6 -7 16 -3 22 5 8 11 8 17 2 6 -6 7 -16 3 -22z"/>
<path d="M14930 2450 c-49 -7 -39 -16 28 -23 36 -4 42 -3 42 14 0 10 -6 18
-12 17 -7 0 -33 -4 -58 -8z"/>
</g>
</svg>
