<?xml version="1.0" standalone="no"?>
<!DOCTYPE svg PUBLIC "-//W3C//DTD SVG 20010904//EN"
 "http://www.w3.org/TR/2001/REC-SVG-20010904/DTD/svg10.dtd">
<svg version="1.0" xmlns="http://www.w3.org/2000/svg"
 width="1500.000000pt" height="500.000000pt" viewBox="0 0 1500.000000 500.000000"
 preserveAspectRatio="xMidYMid meet">

<g transform="translate(0.000000,500.000000) scale(0.100000,-0.100000)"
fill="#000000" stroke="none">
<path d="M2432 4964 c-52 -34 -54 -35 -73 -18 -30 27 -116 30 -157 4 -48 -30
-76 -97 -62 -149 22 -82 89 -128 163 -112 72 17 117 72 117 144 0 28 6 40 29
57 40 28 148 77 190 85 l34 7 -55 -103 c-107 -200 -97 -187 -143 -187 -178 3
-197 -250 -22 -279 50 -8 120 27 141 71 21 44 20 96 0 140 -17 34 -17 35 22
103 21 37 57 106 80 152 l42 84 17 -59 c9 -32 23 -90 30 -129 l14 -70 -35 -28
c-65 -54 -81 -123 -44 -185 52 -84 168 -96 233 -24 26 29 38 90 26 134 -9 37
-68 98 -93 98 -9 0 -19 29 -30 88 -9 48 -24 114 -34 147 l-18 60 -160 3 -159
2 -53 -36z"/>
<path d="M3010 4996 c0 -2 8 -24 18 -48 34 -78 109 -312 127 -391 l17 -78 -37
-57 c-21 -31 -65 -94 -99 -139 l-61 -83 -46 6 c-82 11 -153 -41 -166 -120 -9
-54 30 -124 81 -147 23 -10 50 -19 60 -19 32 0 103 39 122 68 18 28 24 100 11
143 -7 21 -1 34 35 80 24 30 59 78 78 106 19 29 38 53 41 53 11 0 29 -213 29
-335 l0 -120 -29 -17 c-90 -50 -90 -176 -2 -235 78 -52 187 -11 211 79 15 55
-2 111 -45 145 -31 25 -35 33 -35 77 0 37 3 47 14 43 24 -10 129 -93 204 -164
73 -68 73 -68 61 -101 -25 -71 12 -149 85 -177 107 -41 215 57 185 169 -21 76
-100 121 -174 99 -31 -10 -36 -8 -67 24 -49 53 -208 185 -261 219 -30 18 -47
36 -47 49 -1 25 -26 236 -36 295 l-7 44 29 -18 c16 -11 93 -66 170 -124 133
-99 142 -108 147 -144 12 -90 93 -143 182 -118 87 24 126 111 86 193 -25 52
-68 79 -126 79 -44 0 -72 -11 -98 -36 -13 -13 -23 -9 -80 37 -36 29 -126 94
-200 146 l-134 95 -32 110 c-18 61 -49 157 -69 213 l-37 103 -52 0 c-29 0 -53
-2 -53 -4z"/>
<path d="M3265 4985 c22 -8 50 -14 62 -14 32 -1 63 -34 152 -160 79 -111 80
-114 66 -142 -22 -41 -19 -106 6 -146 72 -116 259 -61 259 76 0 85 -58 141
-145 141 -47 0 -52 3 -75 38 -14 20 -44 64 -67 96 -24 33 -41 61 -39 64 3 2
47 -2 99 -8 92 -12 95 -13 100 -40 14 -67 99 -120 164 -101 91 26 131 97 107
188 l-6 22 -361 -1 c-313 0 -357 -2 -322 -13z"/>
<path d="M7606 4992 c-3 -5 -8 -44 -12 -88 -11 -141 33 -282 117 -378 l41 -46
-59 6 c-74 8 -175 -15 -257 -59 -56 -29 -216 -174 -216 -196 0 -10 92 -45 162
-62 27 -6 93 -10 151 -7 96 3 110 6 180 41 57 28 91 54 141 108 l66 71 67 -16
c125 -29 186 -36 307 -36 l120 0 -56 -57 c-71 -73 -102 -124 -133 -217 -30
-90 -34 -221 -9 -324 17 -69 79 -212 108 -247 16 -20 17 -19 65 32 158 168
231 365 203 550 -9 58 -24 103 -60 175 l-49 96 36 7 c210 36 503 154 800 321
l84 47 -41 -54 c-91 -121 -139 -283 -127 -429 11 -141 40 -225 140 -421 5 -10
15 -19 21 -19 18 0 126 120 177 197 167 251 177 505 31 754 -19 32 -34 60 -34
62 0 3 62 40 138 82 75 43 151 86 167 96 29 18 24 19 -320 18 l-350 0 45 -24
c82 -42 157 -59 272 -59 59 -1 104 -4 100 -7 -10 -9 -233 -135 -342 -194 -52
-28 -122 -66 -155 -85 -32 -18 -120 -59 -195 -91 l-135 -59 -6 108 c-10 152
-48 247 -145 351 l-56 61 -175 0 -174 0 7 -37 c3 -21 13 -65 21 -98 45 -185
177 -332 355 -399 l62 -23 -93 -22 c-184 -43 -388 -44 -561 -3 -64 15 -75 21
-72 37 1 11 5 54 8 95 13 162 -58 307 -206 415 -40 29 -56 35 -98 35 -28 0
-53 -4 -56 -8z"/>
<path d="M10670 4995 c0 -2 14 -20 31 -40 l32 -36 -103 7 c-66 4 -101 3 -97
-3 3 -5 32 -10 64 -12 32 -1 74 -4 93 -8 l34 -6 -69 -63 c-39 -34 -67 -65 -64
-68 3 -3 30 16 60 42 102 89 93 91 85 -20 -3 -56 -2 -98 3 -98 5 0 12 44 16
97 l7 97 69 -75 c77 -83 95 -83 21 2 -86 98 -89 90 29 83 65 -3 99 -2 91 4 -7
5 -43 10 -80 11 -37 1 -77 4 -89 7 -20 5 -19 8 18 41 51 46 43 55 -11 13 l-40
-32 0 31 c0 17 -4 31 -10 31 -5 0 -10 -13 -10 -30 0 -16 -3 -30 -6 -30 -3 0
-17 14 -31 30 -22 26 -43 39 -43 25z"/>
<path d="M11260 4990 c0 -23 29 -77 55 -100 22 -21 36 -25 90 -25 54 0 68 4
90 25 15 14 34 40 41 57 9 19 23 35 37 37 12 3 31 7 42 9 11 3 -64 5 -167 6
-123 1 -188 -3 -188 -9z"/>
<path d="M11827 4953 c-20 -27 -51 -63 -71 -82 -33 -32 -38 -34 -71 -24 -67
21 -141 -12 -170 -77 -44 -99 30 -206 137 -197 62 5 96 29 120 84 15 35 18 52
11 81 -9 35 -7 40 47 103 32 36 71 87 89 112 l32 47 -45 0 c-41 0 -47 -3 -79
-47z"/>
<path d="M12119 4918 c-85 -167 -225 -384 -312 -483 l-34 -39 -169 -4 -169 -4
-20 38 c-67 125 -265 72 -265 -71 0 -41 37 -103 73 -121 67 -36 168 -9 195 51
9 20 19 25 49 25 21 0 85 3 143 6 l105 5 -95 -93 c-52 -52 -128 -120 -167
-151 -73 -57 -73 -58 -112 -46 -77 23 -158 -16 -181 -87 -48 -144 121 -249
233 -146 30 28 49 84 41 117 -4 16 3 28 28 47 65 49 62 58 55 -133 -3 -96 -8
-181 -11 -190 -4 -8 -24 -23 -46 -33 -77 -34 -105 -136 -57 -207 58 -86 190
-80 238 11 35 64 15 146 -44 184 -22 15 -23 19 -15 78 4 35 7 135 7 223 l-1
160 125 126 124 126 7 -60 c3 -33 6 -128 6 -212 0 -147 -1 -152 -24 -174 -13
-12 -29 -42 -36 -66 -24 -86 45 -175 135 -175 74 0 145 67 145 138 0 70 -61
142 -120 142 -11 0 -20 6 -20 13 0 6 -5 119 -11 249 l-10 237 69 97 c38 53 98
146 133 205 35 60 66 108 69 109 3 0 17 -37 31 -83 15 -45 37 -105 50 -134
l22 -52 -43 -152 c-25 -83 -49 -153 -55 -154 -5 -2 -23 -6 -39 -10 -40 -9 -82
-54 -96 -104 -9 -35 -8 -48 9 -86 35 -78 123 -108 200 -67 80 43 94 165 27
221 -22 19 -20 42 17 160 l33 104 52 -86 53 -86 -22 -30 c-15 -21 -22 -44 -22
-76 0 -116 134 -182 226 -112 109 83 46 257 -92 257 -26 0 -35 9 -77 75 -25
42 -44 78 -42 80 3 3 29 1 58 -5 29 -5 77 -10 108 -10 51 0 56 -2 91 -42 33
-37 42 -41 91 -45 71 -5 113 20 141 82 41 93 -25 195 -126 195 -58 0 -106 -29
-130 -79 -19 -39 -22 -41 -65 -41 -25 1 -85 8 -135 18 l-90 17 -34 70 c-18 39
-45 116 -59 173 -26 105 -26 105 3 175 6 15 1 17 -48 17 l-55 0 -43 -82z"/>
<path d="M12544 4966 c-12 -68 37 -146 102 -162 98 -25 198 65 180 162 l-7 34
-134 0 -134 0 -7 -34z"/>
<path d="M14121 4940 c93 -174 261 -280 446 -280 l74 0 -66 -76 c-68 -77 -140
-181 -171 -246 l-17 -37 -66 6 c-126 10 -249 -40 -335 -139 -45 -52 -100 -150
-112 -202 l-7 -28 104 4 c57 3 127 13 155 22 69 22 162 86 199 137 l30 41 6
-70 c11 -117 78 -230 181 -306 29 -22 59 -44 66 -50 38 -28 73 109 61 242 -12
132 -81 247 -186 309 l-43 25 17 31 c34 67 117 181 178 246 57 60 232 197 241
188 2 -2 -5 -26 -16 -55 -34 -89 -43 -176 -26 -268 15 -90 46 -158 115 -254
l46 -65 3 339 c2 265 -1 342 -10 349 -10 7 -10 10 0 14 12 5 18 63 6 63 -16 0
-167 -86 -228 -130 l-70 -49 -21 68 c-24 75 -50 123 -103 189 l-34 42 -225 0
-224 0 32 -60z"/>
<path d="M5424 4821 c-59 -36 -79 -77 -83 -169 l-3 -83 44 -43 c96 -91 241
-82 300 20 39 67 20 148 -53 222 -72 72 -144 90 -205 53z m2 -52 c9 -15 -11
-33 -30 -26 -9 4 -13 13 -10 22 7 17 30 20 40 4z m66 -21 c-15 -15 -26 -4 -18
18 5 13 9 15 18 6 9 -9 9 -15 0 -24z m-87 -63 c0 -28 -29 -25 -33 3 -3 19 0
23 15 20 10 -2 18 -12 18 -23z m118 -1 c9 -10 -4 -34 -18 -34 -17 0 -28 17
-20 30 7 11 28 13 38 4z m-63 -19 c0 -8 -7 -15 -15 -15 -16 0 -20 12 -8 23 11
12 23 8 23 -8z m-40 -61 c0 -9 -5 -14 -12 -12 -18 6 -21 28 -4 28 9 0 16 -7
16 -16z m108 -31 c-5 -26 -38 -29 -38 -4 0 15 6 21 21 21 14 0 19 -5 17 -17z
m-108 -38 c0 -8 -4 -15 -9 -15 -13 0 -22 16 -14 24 11 11 23 6 23 -9z m75 -5
c0 -8 -10 -16 -22 -18 -18 -3 -23 2 -23 18 0 16 5 21 23 18 12 -2 22 -10 22
-18z m143 -7 c5 -17 -26 -29 -40 -15 -6 6 -7 15 -3 22 9 14 37 9 43 -7z m-83
-33 c-5 -8 -11 -8 -17 -2 -6 6 -7 16 -3 22 5 8 11 8 17 2 6 -6 7 -16 3 -22z"/>
<path d="M385 4775 c-30 -29 -31 -45 -7 -75 20 -25 63 -30 87 -10 23 19 19 76
-7 94 -31 22 -45 20 -73 -9z"/>
<path d="M485 4228 c-48 -49 -97 -110 -118 -148 -76 -137 -86 -296 -29 -442
16 -42 27 -80 24 -83 -3 -3 -28 -5 -56 -5 -56 0 -196 -21 -263 -39 -38 -10
-43 -15 -43 -41 0 -28 2 -29 26 -20 54 21 57 17 49 -67 -20 -234 106 -430 350
-544 50 -24 69 -29 75 -20 24 39 18 229 -11 334 -31 117 -137 245 -248 302
l-65 32 59 8 c82 10 280 8 340 -4 55 -11 210 -58 237 -72 15 -8 16 -13 4 -47
-51 -146 -14 -300 104 -425 59 -63 134 -115 144 -99 17 28 36 137 36 207 0 97
-17 160 -65 239 -33 55 -33 58 -12 53 142 -36 291 6 412 116 l60 54 -35 22
c-185 113 -403 99 -546 -35 l-49 -45 -75 25 c-109 37 -238 66 -292 66 -26 0
-49 4 -52 8 -3 5 12 22 33 38 189 145 241 408 131 662 -12 28 -27 52 -33 52
-5 0 -47 -37 -92 -82z"/>
<path d="M2157 3990 c-4 -14 -11 -56 -16 -94 -6 -37 -12 -70 -14 -72 -2 -2
-30 30 -63 72 -32 42 -60 72 -62 66 -2 -6 22 -43 53 -83 31 -41 52 -75 47 -77
-6 -2 -37 2 -68 7 -72 14 -125 14 -105 2 8 -5 47 -12 87 -16 41 -4 76 -10 79
-15 3 -4 -27 -32 -65 -61 -39 -29 -70 -57 -70 -62 0 -11 37 12 95 58 22 18 46
35 54 40 14 8 14 6 -5 -134 -5 -36 -4 -52 3 -48 6 4 14 36 18 71 3 36 10 77
13 91 7 25 9 24 54 -38 48 -64 78 -96 78 -82 0 5 -25 42 -56 83 l-56 75 68 -7
c38 -4 81 -9 97 -12 15 -3 27 -1 27 4 0 5 -40 15 -90 21 -49 7 -90 16 -90 19
1 4 32 31 70 60 39 29 70 58 70 63 0 5 -36 -18 -80 -51 -88 -67 -86 -68 -69
40 11 73 8 127 -4 80z"/>
<path d="M6292 3815 c-32 -41 -11 -95 37 -95 57 0 84 51 50 93 -26 34 -61 35
-87 2z"/>
<path d="M12635 3552 c-5 -4 -17 -16 -25 -27 -14 -19 -14 -20 6 -2 11 9 24 17
29 17 9 0 34 -31 35 -43 0 -5 -5 -5 -12 -1 -6 4 -8 3 -5 -4 8 -12 -2 -44 -12
-37 -4 2 -8 -2 -8 -10 0 -10 6 -11 26 -3 14 5 29 15 33 21 28 45 -27 119 -67
89z"/>
<path d="M5705 3428 c-7 -101 -8 -102 -26 -80 -50 63 -110 124 -116 119 -3 -4
23 -39 58 -78 l64 -72 -98 5 c-53 3 -97 2 -97 -2 0 -7 97 -20 159 -20 l36 -1
-35 -31 c-19 -17 -52 -47 -73 -65 -22 -19 -36 -37 -33 -40 3 -4 37 22 75 55
38 34 71 57 73 51 2 -6 0 -47 -3 -92 -4 -45 -4 -86 -1 -92 8 -12 20 68 21 145
l2 55 31 -35 c17 -19 47 -52 65 -73 19 -22 37 -36 40 -33 3 3 -20 35 -51 71
-32 35 -55 68 -52 73 2 4 44 4 92 0 77 -8 106 -6 93 6 -4 4 -127 16 -166 16
-13 0 -23 4 -23 8 0 4 29 32 65 62 35 30 65 61 65 68 0 8 -34 -17 -77 -55
l-76 -68 6 103 c4 58 3 102 -2 102 -5 0 -12 -46 -16 -102z"/>
<path d="M8547 3503 c-4 -3 -7 -36 -7 -72 0 -36 -3 -77 -7 -90 -6 -23 -10 -20
-69 45 -34 38 -65 66 -68 63 -3 -3 21 -36 54 -73 33 -37 60 -69 60 -73 0 -3
-43 -2 -95 2 -66 5 -95 3 -95 -4 0 -6 22 -11 53 -12 28 0 71 -4 95 -7 l43 -7
-71 -64 c-39 -35 -69 -66 -66 -69 3 -2 31 17 62 44 101 89 95 91 87 -21 -5
-73 -3 -96 5 -91 7 4 12 36 13 79 1 114 5 116 73 36 51 -60 76 -81 76 -65 0 3
-27 35 -60 73 -33 37 -60 71 -60 75 0 7 105 2 163 -7 15 -3 27 0 27 5 0 6 -9
11 -20 11 -11 1 -24 3 -30 4 -5 1 -39 3 -75 4 -36 0 -65 4 -65 9 0 4 32 34 71
67 39 33 66 61 60 63 -6 2 -43 -24 -81 -58 l-70 -62 6 101 c7 97 5 109 -9 94z"/>
<path d="M9662 3464 c-54 -38 -6 -133 54 -105 27 12 44 45 36 73 -9 37 -58 55
-90 32z"/>
<path d="M12640 3361 c0 -6 4 -13 10 -16 6 -3 7 1 4 9 -7 18 -14 21 -14 7z"/>
<path d="M12620 3343 c0 -6 8 -17 18 -24 16 -13 16 -13 2 6 -8 11 -16 22 -17
24 -2 2 -3 0 -3 -6z"/>
<path d="M12620 3300 c0 -5 5 -10 11 -10 5 0 7 5 4 10 -3 6 -8 10 -11 10 -2 0
-4 -4 -4 -10z"/>
<path d="M12609 3203 c-13 -16 -12 -17 4 -4 16 13 21 21 13 21 -2 0 -10 -8
-17 -17z"/>
<path d="M12621 3174 c0 -11 3 -14 6 -6 3 7 2 16 -1 19 -3 4 -6 -2 -5 -13z"/>
<path d="M2337 3142 c-35 -39 -9 -102 41 -102 34 0 65 37 57 68 -12 51 -66 69
-98 34z"/>
<path d="M12603 3093 c4 -3 -1 -16 -10 -27 -18 -21 -18 -21 4 -2 20 16 23 36
6 36 -4 0 -3 -3 0 -7z"/>
<path d="M12653 3093 c-21 -8 -15 -18 11 -18 18 0 22 3 14 13 -6 6 -11 12 -12
11 0 0 -7 -3 -13 -6z"/>
<path d="M14395 3059 c-25 -47 -55 -176 -55 -234 0 -46 13 -106 34 -156 6 -14
0 -15 -54 -7 -44 6 -82 4 -131 -7 -70 -14 -189 -71 -189 -90 0 -24 106 -148
157 -185 83 -59 154 -83 234 -77 l65 4 -42 -64 c-67 -98 -87 -198 -64 -317 19
-101 22 -103 108 -67 128 51 208 118 252 208 l17 35 26 -44 c42 -73 148 -156
220 -173 l27 -7 0 231 c0 205 -2 231 -16 231 -9 0 -28 10 -42 21 l-27 22 27
-7 c14 -3 33 -9 42 -12 12 -4 16 0 16 15 0 24 -1 24 -54 12 -25 -6 -47 -6 -62
1 -20 9 -27 8 -39 -8 -13 -17 -11 -22 28 -57 38 -33 39 -36 14 -27 -41 14 -42
13 -13 -21 15 -17 34 -45 42 -61 19 -37 10 -33 -62 29 -52 44 -80 58 -52 26
23 -27 89 -133 83 -133 -4 0 -31 24 -62 53 l-57 52 47 -90 48 -90 -51 55 c-29
30 -66 85 -83 123 -17 37 -35 67 -39 67 -5 0 -8 -28 -9 -62 l-1 -63 -12 35
-13 35 -7 -30 c-4 -17 -18 -49 -32 -70 l-24 -40 6 50 c3 28 10 67 14 88 4 20
6 37 5 37 -2 0 -20 -35 -42 -77 -40 -83 -52 -81 -30 5 18 67 2 56 -48 -34 -20
-35 -38 -64 -40 -64 -8 0 28 106 51 151 12 26 36 58 53 71 42 36 25 48 -63 42
-65 -5 -69 -4 -47 9 23 14 21 14 -35 21 -96 11 -98 23 -4 32 91 8 89 15 -13
34 -37 7 -65 15 -62 18 3 3 35 8 73 11 l67 6 -90 28 -90 27 77 -4 c64 -4 83
-9 111 -30 41 -32 45 -32 56 -4 6 17 2 28 -16 48 -13 14 -29 33 -34 42 -8 15
-4 14 28 -4 37 -21 38 -22 20 -1 -10 11 -27 45 -38 74 l-19 54 27 -30 c16 -17
42 -48 60 -70 l32 -40 -30 79 c-17 43 -28 80 -25 83 4 4 39 -40 73 -93 10 -16
-10 74 -32 141 l-7 20 17 -20 c24 -28 64 -114 71 -153 5 -24 11 -32 21 -28 8
3 18 6 23 6 4 0 11 17 16 38 l8 37 5 -35 6 -35 29 58 c40 81 61 87 37 11 -30
-94 -20 -110 21 -35 15 26 34 54 42 60 13 11 14 9 7 -16 -5 -15 -14 -41 -20
-57 -10 -24 -8 -49 2 -35 2 2 25 33 51 69 28 38 46 55 41 40 -13 -44 -58 -129
-76 -146 -14 -13 -16 -21 -7 -46 10 -27 13 -29 44 -23 41 7 43 1 7 -19 -28
-15 -28 -15 25 -16 l52 0 0 55 c0 44 -3 55 -16 55 -15 0 -15 2 0 25 13 20 16
56 16 214 l0 190 -55 -19 c-97 -33 -161 -78 -217 -152 l-35 -46 -23 55 c-13
32 -44 77 -74 107 -49 50 -147 116 -173 116 -7 0 -20 -14 -28 -31z"/>
<path d="M12520 3076 c0 -2 8 -10 18 -17 15 -13 16 -12 3 4 -13 16 -21 21 -21
13z"/>
<path d="M12731 3047 c-13 -21 -12 -21 5 -5 10 10 16 20 13 22 -3 3 -11 -5
-18 -17z"/>
<path d="M12520 3044 c0 -6 5 -15 12 -22 7 -7 8 -12 4 -12 -5 0 -3 -7 4 -15 7
-8 20 -15 29 -14 10 0 8 3 -7 10 -13 5 -21 12 -19 17 3 4 -1 16 -9 27 -8 10
-14 14 -14 9z"/>
<path d="M12494 3015 c1 -8 8 -21 16 -28 12 -10 12 -9 2 4 -6 9 -9 18 -6 21 3
3 1 9 -4 12 -6 3 -9 -1 -8 -9z"/>
<path d="M12576 3013 c-6 -14 -5 -15 5 -6 7 7 10 15 7 18 -3 3 -9 -2 -12 -12z"/>
<path d="M12600 3000 c0 -6 7 -10 15 -10 8 0 15 2 15 4 0 2 -7 6 -15 10 -8 3
-15 1 -15 -4z"/>
<path d="M2735 2571 c-7 -12 5 -64 13 -56 3 3 8 17 9 30 4 25 -11 42 -22 26z"/>
<path d="M14920 2451 c-39 -8 -28 -14 43 -26 33 -5 37 -4 37 15 0 21 -13 23
-80 11z"/>
<path d="M2647 2424 c-80 -42 -386 -61 -444 -28 -23 14 -42 15 -96 10 l-68 -8
6 -29 c6 -27 5 -29 -27 -29 -62 0 -62 0 -43 -181 11 -97 23 -168 30 -176 7 -7
15 -17 17 -22 2 -6 22 -7 46 -4 34 5 42 9 37 22 -4 9 -9 27 -11 41 -3 14 -9
40 -15 57 -9 28 -13 31 -29 23 -12 -7 -21 -6 -27 3 -17 22 -9 42 15 39 18 -3
22 1 19 20 -2 21 3 24 78 34 85 12 134 21 175 29 14 3 35 7 48 9 12 3 27 8 32
11 6 4 17 1 25 -5 17 -14 22 -5 27 45 2 24 8 29 30 30 15 1 25 -2 22 -7 -4 -7
16 -12 37 -10 4 1 2 -9 -4 -23 -7 -13 -14 -22 -18 -20 -3 3 -19 -9 -34 -25
-15 -16 -31 -27 -36 -25 -4 3 -5 -5 -1 -17 l5 -22 9 24 c8 22 9 22 28 5 11
-10 20 -24 20 -32 0 -9 5 -11 13 -7 9 6 9 5 0 -8 -11 -12 -10 -18 5 -32 16
-13 19 -14 19 -1 0 8 -5 11 -11 8 -6 -4 -5 0 1 9 7 8 9 19 5 23 -4 5 -2 5 4 2
6 -4 21 4 33 17 13 13 28 23 34 22 20 -3 38 -17 32 -26 -3 -5 -1 -11 5 -15 5
-3 10 2 10 11 0 10 3 14 6 11 11 -10 -60 -147 -76 -147 -3 0 -5 11 -5 24 0 13
3 22 8 19 14 -8 7 25 -8 37 -11 9 -12 16 -5 25 8 9 8 15 0 20 -10 6 -14 -1
-11 -18 1 -5 -2 -6 -7 -3 -5 3 -9 -1 -9 -9 0 -8 5 -11 10 -8 6 4 7 1 2 -7 -5
-8 -4 -11 3 -6 6 3 13 3 16 -2 3 -5 -22 -8 -55 -7 -70 1 -67 8 -39 -125 13
-63 17 -97 10 -104 -16 -16 -12 -23 20 -29 l30 -6 1 -133 c0 -134 6 -186 29
-269 12 -41 11 -47 -6 -67 -21 -25 -54 -29 -54 -7 0 8 -7 15 -15 15 -18 0 -19
-14 -5 -41 7 -13 7 -19 0 -19 -5 0 -10 -4 -10 -9 0 -6 16 -3 36 5 41 17 64 6
64 -31 0 -12 9 -30 20 -40 11 -10 20 -24 20 -30 0 -7 7 -18 15 -25 9 -7 13
-15 11 -17 -3 -3 4 -20 15 -39 10 -19 19 -41 19 -48 0 -8 13 -39 30 -70 16
-31 25 -54 19 -51 -5 4 0 -10 11 -30 11 -20 15 -33 8 -29 -7 4 -2 -5 11 -19
14 -15 21 -27 16 -27 -5 0 7 -17 26 -37 18 -20 25 -31 14 -23 -11 8 -7 0 9
-17 16 -18 34 -42 41 -55 6 -13 18 -21 26 -20 8 2 11 0 6 -4 -4 -4 1 -16 10
-27 10 -11 13 -17 6 -14 -14 9 13 -50 28 -58 5 -4 7 -10 4 -15 -3 -5 3 -7 13
-5 11 2 19 -3 19 -10 0 -8 -3 -12 -7 -10 -4 2 -7 -2 -7 -10 0 -7 8 -12 18 -10
10 2 18 1 18 -3 -1 -4 -1 -18 0 -32 1 -21 3 -22 12 -10 9 12 10 11 6 -7 -3
-13 0 -26 5 -30 6 -3 8 -1 4 5 -3 6 -1 14 6 18 7 4 10 3 5 -1 -4 -5 1 -17 10
-28 10 -11 12 -17 6 -13 -8 4 -13 1 -13 -9 0 -9 5 -13 10 -10 6 4 9 1 8 -7 -2
-7 2 -12 8 -11 6 1 11 -4 11 -11 0 -7 -6 -13 -13 -13 -7 0 -12 3 -11 6 1 3 -2
7 -6 8 -5 0 -21 13 -36 27 -15 15 -30 24 -32 21 -3 -3 -16 7 -30 22 -13 14
-17 22 -9 18 13 -8 13 -6 2 7 -7 9 -22 15 -32 13 -11 -2 -19 1 -17 8 1 7 -4
11 -12 9 -12 -3 -12 0 -2 12 11 13 9 15 -9 11 -18 -3 -20 -2 -10 10 10 12 8
13 -9 10 -12 -2 -20 1 -18 8 1 7 -4 11 -12 9 -11 -2 -12 0 -3 11 10 11 9 17
-3 27 -8 7 -13 16 -10 19 2 4 -2 8 -10 8 -13 0 -13 -3 1 -18 12 -14 13 -18 2
-25 -7 -4 -10 -3 -5 1 4 5 -4 21 -18 35 -14 15 -27 36 -28 48 0 11 -5 18 -9
16 -5 -3 -5 -11 -1 -17 4 -7 -1 -6 -10 2 -13 10 -14 17 -6 27 8 10 6 12 -11 9
-17 -3 -19 -1 -11 9 8 10 8 16 -2 25 -8 6 -17 7 -21 3 -4 -4 -6 0 -4 8 2 8 -3
14 -10 12 -6 -1 -11 1 -10 5 2 5 -1 9 -6 10 -5 1 -14 12 -21 25 -6 13 -16 22
-22 21 -5 -1 -10 4 -10 12 0 8 5 11 11 8 6 -4 5 1 -3 10 -7 9 -17 15 -20 12
-4 -2 -8 2 -8 10 0 8 5 11 11 8 6 -3 0 6 -13 20 -14 15 -21 27 -16 27 4 0 0 9
-11 21 -10 12 -18 24 -17 28 0 3 -3 5 -7 4 -5 -2 -7 6 -5 17 2 12 0 18 -5 15
-7 -5 -21 9 -26 25 -11 37 -17 49 -23 45 -4 -2 -8 2 -8 10 0 8 4 12 8 9 4 -2
11 0 14 6 4 6 1 9 -7 8 -8 -2 -13 6 -12 19 0 17 -3 20 -11 13 -9 -8 -12 -5
-11 10 0 11 -3 20 -9 21 -14 2 -35 -41 -35 -72 0 -29 31 -125 54 -167 14 -26
44 -96 87 -207 11 -27 22 -57 26 -65 18 -46 -5 -170 -38 -206 -10 -11 -19 -25
-19 -30 0 -19 -23 -34 -36 -23 -8 7 -14 6 -20 -2 -4 -8 -3 -9 4 -5 17 10 15 1
-4 -14 -12 -11 -15 -11 -12 1 2 8 -3 13 -11 11 -12 -3 -12 0 -2 12 11 13 10
15 -8 11 -12 -2 -20 1 -18 8 1 6 -9 11 -23 12 -14 1 -24 6 -22 13 3 18 -15 15
-22 -4 -3 -8 -2 -13 2 -10 5 3 9 -1 9 -9 0 -8 -3 -13 -5 -10 -3 3 -14 -3 -25
-12 -11 -10 -17 -13 -14 -6 4 6 3 14 -3 18 -6 4 -7 12 -3 18 4 7 0 6 -10 -2
-18 -15 -23 -26 -7 -16 16 10 11 -1 -7 -16 -10 -8 -14 -9 -10 -2 4 6 3 15 -3
18 -8 5 -7 12 2 23 9 12 6 11 -10 -2 -22 -19 -30 -32 -14 -22 5 3 9 -1 9 -9 0
-13 -3 -13 -17 0 -19 18 -35 8 -19 -12 11 -13 10 -14 -13 -17 -7 0 -13 -6 -13
-13 0 -6 -3 -15 -7 -19 -5 -4 -8 -28 -8 -54 l0 -46 138 13 c75 7 274 27 442
44 168 17 334 33 370 35 36 3 76 7 89 10 22 5 22 6 7 23 -16 17 -14 19 46 31
35 7 70 15 78 16 13 2 61 12 96 19 6 2 11 -3 11 -11 0 -7 -5 -10 -11 -7 -6 4
-2 -4 9 -18 11 -13 20 -25 21 -27 1 -1 67 4 147 13 81 8 149 15 152 15 3 0 5
10 5 23 0 42 14 48 35 16 20 -31 20 -31 93 -26 41 3 75 7 76 9 2 2 -3 55 -10
118 -7 63 -13 118 -14 123 -1 16 -29 6 -35 -13 -3 -11 -15 -20 -25 -20 -11 0
-35 -9 -55 -20 -47 -26 -50 -26 -62 13 -6 17 -34 97 -61 177 -62 179 -64 192
-34 205 16 7 21 16 18 30 -3 11 -6 28 -6 37 0 10 -15 24 -35 34 -20 9 -41 26
-47 37 -10 19 -11 19 -24 -11 -13 -32 -22 -36 -96 -46 -43 -5 -42 -9 -40 117
2 74 -19 144 -39 131 -7 -4 -9 -3 -6 3 4 6 -2 18 -13 28 -11 10 -20 15 -20 10
0 -4 -6 -3 -13 3 -16 14 -21 70 -7 88 6 7 15 25 19 41 4 15 11 27 16 25 20 -7
22 34 4 64 -10 17 -16 33 -13 37 8 8 -16 48 -25 43 -5 -3 -16 3 -26 14 -10 11
-14 20 -9 20 5 0 -4 12 -19 26 -31 29 -30 42 1 25 12 -6 31 -11 43 -11 l23 0
-25 28 c-14 15 -38 48 -53 74 -76 134 -174 236 -275 288 -38 19 -186 47 -208
39 -32 -12 -40 2 -46 78 -9 94 -14 107 -34 88 -16 -17 -52 -20 -54 -5 -1 6 -2
16 -3 23 -4 22 14 47 34 47 14 0 20 -7 20 -22 0 -12 3 -19 6 -15 8 8 -4 57
-14 57 -4 -1 -28 -12 -55 -26z m-509 -106 c-3 -7 -11 -13 -18 -13 -7 0 -15 6
-17 13 -3 7 4 12 17 12 13 0 20 -5 18 -12z m117 -9 c10 -15 -1 -23 -20 -15 -9
3 -13 10 -10 16 8 13 22 13 30 -1z m258 -232 c4 3 7 4 7 1 0 -3 -8 -12 -17
-19 -10 -7 -15 -9 -11 -5 4 5 2 16 -5 25 -10 14 -10 14 4 4 9 -7 19 -10 22 -6z
m405 -147 c17 -11 32 -17 32 -13 0 4 11 -4 25 -17 14 -13 25 -29 25 -35 0 -16
45 -57 53 -48 4 3 7 1 7 -5 0 -11 -54 -56 -68 -58 -4 0 -20 -6 -36 -13 -16 -6
-35 -10 -42 -7 -7 3 -18 -2 -25 -10 -6 -8 -14 -12 -17 -10 -2 3 -14 0 -25 -6
-12 -6 -34 -12 -49 -13 -27 -2 -28 -1 -14 14 13 15 13 20 1 44 -8 15 -15 31
-16 35 0 4 -6 6 -12 4 -7 -2 -9 0 -5 4 4 4 3 13 -3 21 -6 7 -8 13 -4 13 4 0 2
6 -4 13 -13 17 9 39 77 78 58 33 60 33 100 9z m302 -315 c0 -12 -9 -30 -19
-39 -19 -17 -23 -17 -69 -2 -51 17 -85 12 -90 -13 -3 -12 0 -12 12 -2 9 7 16
8 20 2 4 -5 -10 -26 -30 -45 -33 -32 -41 -36 -73 -30 -44 8 -53 13 -45 25 3 5
11 6 17 2 7 -4 6 0 -2 10 -16 20 -36 11 -77 -35 -30 -34 -67 -47 -79 -28 -14
23 8 49 63 75 86 40 87 40 90 66 7 43 22 52 48 28 22 -21 25 -21 58 -5 19 9
41 16 50 16 8 0 30 9 48 20 l32 19 23 -21 c13 -12 23 -31 23 -43z m-165 -192
c-11 -7 -33 -13 -49 -12 l-31 0 25 11 c14 5 32 14 40 18 23 12 35 -1 15 -17z
m65 -76 c0 -8 -7 -14 -15 -14 -11 0 -12 4 -4 14 6 7 13 13 15 13 2 0 4 -6 4
-13z m471 -384 c9 -10 9 -14 2 -10 -9 6 -12 -5 -11 -37 0 -25 4 -43 9 -40 16
9 10 -2 -10 -20 -19 -17 -19 -17 -14 6 3 12 2 20 -2 16 -4 -4 -8 -22 -7 -39 1
-25 -2 -28 -13 -19 -12 10 -13 8 -10 -9 2 -12 -1 -20 -8 -18 -7 1 -11 -4 -9
-11 1 -8 -2 -11 -8 -7 -8 5 -7 11 1 21 11 13 5 19 -15 15 -5 -1 -3 5 4 14 11
14 11 16 -1 13 -8 -2 -13 3 -11 10 1 6 -2 12 -8 12 -5 0 -10 9 -10 21 0 11 -4
18 -8 15 -5 -3 -9 1 -9 9 0 8 5 11 11 8 6 -3 6 0 -1 7 -17 18 2 53 25 46 9 -3
24 -1 32 4 23 15 56 12 71 -7z m-1217 -521 c3 -5 -1 -9 -9 -9 -8 0 -12 4 -9 9
3 4 7 8 9 8 2 0 6 -4 9 -8z"/>
<path d="M5360 2419 c-14 -6 -37 -22 -52 -36 -23 -22 -28 -36 -28 -74 0 -62
31 -93 122 -120 94 -29 115 -51 81 -84 -22 -23 -90 -14 -150 19 l-43 25 -20
-39 -20 -40 52 -26 c95 -48 218 -42 270 13 25 27 32 49 29 101 -2 37 -50 77
-124 101 -81 27 -101 44 -87 72 14 25 55 25 122 -1 28 -11 53 -19 54 -17 13
16 34 70 29 76 -19 32 -179 52 -235 30z"/>
<path d="M5808 2227 c-49 -111 -88 -206 -88 -210 0 -4 23 -7 50 -7 49 0 50 1
66 40 l16 40 93 0 92 0 16 -40 c15 -40 15 -40 71 -40 l55 0 -31 73 c-17 39
-57 133 -88 207 l-57 135 -54 3 -54 3 -87 -204z m188 -32 c6 -25 5 -25 -54
-25 l-61 0 32 77 31 77 23 -52 c12 -29 25 -63 29 -77z"/>
<path d="M6310 2220 l0 -210 50 0 50 0 0 210 0 210 -50 0 -50 0 0 -210z"/>
<path d="M6590 2220 l0 -210 140 0 140 0 0 45 0 45 -90 0 -90 0 0 165 0 165
-50 0 -50 0 0 -210z"/>
<path d="M6993 2388 c126 -220 137 -246 137 -313 l0 -65 50 0 50 0 0 70 c0 68
2 73 75 207 l75 138 -41 3 c-23 2 -47 1 -54 -1 -6 -3 -31 -41 -54 -86 -23 -44
-45 -82 -50 -85 -4 -3 -30 35 -57 84 l-48 90 -54 0 -53 0 24 -42z"/>
<path d="M7814 2416 c-75 -33 -99 -123 -46 -175 15 -15 50 -35 77 -45 96 -34
115 -45 115 -66 0 -48 -79 -50 -164 -5 l-46 24 -19 -38 -20 -38 51 -28 c110
-60 255 -40 293 41 37 79 -16 151 -130 178 -88 21 -104 87 -22 86 20 -1 58
-13 109 -35 13 -5 21 2 35 30 17 36 17 37 -2 51 -47 34 -173 45 -231 20z"/>
<path d="M8220 2220 l0 -210 50 0 49 0 3 83 3 82 88 3 87 3 0 -86 0 -85 53 0
52 0 0 208 0 207 -53 3 -52 3 0 -85 0 -86 -90 0 -90 0 0 85 0 85 -50 0 -50 0
0 -210z"/>
<path d="M8911 2413 c-11 -22 -171 -394 -171 -399 0 -2 23 -4 51 -4 50 0 51 1
66 40 l16 41 95 -3 95 -3 12 -35 c11 -34 13 -35 69 -38 l57 -3 -14 33 c-8 18
-47 113 -88 210 l-74 178 -52 0 c-40 0 -55 -4 -62 -17z m90 -171 l27 -67 -55
-3 c-30 -2 -58 -1 -60 2 -3 3 7 37 23 76 15 38 30 68 33 64 3 -3 18 -36 32
-72z"/>
<path d="M9330 2220 l0 -210 55 0 55 0 0 85 0 86 88 -3 87 -3 3 -82 3 -83 49
0 50 0 0 210 0 210 -50 0 -50 0 0 -85 0 -85 -90 0 -90 0 0 85 0 85 -55 0 -55
0 0 -210z"/>
<path d="M1950 2384 c0 -9 7 -14 17 -12 25 5 28 28 4 28 -12 0 -21 -6 -21 -16z"/>
<path d="M11735 2230 c-3 -6 1 -7 9 -4 18 7 21 14 7 14 -6 0 -13 -4 -16 -10z"/>
<path d="M11750 2180 c0 -5 5 -10 10 -10 6 0 10 5 10 10 0 6 -4 10 -10 10 -5
0 -10 -4 -10 -10z"/>
<path d="M2456 2138 c3 -5 10 -6 15 -3 13 9 11 12 -6 12 -8 0 -12 -4 -9 -9z"/>
<path d="M11705 2120 c-3 -5 -1 -10 4 -10 6 0 11 5 11 10 0 6 -2 10 -4 10 -3
0 -8 -4 -11 -10z"/>
<path d="M2049 1503 c-13 -16 -12 -17 4 -4 9 7 17 15 17 17 0 8 -8 3 -21 -13z"/>
<path d="M2138 1305 c-3 -3 -16 -8 -28 -10 -30 -6 -33 -10 -26 -32 5 -15 14
-18 46 -15 43 4 43 5 34 40 -6 21 -15 27 -26 17z"/>
<path d="M2070 1211 c0 -6 4 -12 8 -15 5 -3 9 1 9 9 0 8 -4 15 -9 15 -4 0 -8
-4 -8 -9z"/>
<path d="M5010 1100 c0 -5 5 -10 10 -10 6 0 10 5 10 10 0 6 -4 10 -10 10 -5 0
-10 -4 -10 -10z"/>
<path d="M6032 1025 c3 -78 10 -104 21 -72 3 9 7 9 20 -2 43 -35 100 24 75 77
-15 30 -60 42 -84 21 -12 -10 -14 -6 -14 25 0 20 -5 36 -11 36 -6 0 -9 -30 -7
-85z m99 -6 c12 -22 -4 -59 -26 -59 -30 0 -45 13 -45 41 0 47 48 60 71 18z"/>
<path d="M7100 1025 c0 -52 4 -85 10 -85 6 0 13 7 15 15 17 52 15 52 43 17 37
-44 47 -40 20 7 -22 39 -22 40 -4 60 27 30 4 26 -24 -4 -13 -14 -27 -25 -32
-25 -4 0 -8 23 -8 50 0 28 -4 50 -10 50 -6 0 -10 -35 -10 -85z"/>
<path d="M8190 1025 c0 -50 4 -85 10 -85 6 0 10 35 10 85 0 50 -4 85 -10 85
-6 0 -10 -35 -10 -85z"/>
<path d="M8830 1100 c0 -5 5 -10 10 -10 6 0 10 5 10 10 0 6 -4 10 -10 10 -5 0
-10 -4 -10 -10z"/>
<path d="M10040 1025 c0 -50 4 -85 10 -85 6 0 10 8 10 19 0 10 6 23 13 29 10
9 17 4 31 -18 9 -17 24 -30 32 -30 13 0 12 5 -4 28 -32 47 -33 50 -10 71 14
14 17 21 8 21 -8 0 -27 -12 -42 -27 l-28 -27 0 52 c0 29 -4 52 -10 52 -6 0
-10 -35 -10 -85z"/>
<path d="M10190 1100 c0 -5 5 -10 10 -10 6 0 10 5 10 10 0 6 -4 10 -10 10 -5
0 -10 -4 -10 -10z"/>
<path d="M10270 1025 c0 -50 4 -85 10 -85 6 0 10 35 10 85 0 50 -4 85 -10 85
-6 0 -10 -35 -10 -85z"/>
<path d="M10350 1025 c0 -50 4 -85 10 -85 6 0 10 35 10 85 0 50 -4 85 -10 85
-6 0 -10 -35 -10 -85z"/>
<path d="M4450 1020 c0 -47 4 -80 10 -80 6 0 10 11 10 25 0 21 5 25 28 25 41
0 72 26 72 60 0 36 -23 50 -79 50 l-41 0 0 -80z m98 31 c4 -28 -12 -41 -50
-41 -25 0 -28 3 -28 36 0 35 1 35 38 32 30 -2 38 -7 40 -27z"/>
<path d="M6721 1029 c-17 -40 -31 -76 -31 -80 0 -17 19 -9 25 11 5 16 15 20
52 20 36 0 46 -4 50 -20 3 -11 12 -20 19 -20 10 0 8 13 -10 53 -44 98 -49 107
-61 107 -7 0 -26 -32 -44 -71z m67 1 c11 -30 11 -30 -24 -30 -19 0 -33 4 -30
9 3 4 10 20 16 35 12 32 24 28 38 -14z"/>
<path d="M6890 1020 c0 -47 4 -80 10 -80 6 0 10 33 10 80 0 47 -4 80 -10 80
-6 0 -10 -33 -10 -80z"/>
<path d="M5559 1073 c-4 -49 4 -110 16 -122 8 -8 21 -11 32 -6 16 6 16 8 -4
16 -18 6 -23 16 -23 44 0 28 4 35 20 35 11 0 20 5 20 10 0 6 -9 10 -20 10 -11
0 -20 7 -20 15 0 21 -20 19 -21 -2z"/>
<path d="M6530 1076 c0 -8 -6 -17 -12 -20 -10 -5 -10 -7 0 -12 6 -3 12 -23 12
-44 0 -42 20 -66 47 -55 16 6 16 8 -4 16 -18 6 -23 16 -23 44 0 28 4 35 20 35
11 0 20 5 20 10 0 6 -9 10 -20 10 -11 0 -20 7 -20 15 0 8 -4 15 -10 15 -5 0
-10 -6 -10 -14z"/>
<path d="M4624 1049 c-4 -8 1 -9 15 -4 21 6 51 -8 51 -26 0 -4 -17 -9 -37 -11
-33 -3 -38 -7 -41 -30 -4 -31 25 -46 58 -28 13 7 20 7 20 0 0 -5 5 -10 10 -10
14 0 12 94 -2 108 -15 15 -65 16 -74 1z m64 -66 c-2 -11 -14 -19 -31 -21 -22
-3 -27 1 -27 17 0 17 6 21 31 21 24 0 30 -4 27 -17z"/>
<path d="M4767 1053 c-17 -17 -5 -45 23 -56 45 -17 40 -41 -7 -34 -35 6 -36 5
-19 -8 25 -19 50 -19 66 0 17 20 6 43 -26 55 -33 13 -26 36 10 32 18 -2 25 1
21 7 -7 12 -58 15 -68 4z"/>
<path d="M4887 1053 c-17 -17 -5 -45 23 -56 45 -17 40 -41 -7 -34 -35 6 -36 5
-19 -8 25 -19 37 -19 61 -1 23 17 14 43 -21 56 -33 13 -26 36 10 32 18 -2 25
1 21 7 -7 12 -58 15 -68 4z"/>
<path d="M5010 1000 c0 -33 4 -60 10 -60 6 0 10 27 10 60 0 33 -4 60 -10 60
-6 0 -10 -27 -10 -60z"/>
<path d="M5090 1045 c-20 -24 -15 -67 10 -87 30 -24 46 -23 76 7 27 27 26 59
-4 83 -22 17 -67 15 -82 -3z m80 -25 c16 -31 -4 -62 -38 -58 -28 3 -40 32 -28
64 8 21 54 17 66 -6z"/>
<path d="M5240 1000 c0 -33 4 -60 10 -60 6 0 10 14 10 31 0 41 16 69 41 69 23
0 37 -31 34 -72 -2 -18 2 -28 11 -28 10 0 12 13 10 49 -2 27 -7 54 -10 60 -9
15 -59 14 -74 -1 -9 -9 -12 -9 -12 0 0 7 -4 12 -10 12 -6 0 -10 -27 -10 -60z"/>
<path d="M5414 1048 c-5 -8 0 -9 15 -5 29 7 51 -1 51 -19 0 -9 -12 -14 -35
-14 -24 0 -38 -5 -42 -16 -11 -29 11 -49 56 -50 l41 0 0 46 c0 25 -5 51 -12
58 -15 15 -65 16 -74 0z m64 -65 c-4 -22 -58 -31 -58 -10 0 20 10 27 37 27 18
0 24 -5 21 -17z"/>
<path d="M5664 1035 c-31 -48 7 -104 62 -91 32 8 31 25 -1 18 -28 -5 -63 17
-45 28 6 4 29 6 51 5 36 -2 39 0 33 19 -10 34 -25 46 -55 46 -19 0 -34 -8 -45
-25z m72 1 c26 -19 14 -28 -32 -24 -36 3 -37 4 -20 21 21 21 27 21 52 3z"/>
<path d="M5894 1048 c-5 -8 0 -9 16 -5 23 6 50 -7 50 -24 0 -4 -17 -9 -37 -11
-33 -3 -38 -7 -41 -30 -4 -31 25 -46 58 -28 13 7 20 7 20 0 0 -5 5 -10 10 -10
14 0 12 94 -2 108 -15 15 -65 16 -74 0z m64 -65 c-4 -19 -30 -28 -55 -19 -23
9 3 36 34 36 18 0 24 -5 21 -17z"/>
<path d="M6204 1034 c-36 -55 26 -116 81 -80 32 21 35 80 6 96 -35 18 -69 12
-87 -16z m84 -22 c7 -50 -49 -72 -70 -27 -14 32 5 57 41 53 18 -2 27 -10 29
-26z"/>
<path d="M6362 1009 c4 -62 24 -82 60 -60 16 10 23 10 26 2 10 -30 22 -4 22
49 0 33 -4 60 -10 60 -5 0 -10 -10 -10 -22 0 -57 -22 -84 -55 -72 -10 4 -15
20 -15 50 0 24 -5 44 -11 44 -6 0 -9 -20 -7 -51z"/>
<path d="M7254 1035 c-31 -48 13 -107 67 -90 30 10 22 20 -13 20 -22 0 -34 5
-36 16 -2 12 6 15 40 15 38 -1 43 2 40 19 -9 51 -70 63 -98 20z m72 1 c26 -19
14 -28 -32 -24 -36 3 -37 4 -20 21 21 21 27 21 52 3z"/>
<path d="M7405 1036 c-32 -49 6 -105 61 -92 33 9 30 23 -4 18 -18 -2 -33 2
-41 12 -8 9 -10 16 -5 17 5 1 26 2 46 3 47 3 50 6 35 36 -18 37 -70 40 -92 6z
m71 0 c26 -19 14 -28 -32 -24 -36 3 -37 4 -20 21 21 21 27 21 52 3z"/>
<path d="M7550 1000 c0 -68 17 -82 22 -19 3 45 24 67 52 56 11 -5 16 -19 16
-52 0 -25 5 -45 10 -45 11 0 14 78 4 104 -7 19 -55 21 -72 4 -9 -9 -12 -9 -12
0 0 7 -4 12 -10 12 -6 0 -10 -27 -10 -60z"/>
<path d="M7796 1044 c-25 -25 -20 -71 10 -90 55 -37 117 25 80 80 -19 30 -65
35 -90 10z m74 -19 c15 -18 10 -45 -12 -59 -33 -20 -69 20 -54 60 7 18 50 18
66 -1z"/>
<path d="M7950 1000 c0 -71 18 -81 22 -12 3 41 6 47 27 50 29 5 41 -12 41 -60
0 -21 5 -38 10 -38 14 0 12 94 -2 108 -15 15 -51 15 -66 0 -9 -9 -12 -9 -12 0
0 7 -4 12 -10 12 -6 0 -10 -27 -10 -60z"/>
<path d="M8270 1045 c-20 -24 -15 -67 10 -87 27 -22 40 -22 65 -4 17 12 15 14
-21 12 -29 -1 -39 3 -39 14 0 11 11 15 43 14 33 0 42 3 42 17 0 42 -73 67
-100 34z m61 -5 c30 -16 23 -30 -16 -30 -37 0 -43 8 -23 28 15 15 15 15 39 2z"/>
<path d="M8415 1050 c-4 -6 5 -10 22 -8 16 1 34 -1 41 -6 22 -14 12 -26 -22
-26 -38 0 -60 -19 -50 -44 7 -19 6 -18 62 -20 l42 -2 0 39 c0 57 -14 77 -55
77 -18 0 -37 -5 -40 -10z m68 -57 c10 -10 -13 -33 -34 -33 -21 0 -33 15 -24
30 7 11 48 14 58 3z"/>
<path d="M8560 1000 c0 -33 4 -60 10 -60 6 0 10 14 10 31 0 38 16 69 35 69 8
0 15 5 15 10 0 14 -23 13 -38 -2 -9 -9 -12 -9 -12 0 0 7 -4 12 -10 12 -6 0
-10 -27 -10 -60z"/>
<path d="M8670 1000 c0 -71 18 -81 22 -12 3 41 6 47 27 50 29 5 41 -12 41 -60
0 -21 5 -38 10 -38 14 0 12 94 -2 108 -15 15 -51 15 -66 0 -9 -9 -12 -9 -12 0
0 7 -4 12 -10 12 -6 0 -10 -27 -10 -60z"/>
<path d="M8830 1000 c0 -33 4 -60 10 -60 6 0 10 27 10 60 0 33 -4 60 -10 60
-6 0 -10 -27 -10 -60z"/>
<path d="M8910 1000 c0 -68 17 -82 22 -19 3 45 24 67 52 56 11 -5 16 -19 16
-52 0 -25 5 -45 10 -45 6 0 10 25 10 55 0 51 -2 55 -27 61 -14 4 -34 2 -45 -5
-11 -7 -18 -7 -18 -1 0 5 -4 10 -10 10 -6 0 -10 -27 -10 -60z"/>
<path d="M9074 1036 c-13 -22 -14 -29 -2 -53 15 -31 50 -42 74 -23 11 10 14 9
14 -8 0 -27 -27 -41 -65 -35 -23 3 -27 2 -15 -6 22 -16 66 -13 84 5 18 18 23
144 6 144 -5 0 -10 -5 -10 -12 0 -9 -3 -9 -12 0 -20 20 -56 14 -74 -12z m67 4
c39 -22 12 -87 -31 -72 -32 11 -39 42 -14 66 18 19 20 19 45 6z"/>
<path d="M9310 1000 c0 -68 17 -82 22 -19 3 45 24 67 52 56 11 -5 16 -19 16
-52 0 -25 5 -45 10 -45 7 0 10 22 8 58 -3 54 -4 57 -31 60 -16 2 -35 -2 -43
-9 -10 -8 -14 -8 -14 0 0 6 -4 11 -10 11 -6 0 -10 -27 -10 -60z"/>
<path d="M9482 1048 c-27 -33 -13 -93 23 -102 21 -5 65 7 65 18 0 2 -17 3 -37
2 -26 -1 -38 4 -41 15 -2 12 6 15 40 15 32 -1 44 3 46 15 7 38 -70 68 -96 37z
m59 -8 c30 -16 23 -30 -16 -30 -37 0 -43 8 -23 28 15 15 15 15 39 2z"/>
<path d="M9610 1055 c0 -22 44 -115 53 -112 7 2 18 23 26 46 15 47 23 45 41
-11 6 -21 17 -38 23 -38 7 0 21 27 33 60 14 39 17 60 10 60 -7 0 -17 -21 -24
-47 -14 -50 -23 -48 -42 10 -16 50 -35 47 -49 -9 -13 -51 -22 -49 -41 9 -6 20
-16 37 -21 37 -5 0 -9 -2 -9 -5z"/>
<path d="M9917 1053 c-16 -15 -5 -44 23 -58 43 -22 39 -39 -7 -32 -35 6 -36 5
-19 -8 25 -19 50 -19 66 0 17 20 6 43 -26 55 -33 13 -26 36 10 32 18 -2 25 1
21 7 -7 12 -58 15 -68 4z"/>
<path d="M10190 1000 c0 -33 4 -60 10 -60 6 0 10 27 10 60 0 33 -4 60 -10 60
-6 0 -10 -27 -10 -60z"/>
<path d="M10427 1053 c-17 -17 -5 -45 23 -56 17 -6 30 -18 30 -25 0 -10 -9
-13 -30 -10 -34 5 -41 -7 -10 -17 59 -19 86 42 30 65 -37 15 -34 36 4 32 18
-2 25 1 21 7 -7 12 -58 15 -68 4z"/>
<path d="M2290 933 c-40 -16 -57 -18 -62 -10 -6 9 -8 9 -8 0 0 -12 -24 -12
-36 0 -4 4 -15 0 -25 -9 -13 -12 -19 -12 -25 -3 -4 7 -3 10 3 6 5 -3 10 0 10
8 0 13 -3 13 -17 0 -9 -8 -19 -12 -23 -9 -3 3 -3 -34 0 -83 3 -48 6 -89 8 -91
2 -2 12 1 23 7 18 10 21 7 28 -22 4 -17 8 -35 8 -39 1 -5 4 -8 9 -8 4 0 9 0
11 0 2 0 0 15 -4 34 -5 22 -3 39 3 45 15 15 27 14 27 -4 0 -28 15 -15 60 52
25 36 60 77 78 91 38 29 39 34 9 47 -17 8 -35 5 -77 -12z"/>
<path d="M6963 941 c0 -11 5 -17 9 -15 11 7 10 34 -1 34 -6 0 -9 -9 -8 -19z"/>
<path d="M10540 938 c0 -19 2 -20 10 -8 13 19 13 30 0 30 -5 0 -10 -10 -10
-22z"/>
<path d="M6430 743 c0 -29 -3 -34 -12 -25 -7 7 -24 12 -38 12 -14 0 -31 -5
-38 -12 -19 -19 -14 -73 9 -93 17 -16 25 -17 50 -8 16 6 29 7 29 2 0 -5 5 -9
10 -9 6 0 10 35 10 85 0 50 -4 85 -10 85 -5 0 -10 -17 -10 -37z m-10 -48 c15
-18 10 -45 -12 -59 -33 -20 -69 20 -54 60 7 18 50 18 66 -1z"/>
<path d="M6840 695 c0 -90 15 -117 22 -39 5 61 -2 124 -13 124 -5 0 -9 -38 -9
-85z"/>
<path d="M7005 770 c3 -5 10 -10 16 -10 5 0 9 5 9 10 0 6 -7 10 -16 10 -8 0
-12 -4 -9 -10z"/>
<path d="M7080 696 c0 -62 3 -86 13 -86 17 0 16 162 -1 168 -9 3 -12 -19 -12
-82z"/>
<path d="M8010 770 c0 -5 5 -10 10 -10 6 0 10 5 10 10 0 6 -4 10 -10 10 -5 0
-10 -4 -10 -10z"/>
<path d="M8580 696 c0 -62 3 -86 13 -86 8 0 12 23 12 82 0 56 -4 83 -12 85
-10 4 -13 -17 -13 -81z"/>
<path d="M5745 693 c-19 -42 -33 -78 -31 -81 8 -7 26 9 26 24 0 10 13 14 49
14 40 0 50 -3 54 -20 3 -11 11 -20 17 -20 7 0 10 6 7 13 -41 103 -63 147 -73
147 -8 0 -29 -34 -49 -77z m64 16 c6 -18 11 -34 11 -35 0 -2 -13 -4 -30 -4
-16 0 -30 2 -30 4 0 14 24 66 30 66 4 0 13 -14 19 -31z"/>
<path d="M5990 690 c0 -47 4 -80 10 -80 6 0 10 16 10 35 0 35 0 35 45 35 45 0
45 0 45 -35 0 -19 5 -35 10 -35 6 0 10 33 10 80 0 47 -4 80 -10 80 -5 0 -10
-16 -10 -35 0 -35 0 -35 -45 -35 -45 0 -45 0 -45 35 0 19 -4 35 -10 35 -6 0
-10 -33 -10 -80z"/>
<path d="M7404 756 c-3 -9 -3 -27 0 -40 4 -16 1 -26 -9 -30 -23 -8 -19 -53 6
-67 16 -8 28 -8 46 0 19 9 29 9 39 0 8 -7 17 -10 19 -7 3 3 -1 11 -10 18 -11
9 -12 17 -4 31 6 12 6 19 0 19 -5 0 -11 -6 -14 -12 -3 -10 -9 -8 -23 4 -17 17
-17 18 0 37 10 11 16 28 14 38 -4 24 -56 31 -64 9z m52 -7 c10 -17 -23 -46
-37 -32 -7 7 -9 19 -6 27 7 18 33 21 43 5z m-2 -110 c-3 -5 -16 -9 -29 -9 -27
0 -40 26 -24 47 10 11 16 10 35 -8 13 -12 21 -26 18 -30z"/>
<path d="M7840 690 c0 -64 3 -80 15 -80 9 0 15 9 15 25 0 21 5 25 30 25 34 0
70 30 70 59 0 29 -38 51 -87 51 l-43 0 0 -80z m101 44 c19 -23 -1 -48 -40 -52
-30 -3 -31 -2 -31 32 0 33 2 36 29 36 16 0 34 -7 42 -16z"/>
<path d="M9201 738 c0 -18 4 -42 9 -53 6 -15 9 -6 9 33 1 28 -3 52 -9 52 -5 0
-10 -15 -9 -32z"/>
<path d="M9261 738 c0 -18 4 -42 9 -53 6 -15 9 -6 9 33 1 28 -3 52 -9 52 -5 0
-10 -15 -9 -32z"/>
<path d="M6187 712 c-20 -22 -22 -65 -4 -80 6 -6 24 -13 39 -17 53 -13 91 61
50 98 -24 22 -65 21 -85 -1z m79 -27 c11 -43 -34 -73 -64 -43 -13 13 -16 50
-5 61 3 4 19 7 34 7 22 0 30 -6 35 -25z"/>
<path d="M6516 714 c-25 -24 -20 -71 9 -90 55 -36 117 25 81 80 -19 30 -65 35
-90 10z m72 -16 c30 -30 0 -75 -43 -64 -19 5 -25 13 -25 35 0 15 3 31 7 34 11
11 48 8 61 -5z"/>
<path d="M6670 650 c0 -47 4 -80 10 -80 6 0 10 14 10 30 0 27 2 30 19 20 11
-5 24 -10 30 -10 19 0 51 39 51 63 0 44 -59 74 -88 45 -9 -9 -12 -9 -12 0 0 7
-4 12 -10 12 -6 0 -10 -33 -10 -80z m90 45 c15 -18 10 -45 -12 -59 -33 -20
-69 20 -54 60 7 18 50 18 66 -1z"/>
<path d="M6875 721 c-3 -5 7 -11 22 -13 26 -3 28 -7 31 -50 2 -27 7 -48 13
-48 13 0 11 94 -3 108 -14 14 -54 16 -63 3z"/>
<path d="M7010 670 c0 -33 4 -60 8 -60 5 0 10 27 11 60 1 37 -2 60 -8 60 -7 0
-11 -25 -11 -60z"/>
<path d="M7164 705 c-31 -48 13 -107 67 -90 29 10 22 22 -9 17 -18 -2 -33 2
-41 12 -12 14 -10 16 17 16 42 0 62 9 62 29 0 46 -69 57 -96 16z m72 -2 c17
-17 17 -18 -4 -21 -12 -2 -32 -2 -44 0 -21 3 -21 4 -4 21 10 9 21 17 26 17 5
0 16 -8 26 -17z"/>
<path d="M7630 719 c-11 -8 -8 -9 13 -4 28 6 57 -8 57 -26 0 -5 -15 -9 -34 -9
-38 0 -60 -19 -50 -44 7 -19 6 -18 62 -20 l42 -2 0 39 c0 21 -5 47 -10 58 -12
21 -55 26 -80 8z m70 -57 c0 -14 -23 -32 -41 -32 -21 0 -33 16 -24 30 7 12 65
14 65 2z"/>
<path d="M8010 670 c0 -33 4 -60 10 -60 6 0 10 27 10 60 0 33 -4 60 -10 60 -6
0 -10 -27 -10 -60z"/>
<path d="M8108 723 c40 -5 41 -21 2 -58 -44 -42 -39 -55 20 -55 57 0 68 17 14
22 l-37 3 37 43 c20 24 36 46 36 48 0 2 -24 3 -52 2 -36 -1 -43 -2 -20 -5z"/>
<path d="M8248 723 c17 -2 32 -8 32 -12 0 -3 -13 -22 -30 -41 -42 -50 -39 -60
20 -60 28 0 50 5 50 10 0 6 -16 10 -35 10 -19 0 -35 3 -35 6 0 4 14 22 30 41
17 18 30 38 30 43 0 6 -21 9 -47 8 -37 -1 -40 -2 -15 -5z"/>
<path d="M8364 719 c-5 -9 1 -10 20 -5 17 4 34 2 42 -5 23 -19 16 -29 -20 -29
-38 0 -60 -19 -50 -44 7 -19 6 -18 62 -20 l42 -2 0 39 c0 57 -14 77 -55 77
-18 0 -37 -5 -41 -11z m76 -57 c0 -14 -23 -32 -41 -32 -21 0 -33 16 -24 30 7
12 65 14 65 2z"/>
<path d="M8664 704 c-36 -55 26 -116 81 -80 29 19 34 66 9 90 -25 25 -71 20
-90 -10z m84 -28 c6 -48 -50 -65 -70 -21 -14 32 5 57 41 53 20 -2 27 -9 29
-32z"/>
<path d="M8825 673 c12 -32 28 -59 34 -61 10 -3 36 48 47 95 11 44 -13 23 -26
-22 -7 -25 -16 -45 -20 -45 -4 0 -13 20 -20 45 -7 25 -18 45 -26 45 -9 0 -6
-15 11 -57z"/>
<path d="M8960 715 c-18 -22 -15 -62 5 -85 21 -24 44 -25 71 -5 17 13 16 14
-17 8 -23 -3 -39 -1 -44 7 -10 17 -2 21 44 22 33 0 41 4 41 18 0 43 -72 68
-100 35z m68 -7 c20 -20 14 -28 -23 -28 -19 0 -35 4 -35 8 0 12 22 32 35 32 6
0 16 -5 23 -12z"/>
<path d="M9100 670 c0 -33 4 -60 10 -60 6 0 10 14 10 31 0 38 16 69 35 69 8 0
15 5 15 10 0 14 -27 12 -34 -2 -5 -10 -7 -10 -12 0 -13 29 -24 8 -24 -48z"/>
<path d="M9205 620 c3 -5 8 -10 11 -10 2 0 4 5 4 10 0 6 -5 10 -11 10 -5 0 -7
-4 -4 -10z"/>
<path d="M9265 620 c3 -5 8 -10 11 -10 2 0 4 5 4 10 0 6 -5 10 -11 10 -5 0 -7
-4 -4 -10z"/>
<path d="M2135 568 c-2 -7 -1 -29 4 -48 l8 -35 4 43 c4 41 -6 68 -16 40z"/>
<path d="M2956 471 c-3 -5 1 -14 9 -21 8 -7 15 -9 15 -4 0 4 14 -5 32 -22 18
-16 27 -22 20 -13 -7 10 -8 19 -2 27 7 9 7 9 -2 2 -8 -7 -18 -4 -31 8 -10 9
-22 16 -26 15 -3 -2 -5 2 -3 7 3 12 -5 13 -12 1z"/>
<path d="M2300 444 c0 -8 5 -12 10 -9 6 4 8 11 5 16 -9 14 -15 11 -15 -7z"/>
</g>
</svg>
