<?xml version="1.0" standalone="no"?>
<!DOCTYPE svg PUBLIC "-//W3C//DTD SVG 20010904//EN"
 "http://www.w3.org/TR/2001/REC-SVG-20010904/DTD/svg10.dtd">
<svg version="1.0" xmlns="http://www.w3.org/2000/svg"
 width="1500.000000pt" height="500.000000pt" viewBox="0 0 1500.000000 500.000000"
 preserveAspectRatio="xMidYMid meet">

<g transform="translate(0.000000,500.000000) scale(0.100000,-0.100000)"
fill="#000000" stroke="none">
<path d="M2432 4964 c-52 -34 -54 -35 -73 -18 -11 10 -40 19 -72 21 -68 5
-111 -20 -138 -82 -17 -38 -18 -51 -9 -87 15 -53 68 -108 107 -109 55 -2 78 3
109 24 42 28 54 49 61 108 5 38 12 54 32 68 46 33 146 79 186 87 l38 7 -55
-104 c-110 -205 -97 -189 -148 -189 -81 0 -140 -57 -140 -135 0 -96 93 -165
183 -136 81 27 119 119 82 201 l-17 38 42 77 c23 42 59 111 80 153 l38 75 17
-59 c9 -32 23 -90 30 -128 l14 -70 -38 -33 c-47 -39 -65 -82 -58 -129 20 -121
169 -167 249 -78 26 30 39 93 28 134 -10 39 -52 84 -86 94 -18 6 -24 21 -39
99 -9 51 -24 117 -34 147 l-17 55 -159 3 -160 2 -53 -36z"/>
<path d="M3015 4983 c42 -102 100 -274 126 -373 l33 -123 -24 -41 c-12 -22
-57 -87 -99 -143 l-76 -103 -46 6 c-118 16 -200 -95 -149 -200 54 -112 211
-107 256 9 15 42 15 63 -1 120 -5 15 8 38 44 84 27 34 63 82 78 107 15 24 31
44 34 44 11 0 19 -90 25 -275 l6 -180 -30 -17 c-90 -49 -92 -176 -3 -235 78
-52 187 -11 212 79 14 53 -5 113 -48 147 -29 23 -33 32 -33 74 0 26 4 47 9 47
14 0 148 -108 220 -177 l61 -58 -11 -36 c-17 -52 -4 -103 35 -143 103 -102
273 0 234 141 -20 73 -100 117 -171 96 -30 -9 -35 -6 -103 57 -75 71 -250 210
-264 210 -5 0 -11 30 -14 68 -4 37 -13 116 -22 176 -8 59 -14 110 -11 112 6 6
226 -152 308 -221 18 -14 29 -37 34 -66 26 -155 254 -154 280 1 9 51 -21 118
-64 143 -41 24 -113 22 -160 -5 l-37 -21 -75 59 c-41 32 -129 97 -196 143
l-122 84 -21 81 c-26 95 -92 293 -109 324 -10 18 -21 22 -62 22 -45 0 -50 -2
-44 -17z"/>
<path d="M3280 4984 c30 -9 66 -21 79 -27 13 -7 64 -68 112 -136 87 -121 88
-123 74 -152 -36 -68 -7 -162 59 -193 97 -46 206 20 206 123 0 85 -58 141
-145 141 l-50 1 -67 96 c-37 54 -65 99 -63 101 2 2 46 -2 99 -8 77 -10 96 -16
96 -29 0 -27 38 -79 69 -96 41 -21 109 -19 148 5 53 32 75 98 57 167 l-6 22
-361 -1 c-337 0 -358 -1 -307 -14z"/>
<path d="M7606 4992 c-3 -5 -8 -44 -12 -88 -11 -141 33 -282 117 -378 l41 -46
-54 6 c-72 8 -156 -10 -248 -53 -57 -27 -93 -55 -152 -115 -43 -43 -78 -82
-78 -87 0 -10 92 -45 162 -62 27 -6 93 -10 151 -7 96 3 110 6 180 41 59 29 91
54 141 109 l64 71 69 -16 c124 -30 186 -37 306 -37 l120 0 -55 -57 c-71 -76
-102 -126 -133 -217 -30 -90 -33 -209 -9 -319 15 -68 75 -208 108 -252 14 -19
16 -18 65 33 158 166 231 363 203 549 -9 58 -24 103 -60 174 l-48 96 121 27
c66 15 167 46 225 68 117 46 361 162 489 234 l84 48 -41 -55 c-120 -160 -157
-358 -105 -569 19 -78 72 -207 102 -248 11 -17 21 -35 21 -41 0 -45 116 68
199 195 160 244 169 505 25 743 -19 31 -34 59 -34 62 0 4 62 42 138 84 75 43
151 86 167 96 29 18 23 19 -320 18 l-350 0 45 -24 c82 -42 157 -59 272 -59 60
-1 108 -2 108 -2 0 -2 -304 -174 -419 -238 -110 -60 -204 -106 -321 -155 l-95
-40 -6 97 c-10 161 -48 257 -145 361 l-56 61 -175 0 -174 0 7 -37 c26 -157 78
-271 162 -356 66 -67 144 -118 221 -143 l55 -17 -36 -13 c-139 -48 -406 -59
-579 -24 -57 12 -107 24 -111 28 -4 4 -3 25 2 47 22 93 5 217 -41 305 -29 55
-108 141 -166 179 -36 24 -58 31 -94 31 -26 0 -50 -4 -53 -8z"/>
<path d="M10670 4995 c0 -2 14 -20 31 -40 l31 -35 -102 6 c-77 6 -101 4 -96
-4 5 -8 40 -12 97 -12 49 0 89 -3 89 -7 0 -5 -30 -36 -67 -70 -80 -72 -82 -95
-2 -25 102 89 93 91 85 -20 -5 -67 -4 -98 3 -98 6 0 12 24 12 55 1 30 3 60 4
65 1 6 3 25 4 43 l1 32 70 -75 c78 -84 96 -84 22 1 -85 98 -88 89 24 83 71 -5
96 -3 89 4 -6 6 -49 12 -98 13 -48 1 -87 3 -87 5 0 2 18 20 40 40 51 47 44 57
-10 14 l-40 -32 0 31 c0 17 -4 31 -10 31 -5 0 -10 -13 -10 -30 0 -16 -3 -30
-6 -30 -3 0 -17 14 -31 30 -22 26 -43 39 -43 25z"/>
<path d="M11265 4973 c18 -75 75 -116 153 -110 59 4 95 30 118 84 9 19 23 35
37 37 12 3 31 7 42 9 11 3 -65 5 -169 6 l-188 1 7 -27z"/>
<path d="M11827 4953 c-20 -27 -51 -63 -70 -82 -31 -29 -39 -32 -69 -25 -79
18 -143 -10 -173 -75 -44 -100 30 -207 137 -198 62 5 96 29 120 84 16 37 18
52 10 83 -8 34 -7 41 17 66 37 41 103 123 130 162 l22 32 -44 0 c-42 0 -48 -3
-80 -47z"/>
<path d="M12115 4908 c-90 -175 -298 -487 -335 -504 -8 -4 -89 -9 -180 -11
l-165 -5 -20 38 c-67 125 -265 72 -265 -71 0 -39 37 -103 68 -119 54 -27 89
-29 137 -6 26 12 52 34 60 50 14 27 15 28 150 35 75 4 138 5 141 3 6 -7 -170
-175 -253 -241 -73 -58 -73 -58 -112 -46 -127 38 -234 -86 -172 -201 67 -126
266 -79 263 63 -1 40 3 48 31 69 64 49 61 58 54 -133 -3 -96 -8 -181 -11 -190
-4 -8 -24 -23 -46 -33 -50 -22 -80 -70 -80 -128 0 -108 111 -174 208 -124 88
46 96 176 14 236 -27 20 -28 23 -20 83 4 34 7 134 7 222 l-1 160 125 126 125
126 6 -45 c3 -25 6 -119 6 -210 0 -162 -1 -166 -24 -191 -46 -48 -49 -144 -7
-195 19 -23 76 -46 113 -46 68 0 138 70 138 138 0 69 -61 142 -117 142 -22 0
-22 -3 -39 361 l-6 137 67 93 c37 52 97 144 133 206 37 62 69 113 72 113 3 0
17 -37 31 -83 15 -45 37 -105 50 -134 l22 -52 -37 -132 c-50 -177 -51 -179
-78 -179 -13 0 -37 -9 -55 -20 -117 -71 -66 -260 70 -260 57 0 105 27 127 71
32 61 21 131 -24 168 -22 19 -20 42 17 160 l33 104 53 -87 c50 -82 52 -88 37
-105 -26 -29 -37 -80 -26 -122 13 -46 67 -96 116 -105 44 -8 114 22 139 60 60
90 -3 217 -109 222 -40 1 -43 4 -90 78 -27 42 -47 79 -44 81 3 3 29 1 58 -5
29 -5 79 -10 110 -10 51 0 60 -3 74 -25 57 -87 195 -84 241 4 34 67 7 167 -55
198 -68 34 -160 4 -193 -64 -20 -42 -22 -43 -68 -43 -50 0 -193 26 -220 41
-23 12 -77 146 -101 252 -21 90 -21 92 7 160 6 15 1 17 -48 17 l-55 0 -47 -92z"/>
<path d="M12545 4961 c-17 -101 82 -183 184 -152 65 19 109 90 97 156 l-7 35
-134 0 -133 0 -7 -39z"/>
<path d="M14122 4938 c42 -79 147 -187 215 -222 73 -36 155 -56 235 -56 l69 0
-66 -76 c-68 -77 -140 -181 -171 -247 l-17 -36 -62 6 c-104 10 -221 -29 -300
-99 -64 -55 -155 -209 -155 -259 0 -20 206 -5 269 19 74 29 139 75 181 128
l35 44 6 -68 c12 -130 85 -241 217 -334 34 -23 46 -27 57 -18 38 31 48 240 16
333 -33 94 -105 183 -181 222 -30 16 -30 16 -14 48 69 134 211 293 343 385 41
29 75 51 77 50 1 -2 -9 -37 -23 -78 -57 -170 -24 -338 98 -504 l44 -58 3 332
c2 256 -1 336 -10 348 -10 12 -10 16 0 19 12 5 18 63 6 63 -15 0 -151 -77
-221 -125 l-76 -53 -24 72 c-27 78 -50 120 -101 184 l-34 42 -225 0 -224 0 33
-62z"/>
<path d="M5424 4821 c-33 -20 -67 -63 -78 -97 -13 -44 -8 -142 9 -171 34 -58
128 -99 200 -89 114 18 178 128 131 227 -21 45 -88 113 -131 133 -44 21 -93
20 -131 -3z m2 -52 c9 -15 -11 -33 -30 -26 -9 4 -13 13 -10 22 7 17 30 20 40
4z m66 -21 c-15 -15 -26 -4 -18 18 5 13 9 15 18 6 9 -9 9 -15 0 -24z m-87 -63
c0 -28 -29 -25 -33 3 -3 19 0 23 15 20 10 -2 18 -12 18 -23z m118 -1 c9 -10
-4 -34 -18 -34 -17 0 -28 17 -20 30 7 11 28 13 38 4z m-63 -19 c0 -8 -7 -15
-15 -15 -16 0 -20 12 -8 23 11 12 23 8 23 -8z m-40 -61 c0 -9 -5 -14 -12 -12
-18 6 -21 28 -4 28 9 0 16 -7 16 -16z m108 -31 c-5 -26 -38 -29 -38 -4 0 15 6
21 21 21 14 0 19 -5 17 -17z m-108 -38 c0 -8 -4 -15 -9 -15 -13 0 -22 16 -14
24 11 11 23 6 23 -9z m73 9 c11 -11 -5 -34 -24 -34 -12 0 -19 7 -19 20 0 19
28 28 43 14z m145 -21 c5 -17 -26 -29 -40 -15 -6 6 -7 15 -3 22 9 14 37 9 43
-7z m-83 -33 c-5 -8 -11 -8 -17 -2 -6 6 -7 16 -3 22 5 8 11 8 17 2 6 -6 7 -16
3 -22z"/>
<path d="M403 4789 c-51 -19 -51 -89 -1 -108 40 -15 78 14 78 60 0 40 -37 63
-77 48z"/>
<path d="M485 4228 c-138 -140 -192 -267 -182 -429 4 -62 14 -108 35 -162 16
-42 27 -79 24 -82 -3 -3 -28 -5 -56 -5 -56 0 -196 -21 -263 -39 -36 -10 -43
-16 -43 -37 0 -25 2 -25 41 -19 l41 7 -7 -78 c-20 -232 104 -428 343 -542 86
-41 86 -40 95 54 23 243 -85 464 -272 559 l-65 32 55 7 c72 9 231 10 310 1 91
-10 285 -76 281 -95 -30 -129 -33 -157 -22 -219 6 -36 23 -89 37 -120 29 -60
138 -178 191 -205 32 -17 32 -17 43 11 22 59 31 130 27 217 -4 97 -35 185 -80
233 -12 13 -19 25 -16 28 3 3 29 0 58 -6 115 -25 268 27 377 126 l58 52 -35
22 c-185 113 -404 99 -544 -35 l-49 -46 -76 26 c-113 39 -238 66 -306 66 l-60
1 25 20 c197 159 261 359 191 601 -22 75 -51 138 -64 138 -5 0 -47 -37 -92
-82z"/>
<path d="M2158 4005 c-3 -5 -9 -41 -13 -80 -13 -119 -14 -119 -80 -32 -31 42
-59 77 -61 77 -12 0 2 -24 51 -90 30 -40 53 -75 51 -78 -3 -2 -36 1 -75 7 -38
6 -80 11 -93 10 -23 0 -23 0 -2 -9 12 -5 54 -12 93 -16 39 -3 71 -10 71 -14 0
-5 -31 -32 -70 -61 -38 -30 -70 -57 -70 -62 0 -10 12 -3 80 48 87 65 83 65 76
4 -17 -135 -18 -144 -7 -129 5 8 13 44 17 80 11 109 14 110 68 36 48 -65 76
-95 76 -81 0 5 -25 42 -56 83 l-57 75 73 -7 c40 -3 84 -9 97 -12 12 -4 23 -2
23 3 0 5 -40 15 -90 22 -49 7 -90 16 -89 19 0 4 31 31 70 60 38 29 69 57 69
63 0 5 -36 -18 -80 -51 -90 -69 -89 -69 -69 46 11 62 9 108 -3 89z"/>
<path d="M6291 3815 c-40 -52 14 -114 75 -86 18 8 24 18 24 44 0 63 -61 89
-99 42z"/>
<path d="M12627 3545 c-8 -8 -17 -12 -19 -10 -2 3 -5 -18 -7 -45 -1 -30 2 -50
9 -50 5 0 10 4 10 9 0 6 9 9 19 8 15 -1 17 -4 9 -14 -13 -16 -4 -17 25 -2 43
23 50 66 17 99 -24 24 -43 25 -63 5z m43 -63 c-7 -13 -9 -8 -9 23 0 35 1 37
10 17 6 -15 5 -30 -1 -40z"/>
<path d="M5709 3475 c-1 -30 -3 -59 -4 -65 -1 -5 -3 -27 -4 -47 -2 -37 -2 -38
-19 -17 -70 83 -112 127 -118 121 -4 -3 21 -37 55 -76 33 -38 61 -71 61 -74 0
-3 -8 -4 -17 -2 -52 10 -173 14 -173 5 0 -6 24 -10 53 -11 28 0 72 -4 97 -7
l45 -7 -29 -23 c-56 -44 -117 -104 -112 -109 3 -4 38 22 77 57 l71 63 -2 -94
c-1 -52 -1 -98 0 -104 4 -17 18 88 19 145 l2 55 31 -35 c17 -19 47 -52 65 -73
19 -22 37 -36 40 -33 4 3 -22 38 -57 77 l-63 71 101 -4 c56 -1 102 0 102 4 0
3 -43 9 -95 13 -52 4 -95 11 -95 16 0 4 8 14 18 21 45 32 114 99 109 105 -4 3
-38 -22 -76 -55 -71 -63 -83 -71 -76 -49 10 34 15 187 6 187 -6 0 -12 -24 -12
-55z"/>
<path d="M8547 3503 c-2 -5 -5 -35 -6 -68 -1 -33 -4 -73 -8 -89 l-5 -30 -63
70 c-35 38 -65 67 -68 64 -3 -3 21 -36 54 -73 32 -38 59 -71 59 -74 0 -2 -43
-2 -95 2 -68 5 -95 4 -95 -4 0 -7 26 -11 73 -12 39 -1 83 -4 96 -8 l24 -6 -34
-29 c-74 -62 -111 -98 -105 -103 3 -3 31 16 62 43 102 89 95 91 89 -22 -3 -63
-1 -90 4 -74 5 14 10 50 11 80 3 96 8 97 74 19 51 -60 76 -81 76 -65 0 3 -27
35 -60 73 -33 37 -60 70 -60 73 0 3 44 4 97 3 65 -1 89 1 73 6 -14 5 -58 9
-97 10 -40 1 -73 4 -73 9 0 4 32 34 70 66 38 32 67 63 64 68 -3 5 -39 -22 -81
-59 l-75 -68 7 103 c6 92 4 117 -8 95z"/>
<path d="M9652 3458 c-7 -7 -12 -27 -12 -45 0 -24 7 -37 26 -50 24 -15 29 -15
53 -2 29 16 41 70 20 95 -14 17 -70 19 -87 2z"/>
<path d="M12606 3364 c-18 -17 -18 -20 -10 -51 4 -16 13 -22 29 -21 13 1 23 5
23 8 0 3 0 7 2 10 1 3 3 15 6 28 3 17 -1 22 -17 22 -11 0 -17 5 -14 10 9 15
-2 12 -19 -6z"/>
<path d="M12620 3217 c0 -9 -5 -17 -11 -17 -19 0 -5 -55 15 -58 11 -3 16 0 12
7 -4 7 -1 9 8 5 21 -8 17 35 -6 60 -16 18 -18 18 -18 3z"/>
<path d="M2337 3142 c-22 -24 -21 -65 1 -85 40 -36 95 -11 95 43 0 54 -61 81
-96 42z"/>
<path d="M12680 3089 c0 -7 -11 -9 -27 -6 -40 7 -57 -1 -41 -22 10 -13 10 -14
-2 -4 -11 10 -19 9 -39 -10 l-26 -22 23 26 c12 14 20 28 17 31 -9 8 -65 -4
-59 -13 3 -5 11 -6 17 -2 9 5 9 3 1 -8 -6 -8 -10 -22 -9 -32 2 -9 0 -15 -5
-12 -5 3 -7 13 -5 23 3 18 -12 42 -25 42 -9 0 -6 -73 4 -89 6 -9 11 -9 21 -1
8 7 15 7 19 1 4 -5 16 -8 29 -5 62 11 71 14 79 26 6 10 8 9 8 -4 0 -13 7 -15
33 -11 17 3 35 10 39 16 6 9 8 9 8 0 0 -19 27 -16 34 3 9 23 8 27 -10 20 -10
-4 -13 -2 -7 7 14 23 11 35 -8 32 -11 -2 -23 2 -26 10 -6 17 -43 20 -43 4z
m-34 -34 c1 -8 -1 -17 -5 -19 -4 -3 -7 6 -7 19 0 25 8 25 12 0z m-46 -39 c0
-2 -8 -10 -17 -17 -16 -13 -17 -12 -4 4 13 16 21 21 21 13z"/>
<path d="M14389 3043 c-49 -113 -60 -243 -29 -333 10 -30 18 -56 17 -56 -1 -1
-27 2 -57 7 -71 11 -156 -4 -236 -42 -88 -42 -92 -49 -55 -103 52 -76 132
-147 201 -180 56 -27 76 -31 146 -31 l82 0 -39 -54 c-46 -64 -79 -162 -79
-235 0 -52 24 -164 39 -179 11 -11 146 46 207 89 56 38 96 84 124 141 l17 35
26 -44 c42 -73 148 -156 220 -173 l27 -7 0 226 c0 207 -2 227 -17 233 -10 4
-36 19 -57 35 -46 33 -67 35 -83 9 -11 -17 -7 -24 30 -56 l42 -36 -38 15 -39
16 31 -35 c17 -20 38 -50 47 -68 19 -37 23 -38 -67 35 -47 40 -73 51 -47 21
23 -27 89 -133 83 -133 -4 0 -31 24 -62 53 l-57 52 47 -90 48 -90 -50 54 c-28
30 -65 85 -83 122 -18 38 -36 69 -40 69 -5 0 -8 -28 -9 -62 l-1 -63 -12 40
-13 40 -6 -35 c-4 -19 -19 -53 -33 -75 l-25 -40 6 40 c17 101 22 135 20 135
-1 0 -19 -34 -40 -76 -22 -42 -41 -71 -43 -65 -4 11 9 73 24 117 8 25 -18 -10
-64 -85 -33 -53 -34 -54 -28 -21 9 53 63 156 96 183 24 21 27 27 15 37 -12 10
-47 9 -127 -6 -28 -5 -21 11 10 23 l27 11 -37 2 c-21 1 -41 3 -45 4 -5 1 -24
6 -43 11 l-35 9 40 7 c22 4 65 8 95 9 66 2 48 11 -57 30 -40 7 -70 16 -68 20
2 4 32 8 67 9 34 1 64 4 66 5 1 2 -37 15 -85 30 l-88 26 77 -4 c65 -4 83 -9
113 -32 20 -15 37 -25 39 -23 2 2 8 14 14 25 9 18 7 25 -14 45 -14 13 -30 32
-35 41 -8 15 -4 15 26 -4 l36 -21 -30 49 c-17 26 -31 57 -31 68 l1 21 17 -21
c9 -11 34 -40 55 -65 l38 -44 -16 40 c-30 73 -45 118 -41 122 4 4 40 -42 73
-93 6 -11 1 22 -12 71 -19 69 -20 85 -8 70 23 -30 62 -116 69 -153 5 -28 10
-32 28 -26 11 4 21 7 22 8 0 0 5 17 11 36 l11 35 1 -40 2 -40 22 45 c29 60 57
99 57 80 0 -8 -7 -40 -15 -70 -18 -66 -17 -60 -6 -60 5 0 14 12 20 28 7 15 25
43 41 62 l30 35 -19 -55 c-10 -30 -23 -64 -27 -75 -7 -18 -6 -18 7 -5 9 8 37
44 63 80 28 37 45 54 41 40 -11 -37 -50 -112 -73 -140 -16 -20 -18 -29 -9 -53
9 -26 13 -28 43 -22 41 7 43 1 7 -19 -28 -15 -28 -15 25 -16 l52 0 0 60 c0 49
-3 58 -15 54 -8 -4 -15 -2 -15 4 0 5 7 15 15 22 12 10 15 46 15 206 l0 194
-63 -23 c-88 -32 -173 -91 -211 -148 l-33 -49 -23 56 c-13 33 -44 77 -74 108
-49 51 -147 116 -174 116 -7 0 -22 -21 -33 -47z"/>
<path d="M2735 2538 c4 -24 13 -50 21 -59 8 -9 11 -19 7 -24 -5 -4 -2 -5 5 -1
7 4 9 13 5 19 -4 6 -7 21 -8 32 -4 69 -6 75 -21 75 -13 0 -15 -7 -9 -42z"/>
<path d="M2657 2429 c-47 -24 -78 -32 -160 -39 -162 -15 -261 -13 -294 6 -23
14 -42 15 -96 10 l-68 -8 6 -29 c6 -28 5 -29 -32 -30 -21 -1 -41 -1 -45 0 -11
1 -10 -14 8 -189 10 -90 22 -160 30 -167 7 -7 14 -17 16 -22 2 -6 22 -7 46 -4
33 4 41 9 38 22 -30 114 -39 131 -61 125 -13 -3 -26 -1 -29 5 -4 6 -1 11 6 11
9 0 9 3 -2 10 -13 9 -13 10 1 10 8 0 21 -6 28 -12 10 -11 12 -6 9 22 l-3 34
115 17 c167 25 193 30 213 40 9 6 23 6 30 2 6 -4 15 -8 20 -9 4 -1 10 -2 13
-3 4 0 1 -7 -5 -14 -6 -8 -8 -17 -4 -20 3 -4 6 -20 5 -37 0 -16 4 -32 9 -35 5
-4 9 -19 9 -35 0 -26 8 -71 30 -175 6 -24 5 -44 0 -49 -16 -16 -11 -24 19 -31
l29 -6 4 -162 c3 -122 9 -176 23 -220 l19 -58 -28 -27 c-25 -25 -28 -26 -40
-9 -21 28 -39 21 -31 -12 5 -22 2 -32 -12 -40 -25 -15 -5 -13 42 3 46 16 63 8
63 -31 0 -15 5 -29 11 -31 6 -2 11 -9 11 -16 0 -7 9 -21 20 -31 10 -9 18 -22
17 -29 -1 -6 4 -10 11 -8 8 1 11 -1 8 -6 -8 -14 26 -123 40 -129 7 -2 10 -11
7 -19 -3 -8 0 -14 6 -14 6 0 11 -5 11 -11 0 -5 -6 -7 -12 -3 -10 6 -10 4 -2
-7 6 -8 14 -26 18 -41 3 -16 11 -28 16 -28 6 0 10 -8 10 -18 0 -11 9 -27 19
-36 11 -10 17 -24 14 -32 -3 -8 1 -14 9 -14 7 0 20 -9 28 -19 7 -11 17 -18 21
-15 4 2 11 -1 15 -7 4 -8 3 -9 -4 -5 -7 4 -12 1 -12 -9 0 -9 4 -14 9 -11 11 7
23 -22 14 -36 -3 -6 -1 -8 4 -5 6 4 13 -3 16 -14 3 -12 10 -19 14 -16 5 3 10
-3 10 -14 1 -10 9 -26 17 -35 19 -19 21 -28 4 -19 -7 4 -6 1 2 -7 9 -7 15 -23
14 -36 -1 -12 3 -25 8 -28 5 -3 3 -13 -4 -22 -11 -13 -11 -14 1 -7 10 6 12 4
6 -6 -8 -12 -6 -12 8 0 21 16 21 16 1 35 -8 9 -10 16 -4 16 6 0 13 -7 16 -15
4 -8 10 -12 16 -9 5 3 4 13 -4 22 -10 14 -10 15 2 5 16 -15 23 -46 8 -36 -7 4
-9 -1 -6 -14 4 -16 1 -20 -18 -19 -12 1 -32 11 -44 21 -12 11 -24 18 -27 17
-3 -2 -7 -1 -10 2 -3 3 3 4 14 2 11 -3 20 1 20 9 0 7 -8 10 -17 8 -14 -4 -49
24 -42 34 1 1 -1 3 -5 2 -11 -1 -24 31 -17 43 4 7 3 8 -4 4 -7 -4 -12 -2 -12
5 0 7 -3 10 -6 7 -3 -4 -1 -17 6 -30 11 -22 10 -22 -4 -4 -9 11 -16 26 -16 34
0 7 -4 10 -10 7 -5 -3 -10 -1 -10 4 0 6 -5 11 -11 11 -5 0 -7 -5 -3 -12 4 -7
3 -8 -4 -4 -6 4 -8 14 -5 24 6 15 5 16 -12 2 -17 -14 -18 -14 -7 7 8 14 9 24
2 28 -5 3 -10 1 -10 -6 0 -7 -3 -9 -6 -6 -4 4 -1 15 7 24 7 10 10 15 5 11 -14
-12 -48 12 -42 28 3 9 1 12 -4 9 -6 -3 -10 2 -11 12 -1 13 -3 11 -9 -7 l-8
-25 -2 25 c-1 14 -2 28 -1 32 0 4 -7 4 -16 1 -13 -5 -15 -2 -10 11 4 10 3 15
-3 11 -6 -3 -10 1 -10 9 0 9 -4 16 -10 16 -5 0 -10 5 -10 11 0 5 4 8 8 5 5 -3
9 1 9 9 0 8 -3 12 -7 10 -10 -6 -49 41 -56 69 -3 13 -15 35 -27 47 -12 13 -21
27 -20 31 2 5 -2 8 -7 8 -6 0 -10 5 -10 11 0 5 5 7 12 3 7 -4 8 -3 4 4 -4 6
-12 9 -19 7 -7 -3 -19 12 -29 35 -10 25 -12 40 -6 40 6 0 3 9 -7 20 -9 10 -15
26 -12 34 9 22 -10 30 -28 13 -36 -37 -25 -146 25 -233 9 -17 23 -48 30 -70 7
-21 23 -61 36 -89 67 -145 74 -245 21 -304 -12 -13 -15 -20 -7 -16 9 5 7 -1
-5 -15 -43 -52 -45 -53 -60 -40 -8 7 -12 17 -8 24 3 6 3 8 -2 4 -4 -4 -15 -2
-23 4 -17 15 -44 20 -36 7 3 -5 9 -7 14 -4 5 3 11 1 14 -4 8 -13 -19 -8 -36 7
-8 6 -19 8 -23 4 -5 -4 -5 -2 -1 5 3 6 2 14 -4 18 -5 3 -10 -1 -10 -9 0 -9 -7
-13 -20 -11 -11 2 -22 -1 -25 -6 -4 -5 -12 -6 -18 -2 -18 11 -38 12 -31 2 3
-5 10 -6 16 -3 6 4 8 2 5 -4 -4 -5 -15 -9 -25 -8 -9 2 -23 -4 -30 -13 -11 -14
-11 -14 -6 4 3 12 -1 9 -11 -8 -9 -15 -13 -32 -10 -37 3 -6 2 -10 -3 -10 -15
0 -27 -43 -24 -86 2 -33 7 -41 20 -38 9 2 96 10 192 19 227 20 785 75 829 81
31 5 32 6 15 19 -11 7 -17 16 -14 19 7 7 58 17 101 21 20 1 41 5 46 8 5 4 23
9 40 11 22 4 30 2 31 -9 1 -8 3 -21 4 -28 2 -17 26 -17 188 -1 74 8 138 14
141 14 4 0 10 17 14 37 l7 37 21 -33 21 -34 74 6 c41 3 75 7 76 9 2 2 -3 55
-10 118 -7 63 -13 124 -14 134 0 18 -1 18 -20 1 -11 -10 -22 -26 -25 -36 -5
-15 -10 -17 -25 -9 -10 5 -20 7 -22 2 -4 -9 -68 -45 -72 -40 -6 6 -109 304
-121 350 -13 48 -6 68 23 68 10 0 12 7 8 22 -3 13 -6 33 -6 46 0 15 -6 22 -19
22 -24 0 -71 44 -72 67 0 16 -1 16 -8 -2 -5 -11 -7 -23 -5 -27 2 -3 -8 -16
-23 -28 -20 -15 -38 -20 -67 -18 l-41 3 -1 97 c-1 62 -6 103 -14 113 -10 12
-10 15 1 15 8 0 -9 15 -38 33 -56 35 -68 62 -46 107 7 14 13 35 13 48 0 23 19
32 21 10 0 -7 5 0 9 16 11 34 -8 83 -30 78 -11 -3 -11 0 0 13 11 13 11 20 0
40 -7 13 -18 21 -26 18 -8 -3 -17 3 -20 13 -4 11 -19 32 -33 48 -22 25 -23 28
-6 21 11 -4 34 -10 50 -13 l30 -5 -22 24 c-11 13 -35 48 -53 78 -54 92 -141
202 -189 237 -53 38 -129 77 -151 76 -8 0 -39 6 -68 13 -30 8 -68 11 -86 8
l-33 -5 -6 81 c-7 94 -12 107 -33 86 -35 -35 -77 5 -52 49 13 23 48 21 48 -4
0 -11 4 -20 8 -20 4 0 6 16 4 35 -2 19 -5 35 -6 35 0 -1 -27 -14 -59 -31z
m-523 -108 c3 -5 0 -11 -8 -14 -15 -6 -26 1 -26 15 0 11 27 10 34 -1z m126
-18 c0 -14 -26 -18 -34 -4 -7 11 0 18 19 18 8 0 15 -6 15 -14z m204 2 c-3 -6
2 -12 11 -12 8 0 15 5 15 11 0 5 7 1 16 -10 8 -10 12 -13 8 -5 -5 10 -3 12 5
7 8 -6 9 -12 2 -20 -6 -7 -7 -17 -3 -22 4 -5 3 -6 -2 -1 -5 4 -26 -7 -45 -25
-19 -18 -29 -26 -23 -16 9 11 10 18 2 23 -15 9 -10 82 6 82 7 0 10 -6 8 -12z
m24 -143 c-11 -13 -10 -15 3 -10 11 4 15 0 13 -15 -1 -12 -3 -26 -3 -30 -2
-18 -24 0 -28 23 -2 13 -8 29 -13 35 -14 17 9 38 27 23 11 -9 11 -14 1 -26z
m153 -12 c4 0 4 -12 -2 -27 -13 -37 -52 -93 -63 -93 -5 0 -4 6 1 13 6 6 13 20
17 31 5 14 2 17 -9 12 -8 -3 -15 -1 -15 3 0 5 5 11 11 13 6 2 5 14 -5 33 -9
17 -16 35 -15 40 0 6 7 -3 15 -20 11 -22 14 -24 10 -7 -2 13 3 29 12 39 15 14
17 14 25 -11 5 -14 13 -26 18 -26z m29 36 c0 -2 -8 -10 -17 -17 -16 -13 -17
-12 -4 4 13 16 21 21 21 13z m-121 -82 c-14 -13 -16 -13 -16 0 0 8 4 13 9 10
4 -3 8 0 8 7 0 7 3 9 7 5 4 -3 0 -13 -8 -22z m429 -208 c8 -4 12 -17 9 -27 -3
-10 0 -17 6 -16 6 1 16 -8 22 -21 7 -13 16 -24 21 -25 24 -5 -28 -52 -58 -52
-9 0 -20 -3 -24 -7 -12 -13 -36 -9 -28 4 4 7 3 8 -4 4 -7 -4 -12 -1 -12 6 0 7
-9 0 -19 -15 -10 -16 -21 -28 -25 -28 -19 3 -27 0 -22 -8 3 -4 -7 -8 -21 -7
-27 1 -29 6 -36 76 -1 15 -8 25 -18 24 -28 -2 -22 52 8 80 15 15 32 26 36 26
5 0 20 9 33 19 25 19 25 19 72 -2 26 -12 53 -26 60 -31z m242 -282 c0 -25 -37
-57 -53 -47 -6 3 -20 7 -31 8 -12 1 -29 5 -38 9 -33 15 -53 3 -53 -32 -1 -39
-37 -81 -57 -65 -7 6 -23 9 -36 8 -13 -1 -25 2 -28 7 -3 4 2 8 10 8 9 0 16 6
16 14 0 30 -60 4 -102 -43 -17 -19 -34 -28 -43 -25 -23 9 -18 38 10 62 14 12
25 20 25 17 0 -3 13 1 30 10 16 8 32 15 35 15 3 0 9 0 14 0 11 0 29 49 26 72
-2 12 2 15 13 11 27 -9 52 -35 46 -45 -4 -6 3 -5 14 1 12 6 24 16 27 21 3 6
14 10 23 10 10 0 37 11 61 24 l44 23 24 -20 c12 -11 23 -31 23 -43z m-140 -64
c0 -5 -4 -10 -9 -10 -6 0 -13 5 -16 10 -3 6 1 10 9 10 9 0 16 -4 16 -10z m-15
-119 c-16 -14 -55 -23 -55 -12 0 9 20 17 50 20 8 1 10 -2 5 -8z m499 -457 c9
-3 16 -10 16 -16 0 -5 -5 -6 -11 -2 -7 4 -10 -7 -7 -37 2 -26 -1 -43 -7 -42
-5 1 -11 -14 -12 -33 -1 -23 2 -32 9 -28 7 4 8 3 4 -4 -10 -16 -38 -2 -32 15
3 8 1 11 -4 8 -6 -3 -10 1 -10 10 0 9 -4 13 -10 10 -5 -3 -10 1 -10 10 0 9 -4
14 -9 10 -6 -3 -8 3 -6 15 2 11 0 22 -5 25 -4 3 -7 13 -5 23 2 9 4 20 4 25 1
4 6 7 12 7 5 0 7 -4 4 -10 -9 -15 8 -12 31 5 22 16 26 17 48 9z"/>
<path d="M2466 2182 c-3 -5 1 -9 9 -9 8 0 12 4 9 9 -3 4 -7 8 -9 8 -2 0 -6 -4
-9 -8z"/>
<path d="M2483 2125 c0 -8 4 -12 9 -9 5 3 6 10 3 15 -9 13 -12 11 -12 -6z"/>
<path d="M14925 2450 c-44 -7 -34 -15 33 -24 37 -6 42 -4 42 14 0 21 -6 22
-75 10z"/>
<path d="M5354 2416 c-47 -21 -74 -62 -74 -111 0 -57 33 -89 121 -116 72 -22
103 -46 93 -72 -14 -37 -88 -33 -162 8 l-42 24 -21 -40 -20 -40 58 -27 c47
-22 72 -27 133 -27 111 0 163 41 162 128 -1 55 -35 86 -126 117 -80 26 -100
43 -86 71 14 25 55 25 122 -1 28 -11 53 -19 54 -17 13 16 34 70 29 76 -10 18
-100 41 -154 41 -31 -1 -70 -7 -87 -14z"/>
<path d="M5813 2238 c-45 -106 -85 -201 -89 -210 -5 -16 1 -18 45 -18 50 0 51
1 67 40 l16 40 93 0 92 0 16 -40 c15 -40 16 -40 70 -40 l55 0 -65 153 c-35 83
-75 177 -87 207 l-22 55 -55 3 -54 3 -82 -193z m183 -43 c6 -25 5 -25 -54 -25
l-61 0 23 58 c13 31 26 66 31 77 6 17 11 12 31 -33 13 -28 26 -63 30 -77z"/>
<path d="M6310 2220 l0 -210 50 0 50 0 0 210 0 210 -50 0 -50 0 0 -210z"/>
<path d="M6590 2220 l0 -210 140 0 140 0 0 45 0 45 -90 0 -90 0 0 165 0 165
-50 0 -50 0 0 -210z"/>
<path d="M7051 2284 c75 -139 79 -148 79 -210 l0 -64 50 0 50 0 0 69 c0 67 2
74 74 208 l75 138 -41 3 c-22 2 -46 1 -53 -1 -6 -3 -31 -41 -54 -86 -23 -44
-45 -82 -50 -85 -4 -3 -30 35 -57 84 l-49 90 -52 0 -51 0 79 -146z"/>
<path d="M7814 2416 c-46 -20 -74 -62 -74 -109 0 -32 6 -46 34 -72 20 -19 54
-37 82 -44 69 -17 104 -38 104 -61 0 -48 -80 -50 -164 -5 l-46 24 -20 -39 -20
-39 57 -27 c118 -58 256 -38 289 42 32 76 -7 138 -106 169 -71 22 -100 41
-100 64 0 42 58 41 162 -4 13 -5 21 2 35 30 17 36 17 37 -2 51 -47 34 -173 45
-231 20z"/>
<path d="M8220 2220 l0 -210 50 0 49 0 3 83 3 82 88 3 87 3 0 -86 0 -85 54 0
53 0 -1 208 -1 207 -52 3 -53 3 0 -91 0 -91 -87 3 -88 3 -3 88 -3 87 -49 0
-50 0 0 -210z"/>
<path d="M8916 2421 c-5 -7 -153 -350 -173 -398 -4 -10 9 -13 47 -13 51 0 52
0 67 40 l16 40 94 0 93 0 16 -40 c16 -40 17 -40 70 -40 48 0 53 2 46 19 -4 10
-43 104 -87 209 l-80 192 -52 0 c-28 0 -54 -4 -57 -9z m88 -183 l25 -68 -59 0
c-33 0 -60 3 -60 7 0 21 55 142 61 136 4 -4 19 -38 33 -75z"/>
<path d="M9330 2220 l0 -210 55 0 55 0 0 85 0 86 88 -3 87 -3 3 -82 3 -83 49
0 50 0 0 210 0 210 -50 0 -49 0 -3 -87 -3 -88 -87 -3 -88 -3 0 91 0 90 -55 0
-55 0 0 -210z"/>
<path d="M1950 2389 c0 -12 7 -19 20 -19 11 0 20 6 20 14 0 7 -9 16 -20 19
-15 4 -20 0 -20 -14z"/>
<path d="M14945 2390 l-30 -7 30 -7 c17 -4 36 -10 43 -12 8 -2 12 3 10 13 -4
20 -14 23 -53 13z"/>
<path d="M11735 2230 c-3 -6 1 -7 9 -4 18 7 21 14 7 14 -6 0 -13 -4 -16 -10z"/>
<path d="M11750 2180 c0 -5 5 -10 11 -10 5 0 7 5 4 10 -3 6 -8 10 -11 10 -2 0
-4 -4 -4 -10z"/>
<path d="M2007 1860 c3 -19 10 -39 15 -45 7 -7 8 -3 4 12 -4 12 -2 24 4 28 15
9 12 28 -4 22 -8 -3 -17 -1 -20 6 -2 7 -2 -4 1 -23z"/>
<path d="M2078 1524 c-52 -33 -48 -38 7 -7 43 23 54 34 38 32 -5 0 -25 -11
-45 -25z"/>
<path d="M2109 1297 c-32 -11 -36 -15 -28 -34 7 -19 13 -22 41 -17 42 8 49 15
42 42 -7 25 -6 25 -55 9z"/>
<path d="M2134 1228 c-3 -5 -10 -6 -15 -3 -5 4 -18 3 -29 0 -15 -5 -20 -14
-18 -35 2 -22 5 -27 15 -18 7 6 13 18 13 27 0 12 2 13 9 3 7 -11 9 -11 14 2 3
8 14 13 25 11 10 -2 19 2 19 9 0 14 -25 17 -33 4z"/>
<path d="M5010 1100 c0 -5 5 -10 10 -10 6 0 10 5 10 10 0 6 -4 10 -10 10 -5 0
-10 -4 -10 -10z"/>
<path d="M6030 1025 c0 -47 4 -85 9 -85 5 0 11 5 13 11 3 9 10 9 26 0 48 -25
92 21 72 74 -12 32 -35 41 -71 28 -28 -11 -29 -11 -29 23 0 19 -4 34 -10 34
-6 0 -10 -35 -10 -85z m101 -6 c15 -29 -6 -61 -38 -57 -36 4 -49 42 -23 68 22
22 45 17 61 -11z"/>
<path d="M7100 1026 c0 -52 4 -86 10 -86 6 0 13 7 15 15 17 52 15 52 43 17 37
-44 47 -40 20 7 -22 39 -22 40 -4 60 27 30 4 26 -24 -4 -13 -14 -27 -25 -30
-25 -4 0 -7 21 -6 47 1 29 -4 48 -11 50 -10 4 -13 -17 -13 -81z"/>
<path d="M8190 1025 c0 -50 4 -85 10 -85 6 0 10 35 10 85 0 50 -4 85 -10 85
-6 0 -10 -35 -10 -85z"/>
<path d="M8830 1100 c0 -5 5 -10 10 -10 6 0 10 5 10 10 0 6 -4 10 -10 10 -5 0
-10 -4 -10 -10z"/>
<path d="M10040 1025 c0 -50 4 -85 10 -85 6 0 10 8 10 19 0 10 6 23 13 29 10
9 17 4 31 -18 9 -17 24 -30 32 -30 11 0 9 9 -10 37 l-26 37 22 23 c31 33 1 30
-34 -4 l-28 -27 0 52 c0 29 -4 52 -10 52 -6 0 -10 -35 -10 -85z"/>
<path d="M10190 1100 c0 -5 5 -10 10 -10 6 0 10 5 10 10 0 6 -4 10 -10 10 -5
0 -10 -4 -10 -10z"/>
<path d="M10270 1025 c0 -50 4 -85 10 -85 6 0 10 35 10 85 0 50 -4 85 -10 85
-6 0 -10 -35 -10 -85z"/>
<path d="M10350 1025 c0 -50 4 -85 10 -85 6 0 10 35 10 85 0 50 -4 85 -10 85
-6 0 -10 -35 -10 -85z"/>
<path d="M4450 1020 c0 -47 4 -80 10 -80 6 0 10 11 10 25 0 21 5 25 28 25 41
0 72 26 72 60 0 36 -23 50 -79 50 l-41 0 0 -80z m98 31 c4 -28 -12 -41 -50
-41 -25 0 -28 3 -28 36 0 35 1 35 38 32 30 -2 38 -7 40 -27z"/>
<path d="M6722 1028 c-18 -40 -32 -76 -32 -80 0 -16 19 -7 25 12 5 16 15 20
52 20 36 0 46 -4 50 -20 3 -11 12 -20 19 -20 10 0 7 15 -12 58 -14 31 -30 67
-35 80 -15 39 -34 24 -67 -50z m66 2 c11 -30 11 -30 -24 -30 -19 0 -33 4 -30
9 3 4 10 20 16 35 12 32 24 28 38 -14z"/>
<path d="M6890 1020 c0 -47 4 -80 10 -80 6 0 10 33 10 80 0 47 -4 80 -10 80
-6 0 -10 -33 -10 -80z"/>
<path d="M5559 1073 c-4 -49 4 -110 16 -122 8 -8 21 -11 32 -6 16 6 16 8 -4
16 -18 6 -23 16 -23 44 0 28 4 35 20 35 11 0 20 5 20 10 0 6 -9 10 -20 10 -11
0 -20 7 -20 15 0 21 -20 19 -21 -2z"/>
<path d="M6530 1076 c0 -8 -6 -17 -12 -20 -10 -5 -10 -7 0 -12 6 -3 12 -23 12
-44 0 -42 20 -66 47 -55 16 6 16 8 -4 16 -18 6 -23 16 -23 44 0 28 4 35 20 35
11 0 20 5 20 10 0 6 -9 10 -20 10 -11 0 -20 7 -20 15 0 8 -4 15 -10 15 -5 0
-10 -6 -10 -14z"/>
<path d="M4624 1048 c-5 -8 0 -9 16 -5 23 6 50 -7 50 -24 0 -4 -17 -9 -37 -11
-33 -3 -38 -7 -41 -30 -4 -31 25 -46 58 -28 13 7 20 7 20 0 0 -5 5 -10 10 -10
14 0 12 94 -2 108 -15 15 -65 16 -74 0z m64 -65 c-2 -11 -14 -19 -31 -21 -22
-3 -27 1 -27 17 0 17 6 21 31 21 24 0 30 -4 27 -17z"/>
<path d="M4767 1053 c-17 -17 -5 -45 23 -56 45 -17 40 -41 -7 -34 -35 6 -36 5
-19 -8 25 -19 50 -19 66 0 17 20 6 43 -26 55 -33 13 -26 36 10 32 18 -2 25 1
21 7 -7 12 -58 15 -68 4z"/>
<path d="M4887 1053 c-17 -17 -5 -45 23 -56 45 -17 40 -41 -7 -34 -35 6 -36 5
-19 -8 25 -19 50 -19 66 0 17 20 6 43 -26 55 -33 13 -26 36 10 32 18 -2 25 1
21 7 -7 12 -58 15 -68 4z"/>
<path d="M5010 1000 c0 -33 4 -60 10 -60 6 0 10 27 10 60 0 33 -4 60 -10 60
-6 0 -10 -27 -10 -60z"/>
<path d="M5096 1047 c-26 -19 -24 -67 4 -89 30 -24 46 -23 76 7 25 26 26 52 2
83 -14 16 -59 15 -82 -1z m74 -27 c15 -28 -4 -60 -36 -60 -29 0 -47 35 -32 63
12 23 55 22 68 -3z"/>
<path d="M5240 1000 c0 -33 4 -60 10 -60 6 0 10 14 10 31 0 41 16 69 41 69 23
0 37 -31 34 -73 -2 -17 2 -26 9 -24 13 4 16 66 4 96 -8 24 -56 29 -76 9 -9 -9
-12 -9 -12 0 0 7 -4 12 -10 12 -6 0 -10 -27 -10 -60z"/>
<path d="M5414 1048 c-5 -8 0 -9 15 -5 29 7 51 -1 51 -18 0 -9 -14 -15 -37
-17 -33 -3 -38 -6 -38 -27 0 -33 29 -50 55 -33 12 7 20 8 20 2 0 -5 5 -10 10
-10 6 0 10 24 10 54 0 40 -4 55 -16 60 -25 10 -62 7 -70 -6z m64 -65 c-4 -22
-58 -31 -58 -10 0 20 10 27 37 27 18 0 24 -5 21 -17z"/>
<path d="M5664 1035 c-31 -48 7 -104 62 -91 32 8 31 25 -1 18 -23 -4 -55 11
-55 27 0 3 20 6 45 7 56 1 62 7 41 39 -22 34 -69 34 -92 0z m72 1 c26 -19 14
-28 -32 -24 -36 3 -37 4 -20 21 21 21 27 21 52 3z"/>
<path d="M5894 1048 c-5 -8 0 -9 16 -5 23 6 50 -7 50 -24 0 -4 -17 -9 -37 -11
-33 -3 -38 -7 -41 -30 -3 -22 2 -29 22 -34 16 -4 32 -1 41 6 10 9 15 9 15 1 0
-6 5 -11 10 -11 14 0 12 94 -2 108 -15 15 -65 16 -74 0z m64 -65 c-4 -22 -58
-31 -58 -10 0 20 10 27 37 27 18 0 24 -5 21 -17z"/>
<path d="M6204 1034 c-36 -55 26 -116 81 -80 29 19 34 66 9 90 -25 25 -71 20
-90 -10z m84 -28 c6 -48 -50 -65 -70 -21 -14 32 5 57 41 53 20 -2 27 -9 29
-32z"/>
<path d="M6360 1010 c0 -44 3 -52 25 -62 19 -8 28 -8 41 3 13 11 18 11 21 2
11 -32 23 -7 23 47 0 33 -4 60 -10 60 -5 0 -10 -15 -10 -34 0 -38 -23 -69 -49
-64 -11 2 -17 16 -19 51 -4 63 -22 61 -22 -3z"/>
<path d="M7254 1035 c-31 -48 7 -104 62 -91 32 8 31 25 -1 18 -26 -5 -59 14
-49 29 3 5 23 7 45 6 34 -3 39 -1 39 18 0 49 -67 63 -96 20z m72 1 c26 -19 14
-28 -32 -24 -36 3 -37 4 -20 21 21 21 27 21 52 3z"/>
<path d="M7404 1035 c-31 -48 7 -104 62 -91 33 9 30 23 -4 18 -18 -2 -33 2
-41 12 -11 13 -11 16 0 17 46 4 83 10 87 14 3 2 -3 16 -12 30 -22 34 -69 34
-92 0z m72 1 c26 -19 14 -28 -32 -24 -36 3 -37 4 -20 21 21 21 27 21 52 3z"/>
<path d="M7550 1000 c0 -68 17 -82 22 -19 3 45 24 67 52 56 11 -5 16 -19 16
-52 0 -25 5 -45 10 -45 6 0 10 25 10 55 0 51 -2 55 -27 61 -14 4 -34 2 -45 -5
-11 -7 -18 -7 -18 -1 0 5 -4 10 -10 10 -6 0 -10 -27 -10 -60z"/>
<path d="M7796 1044 c-36 -36 -6 -104 46 -104 25 0 58 36 58 63 0 49 -70 76
-104 41z m72 -16 c30 -30 0 -75 -43 -64 -19 5 -25 13 -25 35 0 15 3 31 7 34
11 11 48 8 61 -5z"/>
<path d="M7950 1000 c0 -71 18 -81 22 -12 3 41 6 47 27 50 29 5 41 -12 41 -60
0 -21 5 -38 10 -38 13 0 13 76 0 101 -12 21 -50 25 -68 7 -9 -9 -12 -9 -12 0
0 7 -4 12 -10 12 -6 0 -10 -27 -10 -60z"/>
<path d="M8278 1048 c-30 -24 -31 -56 -4 -83 29 -29 44 -31 72 -10 17 13 16
14 -17 8 -23 -3 -39 -1 -44 7 -11 17 2 25 43 25 26 0 38 5 40 16 7 38 -56 64
-90 37z m72 -28 c0 -6 -16 -10 -35 -10 -38 0 -46 13 -18 29 19 10 53 -2 53
-19z"/>
<path d="M8420 1050 c-11 -8 -8 -10 15 -8 17 1 36 -1 43 -6 22 -14 12 -26 -22
-26 -38 0 -60 -19 -50 -44 7 -19 6 -18 62 -20 l42 -2 0 46 c0 25 -5 51 -12 58
-14 14 -57 15 -78 2z m70 -58 c0 -14 -23 -32 -41 -32 -21 0 -33 16 -24 30 7
12 65 14 65 2z"/>
<path d="M8560 1000 c0 -33 4 -60 10 -60 6 0 10 14 10 31 0 38 16 69 35 69 8
0 15 5 15 10 0 14 -23 13 -38 -2 -9 -9 -12 -9 -12 0 0 7 -4 12 -10 12 -6 0
-10 -27 -10 -60z"/>
<path d="M8670 1000 c0 -71 18 -81 22 -12 3 41 6 47 27 50 29 5 41 -12 41 -60
0 -21 5 -38 10 -38 13 0 13 76 0 101 -12 21 -50 25 -68 7 -9 -9 -12 -9 -12 0
0 7 -4 12 -10 12 -6 0 -10 -27 -10 -60z"/>
<path d="M8830 1000 c0 -33 4 -60 10 -60 6 0 10 27 10 60 0 33 -4 60 -10 60
-6 0 -10 -27 -10 -60z"/>
<path d="M8910 1000 c0 -68 17 -82 22 -19 3 45 24 67 52 56 11 -5 16 -19 16
-52 0 -25 5 -45 10 -45 6 0 10 25 10 55 0 51 -2 55 -27 61 -14 4 -34 2 -45 -5
-11 -7 -18 -7 -18 -1 0 5 -4 10 -10 10 -6 0 -10 -27 -10 -60z"/>
<path d="M9080 1045 c-29 -35 -7 -95 34 -95 12 0 27 5 34 12 9 9 12 7 12 -10
0 -27 -27 -42 -65 -35 -23 3 -27 2 -15 -6 22 -16 66 -13 84 5 18 18 23 144 6
144 -5 0 -10 -5 -10 -12 0 -9 -3 -9 -12 0 -17 17 -53 15 -68 -3z m80 -40 c0
-45 -62 -55 -76 -12 -9 29 30 61 57 47 11 -6 19 -21 19 -35z"/>
<path d="M9310 1000 c0 -68 17 -82 22 -19 3 45 24 67 52 56 11 -5 16 -19 16
-52 0 -25 5 -45 10 -45 14 0 12 94 -2 108 -15 15 -51 15 -66 0 -9 -9 -12 -9
-12 0 0 7 -4 12 -10 12 -6 0 -10 -27 -10 -60z"/>
<path d="M9488 1048 c-20 -16 -24 -35 -15 -69 8 -31 47 -45 77 -29 28 15 25
17 -17 16 -29 -1 -38 3 -41 17 -3 16 1 18 28 13 57 -8 78 15 44 48 -19 19 -54
21 -76 4z m53 -8 c30 -16 23 -30 -16 -30 -37 0 -43 8 -23 28 15 15 15 15 39 2z"/>
<path d="M9610 1055 c0 -22 44 -115 53 -112 7 2 18 23 26 46 15 47 23 45 41
-11 6 -21 17 -38 23 -38 7 0 22 27 33 60 13 36 17 59 10 57 -6 -2 -17 -23 -25
-46 -15 -47 -23 -45 -41 12 -16 50 -35 47 -50 -9 -14 -50 -22 -48 -40 9 -6 20
-16 37 -21 37 -5 0 -9 -2 -9 -5z"/>
<path d="M9917 1053 c-17 -17 -5 -45 23 -56 44 -17 40 -41 -5 -34 -43 7 -47
-9 -4 -18 60 -13 80 44 23 65 -33 13 -26 36 10 32 18 -2 25 1 21 7 -7 12 -58
15 -68 4z"/>
<path d="M10190 1000 c0 -33 4 -60 10 -60 6 0 10 27 10 60 0 33 -4 60 -10 60
-6 0 -10 -27 -10 -60z"/>
<path d="M10427 1053 c-17 -17 -5 -45 23 -54 17 -6 30 -18 30 -26 0 -11 -8
-14 -30 -11 -34 5 -41 -7 -10 -17 59 -19 87 44 29 64 -37 13 -34 37 5 33 18
-2 25 1 21 7 -7 12 -58 15 -68 4z"/>
<path d="M2312 948 c-7 -7 -12 -8 -12 -3 0 5 -7 0 -15 -11 -8 -10 -15 -14 -15
-8 0 5 -11 10 -24 10 -14 0 -23 -3 -20 -7 2 -4 -3 -9 -11 -13 -8 -3 -15 -1
-15 5 0 6 -5 7 -10 4 -6 -4 -8 -12 -4 -18 3 -7 -2 -3 -10 7 -12 15 -16 16 -17
5 0 -8 -4 -6 -9 6 -8 19 -9 19 -9 -3 -1 -14 -5 -20 -12 -17 -6 4 -8 13 -6 19
3 7 -2 13 -10 13 -12 0 -14 -15 -8 -96 4 -53 11 -100 16 -106 6 -5 9 -4 9 3 0
7 7 12 15 12 13 0 20 -14 27 -64 2 -11 9 -21 16 -24 10 -3 12 8 9 47 -5 58 0
67 23 46 15 -14 20 -10 49 37 18 29 56 74 85 100 44 41 48 48 29 48 -13 0 -23
5 -23 10 0 14 -33 13 -48 -2z"/>
<path d="M6963 941 c0 -11 5 -17 9 -15 11 7 10 34 -1 34 -6 0 -9 -9 -8 -19z"/>
<path d="M10540 944 c0 -8 5 -12 10 -9 6 3 10 10 10 16 0 5 -4 9 -10 9 -5 0
-10 -7 -10 -16z"/>
<path d="M6429 743 c-1 -21 -2 -51 -3 -67 -2 -58 -67 -60 -74 -2 -3 20 2 28
20 35 13 4 29 6 37 3 9 -3 12 -1 7 6 -9 16 -59 15 -74 0 -7 -7 -12 -27 -12
-45 0 -43 39 -71 75 -55 15 7 25 8 25 2 0 -6 5 -10 10 -10 6 0 10 35 10 85 0
50 -4 85 -10 85 -5 0 -11 -17 -11 -37z"/>
<path d="M6840 695 c0 -87 16 -119 22 -44 3 45 24 67 52 56 11 -5 16 -19 16
-52 0 -25 5 -45 10 -45 14 0 12 94 -2 108 -7 7 -21 12 -33 12 -12 0 -26 -5
-33 -12 -9 -9 -12 -4 -12 25 0 20 -4 37 -10 37 -6 0 -10 -35 -10 -85z"/>
<path d="M7010 770 c0 -5 5 -10 10 -10 6 0 10 5 10 10 0 6 -4 10 -10 10 -5 0
-10 -4 -10 -10z"/>
<path d="M7080 695 c0 -63 3 -85 13 -85 10 0 13 22 13 85 1 65 -2 85 -13 85
-10 0 -13 -20 -13 -85z"/>
<path d="M8010 770 c0 -5 5 -10 10 -10 6 0 10 5 10 10 0 6 -4 10 -10 10 -5 0
-10 -4 -10 -10z"/>
<path d="M8581 695 c1 -57 6 -85 13 -85 8 0 12 27 13 85 1 68 -2 85 -14 85
-11 0 -14 -17 -12 -85z"/>
<path d="M5745 693 c-34 -74 -38 -111 -8 -65 21 31 98 32 106 2 3 -11 11 -20
17 -20 13 0 14 -1 -26 93 -16 37 -35 67 -42 67 -7 0 -28 -34 -47 -77z m64 16
c6 -18 11 -34 11 -35 0 -2 -13 -4 -30 -4 -16 0 -30 2 -30 4 0 14 24 66 30 66
4 0 13 -14 19 -31z"/>
<path d="M5990 690 c0 -47 4 -80 10 -80 6 0 10 16 10 35 0 35 0 35 45 35 45 0
45 0 45 -35 0 -19 5 -35 10 -35 6 0 10 33 10 80 0 47 -4 80 -10 80 -5 0 -10
-16 -10 -35 0 -35 0 -35 -45 -35 -45 0 -45 0 -45 35 0 19 -4 35 -10 35 -6 0
-10 -33 -10 -80z"/>
<path d="M7404 756 c-3 -9 -3 -27 0 -40 4 -16 1 -26 -9 -30 -23 -8 -19 -53 6
-67 16 -8 28 -8 47 0 17 8 28 9 36 1 16 -16 30 -12 16 5 -7 8 -10 24 -7 35 6
22 -8 28 -16 8 -3 -10 -9 -8 -23 4 -17 17 -17 18 0 37 10 11 16 28 14 38 -4
24 -56 31 -64 9z m52 -7 c10 -17 -23 -46 -37 -32 -7 7 -9 19 -6 27 7 18 33 21
43 5z m-16 -81 c22 -27 17 -38 -16 -38 -29 0 -42 24 -24 45 16 20 18 19 40 -7z"/>
<path d="M7840 690 c0 -64 3 -80 15 -80 9 0 15 9 15 23 0 19 8 25 42 33 33 7
45 15 52 36 15 42 -14 68 -76 68 l-48 0 0 -80z m101 44 c19 -23 -1 -48 -40
-52 -30 -3 -31 -2 -31 32 0 33 2 36 29 36 16 0 34 -7 42 -16z"/>
<path d="M9201 743 c1 -16 5 -39 9 -53 6 -20 8 -14 9 28 1 28 -3 52 -9 52 -5
0 -10 -12 -9 -27z"/>
<path d="M9263 725 c6 -64 17 -68 17 -7 0 31 -4 52 -11 52 -7 0 -9 -16 -6 -45z"/>
<path d="M6186 711 c-44 -49 16 -122 73 -90 52 29 31 109 -29 109 -15 0 -35
-9 -44 -19z m80 -26 c7 -29 -10 -55 -36 -55 -26 0 -43 26 -36 55 5 20 13 25
36 25 23 0 31 -5 36 -25z"/>
<path d="M6516 714 c-25 -24 -20 -71 9 -90 55 -36 117 25 81 80 -19 30 -65 35
-90 10z m80 -29 c11 -43 -34 -73 -64 -43 -13 13 -16 50 -5 61 3 4 19 7 34 7
22 0 30 -6 35 -25z"/>
<path d="M6670 650 c0 -47 4 -80 10 -80 6 0 10 14 10 30 0 27 2 30 19 20 11
-5 24 -10 30 -10 19 0 51 39 51 63 0 44 -59 74 -88 45 -9 -9 -12 -9 -12 0 0 7
-4 12 -10 12 -6 0 -10 -33 -10 -80z m96 34 c7 -28 -10 -54 -35 -54 -43 0 -58
64 -18 79 30 11 46 4 53 -25z"/>
<path d="M7010 670 c0 -33 4 -60 10 -60 6 0 10 27 10 60 0 33 -4 60 -10 60 -6
0 -10 -27 -10 -60z"/>
<path d="M7165 706 c-32 -49 11 -108 66 -91 29 10 22 22 -9 17 -18 -2 -33 2
-41 12 -16 19 -7 24 51 28 36 3 37 4 25 28 -18 37 -70 40 -92 6z m71 0 c26
-19 14 -28 -32 -24 -36 3 -37 4 -20 21 21 21 27 21 52 3z"/>
<path d="M7624 719 c-5 -9 1 -10 20 -5 17 4 34 2 42 -5 23 -19 16 -29 -20 -29
-38 0 -60 -19 -50 -44 7 -19 6 -18 62 -20 l42 -2 0 46 c0 25 -5 51 -12 58 -15
15 -75 16 -84 1z m76 -57 c0 -14 -23 -32 -41 -32 -21 0 -33 16 -24 30 7 12 65
14 65 2z"/>
<path d="M8010 670 c0 -33 4 -60 10 -60 6 0 10 27 10 60 0 33 -4 60 -10 60 -6
0 -10 -27 -10 -60z"/>
<path d="M8080 721 c0 -5 14 -7 30 -5 21 4 30 1 30 -9 0 -7 -13 -26 -30 -42
-44 -42 -39 -55 20 -55 28 0 50 5 50 10 0 6 -16 10 -36 10 l-35 0 23 31 c56
75 56 69 -1 69 -28 0 -51 -4 -51 -9z"/>
<path d="M8220 722 c0 -5 14 -7 30 -4 38 5 38 -5 0 -48 -42 -50 -39 -60 20
-60 28 0 50 5 50 10 0 6 -16 10 -35 10 -19 0 -35 3 -35 6 0 4 14 22 30 41 17
18 30 38 30 43 0 6 -20 10 -45 10 -25 0 -45 -4 -45 -8z"/>
<path d="M8364 719 c-5 -9 1 -10 20 -5 17 4 34 2 42 -5 23 -19 16 -29 -20 -29
-38 0 -60 -19 -50 -44 7 -19 6 -18 62 -20 l42 -2 0 39 c0 57 -14 77 -55 77
-18 0 -37 -5 -41 -11z m76 -57 c0 -14 -23 -32 -41 -32 -21 0 -33 16 -24 30 7
12 65 14 65 2z"/>
<path d="M8664 705 c-22 -34 -12 -69 26 -85 41 -17 80 7 80 50 0 59 -74 84
-106 35z m81 -35 c0 -29 -4 -36 -23 -38 -43 -6 -69 37 -40 66 7 7 24 12 38 10
21 -3 25 -8 25 -38z"/>
<path d="M8825 673 c13 -32 29 -58 35 -58 7 0 21 23 31 50 21 56 23 65 10 65
-4 0 -14 -20 -21 -45 -7 -25 -16 -45 -20 -45 -4 0 -13 20 -20 45 -7 25 -18 45
-26 45 -9 0 -6 -16 11 -57z"/>
<path d="M8960 715 c-20 -24 -15 -67 10 -87 26 -21 53 -23 69 -4 9 11 4 13
-26 12 -28 -1 -38 3 -41 17 -3 14 4 17 43 17 43 0 46 1 39 23 -4 12 -12 25
-18 29 -19 13 -63 9 -76 -7z m80 -25 c0 -6 -16 -10 -35 -10 -38 0 -46 13 -18
29 19 10 53 -2 53 -19z"/>
<path d="M9100 670 c0 -33 4 -60 10 -60 6 0 10 14 10 31 0 38 16 69 35 69 8 0
15 5 15 10 0 14 -23 13 -38 -2 -9 -9 -12 -9 -12 0 0 7 -4 12 -10 12 -6 0 -10
-27 -10 -60z"/>
<path d="M2788 673 c7 -3 16 -2 19 1 4 3 -2 6 -13 5 -11 0 -14 -3 -6 -6z"/>
<path d="M2166 623 c-6 -14 -5 -15 5 -6 7 7 10 15 7 18 -3 3 -9 -2 -12 -12z"/>
<path d="M9205 620 c3 -5 8 -10 11 -10 2 0 4 5 4 10 0 6 -5 10 -11 10 -5 0 -7
-4 -4 -10z"/>
<path d="M9260 620 c0 -5 5 -10 10 -10 6 0 10 5 10 10 0 6 -4 10 -10 10 -5 0
-10 -4 -10 -10z"/>
<path d="M2130 579 c0 -8 3 -32 7 -54 7 -40 7 -40 13 -10 4 17 2 36 -4 44 -8
11 -8 13 1 8 6 -4 15 -2 19 5 4 7 4 10 -1 6 -4 -4 -14 -3 -22 3 -10 9 -13 8
-13 -2z"/>
<path d="M2221 484 c0 -11 3 -14 6 -6 3 7 2 16 -1 19 -3 4 -6 -2 -5 -13z"/>
<path d="M2283 483 c0 -6 5 -9 11 -5 6 4 14 7 18 7 19 0 14 11 -6 11 -12 0
-23 -6 -23 -13z"/>
</g>
</svg>
