<?xml version="1.0" standalone="no"?>
<!DOCTYPE svg PUBLIC "-//W3C//DTD SVG 20010904//EN"
 "http://www.w3.org/TR/2001/REC-SVG-20010904/DTD/svg10.dtd">
<svg version="1.0" xmlns="http://www.w3.org/2000/svg"
 width="1500.000000pt" height="500.000000pt" viewBox="0 0 1500.000000 500.000000"
 preserveAspectRatio="xMidYMid meet">

<g transform="translate(0.000000,500.000000) scale(0.100000,-0.100000)"
fill="#000000" stroke="none">
<path d="M2431 4965 l-52 -36 -26 21 c-34 26 -107 27 -150 0 -67 -40 -87 -110
-51 -179 31 -61 66 -84 123 -83 83 1 145 62 145 143 0 31 6 40 38 62 46 32
136 73 181 82 l34 7 -56 -103 c-108 -203 -97 -188 -143 -187 -82 1 -135 -46
-142 -127 -4 -48 -1 -59 22 -90 51 -66 118 -82 186 -44 20 11 44 34 53 49 21
36 22 99 1 143 l-16 33 57 103 c32 57 66 124 78 150 l20 46 14 -34 c8 -18 22
-74 33 -124 l18 -91 -44 -39 c-49 -44 -63 -87 -46 -146 33 -108 174 -136 247
-49 31 36 40 87 25 132 -12 37 -71 96 -95 96 -9 0 -16 17 -20 48 -8 53 -40
188 -55 227 l-10 25 -159 0 -159 0 -51 -35z"/>
<path d="M3010 4995 c0 -2 13 -37 29 -77 40 -103 107 -312 121 -381 l12 -59
-37 -56 c-21 -31 -65 -94 -99 -139 l-61 -83 -46 6 c-115 15 -196 -88 -154
-194 33 -81 117 -111 194 -70 72 39 94 102 66 194 -5 15 5 35 37 75 25 30 59
75 77 102 17 26 36 47 40 47 13 0 31 -189 31 -325 0 -114 -2 -124 -20 -130
-10 -3 -30 -19 -44 -36 -71 -84 -21 -214 88 -226 146 -17 221 149 110 246 -29
26 -34 37 -34 76 0 25 4 45 9 45 12 0 145 -107 219 -176 l63 -59 -12 -36 c-33
-102 54 -204 157 -184 45 8 101 58 113 101 30 108 -68 208 -172 177 -31 -9
-35 -6 -112 66 -44 42 -121 107 -172 144 l-92 68 -6 67 c-3 37 -13 114 -21
170 -9 57 -14 105 -12 107 5 5 131 -83 245 -170 69 -52 93 -76 93 -93 0 -64
53 -126 117 -138 113 -21 200 83 159 191 -32 82 -130 112 -214 65 l-39 -22
-62 49 c-34 28 -121 92 -194 143 l-133 92 -33 112 c-17 61 -48 157 -68 214
l-37 102 -53 0 c-29 0 -53 -2 -53 -5z"/>
<path d="M3275 4984 c28 -8 61 -18 75 -22 16 -5 56 -51 117 -136 91 -126 92
-128 78 -156 -8 -16 -15 -48 -15 -72 0 -109 109 -170 210 -118 47 24 70 64 70
122 0 84 -62 142 -150 140 l-45 0 -67 96 c-37 53 -66 98 -64 99 2 2 47 -2 100
-8 76 -10 96 -15 96 -28 0 -24 36 -78 64 -96 32 -21 105 -21 145 0 57 29 84
101 65 172 l-6 22 -362 -1 c-328 0 -356 -2 -311 -14z"/>
<path d="M7602 4983 c-4 -10 -7 -65 -6 -123 0 -146 35 -246 121 -341 l35 -39
-58 6 c-75 8 -176 -15 -258 -58 -57 -30 -216 -174 -216 -196 0 -10 87 -44 159
-63 58 -14 195 -14 252 1 80 21 158 71 224 143 l64 69 93 -23 c67 -16 135 -23
244 -27 l152 -4 -37 -37 c-77 -77 -132 -169 -157 -265 -19 -69 -17 -213 2
-294 17 -69 79 -212 108 -247 16 -20 18 -19 72 40 119 129 190 280 201 429 8
117 -18 217 -88 337 l-27 47 61 12 c211 40 454 138 735 293 56 31 104 57 107
57 3 0 -10 -21 -29 -47 -45 -64 -80 -136 -102 -208 -26 -87 -24 -265 4 -366
30 -107 117 -288 138 -289 19 0 133 128 185 207 116 178 152 371 105 553 -16
60 -63 167 -96 215 -11 17 -20 33 -20 36 0 4 66 44 148 90 81 45 156 88 167
96 16 11 -37 13 -330 13 l-350 -1 49 -25 c68 -36 176 -61 270 -63 44 -1 82 -4
84 -5 13 -13 -658 -368 -770 -408 l-48 -17 0 82 c0 148 -50 277 -148 379 l-55
58 -174 0 -174 0 6 -39 c28 -189 124 -353 255 -436 25 -16 76 -41 114 -56 l68
-26 -68 -16 c-220 -52 -430 -52 -611 -1 -52 14 -52 15 -45 47 4 17 7 73 6 122
-2 149 -55 249 -189 358 -54 43 -64 47 -112 47 -42 0 -55 -4 -61 -17z"/>
<path d="M10670 4995 c0 -2 14 -20 31 -40 l31 -35 -102 6 c-77 6 -101 4 -96
-4 4 -7 32 -12 65 -12 32 0 73 -3 91 -7 l33 -6 -69 -63 c-38 -34 -66 -65 -62
-69 4 -4 28 13 55 37 26 24 59 52 72 63 l24 20 -7 -97 c-4 -60 -4 -98 2 -98 5
0 13 44 17 97 l7 97 69 -75 c67 -73 97 -88 39 -19 -17 19 -44 51 -60 72 l-30
36 102 -5 c70 -3 98 -1 88 6 -9 5 -52 10 -95 12 -44 1 -83 4 -87 6 -5 2 13 22
38 44 53 46 36 54 -19 8 l-37 -30 0 30 c0 17 -4 31 -10 31 -5 0 -10 -14 -10
-32 l0 -32 -33 32 c-30 29 -47 39 -47 27z"/>
<path d="M11260 4990 c0 -26 30 -78 59 -103 65 -54 174 -29 211 49 14 27 30
46 43 49 12 2 31 6 42 8 11 3 -64 5 -167 6 -123 1 -188 -3 -188 -9z"/>
<path d="M11822 4948 c-22 -29 -54 -66 -70 -81 -27 -26 -33 -28 -65 -19 -69
19 -142 -12 -171 -71 -30 -64 -17 -125 39 -177 22 -21 37 -25 84 -25 72 0 106
21 133 83 16 36 19 53 12 81 -9 34 -7 39 47 102 31 36 70 87 88 112 l32 47
-44 0 c-42 0 -47 -3 -85 -52z"/>
<path d="M12100 4883 c-66 -128 -225 -371 -288 -443 l-39 -44 -169 -4 -169 -4
-20 38 c-27 50 -77 77 -134 71 -151 -16 -178 -218 -36 -273 39 -14 52 -15 87
-5 38 12 70 37 93 73 8 13 37 18 150 23 l140 6 -101 -99 c-125 -123 -232 -205
-253 -196 -9 3 -36 8 -61 11 -106 10 -185 -110 -135 -207 66 -128 268 -80 268
64 0 42 3 47 45 77 l45 32 -6 -174 c-3 -96 -8 -181 -11 -190 -4 -8 -25 -24
-47 -33 -58 -26 -81 -67 -76 -139 3 -46 9 -63 31 -86 35 -37 91 -54 135 -41
81 23 116 73 108 154 -4 43 -10 56 -43 86 -39 35 -39 36 -33 90 4 30 7 129 8
220 l1 165 124 126 123 127 7 -61 c3 -33 6 -128 6 -212 0 -146 -1 -152 -24
-174 -67 -63 -45 -192 39 -227 74 -30 148 -8 183 55 52 91 9 182 -100 215 -15
4 -18 17 -19 68 0 35 -2 70 -3 78 -2 8 -6 90 -10 181 l-7 166 77 109 c42 60
102 153 133 206 31 54 59 98 62 98 4 0 10 -17 14 -37 4 -21 25 -82 47 -135
l40 -97 -43 -153 -44 -152 -34 -7 c-49 -10 -84 -40 -105 -93 -20 -46 -20 -46
0 -93 24 -59 71 -93 128 -93 131 0 192 140 104 237 -24 26 -22 42 20 177 l27
89 54 -87 c50 -82 52 -88 37 -105 -47 -51 -39 -135 18 -190 64 -62 160 -49
214 30 61 88 -15 219 -127 219 -26 0 -35 9 -77 75 -25 42 -44 78 -42 80 3 3
29 1 58 -5 29 -5 77 -10 107 -10 50 0 56 -3 96 -45 40 -41 48 -45 91 -45 76 0
133 42 149 110 10 40 -9 101 -42 133 -24 24 -40 31 -85 35 -69 6 -115 -19
-141 -78 -16 -36 -21 -40 -55 -40 -48 0 -207 28 -230 40 -23 13 -77 144 -102
253 -21 90 -21 92 7 160 6 15 1 17 -48 17 l-55 0 -62 -117z"/>
<path d="M12545 4966 c-21 -111 104 -203 205 -151 57 29 91 101 76 160 l-6 25
-135 0 -134 0 -6 -34z"/>
<path d="M14121 4939 c37 -75 154 -194 222 -228 72 -35 143 -51 226 -51 l73 0
-53 -57 c-71 -78 -127 -156 -169 -235 l-35 -66 -65 5 c-125 10 -250 -42 -338
-142 -43 -49 -96 -146 -108 -199 l-7 -29 109 5 c157 7 266 55 342 150 33 43
42 40 42 -12 0 -115 86 -251 214 -339 57 -40 70 -33 86 43 42 205 -16 374
-167 477 -24 17 -43 35 -43 42 0 29 128 208 199 277 64 64 219 185 227 177 1
-1 -9 -35 -23 -76 -58 -174 -26 -340 99 -508 l43 -58 3 339 c2 242 -1 343 -9
352 -8 10 -8 14 0 14 6 0 11 14 11 30 0 17 -2 30 -5 30 -15 0 -140 -69 -213
-118 -45 -30 -84 -53 -86 -51 -2 2 -11 29 -21 59 -21 66 -56 130 -102 188
l-34 42 -225 0 -224 0 31 -61z"/>
<path d="M5424 4822 c-33 -21 -67 -64 -78 -98 -3 -12 -7 -48 -7 -82 -1 -70 16
-106 67 -140 123 -80 271 -32 294 96 24 136 -168 291 -276 224z m1 -62 c0 -8
-8 -16 -17 -18 -13 -2 -18 3 -18 18 0 15 5 20 18 18 9 -2 17 -10 17 -18z m67
-12 c-15 -15 -26 -4 -18 18 5 13 9 15 18 6 9 -9 9 -15 0 -24z m-87 -63 c0 -28
-29 -25 -33 3 -3 19 0 23 15 20 10 -2 18 -12 18 -23z m118 -1 c9 -10 -4 -34
-18 -34 -17 0 -28 17 -20 30 7 11 28 13 38 4z m-63 -19 c0 -8 -7 -15 -15 -15
-16 0 -20 12 -8 23 11 12 23 8 23 -8z m-40 -61 c0 -9 -5 -14 -12 -12 -18 6
-21 28 -4 28 9 0 16 -7 16 -16z m108 -31 c-5 -26 -38 -29 -38 -4 0 15 6 21 21
21 14 0 19 -5 17 -17z m-108 -38 c0 -8 -4 -15 -9 -15 -13 0 -22 16 -14 24 11
11 23 6 23 -9z m73 9 c11 -11 -5 -34 -24 -34 -12 0 -19 7 -19 20 0 19 28 28
43 14z m145 -21 c5 -17 -26 -29 -40 -15 -6 6 -7 15 -3 22 9 14 37 9 43 -7z
m-83 -33 c-5 -8 -11 -8 -17 -2 -6 6 -7 16 -3 22 5 8 11 8 17 2 6 -6 7 -16 3
-22z"/>
<path d="M385 4776 c-14 -14 -25 -32 -25 -41 0 -28 48 -67 73 -59 36 11 47 25
47 59 0 34 -11 48 -47 59 -17 5 -29 1 -48 -18z"/>
<path d="M480 4223 c-94 -96 -138 -170 -165 -273 -24 -90 -16 -212 19 -305 15
-38 28 -74 29 -80 1 -5 -36 -13 -83 -16 -88 -7 -173 -21 -241 -39 -34 -9 -39
-14 -39 -40 0 -28 1 -28 32 -19 18 5 35 9 38 9 4 0 6 -53 6 -117 1 -98 4 -128
23 -176 33 -85 98 -175 166 -230 62 -51 221 -135 232 -123 12 12 22 131 17
196 -14 156 -63 268 -157 360 -32 32 -84 70 -115 85 l-57 29 45 8 c25 5 115 7
200 5 157 -4 244 -21 362 -71 l37 -16 -13 -37 c-51 -147 -14 -301 104 -426 59
-63 134 -115 144 -99 17 28 36 137 36 209 0 97 -24 182 -72 251 -25 36 -27 43
-12 39 133 -39 305 9 423 119 l56 52 -35 21 c-185 113 -402 99 -546 -35 l-49
-45 -90 30 c-121 40 -216 61 -275 61 -27 0 -51 4 -54 8 -3 5 12 22 33 38 129
99 201 266 188 435 -9 114 -62 279 -90 279 -6 0 -50 -39 -97 -87z"/>
<path d="M2158 4005 c-3 -5 -9 -41 -13 -80 -13 -118 -14 -118 -80 -30 -33 43
-61 73 -63 67 -1 -5 22 -43 53 -83 30 -39 54 -73 53 -75 -4 -3 -158 15 -175
21 -18 6 -16 -12 1 -18 8 -3 46 -9 85 -13 39 -3 74 -10 76 -14 3 -5 -26 -31
-65 -60 -38 -29 -70 -56 -70 -61 0 -14 1 -13 80 46 40 30 75 53 77 51 3 -2 0
-39 -6 -81 -13 -93 -13 -105 -2 -105 4 0 11 31 15 68 4 38 10 81 14 96 7 26 9
25 62 -48 52 -71 70 -88 70 -67 0 5 -25 42 -56 81 l-56 73 64 -7 c34 -4 78 -9
96 -13 18 -3 32 -1 32 4 0 6 -40 16 -90 23 -49 7 -90 16 -90 19 0 3 25 24 55
45 59 42 91 73 84 81 -3 2 -39 -23 -82 -55 -87 -67 -86 -68 -66 46 11 62 9
108 -3 89z"/>
<path d="M6304 3832 c-41 -27 -35 -96 10 -108 37 -9 59 -1 72 25 13 26 3 69
-19 83 -15 10 -49 10 -63 0z"/>
<path d="M12622 3553 c-20 -8 -3 -22 22 -17 18 3 25 -1 29 -17 7 -25 -12 -71
-25 -63 -5 3 -4 12 3 20 6 8 8 14 3 14 -5 0 -2 5 6 10 11 7 11 10 2 10 -7 0
-11 4 -8 9 5 8 -15 8 -34 1 -3 -1 -8 -2 -11 -2 -8 1 -5 -66 5 -75 4 -4 7 -3 6
2 -5 22 1 27 15 15 8 -7 12 -16 9 -21 -7 -12 3 -11 29 2 29 16 37 28 37 61 0
40 -47 68 -88 51z m24 -60 c-2 -9 -10 -17 -18 -19 -16 -2 -18 12 -5 34 11 16
26 7 23 -15z"/>
<path d="M12625 3501 c-3 -5 -2 -12 3 -15 5 -3 9 1 9 9 0 17 -3 19 -12 6z"/>
<path d="M5704 3430 l-9 -101 -65 76 c-35 42 -66 72 -68 66 -2 -6 24 -42 57
-80 62 -70 71 -83 49 -76 -33 10 -188 15 -188 6 0 -5 46 -13 102 -17 l102 -7
-30 -25 c-91 -78 -116 -103 -111 -109 4 -3 39 23 78 58 l72 63 -5 -97 c-3 -54
-2 -100 2 -102 8 -5 20 78 20 150 l1 50 31 -35 c17 -19 46 -52 65 -73 19 -21
38 -37 43 -35 5 2 -17 32 -50 68 -33 36 -59 69 -60 74 0 5 41 6 95 3 52 -4 95
-3 95 2 0 8 -94 21 -156 21 -19 0 -34 4 -34 8 0 4 32 34 70 67 39 33 66 61 60
63 -6 2 -43 -24 -82 -59 l-71 -63 7 102 c9 133 -8 135 -20 2z"/>
<path d="M8547 3503 c-4 -3 -7 -32 -7 -63 0 -32 -3 -72 -7 -90 l-6 -33 -63 69
c-34 38 -65 66 -68 63 -3 -3 21 -36 54 -73 33 -37 60 -69 60 -72 0 -3 -43 -3
-95 1 -68 5 -95 4 -95 -4 0 -7 21 -11 53 -12 28 0 72 -4 96 -7 l45 -7 -35 -29
c-74 -62 -111 -98 -105 -103 3 -3 31 16 62 43 101 89 95 91 87 -21 -5 -73 -3
-96 5 -91 7 4 12 36 13 79 1 114 5 116 73 36 53 -62 76 -81 76 -63 0 3 -27 36
-60 72 -62 69 -72 87 -42 78 16 -5 146 -9 167 -6 28 5 -49 18 -112 19 -40 1
-73 4 -73 9 0 4 32 34 70 66 38 32 67 63 64 68 -3 5 -39 -21 -80 -58 l-74 -67
6 102 c7 97 5 109 -9 94z"/>
<path d="M9662 3463 c-34 -30 -37 -59 -8 -88 14 -14 32 -25 39 -25 27 0 60 35
60 65 0 18 -9 36 -23 47 -28 23 -42 23 -68 1z"/>
<path d="M12606 3348 c3 -4 -1 -8 -8 -8 -9 0 -10 -3 -2 -8 6 -4 10 -14 9 -22
-2 -10 6 -17 22 -18 22 -2 24 0 13 13 -11 13 -7 19 12 16 3 0 5 7 4 16 -2 11
-13 18 -29 18 -14 1 -24 -2 -21 -7z m29 -18 c-8 -9 -12 -20 -8 -25 5 -4 3 -5
-4 -2 -6 4 -10 15 -8 25 4 21 2 19 20 19 13 0 13 -2 0 -17z"/>
<path d="M12623 3218 c8 -22 -3 -30 -22 -15 -14 10 -14 10 -5 -3 6 -8 10 -23
9 -33 -2 -9 1 -15 5 -12 5 3 12 1 15 -5 5 -8 11 -8 20 0 17 14 14 29 -9 60
-10 14 -16 18 -13 8z m22 -46 c-2 -9 -4 -19 -4 -21 -1 -2 -8 2 -16 9 -12 10
-13 16 -4 26 14 17 28 9 24 -14z"/>
<path d="M12625 3181 c-3 -5 -2 -12 3 -15 5 -3 9 1 9 9 0 17 -3 19 -12 6z"/>
<path d="M2337 3142 c-35 -38 -12 -102 37 -102 36 0 59 24 59 60 0 54 -61 81
-96 42z"/>
<path d="M12702 3090 c4 -17 -41 -21 -60 -6 -9 7 -16 6 -21 -3 -11 -18 -16
-18 -35 -2 -12 10 -20 11 -24 4 -4 -5 -15 -9 -24 -8 -10 2 -16 0 -15 -3 1 -4
-2 -7 -8 -7 -5 0 -9 4 -7 8 1 5 -2 6 -8 2 -8 -5 -8 -11 0 -20 8 -10 8 -15 0
-20 -19 -11 7 -32 37 -30 16 1 33 -1 38 -4 16 -9 55 -9 61 1 3 5 11 5 17 0 11
-7 29 -8 42 -2 3 1 9 3 14 4 5 0 13 4 17 8 4 4 13 3 21 -4 11 -9 13 -8 11 3
-2 8 3 13 12 11 11 -3 11 0 -3 15 -9 11 -13 23 -9 29 4 5 5 8 3 7 -2 -2 -10 2
-18 8 -7 6 -13 8 -13 4 0 -4 -7 -2 -16 5 -12 11 -15 11 -12 0z m-97 -25 c6 -1
15 3 22 7 6 5 14 5 17 0 6 -9 44 -10 61 -1 17 9 40 5 41 -8 1 -7 2 -15 3 -18
3 -13 0 -20 -9 -21 -5 -1 -12 -3 -15 -4 -3 -1 -9 -4 -15 -5 -5 -1 -12 -4 -15
-5 -13 -6 -31 -5 -42 2 -6 5 -14 5 -17 0 -4 -7 -56 -9 -63 -2 -2 1 -16 4 -33
5 -16 1 -33 3 -37 4 -3 0 4 12 17 26 12 13 26 22 31 20 4 -3 10 -1 14 5 4 6
12 7 18 3 7 -4 17 -8 22 -8z"/>
<path d="M12565 3060 c-4 -6 -10 -8 -14 -5 -5 2 -16 -4 -25 -14 -15 -17 -15
-18 11 -16 16 1 33 -1 38 -4 16 -9 55 -9 61 1 3 5 11 5 17 0 11 -7 29 -8 42
-2 3 1 10 4 15 5 6 1 13 4 18 5 4 1 11 2 16 1 5 -1 4 4 -2 12 -7 8 -9 16 -6
20 3 3 -2 4 -13 2 -10 -2 -18 -4 -18 -5 0 -7 -57 -5 -61 2 -3 5 -11 5 -17 0
-14 -10 -27 -10 -44 1 -6 4 -14 3 -18 -3z m40 -15 c6 -1 15 3 22 7 6 5 14 5
17 0 4 -7 48 -9 64 -3 7 3 12 0 12 -6 0 -5 -4 -9 -10 -9 -5 -1 -11 -2 -12 -4
-10 -7 -39 -7 -44 1 -3 5 -11 6 -17 2 -17 -10 -57 -12 -63 -2 -2 4 -13 6 -24
4 -12 -2 -18 0 -15 6 4 5 10 7 15 4 5 -3 11 -1 15 5 4 6 12 7 18 3 7 -4 17 -8
22 -8z"/>
<path d="M14389 3043 c-51 -118 -62 -247 -29 -339 15 -45 16 -55 5 -50 -69 26
-200 9 -293 -38 -73 -37 -80 -49 -50 -94 45 -67 141 -156 203 -187 53 -26 71
-30 146 -30 l85 0 -32 -45 c-63 -88 -78 -134 -78 -245 1 -123 19 -182 55 -177
13 1 61 21 106 42 91 45 167 112 200 179 l21 42 25 -43 c14 -24 43 -60 64 -80
39 -37 143 -98 169 -98 12 0 14 39 14 223 l0 222 -40 25 c-46 29 -45 35 4 22
29 -8 36 -8 36 4 0 8 -3 14 -7 14 -5 0 -38 2 -74 4 -55 3 -68 0 -77 -15 -10
-15 -5 -23 29 -50 45 -35 47 -47 3 -25 -36 19 -44 12 -13 -13 13 -10 35 -38
48 -62 28 -49 28 -50 -66 30 -50 41 -70 47 -39 12 7 -9 31 -43 52 -76 40 -63
32 -62 -45 9 l-44 41 47 -90 47 -90 -48 52 c-42 46 -89 123 -107 176 -12 37
-26 14 -27 -45 l-1 -63 -13 40 c-7 22 -13 32 -14 23 -1 -22 -50 -132 -56 -127
-2 3 2 42 9 87 7 45 12 82 10 82 -2 0 -17 -28 -33 -62 -16 -35 -36 -72 -44
-83 -16 -19 -16 -19 -10 5 3 14 11 47 19 74 8 27 12 51 10 53 -2 2 -25 -33
-51 -77 -26 -44 -49 -79 -51 -77 -7 7 35 119 61 163 14 23 36 51 49 61 20 16
21 20 8 32 -12 12 -26 12 -77 3 -85 -16 -97 -14 -50 8 l40 19 -35 1 c-39 2
-61 5 -99 16 -24 7 -23 8 14 15 22 4 63 8 90 9 55 1 46 14 -15 23 -84 13 -109
20 -104 28 3 5 35 9 71 9 37 0 64 2 62 5 -3 2 -45 16 -95 29 l-89 25 73 -1
c62 -1 80 -5 119 -30 36 -23 48 -27 54 -16 14 21 11 33 -21 73 -16 21 -30 40
-30 42 0 3 17 -6 37 -18 l38 -23 -21 29 c-64 95 -56 131 11 47 26 -34 49 -62
51 -62 4 0 -18 59 -51 136 -13 32 -13 35 0 24 9 -7 30 -35 47 -61 17 -27 32
-49 34 -49 3 0 -17 83 -26 105 -4 11 -13 33 -19 49 -11 27 -11 28 5 15 21 -17
72 -123 80 -167 5 -28 10 -32 28 -26 11 4 21 7 22 8 0 0 5 17 11 36 l11 35 2
-30 c1 -16 2 -34 1 -38 -1 -5 3 -6 9 -2 5 3 10 13 10 22 0 17 60 117 66 110 2
-1 -6 -34 -17 -71 -19 -63 -19 -100 0 -66 20 35 76 119 78 116 4 -3 -25 -93
-37 -116 -27 -50 2 -26 55 47 32 43 54 67 50 53 -12 -41 -62 -135 -78 -149
-12 -10 -13 -18 -5 -42 9 -27 13 -29 51 -24 l42 5 -32 -15 c-18 -8 -33 -17
-33 -20 0 -3 23 -5 50 -5 l50 0 0 55 c0 44 -3 55 -16 55 -15 0 -15 2 0 25 13
20 16 56 16 214 l0 190 -47 -16 c-102 -35 -188 -94 -231 -158 l-29 -44 -23 57
c-15 35 -43 77 -75 108 -49 50 -147 114 -173 114 -7 0 -22 -21 -33 -47z"/>
<path d="M2732 2543 c6 -21 13 -45 16 -53 3 -8 6 -18 6 -22 1 -5 4 -8 9 -8 7
0 8 4 6 15 -2 5 -6 52 -8 85 -1 13 -8 20 -20 20 -17 0 -18 -4 -9 -37z"/>
<path d="M2026 2502 c-3 -5 1 -9 9 -9 8 0 12 4 9 9 -3 4 -7 8 -9 8 -2 0 -6 -4
-9 -8z"/>
<path d="M2657 2429 c-46 -24 -79 -32 -160 -39 -162 -15 -261 -13 -294 6 -23
14 -42 15 -96 10 l-68 -8 6 -29 c6 -28 5 -29 -32 -30 -21 -1 -41 -1 -45 0 -11
2 -10 -26 8 -193 10 -95 21 -155 30 -164 8 -7 14 -18 14 -23 0 -7 77 -2 88 6
1 1 -11 49 -28 106 -16 57 -26 106 -22 110 4 3 73 15 154 27 80 11 156 27 167
34 16 10 23 10 33 0 19 -19 27 -14 30 20 3 27 7 32 31 34 40 2 52 -18 24 -44
-12 -11 -26 -22 -32 -22 -5 -1 -9 -6 -8 -11 2 -5 -3 -8 -10 -6 -6 1 -10 -5 -8
-13 2 -8 3 -27 3 -42 0 -15 4 -30 9 -33 5 -4 9 -21 9 -38 1 -18 9 -72 19 -122
13 -63 16 -94 8 -103 -14 -17 -2 -26 44 -31 4 -1 9 -74 11 -163 3 -123 9 -177
23 -221 l19 -58 -28 -27 c-25 -25 -28 -26 -40 -9 -22 28 -39 21 -31 -13 6 -25
3 -31 -16 -38 -12 -5 -18 -11 -12 -15 5 -3 20 0 34 7 57 29 80 26 86 -14 3
-19 25 -62 41 -78 7 -8 9 -18 6 -24 -4 -7 -2 -8 4 -4 7 4 13 1 14 -6 0 -7 2
-17 2 -23 1 -5 9 -25 18 -43 9 -18 12 -30 7 -26 -5 3 0 -11 11 -31 11 -20 15
-33 8 -29 -7 4 -2 -5 12 -21 14 -16 19 -25 11 -20 -10 6 -12 4 -5 -6 5 -8 9
-18 9 -24 1 -5 6 -9 13 -8 7 2 11 0 11 -5 -4 -26 3 -62 11 -57 9 6 15 -16 11
-39 -1 -5 5 -4 13 3 13 11 15 10 11 -7 -2 -12 3 -26 11 -32 7 -7 11 -17 7 -23
-3 -5 -1 -7 4 -4 14 9 34 -15 36 -42 1 -11 3 -18 6 -16 2 3 10 0 18 -6 10 -9
10 -15 2 -25 -9 -11 -8 -14 5 -14 9 0 19 -8 23 -18 3 -9 13 -26 22 -36 9 -11
11 -16 4 -13 -6 4 -14 3 -18 -3 -3 -5 0 -10 8 -10 16 0 46 -30 45 -45 0 -5 -5
-16 -11 -23 -6 -7 -6 -12 -1 -10 5 2 9 0 9 -3 0 -3 7 -14 15 -25 14 -18 14
-18 -6 -1 -11 9 -24 14 -28 10 -9 -9 -3 38 6 53 4 6 1 11 -7 11 -8 0 -12 -4
-9 -8 2 -4 0 -10 -5 -14 -6 -3 -7 -13 -4 -23 4 -13 2 -13 -10 3 -12 15 -13 23
-4 34 9 12 9 13 0 7 -9 -5 -13 -1 -14 11 0 16 -1 16 -8 -2 -5 -11 -6 -27 -4
-35 4 -13 3 -13 -5 -1 -10 15 -6 36 11 58 7 9 5 13 -7 13 -9 0 -16 -8 -17 -17
0 -15 -2 -15 -9 2 -5 12 -9 14 -9 6 -1 -8 -4 -11 -7 -8 -4 4 -1 14 6 22 11 13
11 16 -1 13 -8 -2 -13 3 -11 10 1 8 -2 11 -7 8 -5 -4 -8 -15 -6 -26 2 -12 0
-18 -6 -15 -5 4 -7 10 -4 14 2 5 -4 16 -15 26 -15 13 -17 21 -9 31 8 10 5 12
-18 8 -27 -5 -27 -4 -8 10 19 14 19 15 -10 10 -29 -5 -29 -5 -10 11 13 10 15
14 5 13 -8 -2 -14 3 -12 10 1 6 -4 11 -10 10 -7 -2 -12 3 -10 10 1 6 -4 11
-10 10 -8 -2 -13 6 -12 19 1 13 -2 20 -7 18 -4 -3 -10 -1 -14 5 -3 5 -1 10 6
10 7 0 9 3 6 6 -4 4 -13 2 -20 -4 -19 -16 -30 -3 -14 16 7 10 8 13 1 9 -7 -4
-18 1 -25 10 -12 14 -12 16 1 8 11 -6 10 -3 -3 12 -9 11 -14 23 -10 28 5 4 3
5 -3 2 -7 -4 -18 1 -25 10 -8 9 -9 14 -3 10 6 -3 11 0 11 8 0 8 -4 12 -8 10
-3 -3 -13 3 -20 12 -12 14 -12 16 1 8 11 -6 10 -3 -3 12 -9 11 -15 22 -12 25
3 3 -4 5 -16 4 -19 -1 -23 4 -23 31 -1 17 -10 42 -22 55 -12 13 -20 31 -19 40
2 10 -2 21 -7 25 -7 4 -8 1 -3 -7 5 -8 4 -11 -3 -7 -5 4 -9 15 -7 25 1 9 -3
23 -9 31 -9 12 -8 13 4 6 13 -8 13 -7 1 9 -14 16 -16 15 -32 -16 -10 -18 -18
-47 -19 -64 0 -34 32 -135 54 -168 7 -12 19 -39 26 -61 7 -22 23 -61 35 -87
28 -57 55 -144 57 -178 5 -81 -74 -228 -107 -200 -7 5 -16 6 -21 2 -4 -4 -3 1
4 10 11 14 10 16 -5 13 -10 -1 -24 3 -32 9 -8 6 -16 10 -18 9 -1 -2 -5 -2 -8
-2 -32 8 -93 2 -108 -10 -14 -12 -18 -12 -15 -2 4 18 -28 22 -43 5 -6 -8 -8
-14 -4 -14 5 0 2 -8 -6 -17 -30 -38 -39 -65 -39 -116 l0 -53 143 13 c78 8 277
27 442 44 165 17 329 33 365 35 36 3 76 7 89 10 22 5 22 6 7 23 -16 18 -14 19
46 30 107 19 122 22 127 27 2 2 11 -2 19 -9 13 -10 14 -9 7 3 -8 13 -6 13 8 1
18 -14 13 -36 -5 -25 -7 5 -8 2 -4 -5 5 -7 11 -10 14 -7 3 3 11 1 18 -5 10 -8
44 -8 121 0 214 22 200 18 208 59 l7 36 21 -33 20 -33 74 4 c40 3 75 7 77 9 2
2 -3 56 -10 119 -7 63 -13 123 -13 133 -1 15 -4 15 -21 5 -11 -7 -20 -18 -20
-25 0 -7 -5 -13 -11 -13 -5 0 -7 -4 -4 -10 3 -5 0 -7 -8 -4 -7 2 -34 -4 -58
-14 l-45 -20 -54 152 c-70 199 -81 241 -67 255 6 6 17 11 25 11 10 0 12 7 8
22 -3 13 -6 33 -6 46 0 14 -6 22 -17 22 -27 1 -63 32 -72 65 -9 29 -9 29 -11
5 -1 -14 -2 -28 -1 -32 0 -4 -11 -16 -26 -28 -20 -15 -38 -20 -67 -18 l-41 3
-2 95 c-1 52 -3 104 -5 115 -3 20 -48 60 -80 71 -24 9 -30 47 -13 80 8 16 15
37 15 48 0 11 5 16 14 13 23 -9 27 44 6 80 -12 20 -15 35 -9 39 13 8 -18 44
-38 44 -7 0 -16 8 -20 18 -3 9 -18 30 -32 46 -22 25 -23 28 -6 21 11 -4 34
-10 50 -13 l30 -5 -21 24 c-12 13 -40 55 -63 93 -58 96 -137 191 -192 231 -49
35 -134 76 -142 69 -3 -3 -30 1 -62 10 -31 8 -72 12 -91 9 l-34 -6 0 54 c0 30
-5 72 -10 94 -6 22 -13 56 -16 75 -3 19 -7 36 -7 37 -1 0 -28 -12 -60 -28z
m56 -31 c5 -34 -5 -48 -34 -48 -19 0 -30 41 -17 64 16 29 45 19 51 -16z m-579
-77 c3 -5 -1 -11 -9 -15 -15 -6 -29 7 -18 18 9 9 21 8 27 -3z m126 -22 c0 -11
-27 -12 -34 0 -3 4 -3 11 0 14 8 8 34 -3 34 -14z m217 -106 c-4 -3 1 -15 10
-26 10 -11 12 -17 6 -13 -8 4 -13 1 -13 -9 0 -10 5 -13 13 -9 9 6 9 5 0 -8
-17 -20 -4 -31 16 -15 14 11 14 10 2 -6 -12 -15 -17 -16 -27 -5 -21 22 -26 98
-6 98 3 0 2 -3 -1 -7z m154 -39 c10 -28 -7 -80 -35 -103 -15 -13 -16 -12 -7
13 10 23 7 30 -10 28 -11 -1 -3 66 10 82 16 19 29 13 42 -20z m-584 -11 c-4
-3 -2 -12 4 -19 9 -11 7 -15 -6 -20 -25 -10 -39 18 -18 34 18 13 31 17 20 5z
m863 -224 c0 -6 8 -9 18 -8 31 4 52 -12 52 -40 0 -20 2 -23 10 -11 9 14 11 10
10 -15 -1 -9 28 -35 39 -35 32 0 -23 -48 -62 -54 -9 -1 -20 -5 -23 -9 -10 -10
-36 -9 -30 1 2 4 -6 8 -19 8 -13 0 -23 -4 -22 -9 2 -12 -52 -45 -75 -46 -18
-1 -24 10 -11 23 11 10 12 37 2 30 -5 -3 -9 7 -9 21 0 14 -4 24 -9 21 -8 -5
-16 12 -26 51 -3 13 42 63 57 63 6 0 21 9 35 20 19 15 30 17 44 9 10 -5 19
-14 19 -20z m310 -310 c0 -33 -23 -43 -77 -33 -21 4 -51 7 -68 8 -27 1 -30 -2
-32 -33 -2 -42 -34 -77 -60 -66 -10 5 -25 9 -35 9 -18 1 -38 16 -21 16 6 0 13
6 16 14 12 30 -40 9 -85 -35 -47 -46 -68 -48 -68 -9 0 30 85 80 123 74 11 -1
16 0 13 3 -3 4 -1 11 4 18 5 6 11 22 13 36 2 13 11 25 19 27 19 4 50 -26 42
-40 -4 -6 2 -6 14 1 12 6 24 16 27 21 3 6 14 10 24 10 10 0 38 11 62 24 l44
23 23 -20 c12 -12 22 -32 22 -48z m-145 -48 c3 -5 1 -12 -5 -16 -5 -3 -10 1
-10 9 0 18 6 21 15 7z m-26 -137 c-28 -15 -39 -17 -39 -6 0 10 43 29 54 24 5
-3 -2 -11 -15 -18z m528 -461 c0 -6 -4 -10 -8 -7 -9 5 -16 -25 -11 -48 2 -10
8 -16 12 -13 5 3 12 0 16 -6 4 -7 3 -9 -3 -6 -15 10 -41 -25 -38 -52 2 -22 1
-23 -11 -6 -7 10 -11 22 -7 28 3 6 1 7 -5 3 -6 -4 -8 -14 -5 -24 4 -13 2 -13
-10 3 -11 14 -12 24 -5 32 7 9 4 11 -12 8 -19 -4 -20 -2 -8 12 7 9 8 14 2 10
-19 -11 -23 51 -5 66 8 6 12 7 9 2 -4 -6 2 -17 14 -24 12 -8 17 -8 13 -1 -4 6
-2 17 4 23 13 17 58 17 58 0z m-560 -496 c0 -8 -6 -14 -13 -14 -6 0 -11 7 -9
16 1 9 -3 23 -9 31 -7 10 -3 9 10 -3 11 -9 21 -23 21 -30z"/>
<path d="M3543 885 c0 -8 4 -12 9 -9 5 3 6 10 3 15 -9 13 -12 11 -12 -6z"/>
<path d="M14923 2453 c-46 -6 -41 -23 6 -23 22 0 46 -3 55 -6 12 -4 16 0 16
15 0 22 -5 23 -77 14z"/>
<path d="M5338 2408 c-42 -24 -58 -54 -58 -109 0 -53 31 -81 118 -110 37 -12
76 -30 86 -40 20 -18 20 -19 0 -40 -24 -26 -73 -22 -146 14 l-50 25 -19 -32
c-10 -17 -19 -34 -19 -37 0 -12 44 -36 99 -54 63 -21 157 -16 197 10 40 26 65
75 59 115 -8 47 -38 76 -104 100 -114 42 -112 41 -109 69 4 35 47 39 118 12
30 -11 55 -20 56 -18 1 1 9 17 19 36 17 33 17 35 -1 48 -53 38 -188 45 -246
11z"/>
<path d="M5807 2227 c-48 -113 -87 -208 -87 -211 0 -3 23 -6 50 -6 49 0 50 1
66 40 l16 41 92 -3 91 -3 18 -37 c17 -37 19 -38 71 -38 l53 0 -16 48 c-9 26
-27 69 -41 97 -13 27 -45 99 -70 160 l-46 110 -55 3 -55 3 -87 -204z m189 -34
c6 -22 4 -23 -50 -23 -31 0 -56 4 -56 10 0 5 12 39 27 75 l27 66 23 -52 c13
-29 26 -63 29 -76z"/>
<path d="M6310 2220 l0 -210 50 0 c59 0 53 -28 54 242 l1 178 -52 0 -53 0 0
-210z"/>
<path d="M6590 2220 l0 -210 140 0 140 0 0 45 0 45 -88 0 -88 0 1 165 0 165
-52 0 -53 0 0 -210z"/>
<path d="M7032 2318 c33 -62 68 -128 79 -146 13 -23 19 -52 19 -98 l0 -64 50
0 50 0 0 68 c0 66 3 73 74 208 l75 139 -41 3 c-22 2 -46 1 -54 -2 -7 -3 -31
-41 -53 -85 -22 -44 -44 -82 -49 -85 -4 -2 -30 36 -57 85 l-50 89 -51 0 -52 0
60 -112z"/>
<path d="M7814 2416 c-74 -33 -97 -117 -48 -175 18 -21 45 -37 90 -51 85 -26
104 -37 104 -61 0 -47 -80 -49 -164 -4 l-46 25 -17 -35 c-21 -43 -11 -57 63
-85 111 -41 230 -15 260 56 33 78 -4 136 -104 169 -75 24 -102 41 -102 65 0
38 67 35 167 -6 7 -3 21 12 32 34 l20 39 -37 18 c-49 24 -176 30 -218 11z"/>
<path d="M8220 2220 l0 -210 50 0 49 0 3 83 3 82 88 3 87 3 0 -86 0 -85 53 0
52 0 3 210 2 210 -55 0 -55 0 0 -87 0 -88 -85 0 -85 0 0 88 0 87 -55 0 -55 0
0 -210z"/>
<path d="M8830 2229 c-47 -110 -86 -205 -88 -210 -2 -5 20 -9 48 -9 51 0 52 1
67 40 l16 40 94 0 93 0 16 -40 c16 -40 16 -40 71 -40 30 0 53 4 51 9 -1 4 -41
99 -88 209 l-85 201 -55 0 -55 0 -85 -200z m173 9 l25 -68 -59 0 c-32 0 -59 3
-59 7 0 20 54 143 60 136 4 -4 19 -38 33 -75z"/>
<path d="M9330 2220 l1 -210 54 0 55 0 0 85 0 86 86 -3 86 -3 2 -80 1 -80 53
-3 52 -3 0 210 0 211 -55 0 -55 0 0 -88 0 -88 -85 0 -85 0 0 88 0 88 -55 0
-55 0 0 -210z"/>
<path d="M1950 2385 c0 -8 9 -15 20 -15 11 0 20 7 20 15 0 8 -9 15 -20 15 -11
0 -20 -7 -20 -15z"/>
<path d="M11735 2230 c-3 -6 1 -7 9 -4 18 7 21 14 7 14 -6 0 -13 -4 -16 -10z"/>
<path d="M11745 2180 c-3 -5 1 -10 9 -10 9 0 16 5 16 10 0 6 -4 10 -9 10 -6 0
-13 -4 -16 -10z"/>
<path d="M11705 2120 c-3 -5 1 -10 10 -10 9 0 13 5 10 10 -3 6 -8 10 -10 10
-2 0 -7 -4 -10 -10z"/>
<path d="M6240 2106 c0 -2 7 -7 16 -10 8 -3 12 -2 9 4 -6 10 -25 14 -25 6z"/>
<path d="M2006 1870 c4 -14 10 -28 15 -33 5 -4 7 -4 4 0 -3 3 3 15 12 26 17
19 17 20 -4 15 -12 -3 -24 -1 -27 6 -3 6 -3 0 0 -14z"/>
<path d="M11681 1804 c0 -11 3 -14 6 -6 3 7 2 16 -1 19 -3 4 -6 -2 -5 -13z"/>
<path d="M2020 1759 c0 -5 5 -7 10 -4 6 3 10 8 10 11 0 2 -4 4 -10 4 -5 0 -10
-5 -10 -11z"/>
<path d="M2078 1526 c-21 -11 -38 -25 -38 -29 0 -4 18 3 40 15 22 13 40 26 40
31 0 4 -1 7 -2 6 -2 -1 -20 -11 -40 -23z"/>
<path d="M11810 1500 c0 -5 5 -10 11 -10 5 0 7 5 4 10 -3 6 -8 10 -11 10 -2 0
-4 -4 -4 -10z"/>
<path d="M2112 1299 c-26 -8 -33 -14 -30 -32 3 -19 8 -22 43 -19 22 2 41 5 43
7 5 5 -10 55 -17 54 -3 0 -21 -5 -39 -10z"/>
<path d="M2112 1229 c-18 -4 -35 -9 -38 -11 -8 -9 11 -43 25 -46 11 -2 12 0 3
11 -15 18 -3 30 15 15 11 -9 13 -8 11 3 -2 9 5 14 18 13 11 -1 21 4 21 11 0
13 -9 14 -55 4z"/>
<path d="M5010 1100 c0 -5 5 -10 10 -10 6 0 10 5 10 10 0 6 -4 10 -10 10 -5 0
-10 -4 -10 -10z"/>
<path d="M6030 1025 c0 -69 3 -85 15 -85 8 0 15 5 15 10 0 6 8 5 19 -2 15 -9
25 -9 45 0 34 15 43 55 21 88 -15 23 -22 26 -55 21 -36 -5 -37 -4 -35 24 2 19
-2 29 -11 29 -11 0 -14 -19 -14 -85z m100 -4 c5 -11 7 -26 4 -35 -8 -21 -42
-30 -59 -16 -15 13 -20 51 -8 63 13 14 53 6 63 -12z"/>
<path d="M7100 1026 c0 -70 3 -86 15 -86 9 0 15 9 15 24 0 37 14 39 39 6 32
-44 45 -37 19 9 -22 39 -22 40 -4 60 28 30 7 26 -26 -6 l-28 -27 -1 37 c-2 56
-3 60 -16 65 -10 3 -13 -18 -13 -82z"/>
<path d="M8190 1025 c0 -50 4 -85 10 -85 6 0 10 35 10 85 0 50 -4 85 -10 85
-6 0 -10 -35 -10 -85z"/>
<path d="M8830 1100 c0 -5 5 -10 10 -10 6 0 10 5 10 10 0 6 -4 10 -10 10 -5 0
-10 -4 -10 -10z"/>
<path d="M10040 1025 c0 -50 4 -85 10 -85 6 0 10 8 10 19 0 10 6 23 13 29 10
9 17 4 31 -18 9 -17 24 -30 32 -30 11 0 9 9 -10 37 l-26 37 22 23 c31 33 1 30
-34 -4 l-28 -27 0 52 c0 29 -4 52 -10 52 -6 0 -10 -35 -10 -85z"/>
<path d="M10190 1100 c0 -5 5 -10 10 -10 6 0 10 5 10 10 0 6 -4 10 -10 10 -5
0 -10 -4 -10 -10z"/>
<path d="M10270 1025 c0 -50 4 -85 10 -85 6 0 10 35 10 85 0 50 -4 85 -10 85
-6 0 -10 -35 -10 -85z"/>
<path d="M10350 1025 c0 -50 4 -85 10 -85 6 0 10 35 10 85 0 50 -4 85 -10 85
-6 0 -10 -35 -10 -85z"/>
<path d="M4450 1020 c0 -47 4 -80 10 -80 6 0 10 11 10 24 0 20 6 24 41 29 46
6 59 19 59 59 0 33 -24 48 -79 48 l-41 0 0 -80z m97 44 c10 -26 -11 -49 -46
-52 -30 -3 -31 -2 -31 32 0 34 2 36 35 36 24 0 38 -5 42 -16z"/>
<path d="M6718 1020 c-26 -56 -33 -80 -23 -80 8 0 17 9 20 20 5 16 15 20 50
20 35 0 45 -4 50 -20 3 -11 13 -20 20 -20 19 0 -46 154 -67 158 -9 2 -26 -24
-50 -78z m70 8 c11 -28 11 -28 -24 -28 -19 0 -33 4 -30 9 3 4 10 21 16 36 11
30 19 26 38 -17z"/>
<path d="M6890 1020 c0 -47 4 -80 10 -80 6 0 10 33 10 80 0 47 -4 80 -10 80
-6 0 -10 -33 -10 -80z"/>
<path d="M5560 1076 c0 -8 -6 -17 -12 -20 -10 -5 -10 -7 0 -12 6 -3 12 -23 12
-44 0 -42 20 -66 47 -55 16 6 16 8 -4 16 -18 6 -23 16 -23 44 0 28 4 35 20 35
11 0 20 5 20 10 0 6 -9 10 -20 10 -11 0 -20 7 -20 15 0 8 -4 15 -10 15 -5 0
-10 -6 -10 -14z"/>
<path d="M6530 1076 c0 -8 -6 -17 -12 -20 -10 -5 -10 -7 0 -12 6 -3 12 -23 12
-44 0 -42 20 -66 47 -55 16 6 16 8 -4 16 -18 6 -23 16 -23 44 0 28 4 35 20 35
11 0 20 5 20 10 0 6 -9 10 -20 10 -11 0 -20 7 -20 15 0 8 -4 15 -10 15 -5 0
-10 -6 -10 -14z"/>
<path d="M4620 1049 c-12 -8 -8 -9 16 -5 29 5 54 -7 54 -26 0 -4 -16 -8 -35
-8 -23 0 -37 -6 -44 -18 -16 -29 3 -46 54 -48 l45 -2 0 47 c0 26 -5 52 -12 59
-15 15 -58 15 -78 1z m68 -66 c-2 -11 -14 -19 -31 -21 -22 -3 -27 1 -27 17 0
17 6 21 31 21 24 0 30 -4 27 -17z"/>
<path d="M4767 1053 c-16 -15 -5 -44 23 -58 42 -22 39 -39 -6 -32 -30 5 -34 4
-24 -8 15 -18 52 -19 68 -3 21 21 13 46 -19 57 -37 13 -34 37 5 33 18 -2 25 1
21 7 -7 12 -58 15 -68 4z"/>
<path d="M4887 1053 c-16 -15 -5 -44 23 -58 42 -22 39 -39 -6 -32 -30 5 -34 4
-24 -8 15 -18 52 -19 68 -3 21 21 13 46 -19 57 -37 13 -34 37 5 33 18 -2 25 1
21 7 -7 12 -58 15 -68 4z"/>
<path d="M5010 1000 c0 -33 4 -60 10 -60 6 0 10 27 10 60 0 33 -4 60 -10 60
-6 0 -10 -27 -10 -60z"/>
<path d="M5090 1045 c-19 -23 -15 -64 8 -87 15 -16 27 -19 51 -13 68 15 60
107 -10 113 -23 2 -40 -2 -49 -13z m80 -25 c20 -38 -12 -70 -54 -54 -16 6 -22
54 -9 67 14 14 53 6 63 -13z"/>
<path d="M5240 999 c0 -33 4 -59 10 -59 6 0 10 15 10 33 0 41 20 70 46 65 15
-2 20 -13 22 -51 2 -33 7 -47 18 -47 17 0 19 55 4 94 -8 23 -14 26 -60 25
l-50 -2 0 -58z"/>
<path d="M5414 1049 c-5 -9 -1 -10 15 -6 29 7 51 -1 51 -18 0 -9 -14 -15 -37
-17 -33 -3 -38 -7 -41 -30 -3 -29 9 -35 71 -36 28 0 28 1 25 57 l-3 56 -37 3
c-21 2 -39 -2 -44 -9z m64 -66 c-4 -22 -58 -31 -58 -10 0 20 10 27 37 27 18 0
24 -5 21 -17z"/>
<path d="M5667 1042 c-23 -25 -21 -58 3 -82 24 -24 49 -25 76 -5 17 13 16 14
-17 8 -23 -3 -39 -1 -44 7 -10 16 -3 20 38 23 48 4 53 11 33 42 -20 30 -65 34
-89 7z m83 -22 c0 -6 -18 -10 -40 -10 -30 0 -38 3 -34 14 10 27 74 23 74 -4z"/>
<path d="M5890 1049 c-12 -8 -8 -9 16 -5 29 4 54 -7 54 -25 0 -4 -17 -9 -37
-11 -33 -3 -38 -7 -41 -30 -3 -29 9 -35 71 -36 26 0 27 2 27 47 0 26 -5 52
-12 59 -15 15 -58 15 -78 1z m68 -66 c-4 -22 -58 -31 -58 -10 0 20 10 27 37
27 18 0 24 -5 21 -17z"/>
<path d="M6204 1034 c-37 -55 25 -117 80 -80 19 12 26 25 26 49 0 42 -15 57
-57 57 -24 0 -37 -7 -49 -26z m84 -22 c7 -50 -49 -72 -70 -27 -14 32 5 57 41
53 18 -2 27 -10 29 -26z"/>
<path d="M6362 1009 c4 -62 24 -82 60 -60 16 10 23 10 26 2 10 -30 22 -4 22
49 0 33 -4 60 -10 60 -5 0 -10 -10 -10 -22 0 -57 -22 -84 -55 -72 -10 4 -15
20 -15 50 0 24 -5 44 -11 44 -6 0 -9 -20 -7 -51z"/>
<path d="M7257 1042 c-10 -10 -17 -28 -17 -40 0 -48 71 -82 100 -47 10 12 6
13 -23 8 -21 -3 -37 -1 -42 7 -10 16 -3 20 41 23 33 2 38 5 36 22 -2 11 -9 26
-14 33 -15 18 -62 15 -81 -6z m67 -8 c22 -22 21 -24 -19 -24 -46 0 -48 34 -3
39 4 1 14 -6 22 -15z"/>
<path d="M7406 1038 c-21 -30 -20 -54 4 -78 23 -23 49 -25 75 -6 17 12 15 14
-21 12 -29 -1 -39 3 -39 14 0 11 10 15 37 13 46 -2 55 10 34 42 -21 33 -69 34
-90 3z m70 -5 c17 -17 17 -18 -4 -21 -12 -2 -32 -2 -44 0 -21 3 -21 4 -4 21
10 9 21 17 26 17 5 0 16 -8 26 -17z"/>
<path d="M7550 1000 c0 -68 17 -82 22 -19 3 45 24 67 52 56 11 -5 16 -19 16
-52 0 -25 5 -45 10 -45 7 0 10 22 8 58 -3 54 -4 57 -31 60 -16 2 -35 -2 -43
-9 -10 -8 -14 -8 -14 0 0 6 -4 11 -10 11 -6 0 -10 -27 -10 -60z"/>
<path d="M7796 1044 c-35 -34 -8 -104 40 -104 33 0 64 29 64 59 0 52 -68 82
-104 45z m74 -19 c15 -18 10 -45 -12 -59 -33 -20 -69 20 -54 60 7 18 50 18 66
-1z"/>
<path d="M7943 1002 c4 -70 27 -84 27 -18 0 34 4 48 16 53 28 11 49 -11 52
-56 2 -22 7 -41 13 -41 14 0 11 96 -3 108 -7 6 -34 10 -60 10 l-48 -1 3 -55z"/>
<path d="M8272 1048 c-22 -28 -22 -55 -1 -81 23 -30 60 -35 79 -12 10 12 6 13
-23 8 -21 -3 -37 -1 -42 7 -10 16 -5 19 43 21 44 3 51 14 32 50 -12 22 -71 27
-88 7z m78 -28 c0 -6 -16 -10 -35 -10 -38 0 -46 13 -18 29 19 10 53 -2 53 -19z"/>
<path d="M8415 1050 c-4 -6 5 -10 22 -8 33 2 56 -9 48 -23 -4 -5 -19 -9 -34
-9 -33 0 -54 -20 -45 -44 7 -19 6 -18 62 -20 l42 -2 0 46 c0 25 -5 51 -12 58
-15 15 -74 16 -83 2z m68 -57 c10 -10 -13 -33 -34 -33 -21 0 -33 15 -24 30 7
11 48 14 58 3z"/>
<path d="M8560 1000 c0 -33 4 -60 10 -60 6 0 10 14 10 31 0 38 16 69 35 69 8
0 15 5 15 10 0 14 -23 13 -38 -2 -9 -9 -12 -9 -12 0 0 7 -4 12 -10 12 -6 0
-10 -27 -10 -60z"/>
<path d="M8663 998 c-1 -45 2 -58 13 -58 10 0 14 13 14 45 0 33 5 47 16 52 28
11 49 -11 52 -56 2 -22 7 -41 13 -41 14 0 11 96 -3 108 -7 6 -33 10 -58 10
l-45 -1 -2 -59z"/>
<path d="M8830 1000 c0 -33 4 -60 10 -60 6 0 10 27 10 60 0 33 -4 60 -10 60
-6 0 -10 -27 -10 -60z"/>
<path d="M8910 1000 c0 -68 17 -82 22 -19 3 45 24 67 52 56 11 -5 16 -19 16
-52 0 -25 5 -45 10 -45 7 0 10 22 8 58 -3 54 -4 57 -31 60 -16 2 -35 -2 -43
-9 -10 -8 -14 -8 -14 0 0 6 -4 11 -10 11 -6 0 -10 -27 -10 -60z"/>
<path d="M9073 1034 c-15 -24 -15 -29 -2 -53 12 -21 22 -26 52 -25 25 1 37 -3
37 -12 0 -20 -31 -33 -64 -27 -20 4 -27 2 -22 -6 11 -16 72 -13 90 5 11 11 16
34 16 78 l0 62 -45 2 c-38 1 -47 -2 -62 -24z m87 -29 c0 -36 -34 -51 -59 -26
-12 12 -17 27 -14 40 10 41 73 29 73 -14z"/>
<path d="M9310 1000 c0 -68 17 -82 22 -19 3 45 24 67 52 56 11 -5 16 -19 16
-52 0 -25 5 -45 10 -45 7 0 10 22 8 58 -3 54 -4 57 -31 60 -16 2 -35 -2 -43
-9 -10 -8 -14 -8 -14 0 0 6 -4 11 -10 11 -6 0 -10 -27 -10 -60z"/>
<path d="M9483 1048 c-19 -24 -22 -48 -11 -73 14 -31 64 -44 86 -21 14 14 12
15 -20 10 -23 -4 -38 -2 -43 6 -11 17 9 27 50 24 29 -3 35 0 35 16 0 41 -73
69 -97 38z m77 -28 c0 -6 -16 -10 -35 -10 -38 0 -46 13 -18 29 19 10 53 -2 53
-19z"/>
<path d="M9616 1038 c35 -112 54 -125 74 -53 14 50 21 49 40 -7 6 -21 17 -38
23 -38 7 0 22 27 34 60 16 45 18 60 9 60 -8 0 -19 -20 -26 -46 -14 -50 -22
-48 -40 9 -16 50 -35 47 -50 -9 -14 -50 -22 -48 -40 9 -6 20 -16 37 -21 37 -6
0 -7 -10 -3 -22z"/>
<path d="M9917 1053 c-16 -15 -5 -44 23 -58 42 -22 39 -39 -5 -32 -43 7 -47
-9 -5 -18 59 -13 84 43 30 65 -37 15 -34 36 4 32 18 -2 25 1 21 7 -7 12 -58
15 -68 4z"/>
<path d="M10190 1000 c0 -33 4 -60 10 -60 6 0 10 27 10 60 0 33 -4 60 -10 60
-6 0 -10 -27 -10 -60z"/>
<path d="M10427 1053 c-17 -17 -5 -45 23 -54 17 -6 30 -18 30 -26 0 -11 -8
-14 -30 -11 -34 5 -41 -7 -10 -17 59 -19 86 42 30 65 -37 15 -34 36 4 32 18
-2 25 1 21 7 -7 12 -58 15 -68 4z"/>
<path d="M2337 962 c-9 -2 -15 -7 -12 -11 2 -5 -8 -8 -23 -9 -57 0 -63 -2 -56
-14 6 -10 5 -10 -7 -1 -12 10 -18 10 -29 0 -7 -6 -10 -7 -7 -2 3 6 -6 11 -21
12 -21 1 -23 0 -9 -6 17 -6 17 -8 3 -20 -9 -7 -17 -11 -17 -7 -1 3 -3 11 -4
16 -1 6 -3 15 -4 20 -1 7 -7 7 -20 1 -10 -6 -21 -8 -23 -5 -6 6 0 -176 7 -193
2 -7 12 -13 20 -13 9 0 13 5 10 10 -3 6 -2 10 3 10 12 0 32 -53 33 -89 l1 -26
7 25 c4 14 6 41 3 61 -3 28 -1 36 12 36 9 0 16 -4 16 -9 0 -21 19 -4 50 43 18
29 53 70 77 93 45 43 52 56 29 56 -8 0 -16 6 -18 13 -2 7 -11 11 -21 9z"/>
<path d="M6960 939 c0 -11 5 -17 10 -14 6 3 10 13 10 21 0 8 -4 14 -10 14 -5
0 -10 -9 -10 -21z"/>
<path d="M10540 938 c0 -19 2 -20 10 -8 13 19 13 30 0 30 -5 0 -10 -10 -10
-22z"/>
<path d="M6430 751 c0 -28 -2 -29 -35 -24 -44 7 -65 -10 -65 -52 0 -47 32 -73
71 -58 16 6 29 7 29 2 0 -5 5 -9 10 -9 6 0 10 35 10 85 0 50 -4 85 -10 85 -5
0 -10 -13 -10 -29z m-10 -56 c15 -18 10 -45 -12 -59 -33 -20 -69 20 -54 60 7
18 50 18 66 -1z"/>
<path d="M6840 695 c0 -87 16 -119 22 -44 3 45 24 67 52 56 11 -5 16 -19 16
-52 0 -25 5 -45 10 -45 14 0 12 94 -2 108 -7 7 -21 12 -33 12 -12 0 -26 -5
-33 -12 -9 -9 -12 -4 -12 25 0 20 -4 37 -10 37 -6 0 -10 -35 -10 -85z"/>
<path d="M7000 770 c0 -5 7 -10 15 -10 8 0 15 5 15 10 0 6 -7 10 -15 10 -8 0
-15 -4 -15 -10z"/>
<path d="M7080 695 c0 -63 3 -85 13 -85 9 0 13 23 13 85 0 64 -3 85 -13 85
-10 0 -13 -21 -13 -85z"/>
<path d="M8010 770 c0 -5 5 -10 10 -10 6 0 10 5 10 10 0 6 -4 10 -10 10 -5 0
-10 -4 -10 -10z"/>
<path d="M8580 695 c0 -65 3 -85 14 -85 10 0 13 20 13 85 0 64 -4 85 -14 85
-10 0 -13 -21 -13 -85z"/>
<path d="M5745 693 c-34 -74 -38 -111 -8 -65 12 16 25 22 53 22 28 0 41 -6 53
-22 29 -44 27 -10 -5 65 -17 43 -38 77 -45 77 -8 0 -29 -34 -48 -77z m64 16
c6 -18 11 -34 11 -35 0 -2 -14 -4 -31 -4 -26 0 -30 3 -24 18 4 9 10 25 12 35
8 26 20 21 32 -14z"/>
<path d="M5990 690 c0 -47 4 -80 10 -80 6 0 10 16 10 35 0 35 0 35 45 35 45 0
45 0 45 -35 0 -19 5 -35 10 -35 6 0 10 33 10 80 0 47 -4 80 -10 80 -5 0 -10
-16 -10 -35 0 -35 0 -35 -45 -35 -45 0 -45 0 -45 35 0 19 -4 35 -10 35 -6 0
-10 -33 -10 -80z"/>
<path d="M7404 756 c-3 -9 -3 -27 0 -40 4 -16 1 -26 -9 -30 -23 -8 -19 -53 6
-67 16 -8 28 -8 47 0 17 8 28 9 36 1 16 -16 30 -12 16 5 -7 8 -10 24 -7 35 6
22 -8 28 -16 8 -3 -10 -9 -8 -23 4 -17 17 -17 18 0 37 10 11 16 28 14 38 -4
24 -56 31 -64 9z m51 -6 c7 -11 -12 -40 -25 -40 -11 0 -21 30 -14 41 7 12 31
11 39 -1z m-1 -111 c-8 -14 -40 -10 -54 6 -10 12 -10 18 0 30 12 14 16 13 36
-6 13 -12 21 -26 18 -30z"/>
<path d="M7840 690 c0 -64 3 -80 15 -80 9 0 15 9 15 25 0 21 5 25 30 25 34 0
70 30 70 58 0 32 -33 52 -83 52 l-47 0 0 -80z m101 44 c19 -23 -1 -48 -40 -52
-30 -3 -31 -2 -31 32 0 33 2 36 29 36 16 0 34 -7 42 -16z"/>
<path d="M9201 733 c0 -21 4 -47 9 -58 6 -14 9 -4 9 38 1 32 -3 57 -9 57 -5 0
-10 -17 -9 -37z"/>
<path d="M9261 733 c0 -21 4 -47 9 -58 6 -14 9 -4 9 38 1 32 -3 57 -9 57 -5 0
-10 -17 -9 -37z"/>
<path d="M6185 714 c-25 -25 -16 -75 18 -94 24 -13 30 -13 55 0 55 31 35 110
-28 110 -16 0 -36 -7 -45 -16z m75 -19 c26 -32 -13 -81 -47 -59 -35 22 -23 74
17 74 10 0 23 -7 30 -15z"/>
<path d="M6516 714 c-25 -24 -20 -71 8 -89 43 -29 96 0 96 53 0 44 -71 69
-104 36z m74 -19 c15 -18 10 -45 -12 -59 -33 -20 -69 20 -54 60 7 18 50 18 66
-1z"/>
<path d="M6670 650 c0 -47 4 -80 10 -80 6 0 10 13 10 30 0 28 1 29 25 18 55
-25 102 54 57 95 -22 20 -53 22 -70 5 -9 -9 -12 -9 -12 0 0 7 -4 12 -10 12 -6
0 -10 -33 -10 -80z m90 45 c29 -35 -26 -85 -58 -53 -13 13 -16 50 -5 61 12 12
50 7 63 -8z"/>
<path d="M7004 670 c1 -41 5 -60 13 -60 9 0 13 19 13 60 0 43 -4 60 -13 60
-10 0 -13 -17 -13 -60z"/>
<path d="M7166 708 c-21 -30 -20 -54 4 -78 24 -24 49 -25 76 -5 18 13 16 14
-16 9 -26 -4 -40 -1 -49 10 -12 14 -8 16 32 16 53 0 60 7 44 41 -17 34 -69 38
-91 7z m78 -14 c4 -11 -4 -14 -34 -14 -30 0 -38 3 -34 14 10 27 58 27 68 0z"/>
<path d="M7624 718 c-5 -8 2 -9 24 -5 19 4 34 1 41 -7 14 -17 4 -26 -29 -26
-32 0 -53 -21 -44 -44 7 -19 6 -18 62 -20 l42 -2 0 46 c0 25 -5 51 -12 58 -15
15 -75 16 -84 0z m69 -55 c10 -10 -13 -33 -34 -33 -21 0 -33 15 -24 30 7 11
48 14 58 3z"/>
<path d="M8010 670 c0 -33 4 -60 10 -60 6 0 10 27 10 60 0 33 -4 60 -10 60 -6
0 -10 -27 -10 -60z"/>
<path d="M8080 721 c0 -5 14 -7 30 -6 17 1 30 -1 30 -6 0 -5 -13 -24 -30 -42
-42 -48 -39 -57 20 -57 57 0 68 17 14 22 l-35 3 35 42 c20 22 36 44 36 47 0 3
-22 6 -50 6 -27 0 -50 -4 -50 -9z"/>
<path d="M8220 721 c0 -5 14 -7 30 -6 37 3 37 -2 0 -45 -42 -50 -39 -60 20
-60 28 0 50 5 50 10 0 6 -16 10 -35 10 -19 0 -35 3 -35 6 0 4 14 22 30 41 17
18 30 38 30 43 0 6 -20 10 -45 10 -25 0 -45 -4 -45 -9z"/>
<path d="M8365 720 c-4 -6 5 -10 22 -8 33 2 56 -9 48 -23 -4 -5 -19 -9 -34 -9
-33 0 -54 -20 -45 -44 7 -19 6 -18 62 -20 l42 -2 0 46 c0 25 -5 51 -12 58 -15
15 -74 16 -83 2z m68 -57 c10 -10 -13 -33 -34 -33 -21 0 -33 15 -24 30 7 11
48 14 58 3z"/>
<path d="M8664 704 c-36 -55 26 -116 81 -80 32 21 35 80 6 96 -35 18 -69 12
-87 -16z m84 -22 c7 -50 -49 -72 -70 -27 -14 32 5 57 41 53 18 -2 27 -10 29
-26z"/>
<path d="M8824 673 c12 -32 28 -58 35 -58 7 0 23 26 36 58 17 41 20 57 11 57
-8 0 -19 -20 -26 -45 -7 -25 -16 -45 -20 -45 -4 0 -13 20 -20 45 -7 25 -18 45
-25 45 -10 0 -7 -15 9 -57z"/>
<path d="M8963 718 c-26 -34 -21 -79 11 -100 19 -13 53 -9 67 8 12 15 11 16
-9 10 -25 -8 -62 1 -62 15 0 5 20 9 45 9 38 0 45 3 45 19 0 42 -72 71 -97 39z
m58 -8 c30 -16 23 -30 -16 -30 -37 0 -43 8 -23 28 15 15 15 15 39 2z"/>
<path d="M9100 670 c0 -33 4 -60 10 -60 6 0 10 14 10 31 0 38 16 69 35 69 8 0
15 5 15 10 0 14 -23 13 -38 -2 -9 -9 -12 -9 -12 0 0 7 -4 12 -10 12 -6 0 -10
-27 -10 -60z"/>
<path d="M2780 655 c0 -2 6 -8 13 -14 10 -8 14 -7 14 2 0 8 -6 14 -14 14 -7 0
-13 -1 -13 -2z"/>
<path d="M9200 620 c0 -5 5 -10 10 -10 6 0 10 5 10 10 0 6 -4 10 -10 10 -5 0
-10 -4 -10 -10z"/>
<path d="M9260 620 c0 -5 5 -10 10 -10 6 0 10 5 10 10 0 6 -4 10 -10 10 -5 0
-10 -4 -10 -10z"/>
<path d="M2135 568 c-2 -7 0 -29 4 -48 8 -30 9 -31 11 -10 1 14 3 35 6 48 4
23 -13 31 -21 10z"/>
<path d="M2908 573 c7 -3 16 -2 19 1 4 3 -2 6 -13 5 -11 0 -14 -3 -6 -6z"/>
<path d="M2320 508 c0 -11 -8 -15 -28 -13 -19 1 -29 -3 -29 -11 0 -8 5 -10 11
-5 6 5 19 7 29 6 18 -3 35 20 23 32 -3 4 -6 -1 -6 -9z"/>
<path d="M2346 488 c3 -5 10 -6 15 -3 13 9 11 12 -6 12 -8 0 -12 -4 -9 -9z"/>
<path d="M2383 485 c0 -8 3 -13 5 -10 3 3 11 0 18 -6 9 -7 14 -6 20 3 4 7 3
10 -1 5 -5 -4 -16 0 -25 8 -15 13 -17 13 -17 0z"/>
</g>
</svg>
