<?xml version="1.0" standalone="no"?>
<!DOCTYPE svg PUBLIC "-//W3C//DTD SVG 20010904//EN"
 "http://www.w3.org/TR/2001/REC-SVG-20010904/DTD/svg10.dtd">
<svg version="1.0" xmlns="http://www.w3.org/2000/svg"
 width="1500.000000pt" height="500.000000pt" viewBox="0 0 1500.000000 500.000000"
 preserveAspectRatio="xMidYMid meet">

<g transform="translate(0.000000,500.000000) scale(0.100000,-0.100000)"
fill="#000000" stroke="none">
<path d="M0 4525 l0 -475 26 0 c15 0 38 -12 55 -29 25 -25 29 -37 29 -84 0
-59 -38 -149 -85 -199 l-25 -27 0 -335 0 -335 49 -46 c58 -54 75 -91 57 -126
-13 -27 -68 -38 -92 -19 -12 11 -14 -182 -14 -1419 l0 -1431 2614 0 c2081 0
2615 3 2619 13 4 9 6 9 6 -1 1 -10 57 -12 261 -11 151 0 260 4 260 10 0 5 7 9
15 9 8 0 15 -4 15 -10 0 -7 1542 -10 4605 -10 l4605 0 0 1163 -1 1162 -39 24
c-22 14 -38 26 -37 27 1 2 19 -1 40 -5 27 -7 37 -6 37 4 0 8 -24 14 -72 17
-59 5 -75 3 -85 -11 -11 -14 -7 -21 30 -53 23 -21 37 -38 30 -38 -6 0 -14 4
-17 9 -3 5 -15 11 -26 14 -18 5 -16 0 10 -29 16 -19 37 -49 46 -67 19 -37 23
-38 -67 35 -47 40 -73 51 -47 21 23 -27 89 -133 83 -133 -4 0 -31 24 -62 53
l-57 52 47 -90 48 -90 -49 53 c-27 29 -64 84 -83 122 -18 39 -37 70 -41 70 -5
0 -8 -28 -9 -62 l-1 -63 -12 40 -12 40 -8 -35 c-10 -41 -45 -114 -52 -107 -3
2 1 41 9 86 8 44 13 81 11 81 -1 0 -19 -34 -39 -75 -21 -42 -41 -78 -45 -80
-8 -5 10 84 25 130 9 25 -49 -57 -76 -108 -29 -54 -33 -41 -9 28 26 76 65 141
95 161 22 14 23 18 9 31 -12 13 -25 13 -78 4 -86 -15 -98 -13 -51 9 l40 19
-45 1 c-25 1 -61 7 -80 14 l-35 13 70 7 c113 11 114 11 85 19 -14 3 -53 11
-87 18 -34 7 -60 16 -57 21 3 4 35 8 72 9 76 0 68 7 -53 40 l-70 19 82 -4 c71
-3 87 -8 118 -32 30 -23 38 -25 46 -13 14 23 10 45 -12 65 -11 10 -25 27 -31
37 -8 16 -7 17 11 8 11 -6 23 -16 26 -21 3 -6 11 -10 16 -10 6 0 2 12 -9 28
-23 33 -46 91 -40 97 3 3 24 -19 49 -50 24 -30 45 -52 47 -50 3 2 -7 34 -22
70 -14 36 -26 68 -26 71 0 14 31 -21 55 -62 14 -24 28 -44 30 -44 2 0 -7 38
-20 85 -13 47 -19 82 -13 79 15 -9 67 -123 74 -162 5 -28 10 -32 28 -26 26 8
23 3 34 44 l10 35 2 -40 c1 -38 2 -39 12 -15 15 34 70 122 74 118 1 -2 -6 -34
-17 -72 -18 -66 -18 -98 0 -66 21 38 76 118 78 116 3 -2 -22 -80 -42 -131 -9
-23 47 39 88 99 21 31 27 35 21 16 -10 -36 -49 -111 -72 -140 -16 -19 -18 -30
-10 -52 9 -26 13 -28 51 -22 l42 5 -35 -20 -35 -20 53 -1 52 0 0 1249 c0 1126
-2 1249 -16 1255 -17 7 -6024 8 -6024 2 0 -3 4 -16 10 -31 8 -21 6 -29 -11
-46 -12 -12 -24 -17 -28 -12 -3 4 -39 27 -80 51 l-73 42 -1409 0 -1409 0 -13
-32 c-8 -18 -33 -58 -56 -88 l-41 -55 50 -7 c96 -15 231 -101 313 -202 26 -30
36 -52 33 -64 -9 -28 -143 -99 -221 -118 -67 -15 -140 -15 -225 2 l-29 6 26
-63 c46 -113 33 -262 -38 -413 -17 -36 -34 -66 -37 -66 -4 0 -26 11 -49 24
-28 17 -43 20 -47 13 -3 -8 -5 -8 -5 1 -1 8 -26 38 -56 68 -30 31 -69 82 -86
115 l-30 60 -56 -51 c-31 -28 -86 -66 -122 -84 -74 -37 -177 -70 -196 -62 -19
7 -38 140 -31 214 7 69 41 163 76 212 l21 30 -40 0 c-21 0 -47 3 -57 7 -11 4
-15 3 -10 -5 3 -6 2 -13 -3 -16 -5 -3 -11 3 -14 14 -3 11 -12 20 -21 20 -49 0
-244 129 -281 186 -14 21 -12 25 36 68 117 105 279 148 417 112 46 -13 69 -8
42 9 -15 9 -56 94 -65 132 l-7 33 -1983 0 -1983 0 -15 -45 c-9 -25 -14 -45
-11 -45 2 0 40 18 84 40 85 43 90 44 90 32 0 -4 -36 -26 -80 -47 -44 -21 -80
-42 -80 -45 0 -4 41 -19 90 -34 50 -16 90 -32 90 -37 0 -12 6 -13 -95 21 -49
16 -90 28 -92 26 -3 -2 14 -41 37 -86 23 -45 39 -85 36 -88 -7 -7 -4 -12 -50
78 -21 41 -42 78 -45 83 -4 4 -19 -33 -34 -83 -15 -49 -32 -90 -38 -90 -7 0
-8 7 -4 18 4 9 16 46 27 81 11 35 22 70 25 78 4 9 -30 -3 -86 -31 -50 -26 -91
-42 -91 -38 0 5 25 21 56 36 31 16 70 36 86 46 l28 17 -72 23 c-102 32 -122
40 -115 46 3 3 44 -6 92 -21 48 -14 89 -24 92 -22 2 3 -5 23 -17 46 l-20 41
-530 0 -530 0 0 -475z m10010 455 c0 -5 -4 -10 -10 -10 -5 0 -10 5 -10 10 0 6
5 10 10 10 6 0 10 -4 10 -10z m1220 -4 c0 -3 -4 -8 -10 -11 -5 -3 -10 -1 -10
4 0 6 5 11 10 11 6 0 10 -2 10 -4z m-8600 -31 c0 -8 -4 -15 -10 -15 -5 0 -10
7 -10 15 0 8 5 15 10 15 6 0 10 -7 10 -15z m5539 -30 c9 -9 17 -48 21 -107 7
-93 21 -135 61 -187 51 -64 -1 -53 -88 19 -114 94 -160 197 -117 258 29 42 89
50 123 17z m2831 9 c0 -8 -4 -12 -10 -9 -5 3 -10 10 -10 16 0 5 5 9 10 9 6 0
10 -7 10 -16z m-10790 -9 c0 -8 -2 -15 -4 -15 -2 0 -6 7 -10 15 -3 8 -1 15 4
15 6 0 10 -7 10 -15z m8860 -13 c0 -5 -7 -9 -15 -9 -8 0 -12 4 -9 9 3 4 9 8
15 8 5 0 9 -4 9 -8z m-8793 -34 c-3 -8 -6 -5 -6 6 -1 11 2 17 5 13 3 -3 4 -12
1 -19z m10303 -3 c0 -8 -4 -15 -10 -15 -5 0 -10 7 -10 15 0 8 5 15 10 15 6 0
10 -7 10 -15z m-8473 -17 c-3 -8 -6 -5 -6 6 -1 11 2 17 5 13 3 -3 4 -12 1 -19z
m3813 18 c0 -3 -4 -8 -10 -11 -5 -3 -10 -1 -10 4 0 6 5 11 10 11 6 0 10 -2 10
-4z m6970 -6 c0 -5 -5 -10 -11 -10 -5 0 -7 5 -4 10 3 6 8 10 11 10 2 0 4 -4 4
-10z m-3925 -20 c15 -16 17 -26 9 -48 -17 -50 -94 -39 -94 14 0 49 52 70 85
34z m885 -6 c0 -8 -4 -12 -10 -9 -5 3 -10 13 -10 21 0 8 5 12 10 9 6 -3 10
-13 10 -21z m-682 -6 c7 -7 12 -24 12 -38 0 -14 -5 -31 -12 -38 -28 -28 -88
-2 -88 38 0 40 60 66 88 38z m595 -13 c-3 -9 -8 -14 -10 -11 -3 3 -2 9 2 15 9
16 15 13 8 -4z m3597 5 c0 -5 -5 -10 -11 -10 -5 0 -7 5 -4 10 3 6 8 10 11 10
2 0 4 -4 4 -10z m-4520 -8 c0 -13 -12 -22 -22 -16 -10 6 -1 24 13 24 5 0 9 -4
9 -8z m1297 -14 c-3 -8 -6 -5 -6 6 -1 11 2 17 5 13 3 -3 4 -12 1 -19z m-8280
-10 c-3 -8 -6 -5 -6 6 -1 11 2 17 5 13 3 -3 4 -12 1 -19z m923 12 c0 -5 -7
-10 -16 -10 -8 0 -12 5 -9 10 3 6 10 10 16 10 5 0 9 -4 9 -10z m5220 0 c0 -5
-2 -10 -4 -10 -3 0 -8 5 -11 10 -3 6 -1 10 4 10 6 0 11 -4 11 -10z m2690 6 c0
-3 -4 -8 -10 -11 -5 -3 -10 -1 -10 4 0 6 5 11 10 11 6 0 10 -2 10 -4z m1230
-26 c0 -5 -4 -10 -10 -10 -5 0 -10 5 -10 10 0 6 5 10 10 10 6 0 10 -4 10 -10z
m-440 -10 c0 -5 -5 -10 -11 -10 -5 0 -7 5 -4 10 3 6 8 10 11 10 2 0 4 -4 4
-10z m-645 -20 c3 -5 1 -10 -4 -10 -6 0 -11 5 -11 10 0 6 2 10 4 10 3 0 8 -4
11 -10z m2735 -10 c55 -55 -24 -135 -82 -83 -25 23 -23 68 4 87 30 21 54 20
78 -4z m-7330 0 c0 -5 -4 -10 -10 -10 -5 0 -10 5 -10 10 0 6 5 10 10 10 6 0
10 -4 10 -10z m486 -80 c15 -49 30 -90 34 -90 3 0 25 39 49 88 24 48 46 82 48
75 2 -6 -14 -48 -37 -92 -22 -45 -36 -81 -30 -81 5 0 44 11 87 25 84 27 103
30 88 16 -6 -5 -47 -21 -93 -36 -45 -14 -80 -30 -78 -33 2 -4 40 -25 85 -46
44 -22 78 -43 75 -48 -3 -5 -41 10 -85 34 -43 23 -81 39 -85 35 -3 -3 6 -42
21 -87 15 -45 24 -84 21 -87 -6 -7 -19 25 -47 115 -11 34 -21 62 -23 62 -2 0
-23 -38 -47 -85 -23 -47 -46 -85 -51 -85 -4 0 12 41 38 91 l45 92 -28 -7 c-15
-4 -32 -13 -38 -20 -5 -7 -16 -11 -23 -8 -7 2 -32 -3 -57 -12 -25 -8 -45 -11
-45 -6 0 5 37 21 83 36 45 14 86 29 91 32 5 3 -30 25 -78 49 -49 24 -85 47
-82 50 3 3 42 -13 87 -36 45 -23 83 -40 85 -38 2 2 -10 43 -26 92 -34 101 -33
95 -21 95 5 0 22 -40 37 -90z m3284 40 c0 -5 -4 -10 -10 -10 -5 0 -10 5 -10
10 0 6 5 10 10 10 6 0 10 -4 10 -10z m4116 -38 c49 -36 97 -98 90 -117 -4 -12
-12 -12 -52 0 -100 30 -163 99 -119 132 26 19 37 17 81 -15z m-12549 -4 c-3
-8 -6 -5 -6 6 -1 11 2 17 5 13 3 -3 4 -12 1 -19z m9093 8 c0 -3 -4 -8 -10 -11
-5 -3 -10 -1 -10 4 0 6 5 11 10 11 6 0 10 -2 10 -4z m1500 -6 c0 -5 -5 -10
-11 -10 -5 0 -7 5 -4 10 3 6 8 10 11 10 2 0 4 -4 4 -10z m-1760 -4 c0 -2 -9
-6 -20 -9 -11 -3 -18 -1 -14 4 5 9 34 13 34 5z m70 0 c0 -2 -7 -9 -15 -16 -12
-10 -15 -10 -15 4 0 9 7 16 15 16 8 0 15 -2 15 -4z m-6430 -16 c0 -5 -4 -10
-10 -10 -5 0 -10 5 -10 10 0 6 5 10 10 10 6 0 10 -4 10 -10z m6787 -20 c2 -19
-8 -26 -20 -14 -7 7 2 34 12 34 4 0 7 -9 8 -20z m-697 -75 c12 -38 26 -74 30
-79 5 -5 28 29 51 75 23 46 44 79 46 72 2 -6 -14 -48 -37 -92 -22 -45 -39 -81
-37 -81 2 0 41 14 87 30 90 32 100 35 100 21 0 -4 -20 -14 -45 -21 -25 -7 -45
-19 -45 -26 0 -8 -6 -11 -15 -8 -18 7 -65 -3 -65 -14 0 -4 36 -26 80 -47 44
-21 80 -43 80 -47 0 -12 -5 -11 -91 33 -45 22 -83 38 -85 36 -7 -7 38 -117 46
-112 4 3 14 -3 21 -13 13 -16 13 -16 -5 -2 -18 14 -19 13 -12 -23 12 -66 -11
-33 -41 58 -15 47 -30 85 -33 85 -3 0 -25 -42 -50 -92 -24 -51 -45 -88 -47
-82 -2 6 14 49 35 95 22 46 38 85 37 87 -5 6 -114 -31 -111 -37 2 -3 -13 -7
-35 -8 -36 -2 -38 -2 -21 15 9 9 31 18 47 18 17 1 50 11 75 22 l45 20 -90 43
c-49 23 -85 44 -79 46 5 2 45 -13 88 -33 43 -19 80 -33 84 -30 3 3 1 16 -5 29
-15 33 -43 123 -43 138 0 27 18 -7 40 -76z m-9943 43 c-3 -8 -6 -5 -6 6 -1 11
2 17 5 13 3 -3 4 -12 1 -19z m4151 -28 c12 0 11 -26 -3 -70 -13 -41 -89 -37
-105 5 -20 52 42 112 81 79 8 -8 21 -14 27 -14z m32 26 c0 -3 -4 -8 -10 -11
-5 -3 -10 -1 -10 4 0 6 5 11 10 11 6 0 10 -2 10 -4z m-3513 -38 c-3 -8 -6 -5
-6 6 -1 11 2 17 5 13 3 -3 4 -12 1 -19z m73 -8 c0 -5 -2 -10 -4 -10 -3 0 -8 5
-11 10 -3 6 -1 10 4 10 6 0 11 -4 11 -10z m5641 -23 c-16 -16 -26 0 -10 19 9
11 15 12 17 4 2 -6 -1 -17 -7 -23z m3299 29 c0 -3 -4 -8 -10 -11 -5 -3 -10 -1
-10 4 0 6 5 11 10 11 6 0 10 -2 10 -4z m-2256 -22 c8 -22 8 -24 -8 -24 -18 0
-29 16 -21 30 9 15 22 12 29 -6z m6699 10 c11 -4 13 -13 8 -32 -9 -32 -53 -39
-59 -9 -8 39 13 56 51 41z m-7133 -14 c0 -5 -5 -10 -11 -10 -5 0 -7 5 -4 10 3
6 8 10 11 10 2 0 4 -4 4 -10z m3845 -10 c3 -6 -1 -7 -9 -4 -18 7 -21 14 -7 14
6 0 13 -4 16 -10z m-2515 -9 c0 -17 -18 -21 -24 -6 -3 9 0 15 9 15 8 0 15 -4
15 -9z m1980 0 c0 -6 -4 -13 -10 -16 -5 -3 -10 1 -10 9 0 9 5 16 10 16 6 0 10
-4 10 -9z m3728 -34 c4 -18 -36 -48 -119 -87 -68 -32 -98 -36 -130 -20 -24 14
-25 61 -1 88 18 21 108 52 129 45 7 -3 20 0 29 5 21 12 88 -11 92 -31z m-5778
17 c0 -8 -5 -12 -10 -9 -6 4 -8 11 -5 16 9 14 15 11 15 -7z m-6675 -29 c28
-27 30 -37 15 -65 -35 -66 -123 -28 -108 46 3 17 41 43 61 44 4 0 19 -11 32
-25z m6405 -55 c0 -5 -4 -10 -10 -10 -5 0 -10 5 -10 10 0 6 5 10 10 10 6 0 10
-4 10 -10z m6560 -23 c1 -39 38 -106 89 -160 61 -65 68 -90 31 -127 -31 -31
-75 -26 -113 13 -18 18 -34 41 -36 52 -9 45 -6 240 3 247 15 10 26 0 26 -25z
m-8770 -27 c0 -5 -5 -10 -11 -10 -5 0 -7 5 -4 10 3 6 8 10 11 10 2 0 4 -4 4
-10z m3076 -29 c-2 -9 -12 -36 -21 -61 -26 -69 -31 -194 -10 -265 22 -76 14
-120 -25 -140 -104 -54 -200 41 -171 168 6 27 9 53 5 58 -3 5 0 9 6 9 6 0 14
8 17 18 25 69 166 244 189 235 9 -3 13 -13 10 -22z m1494 19 c0 -5 -4 -10 -10
-10 -5 0 -10 5 -10 10 0 6 5 10 10 10 6 0 10 -4 10 -10z m1540 6 c0 -3 -4 -8
-10 -11 -5 -3 -10 -1 -10 4 0 6 5 11 10 11 6 0 10 -2 10 -4z m1256 -81 c16
-47 31 -85 34 -85 3 0 24 36 45 80 21 44 43 80 47 80 11 0 12 1 -32 -89 -22
-45 -40 -83 -40 -86 0 -2 39 9 87 26 91 30 114 35 98 20 -6 -5 -47 -21 -92
-36 -46 -14 -83 -28 -83 -31 0 -2 39 -24 88 -48 48 -25 79 -45 69 -45 -10 -1
-49 15 -88 35 -39 19 -73 33 -75 31 -3 -2 9 -43 25 -90 16 -48 26 -89 21 -92
-5 -3 -23 39 -41 92 l-32 97 -41 -84 c-49 -102 -45 -95 -51 -88 -4 4 48 128
72 170 2 4 -36 -6 -84 -23 -48 -16 -91 -29 -97 -29 -22 0 11 18 64 35 30 10
69 24 85 31 l30 13 -87 40 c-49 23 -88 45 -88 51 0 10 31 -3 133 -55 26 -14
47 -22 47 -18 0 5 -14 46 -30 92 -34 94 -33 91 -21 91 4 0 21 -38 37 -85z
m-8336 19 c0 -8 -7 -14 -15 -14 -15 0 -21 21 -9 33 10 9 24 -2 24 -19z m3630
16 c0 -5 -2 -10 -4 -10 -3 0 -8 5 -11 10 -3 6 -1 10 4 10 6 0 11 -4 11 -10z
m-2760 -30 c0 -5 -5 -10 -11 -10 -5 0 -7 5 -4 10 3 6 8 10 11 10 2 0 4 -4 4
-10z m-1313 -22 c-3 -8 -6 -5 -6 6 -1 11 2 17 5 13 3 -3 4 -12 1 -19z m-277 2
c0 -5 -5 -10 -11 -10 -5 0 -7 5 -4 10 3 6 8 10 11 10 2 0 4 -4 4 -10z m4270 0
c0 -5 -2 -10 -4 -10 -3 0 -8 5 -11 10 -3 6 -1 10 4 10 6 0 11 -4 11 -10z
m-4480 -15 c0 -8 -4 -15 -10 -15 -5 0 -10 7 -10 15 0 8 5 15 10 15 6 0 10 -7
10 -15z m847 -27 c-3 -8 -6 -5 -6 6 -1 11 2 17 5 13 3 -3 4 -12 1 -19z m6238
-8 c-3 -5 -12 -10 -18 -10 -7 0 -6 4 3 10 19 12 23 12 15 0z m-3117 -12 c17
-17 15 -55 -4 -62 -29 -11 -44 -6 -56 19 -19 41 28 75 60 43z m2965 -13 c-3
-9 -8 -14 -10 -11 -3 3 -2 9 2 15 9 16 15 13 8 -4z m-2218 -5 c3 -5 1 -10 -4
-10 -6 0 -11 5 -11 10 0 6 2 10 4 10 3 0 8 -4 11 -10z m2745 -16 c0 -8 -4 -14
-10 -14 -5 0 -10 9 -10 21 0 11 5 17 10 14 6 -3 10 -13 10 -21z m-10570 -5 c0
-5 -4 -9 -10 -9 -5 0 -10 7 -10 16 0 8 5 12 10 9 6 -3 10 -10 10 -16z m9060 6
c0 -8 -4 -15 -9 -15 -13 0 -22 16 -14 24 11 11 23 6 23 -9z m-6950 -5 c0 -5
-5 -10 -11 -10 -5 0 -7 5 -4 10 3 6 8 10 11 10 2 0 4 -4 4 -10z m4144 -5 c-4
-8 -10 -15 -15 -15 -5 0 -9 7 -9 15 0 8 7 15 15 15 9 0 12 -6 9 -15z m1436 -6
c0 -18 -2 -19 -15 -9 -8 7 -15 16 -15 21 0 5 7 9 15 9 9 0 15 -9 15 -21z
m-1562 -17 c2 -7 -3 -12 -12 -12 -9 0 -16 7 -16 16 0 17 22 14 28 -4z m850 -6
c6 -28 -122 -148 -180 -170 -40 -16 -50 -16 -75 -4 -21 10 -29 21 -31 47 -5
53 30 82 158 127 77 27 123 27 128 0z m-1998 4 c0 -5 -4 -10 -10 -10 -5 0 -10
5 -10 10 0 6 5 10 10 10 6 0 10 -4 10 -10z m5241 -53 c-1 -12 -15 -9 -19 4 -3
6 1 10 8 8 6 -3 11 -8 11 -12z m-3976 -6 c3 -5 1 -12 -5 -16 -5 -3 -10 1 -10
9 0 18 6 21 15 7z m804 -98 c4 -48 5 -90 2 -93 -3 -3 -11 -14 -17 -25 -6 -11
-22 -22 -35 -24 -13 -1 -28 -8 -32 -15 -6 -7 -7 -5 -4 6 3 9 -1 22 -9 28 -19
16 -18 51 4 123 19 66 57 116 74 99 6 -6 13 -50 17 -99z m1991 103 c0 -3 -4
-8 -10 -11 -5 -3 -10 -1 -10 4 0 6 5 11 10 11 6 0 10 -2 10 -4z m-3360 -16 c0
-5 -8 -10 -17 -10 -15 0 -16 2 -3 10 19 12 20 12 20 0z m1470 0 c0 -5 -2 -10
-4 -10 -3 0 -8 5 -11 10 -3 6 -1 10 4 10 6 0 11 -4 11 -10z m-3564 -82 c14
-46 29 -87 31 -91 5 -9 10 0 65 108 17 33 33 54 35 48 3 -7 -14 -47 -37 -88
-23 -42 -40 -78 -37 -81 2 -2 43 9 90 26 95 33 97 34 97 21 0 -8 -17 -16 -55
-26 -54 -14 -125 -40 -125 -45 0 -3 37 -24 82 -45 45 -22 83 -46 86 -53 2 -7
-36 8 -85 32 -48 25 -89 42 -91 38 -1 -4 9 -41 23 -82 26 -76 31 -105 17 -96
-4 3 -19 40 -32 83 -13 43 -27 82 -31 87 -4 5 -25 -27 -46 -70 -23 -45 -46
-80 -56 -82 -9 -2 -17 2 -17 9 0 7 3 9 7 6 5 -6 70 104 87 148 3 9 -25 3 -82
-16 -92 -31 -102 -33 -102 -21 0 4 36 18 79 31 43 13 85 27 92 31 8 5 -17 23
-72 50 -93 47 -95 48 -87 55 3 3 42 -13 88 -35 45 -23 84 -39 86 -37 2 2 -9
43 -25 90 -17 48 -26 87 -21 87 5 0 21 -37 36 -82z m2834 68 c0 -3 -4 -8 -10
-11 -5 -3 -10 -1 -10 4 0 6 5 11 10 11 6 0 10 -2 10 -4z m3740 0 c0 -3 -4 -8
-10 -11 -5 -3 -10 -1 -10 4 0 6 5 11 10 11 6 0 10 -2 10 -4z m2580 0 c0 -3 -4
-8 -10 -11 -5 -3 -10 -1 -10 4 0 6 5 11 10 11 6 0 10 -2 10 -4z m-7400 -20 c0
-8 -4 -17 -9 -21 -12 -7 -24 12 -16 25 9 15 25 12 25 -4z m520 -1 c0 -8 -4
-15 -9 -15 -13 0 -22 16 -14 24 11 11 23 6 23 -9z m-445 -4 c3 -5 1 -12 -4
-15 -5 -3 -11 1 -15 9 -6 16 9 21 19 6z m4319 -7 c36 -36 7 -104 -44 -104 -31
0 -48 16 -59 57 -7 24 -4 31 18 45 32 22 65 23 85 2z m-3596 -19 c-3 -3 -9 2
-12 12 -6 14 -5 15 5 6 7 -7 10 -15 7 -18z m-6183 -48 c12 -18 12 -31 4 -62
-17 -61 -58 -127 -77 -123 -14 3 -17 16 -15 83 3 85 20 125 53 125 11 0 26
-10 35 -23z m4395 13 c0 -5 -5 -10 -11 -10 -5 0 -7 5 -4 10 3 6 8 10 11 10 2
0 4 -4 4 -10z m4270 0 c0 -5 -5 -10 -11 -10 -5 0 -7 5 -4 10 3 6 8 10 11 10 2
0 4 -4 4 -10z m307 -12 c-3 -8 -6 -5 -6 6 -1 11 2 17 5 13 3 -3 4 -12 1 -19z
m263 6 c0 -8 -4 -12 -10 -9 -5 3 -10 10 -10 16 0 5 5 9 10 9 6 0 10 -7 10 -16z
m-2010 -4 c0 -5 -4 -10 -10 -10 -5 0 -10 5 -10 10 0 6 5 10 10 10 6 0 10 -4
10 -10z m1623 -4 c15 -12 15 -14 3 -19 -9 -4 -18 -2 -21 4 -4 5 -11 7 -16 3
-5 -3 -7 -10 -4 -15 4 -5 1 -9 -4 -9 -14 0 -14 6 -1 31 12 22 19 23 43 5z
m-626 -22 c-9 -9 -28 6 -21 18 4 6 10 6 17 -1 6 -6 8 -13 4 -17z m-2547 -4 c0
-5 -4 -10 -10 -10 -5 0 -10 5 -10 10 0 6 5 10 10 10 6 0 10 -4 10 -10z m50
-20 c0 -5 -4 -10 -10 -10 -5 0 -10 5 -10 10 0 6 5 10 10 10 6 0 10 -4 10 -10z
m1154 -11 c-3 -5 -10 -7 -15 -3 -5 3 -7 10 -3 15 3 5 10 7 15 3 5 -3 7 -10 3
-15z m2366 11 c0 -5 -4 -10 -10 -10 -5 0 -10 5 -10 10 0 6 5 10 10 10 6 0 10
-4 10 -10z m-3280 -20 c0 -5 -5 -10 -11 -10 -5 0 -7 5 -4 10 3 6 8 10 11 10 2
0 4 -4 4 -10z m2270 -4 c0 -3 -4 -8 -10 -11 -5 -3 -10 -1 -10 4 0 6 5 11 10
11 6 0 10 -2 10 -4z m770 -6 c0 -5 -4 -10 -9 -10 -6 0 -13 5 -16 10 -3 6 1 10
9 10 9 0 16 -4 16 -10z m-6950 -16 c0 -8 -5 -12 -10 -9 -6 4 -8 11 -5 16 9 14
15 11 15 -7z m3060 6 c0 -5 -5 -10 -11 -10 -5 0 -7 5 -4 10 3 6 8 10 11 10 2
0 4 -4 4 -10z m-4730 -15 c0 -8 -4 -15 -10 -15 -5 0 -10 7 -10 15 0 8 5 15 10
15 6 0 10 -7 10 -15z m80 -1 c0 -8 -4 -12 -10 -9 -5 3 -10 10 -10 16 0 5 5 9
10 9 6 0 10 -7 10 -16z m3987 -16 c-3 -8 -6 -5 -6 6 -1 11 2 17 5 13 3 -3 4
-12 1 -19z m-4632 3 c3 -5 1 -12 -5 -16 -5 -3 -10 1 -10 9 0 18 6 21 15 7z
m390 -11 c23 -25 13 -64 -21 -86 -26 -18 -162 -54 -202 -54 -62 0 -15 73 83
130 60 35 114 39 140 10z m4625 10 c0 -5 -4 -10 -10 -10 -5 0 -10 5 -10 10 0
6 5 10 10 10 6 0 10 -4 10 -10z m430 6 c0 -3 -4 -8 -10 -11 -5 -3 -10 -1 -10
4 0 6 5 11 10 11 6 0 10 -2 10 -4z m3555 -5 c3 -5 1 -12 -5 -16 -5 -3 -10 1
-10 9 0 18 6 21 15 7z m509 -7 c3 -8 2 -12 -4 -9 -6 3 -10 10 -10 16 0 14 7
11 14 -7z m-3304 -4 c0 -5 -2 -10 -4 -10 -3 0 -8 5 -11 10 -3 6 -1 10 4 10 6
0 11 -4 11 -10z m495 -8 c0 -18 -20 -15 -23 4 -3 10 1 15 10 12 7 -3 13 -10
13 -16z m-5705 -12 c0 -5 -5 -10 -11 -10 -5 0 -7 5 -4 10 3 6 8 10 11 10 2 0
4 -4 4 -10z m3500 -9 c0 -6 -4 -13 -10 -16 -5 -3 -10 1 -10 9 0 9 5 16 10 16
6 0 10 -4 10 -9z m4890 -1 c0 -5 -2 -10 -4 -10 -3 0 -8 5 -11 10 -3 6 -1 10 4
10 6 0 11 -4 11 -10z m-3670 -10 c0 -5 -4 -10 -10 -10 -5 0 -10 5 -10 10 0 6
5 10 10 10 6 0 10 -4 10 -10z m450 -8 c0 -13 -12 -22 -22 -16 -10 6 -1 24 13
24 5 0 9 -4 9 -8z m-6203 -24 c-3 -8 -6 -5 -6 6 -1 11 2 17 5 13 3 -3 4 -12 1
-19z m9073 12 c0 -5 -4 -10 -10 -10 -5 0 -10 5 -10 10 0 6 5 10 10 10 6 0 10
-4 10 -10z m-1580 -10 c0 -5 -5 -10 -11 -10 -5 0 -7 5 -4 10 3 6 8 10 11 10 2
0 4 -4 4 -10z m1070 0 c0 -5 -4 -10 -10 -10 -5 0 -10 5 -10 10 0 6 5 10 10 10
6 0 10 -4 10 -10z m3950 -4 c0 -3 -4 -8 -10 -11 -5 -3 -10 -1 -10 4 0 6 5 11
10 11 6 0 10 -2 10 -4z m-7070 -16 c0 -5 -4 -10 -10 -10 -5 0 -10 5 -10 10 0
6 5 10 10 10 6 0 10 -4 10 -10z m1147 -12 c-3 -8 -6 -5 -6 6 -1 11 2 17 5 13
3 -3 4 -12 1 -19z m-1227 8 c0 -3 -4 -8 -10 -11 -5 -3 -10 -1 -10 4 0 6 5 11
10 11 6 0 10 -2 10 -4z m-576 -21 c-4 -8 -8 -15 -10 -15 -2 0 -4 7 -4 15 0 8
4 15 10 15 5 0 7 -7 4 -15z m854 -10 c-3 -3 -9 2 -12 12 -6 14 -5 15 5 6 7 -7
10 -15 7 -18z m2886 13 c-5 -9 -2 -9 9 1 15 11 17 11 17 -1 0 -8 -11 -20 -25
-26 -20 -9 -25 -9 -25 1 0 7 5 18 12 25 16 16 21 15 12 0z m530 3 c3 -5 -1
-11 -9 -15 -9 -3 -15 0 -15 9 0 16 16 20 24 6z m-8929 -36 c0 -35 -31 -47 -51
-20 -18 25 0 57 29 53 17 -2 22 -10 22 -33z m6637 13 c-7 -7 -12 -8 -12 -2 0
14 12 26 19 19 2 -3 -1 -11 -7 -17z m338 8 c0 -8 -5 -18 -10 -21 -17 -11 -40
3 -34 20 8 19 44 20 44 1z m48 -9 c2 -12 -1 -15 -12 -11 -19 7 -22 38 -3 32 6
-3 13 -12 15 -21z m2552 13 c0 -5 -4 -10 -10 -10 -5 0 -10 5 -10 10 0 6 5 10
10 10 6 0 10 -4 10 -10z m930 -4 c0 -3 -4 -8 -10 -11 -5 -3 -10 -1 -10 4 0 6
5 11 10 11 6 0 10 -2 10 -4z m1260 -21 c0 -8 -4 -15 -10 -15 -5 0 -10 7 -10
15 0 8 5 15 10 15 6 0 10 -7 10 -15z m-5250 -11 c0 -8 -5 -12 -10 -9 -6 4 -8
11 -5 16 9 14 15 11 15 -7z m2060 6 c0 -5 -4 -10 -9 -10 -6 0 -13 5 -16 10 -3
6 1 10 9 10 9 0 16 -4 16 -10z m-3160 -21 c0 -11 -4 -17 -10 -14 -5 3 -10 13
-10 21 0 8 5 14 10 14 6 0 10 -9 10 -21z m550 17 c0 -3 -4 -8 -10 -11 -5 -3
-10 -1 -10 4 0 6 5 11 10 11 6 0 10 -2 10 -4z m2210 -11 c0 -8 -4 -15 -10 -15
-5 0 -10 7 -10 15 0 8 5 15 10 15 6 0 10 -7 10 -15z m530 5 c0 -5 -2 -10 -4
-10 -3 0 -8 5 -11 10 -3 6 -1 10 4 10 6 0 11 -4 11 -10z m4685 -10 c23 -25 23
-70 -1 -87 -59 -43 -128 24 -83 80 24 32 59 35 84 7z m-4485 0 c0 -5 -4 -10
-10 -10 -5 0 -10 5 -10 10 0 6 5 10 10 10 6 0 10 -4 10 -10z m-3960 -10 c0 -5
-4 -10 -10 -10 -5 0 -10 5 -10 10 0 6 5 10 10 10 6 0 10 -4 10 -10z m1800 -6
c0 -8 -4 -12 -10 -9 -5 3 -10 10 -10 16 0 5 5 9 10 9 6 0 10 -7 10 -16z m2630
6 c0 -5 -4 -10 -10 -10 -5 0 -10 5 -10 10 0 6 5 10 10 10 6 0 10 -4 10 -10z
m-2450 -10 c0 -5 -2 -10 -4 -10 -3 0 -8 5 -11 10 -3 6 -1 10 4 10 6 0 11 -4
11 -10z m898 -8 c2 -7 -3 -12 -12 -12 -9 0 -16 7 -16 16 0 17 22 14 28 -4z
m-578 -7 c0 -8 -4 -15 -9 -15 -5 0 -14 7 -21 15 -10 13 -9 15 9 15 12 0 21 -6
21 -15z m-2360 -9 c0 -3 -4 -8 -10 -11 -5 -3 -10 -1 -10 4 0 6 5 11 10 11 6 0
10 -2 10 -4z m-2393 -28 c-3 -8 -6 -5 -6 6 -1 11 2 17 5 13 3 -3 4 -12 1 -19z
m3638 -88 c10 -49 19 -90 21 -90 2 0 26 36 55 80 28 44 55 78 59 75 5 -3 -13
-39 -41 -80 -27 -41 -49 -77 -49 -80 0 -7 54 2 127 20 29 7 55 9 58 5 3 -5
-38 -18 -90 -30 -52 -13 -95 -24 -95 -25 0 -1 36 -24 80 -51 70 -43 95 -64 74
-64 -9 0 -96 52 -131 78 l-32 23 5 -38 c3 -21 11 -63 19 -93 8 -31 11 -58 6
-63 -5 -5 -19 34 -31 88 -12 53 -25 93 -30 88 -4 -4 -29 -42 -55 -83 -27 -41
-50 -70 -52 -63 -3 7 9 32 24 55 16 24 39 59 51 79 l22 37 -87 -19 c-47 -11
-94 -18 -102 -16 -22 5 -5 11 99 35 l85 19 -82 53 c-46 29 -80 56 -77 61 3 5
17 1 32 -9 15 -9 49 -32 77 -49 27 -18 52 -33 56 -33 3 0 -2 37 -12 83 -21 93
-23 110 -10 103 5 -3 16 -46 26 -96z m505 90 c0 -5 -4 -10 -10 -10 -5 0 -10 5
-10 10 0 6 5 10 10 10 6 0 10 -4 10 -10z m1601 -4 c5 3 9 0 9 -6 0 -15 -23 -7
-26 8 -1 7 0 8 3 2 2 -5 9 -8 14 -4z m389 4 c0 -5 -4 -10 -10 -10 -5 0 -10 5
-10 10 0 6 5 10 10 10 6 0 10 -4 10 -10z m-60 -8 c0 -5 -7 -17 -15 -28 -15
-19 -20 -8 -9 20 6 17 24 22 24 8z m-6913 -24 c-3 -8 -6 -5 -6 6 -1 11 2 17 5
13 3 -3 4 -12 1 -19z m2316 2 c-5 -19 -23 -29 -23 -12 0 7 20 32 26 32 1 0 0
-9 -3 -20z m617 5 c0 -8 -4 -15 -9 -15 -13 0 -22 16 -14 24 11 11 23 6 23 -9z
m2533 1 c4 -10 1 -13 -9 -9 -10 3 -14 -2 -14 -18 -1 -21 -2 -22 -11 -7 -7 13
-6 22 3 33 17 18 24 19 31 1z m-4296 -18 c-3 -8 -6 -5 -6 6 -1 11 2 17 5 13 3
-3 4 -12 1 -19z m9026 -9 c8 -32 -9 -68 -38 -79 -41 -15 -45 -13 -45 29 0 59
8 71 45 71 25 0 34 -5 38 -21z m-10513 1 c0 -5 -4 -10 -10 -10 -5 0 -10 5 -10
10 0 6 5 10 10 10 6 0 10 -4 10 -10z m2120 -5 c0 -8 -4 -15 -10 -15 -5 0 -10
7 -10 15 0 8 5 15 10 15 6 0 10 -7 10 -15z m4897 -7 c-3 -8 -6 -5 -6 6 -1 11
2 17 5 13 3 -3 4 -12 1 -19z m97 7 c-4 -8 -8 -15 -10 -15 -2 0 -4 7 -4 15 0 8
4 15 10 15 5 0 7 -7 4 -15z m1570 -1 c3 -8 2 -12 -4 -9 -6 3 -10 10 -10 16 0
14 7 11 14 -7z m-1508 -18 c2 -13 1 -13 -3 -1 -2 8 -9 13 -14 10 -5 -4 -9 -1
-9 5 0 18 25 5 26 -14z m79 -5 c-2 -14 -4 -28 -5 -31 0 -3 -7 6 -14 20 -16 28
-14 37 8 37 10 0 13 -9 11 -26z m-419 -8 c-10 -10 -19 5 -10 18 6 11 8 11 12
0 2 -7 1 -15 -2 -18z m-3456 8 c0 -5 -7 -11 -14 -14 -10 -4 -13 -1 -9 9 6 15
23 19 23 5z m837 -13 c-3 -8 -6 -5 -6 6 -1 11 2 17 5 13 3 -3 4 -12 1 -19z
m2693 18 c0 -3 -4 -8 -10 -11 -5 -3 -10 -1 -10 4 0 6 5 11 10 11 6 0 10 -2 10
-4z m1710 -6 c0 -5 -4 -10 -10 -10 -5 0 -10 5 -10 10 0 6 5 10 10 10 6 0 10
-4 10 -10z m-4253 -22 c-3 -8 -6 -5 -6 6 -1 11 2 17 5 13 3 -3 4 -12 1 -19z
m2773 12 c0 -5 -2 -10 -4 -10 -3 0 -8 5 -11 10 -3 6 -1 10 4 10 6 0 11 -4 11
-10z m-100 -16 c0 -8 -4 -12 -10 -9 -5 3 -10 10 -10 16 0 5 5 9 10 9 6 0 10
-7 10 -16z m1770 1 c0 -8 -4 -15 -9 -15 -5 0 -11 7 -15 15 -3 9 0 15 9 15 8 0
15 -7 15 -15z m-7863 -17 c-3 -8 -6 -5 -6 6 -1 11 2 17 5 13 3 -3 4 -12 1 -19z
m3463 -9 c0 -5 -4 -9 -10 -9 -5 0 -10 7 -10 16 0 8 5 12 10 9 6 -3 10 -10 10
-16z m3530 11 c0 -5 -2 -10 -4 -10 -3 0 -8 5 -11 10 -3 6 -1 10 4 10 6 0 11
-4 11 -10z m-7503 -22 c-3 -8 -6 -5 -6 6 -1 11 2 17 5 13 3 -3 4 -12 1 -19z
m6433 6 c0 -8 -4 -12 -10 -9 -5 3 -10 10 -10 16 0 5 5 9 10 9 6 0 10 -7 10
-16z m-1750 -20 c0 -8 -7 -14 -15 -14 -15 0 -21 21 -9 33 10 9 24 -2 24 -19z
m4390 12 c0 -3 -4 -8 -10 -11 -5 -3 -10 -1 -10 4 0 6 5 11 10 11 6 0 10 -2 10
-4z m-5466 -47 c-4 -6 -11 -6 -20 2 -21 17 -17 31 6 19 11 -6 18 -15 14 -21z
m2746 16 c0 -8 -4 -15 -10 -15 -5 0 -10 7 -10 15 0 8 5 15 10 15 6 0 10 -7 10
-15z m83 -23 c-6 -24 -23 -30 -23 -9 0 13 21 39 26 34 2 -2 1 -13 -3 -25z
m2187 24 c0 -3 -4 -8 -10 -11 -5 -3 -10 -1 -10 4 0 6 5 11 10 11 6 0 10 -2 10
-4z m-1891 -33 c0 -25 -1 -26 -9 -8 -12 27 -12 35 0 35 6 0 10 -12 9 -27z
m1445 14 c39 -29 10 -107 -40 -107 -22 0 -64 42 -64 64 0 45 65 72 104 43z
m-6324 -7 c0 -5 -5 -10 -11 -10 -5 0 -7 5 -4 10 3 6 8 10 11 10 2 0 4 -4 4
-10z m-1212 -17 c-5 -25 -28 -28 -28 -4 0 12 6 21 16 21 9 0 14 -7 12 -17z
m3062 7 c0 -5 -7 -10 -15 -10 -8 0 -15 5 -15 10 0 6 7 10 15 10 8 0 15 -4 15
-10z m6363 -16 c6 -35 -13 -57 -45 -49 -21 5 -26 12 -25 33 3 43 62 57 70 16z
m-7063 -5 c0 -6 -4 -7 -10 -4 -5 3 -10 11 -10 16 0 6 5 7 10 4 6 -3 10 -11 10
-16z m2238 9 c-6 -18 -28 -21 -28 -4 0 9 7 16 16 16 9 0 14 -5 12 -12z m1046
-9 c-3 -5 -10 -7 -15 -3 -5 3 -7 10 -3 15 3 5 10 7 15 3 5 -3 7 -10 3 -15z
m282 9 c4 -7 3 -8 -4 -4 -7 4 -12 2 -12 -5 0 -7 -3 -10 -6 -6 -6 5 3 27 11 27
2 0 7 -5 11 -12z m2074 -14 c0 -8 -4 -12 -10 -9 -5 3 -10 10 -10 16 0 5 5 9
10 9 6 0 10 -7 10 -16z m-6483 -26 c-3 -7 -5 -2 -5 12 0 14 2 19 5 13 2 -7 2
-19 0 -25z m2963 22 c0 -5 -5 -10 -11 -10 -5 0 -7 5 -4 10 3 6 8 10 11 10 2 0
4 -4 4 -10z m-7103 -73 c95 -101 124 -187 83 -239 -16 -21 -30 -28 -55 -28
-54 0 -68 23 -62 99 5 68 -11 154 -38 195 -14 21 -12 36 6 36 3 0 33 -28 66
-63z m6063 48 c0 -9 -6 -12 -16 -8 -13 5 -13 7 -2 14 17 11 18 11 18 -6z
m1505 5 c3 -5 1 -10 -4 -10 -6 0 -11 5 -11 10 0 6 2 10 4 10 3 0 8 -4 11 -10z
m1105 -5 c0 -9 -9 -15 -21 -15 -18 0 -19 2 -9 15 7 8 16 15 21 15 5 0 9 -7 9
-15z m-2870 -11 c0 -8 -4 -12 -10 -9 -5 3 -10 10 -10 16 0 5 5 9 10 9 6 0 10
-7 10 -16z m142 1 c0 -5 -5 -11 -11 -13 -6 -2 -11 4 -11 13 0 9 5 15 11 13 6
-2 11 -8 11 -13z m5268 5 c0 -5 -4 -10 -10 -10 -5 0 -10 5 -10 10 0 6 5 10 10
10 6 0 10 -4 10 -10z m-190 -4 c0 -3 -4 -8 -10 -11 -5 -3 -10 -1 -10 4 0 6 5
11 10 11 6 0 10 -2 10 -4z m-6235 -16 c3 -5 1 -10 -4 -10 -6 0 -11 5 -11 10 0
6 2 10 4 10 3 0 8 -4 11 -10z m-1290 -20 c0 -7 -6 -15 -12 -17 -8 -3 -13 4
-13 17 0 13 5 20 13 18 6 -3 12 -11 12 -18z m1755 16 c0 -3 -4 -8 -10 -11 -5
-3 -10 -1 -10 4 0 6 5 11 10 11 6 0 10 -2 10 -4z m970 0 c0 -3 -4 -8 -10 -11
-5 -3 -10 -1 -10 4 0 6 5 11 10 11 6 0 10 -2 10 -4z m7064 -18 c-3 -13 -17
-50 -30 -82 -13 -33 -24 -65 -24 -72 0 -9 30 1 86 26 93 43 94 44 94 32 0 -8
-30 -24 -117 -62 -53 -23 -67 -39 -38 -41 20 -2 24 -3 66 -22 19 -8 47 -19 62
-22 15 -4 27 -11 27 -16 0 -12 1 -13 -91 21 -45 17 -84 29 -86 26 -7 -7 59
-146 67 -141 5 3 6 -4 3 -15 -3 -11 -7 -20 -10 -20 -2 0 -22 38 -43 85 -21 47
-41 85 -43 85 -3 0 -19 -40 -37 -90 -18 -49 -36 -87 -40 -85 -5 3 7 44 26 92
18 48 32 88 30 90 -2 2 -42 -14 -89 -36 -48 -22 -89 -36 -91 -32 -3 4 35 25
83 47 49 21 87 42 85 45 -2 3 -38 19 -81 34 -43 15 -82 32 -87 36 -19 17 19 8
94 -21 41 -17 78 -30 82 -30 4 0 -11 39 -32 86 -44 94 -44 94 -32 94 5 0 23
-35 42 -77 18 -43 36 -82 41 -86 6 -8 69 139 69 163 0 5 5 10 11 10 6 0 8 -9
3 -22z m-10104 8 c0 -3 -4 -8 -10 -11 -5 -3 -10 -1 -10 4 0 6 5 11 10 11 6 0
10 -2 10 -4z m1090 -21 c20 -21 22 -30 14 -52 -5 -15 -23 -34 -39 -43 -16 -8
-35 -22 -42 -30 -10 -13 -12 -11 -13 12 0 15 -4 30 -10 33 -20 12 -11 73 12
89 31 22 51 20 78 -9z m1227 3 c-3 -8 -6 -5 -6 6 -1 11 2 17 5 13 3 -3 4 -12
1 -19z m-1727 -8 c0 -5 -5 -10 -11 -10 -5 0 -7 5 -4 10 3 6 8 10 11 10 2 0 4
-4 4 -10z m1710 -11 c0 -5 -7 -9 -15 -9 -15 0 -20 12 -9 23 8 8 24 -1 24 -14z
m110 11 c0 -5 -4 -10 -10 -10 -5 0 -10 5 -10 10 0 6 5 10 10 10 6 0 10 -4 10
-10z m2881 -3 c-1 -12 -15 -9 -19 4 -3 6 1 10 8 8 6 -3 11 -8 11 -12z m1626 7
c-3 -3 -12 -4 -19 -1 -8 3 -5 6 6 6 11 1 17 -2 13 -5z m-4217 -13 c0 -17 -18
-21 -24 -6 -3 9 0 15 9 15 8 0 15 -4 15 -9z m160 -6 c0 -8 -4 -15 -9 -15 -13
0 -22 16 -14 24 11 11 23 6 23 -9z m780 0 c0 -8 -7 -15 -15 -15 -8 0 -15 7
-15 15 0 8 7 15 15 15 8 0 15 -7 15 -15z m1720 5 c0 -5 -4 -10 -10 -10 -5 0
-10 5 -10 10 0 6 5 10 10 10 6 0 10 -4 10 -10z m-1830 -10 c0 -5 -4 -10 -10
-10 -5 0 -10 5 -10 10 0 6 5 10 10 10 6 0 10 -4 10 -10z m360 0 c0 -5 -2 -10
-4 -10 -3 0 -8 5 -11 10 -3 6 -1 10 4 10 6 0 11 -4 11 -10z m4950 -5 c0 -8 5
-15 10 -15 6 0 10 -9 10 -20 0 -11 -4 -20 -10 -20 -5 0 -10 -7 -10 -15 0 -18
-5 -18 -31 -5 -34 19 -20 90 18 90 7 0 13 -7 13 -15z m-8420 1 c0 -3 -4 -8
-10 -11 -5 -3 -10 -1 -10 4 0 6 5 11 10 11 6 0 10 -2 10 -4z m1236 -23 c-10
-10 -19 5 -10 18 6 11 8 11 12 0 2 -7 1 -15 -2 -18z m2474 7 c0 -5 -2 -10 -4
-10 -3 0 -8 5 -11 10 -3 6 -1 10 4 10 6 0 11 -4 11 -10z m-2334 -27 c-10 -10
-19 5 -10 18 6 11 8 11 12 0 2 -7 1 -15 -2 -18z m1310 -21 c-4 -3 -11 -1 -18
6 -8 8 -8 15 3 28 13 16 14 16 17 -5 2 -13 1 -25 -2 -29z m4114 34 c0 -3 -4
-8 -10 -11 -5 -3 -10 -1 -10 4 0 6 5 11 10 11 6 0 10 -2 10 -4z m-6610 -32 c0
-8 -7 -14 -15 -14 -17 0 -18 2 -9 24 7 18 24 12 24 -10z m2660 16 c0 -5 -4
-10 -10 -10 -5 0 -10 5 -10 10 0 6 5 10 10 10 6 0 10 -4 10 -10z m6188 -6 c44
-31 17 -104 -39 -104 -30 0 -59 31 -59 62 0 23 35 58 58 58 10 0 28 -7 40 -16z
m-4300 -25 c1 -33 -24 -51 -39 -28 -13 22 -11 30 11 36 11 3 20 9 20 14 0 5 2
9 3 9 2 0 4 -14 5 -31z m-8198 5 c0 -8 -4 -12 -10 -9 -5 3 -10 10 -10 16 0 5
5 9 10 9 6 0 10 -7 10 -16z m6832 -1 c24 -21 23 -65 -1 -87 -15 -14 -29 -16
-58 -12 -35 6 -38 10 -40 41 -5 62 56 97 99 58z m-1637 -11 c0 -18 -20 -15
-23 4 -3 10 1 15 10 12 7 -3 13 -10 13 -16z m3315 8 c0 -5 -4 -10 -10 -10 -5
0 -10 5 -10 10 0 6 5 10 10 10 6 0 10 -4 10 -10z m-3500 -20 c0 -5 -4 -10 -10
-10 -5 0 -10 5 -10 10 0 6 5 10 10 10 6 0 10 -4 10 -10z m970 -5 c0 -8 -4 -15
-10 -15 -5 0 -10 7 -10 15 0 8 5 15 10 15 6 0 10 -7 10 -15z m-3174 -20 c36
-55 -25 -117 -80 -81 -30 19 -35 65 -10 90 24 25 71 20 90 -9z m3212 -15 c0
-16 -1 -30 -4 -30 -9 0 -24 52 -18 61 10 16 21 1 22 -31z m222 25 c0 -8 -4
-15 -10 -15 -5 0 -10 7 -10 15 0 8 5 15 10 15 6 0 10 -7 10 -15z m1125 -5 c3
-5 1 -10 -4 -10 -6 0 -11 5 -11 10 0 6 2 10 4 10 3 0 8 -4 11 -10z m4594 -7
c10 -17 12 -17 27 2 12 14 15 15 11 4 -4 -13 -1 -16 16 -11 21 5 21 4 5 -15
-13 -14 -15 -22 -7 -30 14 -14 3 -67 -11 -58 -6 3 -10 1 -10 -4 0 -6 -5 -11
-11 -11 -5 0 -7 5 -4 10 3 6 0 10 -7 10 -7 1 -43 2 -80 3 -44 1 -69 -2 -72 -9
-6 -15 -78 -7 -88 10 -11 17 -10 66 2 66 6 0 10 7 10 15 0 10 10 13 38 11 20
-2 45 2 55 8 14 8 20 8 27 -4 7 -11 12 -12 18 -4 4 7 18 14 32 17 14 2 28 5
32 6 4 0 12 -7 17 -16z m-3752 -25 c-3 -7 -5 -2 -5 12 0 14 2 19 5 13 2 -7 2
-19 0 -25z m-7347 13 c0 -6 -4 -13 -10 -16 -5 -3 -10 1 -10 9 0 9 5 16 10 16
6 0 10 -4 10 -9z m4770 -12 c0 -5 -7 -9 -15 -9 -9 0 -12 6 -9 15 6 15 24 11
24 -6z m-750 -10 c0 -5 -7 -9 -15 -9 -15 0 -20 12 -9 23 8 8 24 -1 24 -14z
m-1334 -16 c-10 -10 -19 5 -10 18 6 11 8 11 12 0 2 -7 1 -15 -2 -18z m162 -1
c4 -28 -24 -41 -44 -20 -20 20 -7 50 20 46 13 -2 22 -12 24 -26z m1657 8 c3
-5 1 -10 -4 -10 -6 0 -11 5 -11 10 0 6 2 10 4 10 3 0 8 -4 11 -10z m1872 -12
c-3 -8 -6 -5 -6 6 -1 11 2 17 5 13 3 -3 4 -12 1 -19z m-3437 -3 c0 -8 -4 -15
-10 -15 -5 0 -10 7 -10 15 0 8 5 15 10 15 6 0 10 -7 10 -15z m6602 -7 c-7 -7
-12 -8 -12 -2 0 14 12 26 19 19 2 -3 -1 -11 -7 -17z m-9036 -15 c-10 -10 -19
5 -10 18 6 11 8 11 12 0 2 -7 1 -15 -2 -18z m3396 -5 c-9 -9 -12 -7 -12 12 0
19 3 21 12 12 9 -9 9 -15 0 -24z m2188 1 c0 -5 -7 -9 -15 -9 -15 0 -20 12 -9
23 8 8 24 -1 24 -14z m3237 15 c-3 -3 -12 -4 -19 -1 -8 3 -5 6 6 6 11 1 17 -2
13 -5z m-6277 -19 c0 -8 -4 -15 -10 -15 -5 0 -10 7 -10 15 0 8 5 15 10 15 6 0
10 -7 10 -15z m1270 6 c0 -5 -7 -11 -14 -14 -10 -4 -13 -1 -9 9 6 15 23 19 23
5z m-3030 -17 c0 -8 -5 -12 -10 -9 -6 4 -8 11 -5 16 9 14 15 11 15 -7z m1930
6 c0 -5 -4 -10 -10 -10 -5 0 -10 5 -10 10 0 6 5 10 10 10 6 0 10 -4 10 -10z
m3450 -16 c0 -8 -4 -12 -10 -9 -5 3 -10 13 -10 21 0 8 5 12 10 9 6 -3 10 -13
10 -21z m-2090 6 c0 -5 -4 -10 -10 -10 -5 0 -10 5 -10 10 0 6 5 10 10 10 6 0
10 -4 10 -10z m2307 -12 c-3 -8 -6 -5 -6 6 -1 11 2 17 5 13 3 -3 4 -12 1 -19z
m373 6 c0 -8 -5 -12 -10 -9 -6 4 -8 11 -5 16 9 14 15 11 15 -7z m-3379 -17
c-13 -13 -26 -3 -16 12 3 6 11 8 17 5 6 -4 6 -10 -1 -17z m372 17 c9 -9 -4
-34 -18 -34 -14 0 -27 25 -18 34 4 3 12 6 18 6 6 0 14 -3 18 -6z m1677 -4 c0
-5 -4 -10 -10 -10 -5 0 -10 5 -10 10 0 6 5 10 10 10 6 0 10 -4 10 -10z m630
-10 c0 -5 -4 -10 -10 -10 -5 0 -10 5 -10 10 0 6 5 10 10 10 6 0 10 -4 10 -10z
m250 0 c0 -5 -5 -10 -11 -10 -5 0 -7 5 -4 10 3 6 8 10 11 10 2 0 4 -4 4 -10z
m-1220 -10 c0 -5 -4 -10 -10 -10 -5 0 -10 5 -10 10 0 6 5 10 10 10 6 0 10 -4
10 -10z m710 -16 c0 -8 -4 -12 -10 -9 -5 3 -10 10 -10 16 0 5 5 9 10 9 6 0 10
-7 10 -16z m221 -17 c-10 -9 -11 -8 -5 6 3 10 9 15 12 12 3 -3 0 -11 -7 -18z
m-83 -6 c-7 -11 -16 -17 -20 -15 -14 9 -9 22 10 27 9 3 18 5 20 6 1 0 -3 -8
-10 -18z m232 -1 c0 -23 -25 -27 -33 -6 -7 16 1 26 20 26 7 0 13 -9 13 -20z
m82 -15 c14 -20 -5 -25 -23 -6 -25 26 -26 49 -1 30 9 -8 20 -18 24 -24z
m-4125 3 c-3 -8 -6 -5 -6 6 -1 11 2 17 5 13 3 -3 4 -12 1 -19z m3885 -22 c-3
-5 -9 -1 -13 10 -12 31 -10 39 5 19 8 -11 12 -24 8 -29z m4624 29 c11 -7 29
-35 39 -62 19 -51 45 -92 58 -93 4 0 20 -12 36 -26 32 -28 84 -59 181 -106 36
-17 67 -34 70 -38 3 -4 16 -11 30 -15 14 -4 37 -16 52 -26 14 -11 32 -19 38
-19 13 0 99 -68 135 -106 77 -82 96 -109 138 -194 60 -123 74 -165 87 -277 8
-67 8 -111 0 -165 -6 -40 -12 -80 -12 -88 0 -8 -13 -42 -28 -75 -45 -100 -149
-204 -266 -269 -21 -11 -41 -24 -44 -27 -3 -3 -23 -12 -45 -20 -22 -7 -45 -16
-50 -20 -6 -5 -22 -10 -35 -12 -14 -3 -45 -12 -70 -20 -25 -8 -92 -29 -148
-47 -91 -29 -110 -39 -150 -80 -26 -26 -60 -63 -75 -83 -42 -55 -73 -51 -132
17 -82 96 -171 141 -418 211 -32 8 -106 41 -165 71 -85 44 -121 70 -175 126
-86 88 -141 198 -152 303 -7 64 -6 69 8 56 9 -7 15 -17 12 -21 -3 -5 -1 -11 4
-14 22 -14 18 13 -4 34 -22 21 -25 32 -25 93 0 38 7 94 16 125 23 86 24 88 32
76 4 -6 18 -15 32 -19 l25 -7 -28 22 c-24 19 -30 49 -6 34 5 -3 16 0 24 6 8 6
19 9 24 5 7 -3 8 0 5 9 -8 20 -34 21 -34 1 0 -18 -9 -19 -30 -4 -13 9 -13 10
1 6 13 -4 15 -1 12 14 -4 14 2 22 23 30 26 10 27 12 10 18 -19 7 -19 8 1 28
12 12 19 24 15 27 -3 3 0 6 7 6 7 0 10 4 7 9 -10 16 91 127 167 185 41 31 58
41 248 137 112 57 146 80 195 130 87 90 89 92 87 96 -6 8 10 62 18 58 4 -3 11
-1 14 5 10 16 215 12 241 -5z m-6245 -10 c0 -5 -9 -11 -21 -13 -20 -3 -27 8
-13 22 10 9 34 3 34 -9z m1518 -24 c-16 -5 -33 15 -24 30 6 9 12 7 22 -7 9
-13 10 -20 2 -23z m151 30 c0 -5 -7 -14 -15 -21 -16 -14 -18 -10 -9 14 6 17
24 22 24 7z m380 5 c0 -3 -4 -8 -10 -11 -5 -3 -10 -1 -10 4 0 6 5 11 10 11 6
0 10 -2 10 -4z m-3710 -22 c0 -17 -22 -14 -28 4 -2 7 3 12 12 12 9 0 16 -7 16
-16z m3060 6 c0 -5 -2 -10 -4 -10 -3 0 -8 5 -11 10 -3 6 -1 10 4 10 6 0 11 -4
11 -10z m1900 0 c0 -5 -5 -10 -11 -10 -5 0 -7 5 -4 10 3 6 8 10 11 10 2 0 4
-4 4 -10z m1330 -16 c0 -8 -4 -14 -9 -14 -11 0 -22 26 -14 34 9 9 23 -3 23
-20z m-4850 1 c0 -8 -4 -15 -10 -15 -5 0 -10 7 -10 15 0 8 5 15 10 15 6 0 10
-7 10 -15z m1367 0 c0 -8 -4 -15 -9 -15 -10 0 -11 14 -1 23 9 10 10 9 10 -8z
m323 3 c0 -15 -18 -17 -30 -3 -9 11 -8 14 9 12 12 -1 21 -5 21 -9z m-5200 -13
c0 -8 -4 -15 -9 -15 -13 0 -22 16 -14 24 11 11 23 6 23 -9z m3260 5 c0 -5 -4
-10 -10 -10 -5 0 -10 5 -10 10 0 6 5 10 10 10 6 0 10 -4 10 -10z m1500 -24 c0
-4 -6 -3 -14 3 -12 10 -15 8 -19 -11 -3 -17 -5 -15 -6 10 -1 30 0 31 19 20 11
-7 20 -17 20 -22z m336 23 c3 -6 -3 -20 -13 -31 -18 -17 -23 -18 -42 -7 -11 8
-21 20 -21 28 0 10 3 11 14 2 10 -9 16 -8 26 4 15 18 26 19 36 4z m1064 7 c0
-3 -4 -8 -10 -11 -5 -3 -10 -1 -10 4 0 6 5 11 10 11 6 0 10 -2 10 -4z m-30
-10 c0 -3 -4 -8 -10 -11 -5 -3 -10 -1 -10 4 0 6 5 11 10 11 6 0 10 -2 10 -4z
m-4220 -21 c0 -21 -30 -31 -40 -14 -11 17 -3 29 21 29 10 0 19 -7 19 -15z
m3244 6 c3 -5 -1 -14 -8 -20 -12 -10 -13 -8 -9 8 6 23 9 25 17 12z m256 -27
c0 -8 -4 -12 -10 -9 -5 3 -10 13 -10 21 0 8 5 12 10 9 6 -3 10 -13 10 -21z
m390 16 c0 -5 -4 -10 -10 -10 -5 0 -10 5 -10 10 0 6 5 10 10 10 6 0 10 -4 10
-10z m-470 -10 c0 -5 -4 -10 -10 -10 -5 0 -10 5 -10 10 0 6 5 10 10 10 6 0 10
-4 10 -10z m-350 -22 c0 -10 -4 -18 -9 -18 -5 0 -11 8 -13 18 -3 11 0 19 8 19
8 0 14 -9 14 -19z m550 6 c0 -8 -4 -12 -10 -9 -5 3 -10 2 -10 -2 0 -5 -9 -9
-20 -10 -11 -1 -20 3 -20 8 0 6 4 8 9 5 4 -3 17 1 27 9 24 18 24 18 24 -1z
m-3020 -3 c0 -5 -7 -11 -14 -14 -10 -4 -13 -1 -9 9 6 15 23 19 23 5z m460 0
c0 -5 -7 -11 -15 -15 -9 -3 -15 0 -15 9 0 8 7 15 15 15 8 0 15 -4 15 -9z
m1075 -21 c-5 -8 -11 -8 -17 -2 -6 6 -7 16 -3 22 5 8 11 8 17 2 6 -6 7 -16 3
-22z m255 15 c0 -8 -7 -15 -15 -15 -8 0 -15 7 -15 15 0 8 7 15 15 15 8 0 15
-7 15 -15z m2287 -17 c-3 -7 -5 -2 -5 12 0 14 2 19 5 13 2 -7 2 -19 0 -25z
m-4856 -9 c-9 -22 -10 -22 -10 -3 -1 11 2 24 6 27 12 12 14 0 4 -24z m1425 4
c-10 -10 -19 5 -10 18 6 11 8 11 12 0 2 -7 1 -15 -2 -18z m429 7 c3 -5 2 -10
-4 -10 -5 0 -13 5 -16 10 -3 6 -2 10 4 10 5 0 13 -4 16 -10z m-4778 -22 c-3
-8 -6 -5 -6 6 -1 11 2 17 5 13 3 -3 4 -12 1 -19z m5633 12 c0 -5 -7 -10 -16
-10 -8 0 -12 5 -9 10 3 6 10 10 16 10 5 0 9 -4 9 -10z m357 -12 c-3 -8 -6 -5
-6 6 -1 11 2 17 5 13 3 -3 4 -12 1 -19z m123 6 c0 -8 -4 -12 -10 -9 -5 3 -10
10 -10 16 0 5 5 9 10 9 6 0 10 -7 10 -16z m169 -21 c-7 -8 -24 -23 -39 -33
l-28 -20 2 29 c0 16 3 29 6 29 3 0 8 1 13 2 4 1 13 3 20 4 6 1 11 8 9 16 -3
11 0 11 13 0 12 -10 13 -16 4 -27z m1388 9 c-9 -2 -18 -11 -20 -20 -3 -10 -5
-7 -6 9 -1 33 8 42 27 26 13 -11 13 -12 -1 -15z m30 6 c-3 -8 -6 -5 -6 6 -1
11 2 17 5 13 3 -3 4 -12 1 -19z m-3677 2 c0 -5 -5 -10 -11 -10 -5 0 -7 5 -4
10 3 6 8 10 11 10 2 0 4 -4 4 -10z m1720 -4 c0 -8 -4 -18 -10 -21 -5 -3 -10
-1 -10 4 0 6 -4 11 -10 11 -5 0 -10 -9 -10 -20 0 -25 -17 -27 -22 -2 -2 9 5
22 17 29 28 16 45 15 45 -1z m704 -1 c-7 -16 -24 -21 -24 -6 0 8 7 13 27 20 1
1 0 -6 -3 -14z m283 -17 c-3 -7 -5 -2 -5 12 0 14 2 19 5 13 2 -7 2 -19 0 -25z
m-4417 7 c0 -8 -4 -15 -10 -15 -5 0 -10 7 -10 15 0 8 5 15 10 15 6 0 10 -7 10
-15z m1570 5 c0 -5 -4 -10 -10 -10 -5 0 -10 5 -10 10 0 6 5 10 10 10 6 0 10
-4 10 -10z m2447 -12 c-3 -8 -6 -5 -6 6 -1 11 2 17 5 13 3 -3 4 -12 1 -19z
m5778 12 c3 -5 1 -10 -4 -10 -6 0 -11 5 -11 10 0 6 2 10 4 10 3 0 8 -4 11 -10z
m-8315 -10 c0 -5 -5 -10 -11 -10 -5 0 -7 5 -4 10 3 6 8 10 11 10 2 0 4 -4 4
-10z m2390 0 c0 -5 -4 -10 -10 -10 -5 0 -10 5 -10 10 0 6 5 10 10 10 6 0 10
-4 10 -10z m-708 -22 c-5 -20 -17 -24 -27 -8 -8 13 1 27 18 27 9 0 12 -7 9
-19z m707 -18 c17 0 19 -3 10 -13 -7 -7 -31 -13 -53 -12 -38 0 -41 2 -37 25 4
35 23 44 43 20 9 -11 26 -20 37 -20z m301 19 c0 -6 -4 -7 -10 -4 -5 3 -10 11
-10 16 0 6 5 7 10 4 6 -3 10 -11 10 -16z m450 11 c0 -5 -4 -10 -10 -10 -5 0
-10 5 -10 10 0 6 5 10 10 10 6 0 10 -4 10 -10z m-3490 -15 c0 -8 -4 -15 -10
-15 -5 0 -10 7 -10 15 0 8 5 15 10 15 6 0 10 -7 10 -15z m885 6 c3 -5 1 -12
-5 -16 -5 -3 -10 1 -10 9 0 18 6 21 15 7z m1284 -18 c0 -25 -1 -26 -9 -8 -12
27 -12 35 0 35 6 0 10 -12 9 -27z m434 20 c-7 -2 -13 -12 -13 -20 0 -9 -3 -14
-6 -10 -10 10 4 37 18 36 10 0 10 -2 1 -6z m1237 -3 c0 -5 -4 -10 -10 -10 -5
0 -10 5 -10 10 0 6 5 10 10 10 6 0 10 -4 10 -10z m-2460 -10 c0 -5 -4 -10 -10
-10 -5 0 -10 5 -10 10 0 6 5 10 10 10 6 0 10 -4 10 -10z m1057 -4 c-3 -7 -1
-18 5 -24 6 -6 6 -12 -2 -17 -17 -11 -30 15 -19 37 11 21 24 24 16 4z m-6005
-13 c22 -20 24 -66 2 -87 -24 -25 -71 -20 -90 9 -38 58 36 125 88 78z m3368
-9 c0 -8 -4 -14 -10 -14 -5 0 -10 9 -10 21 0 11 5 17 10 14 6 -3 10 -13 10
-21z m950 13 c0 -7 -9 -18 -21 -25 -12 -8 -18 -9 -14 -3 3 7 -2 11 -13 11 -12
0 -22 -9 -25 -21 -3 -12 -12 -19 -19 -17 -18 6 -23 48 -6 49 49 5 59 7 65 13
11 11 33 7 33 -7z m598 -5 c2 -7 -3 -12 -12 -12 -9 0 -16 7 -16 16 0 17 22 14
28 -4z m1849 -4 c-3 -8 -6 -5 -6 6 -1 11 2 17 5 13 3 -3 4 -12 1 -19z m-5747
-3 c0 -8 -4 -15 -10 -15 -5 0 -10 7 -10 15 0 8 5 15 10 15 6 0 10 -7 10 -15z
m5365 5 c-3 -5 -11 -10 -16 -10 -6 0 -7 5 -4 10 3 6 11 10 16 10 6 0 7 -4 4
-10z m-935 -16 c0 -8 -5 -12 -10 -9 -6 4 -8 11 -5 16 9 14 15 11 15 -7z
m-2030 -4 c0 -5 -4 -10 -10 -10 -5 0 -10 5 -10 10 0 6 5 10 10 10 6 0 10 -4
10 -10z m1320 -5 c0 -8 -7 -15 -15 -15 -8 0 -15 7 -15 15 0 8 7 15 15 15 8 0
15 -7 15 -15z m960 -31 c-9 -10 -9 -14 -1 -14 8 0 8 -4 -1 -14 -7 -7 -19 -11
-25 -9 -15 6 -17 33 -3 33 6 0 10 8 10 18 0 26 12 35 23 17 5 -10 4 -21 -3
-31z m3145 37 c3 -5 1 -12 -5 -16 -5 -3 -10 1 -10 9 0 18 6 21 15 7z m-2921
-36 c-13 -20 -19 -23 -25 -13 -12 18 -11 31 0 23 6 -3 16 1 23 9 20 22 22 11
2 -19z m2238 13 c-7 -7 -12 -8 -12 -2 0 14 12 26 19 19 2 -3 -1 -11 -7 -17z
m-5872 -6 c0 -17 23 -251 56 -562 8 -74 15 -144 15 -155 1 -11 19 -204 41
-430 21 -225 47 -501 58 -612 l19 -203 -26 -27 c-14 -16 -30 -27 -35 -25 -6 1
-30 -7 -55 -19 -24 -12 -45 -20 -47 -18 -6 7 -109 304 -121 351 -13 48 -6 68
23 68 10 0 12 8 7 32 -12 58 -16 67 -29 62 -7 -3 -24 6 -38 19 l-26 24 -19
-25 c-13 -17 -32 -27 -68 -32 -28 -4 -52 -6 -54 -4 -2 2 -5 30 -7 63 -2 32 -5
70 -8 85 -3 14 0 28 5 32 6 4 6 11 -1 20 -7 7 -10 19 -8 26 5 13 -51 58 -70
58 -21 0 -32 93 -12 105 6 3 10 17 10 29 0 13 10 30 21 38 19 12 20 17 9 39
-7 13 -19 28 -26 32 -8 4 -14 13 -14 18 0 6 5 7 10 4 12 -7 12 -3 4 20 -4 9
-17 21 -30 26 -14 5 -24 17 -24 29 0 11 -5 20 -11 20 -6 0 -17 6 -25 14 -17
17 0 33 19 18 7 -5 25 -12 40 -14 l28 -5 -24 26 c-14 14 -40 51 -57 81 -51 86
-155 215 -197 241 -60 38 -137 77 -145 72 -4 -2 -31 2 -60 10 -29 7 -70 12
-90 9 -32 -3 -38 -1 -38 14 -2 57 -8 122 -14 142 -7 20 -9 20 -22 7 -23 -23
-51 -19 -56 8 -6 33 1 47 29 58 14 5 23 12 20 15 -3 3 -28 -6 -56 -21 -38 -19
-77 -28 -149 -35 -154 -15 -269 -13 -297 6 -20 13 -39 15 -95 9 l-71 -7 6 -29
c6 -25 4 -29 -17 -29 -13 0 -33 -3 -45 -6 -18 -5 -23 -2 -23 14 0 11 7 22 15
26 22 8 18 26 -5 26 -16 0 -20 7 -20 33 0 17 -3 41 -6 53 -5 19 -1 22 58 27
35 3 194 20 353 37 160 17 313 30 340 29 28 -1 57 1 65 5 8 3 197 24 420 46
223 21 421 41 440 43 19 2 56 5 83 5 39 2 47 -1 47 -16z m4587 -4 c-3 -8 -6
-5 -6 6 -1 11 2 17 5 13 3 -3 4 -12 1 -19z m308 12 c3 -5 1 -10 -4 -10 -6 0
-11 5 -11 10 0 6 2 10 4 10 3 0 8 -4 11 -10z m-2179 -27 c-10 -10 -19 5 -10
18 6 11 8 11 12 0 2 -7 1 -15 -2 -18z m186 5 c-7 -7 -12 -8 -12 -2 0 14 12 26
19 19 2 -3 -1 -11 -7 -17z m388 12 c0 -5 -7 -10 -16 -10 -8 0 -12 5 -9 10 3 6
10 10 16 10 5 0 9 -4 9 -10z m1112 -12 c-7 -7 -12 -8 -12 -2 0 14 12 26 19 19
2 -3 -1 -11 -7 -17z m168 12 c0 -5 -4 -10 -10 -10 -5 0 -10 5 -10 10 0 6 5 10
10 10 6 0 10 -4 10 -10z m590 6 c0 -3 -4 -8 -10 -11 -5 -3 -10 -1 -10 4 0 6 5
11 10 11 6 0 10 -2 10 -4z m-1180 -16 c0 -5 -2 -10 -4 -10 -3 0 -8 5 -11 10
-3 6 -1 10 4 10 6 0 11 -4 11 -10z m-2640 -17 c-1 -18 -18 -35 -24 -24 -4 6
-4 16 -1 21 7 12 25 13 25 3z m3724 -9 c3 -8 2 -12 -4 -9 -6 3 -10 10 -10 16
0 14 7 11 14 -7z m-1938 -41 c-8 -8 -12 -3 -21 27 l-7 25 17 -23 c9 -13 14
-26 11 -29z m1124 42 c0 -9 -40 -45 -50 -45 -5 0 0 11 12 25 20 23 38 32 38
20z m-940 -20 c0 -8 -7 -15 -15 -15 -8 0 -15 7 -15 15 0 8 7 15 15 15 8 0 15
-7 15 -15z m354 0 c-4 -8 -10 -12 -15 -9 -14 8 -10 24 6 24 9 0 12 -6 9 -15z
m-667 -27 c-3 -8 -6 -5 -6 6 -1 11 2 17 5 13 3 -3 4 -12 1 -19z m373 12 c0 -5
-4 -10 -10 -10 -5 0 -10 5 -10 10 0 6 5 10 10 10 6 0 10 -4 10 -10z m520 0 c0
-5 -5 -10 -11 -10 -5 0 -7 5 -4 10 3 6 8 10 11 10 2 0 4 -4 4 -10z m280 0 c0
-5 -5 -10 -11 -10 -5 0 -7 5 -4 10 3 6 8 10 11 10 2 0 4 -4 4 -10z m-1080 -10
c0 -5 -7 -10 -15 -10 -8 0 -15 5 -15 10 0 6 7 10 15 10 8 0 15 -4 15 -10z
m520 -23 c0 -5 -4 -6 -9 -3 -5 4 -12 0 -15 -6 -4 -10 -2 10 3 42 2 7 21 -23
21 -33z m420 13 c0 -10 -31 -23 -38 -15 -8 7 19 35 29 29 5 -3 9 -9 9 -14z
m-3600 -10 c0 -11 -7 -20 -15 -20 -15 0 -21 21 -8 33 12 13 23 7 23 -13z
m3653 1 c-3 -11 -14 -27 -24 -37 -18 -16 -19 -16 -19 7 0 27 16 49 36 49 7 0
10 -8 7 -19z m-6346 -13 c-3 -8 -6 -5 -6 6 -1 11 2 17 5 13 3 -3 4 -12 1 -19z
m550 0 c-3 -8 -6 -5 -6 6 -1 11 2 17 5 13 3 -3 4 -12 1 -19z m2679 -14 c-9 -8
-16 -11 -16 -4 0 15 24 40 28 29 2 -5 -4 -16 -12 -25z m2054 26 c0 -5 -5 -10
-11 -10 -5 0 -7 5 -4 10 3 6 8 10 11 10 2 0 4 -4 4 -10z m890 6 c0 -3 -4 -8
-10 -11 -5 -3 -10 -1 -10 4 0 6 5 11 10 11 6 0 10 -2 10 -4z m1268 -20 c3 -12
-1 -17 -10 -14 -7 3 -15 13 -16 22 -3 12 1 17 10 14 7 -3 15 -13 16 -22z m110
7 c-4 -22 -22 -20 -26 1 -2 10 3 16 13 16 10 0 15 -7 13 -17z m-4795 -7 c3 -8
-1 -20 -9 -26 -12 -10 -14 -8 -14 14 0 28 14 35 23 12z m1303 -22 c-5 -13 -10
-14 -18 -6 -6 6 -8 18 -4 28 5 13 10 14 18 6 6 -6 8 -18 4 -28z m124 26 c0 -5
-2 -10 -4 -10 -3 0 -8 5 -11 10 -3 6 -1 10 4 10 6 0 11 -4 11 -10z m1030 0 c0
-5 -4 -10 -10 -10 -5 0 -10 5 -10 10 0 6 5 10 10 10 6 0 10 -4 10 -10z m723
-10 c3 -11 1 -20 -4 -20 -5 0 -9 9 -9 20 0 11 2 20 4 20 2 0 6 -9 9 -20z
m-923 0 c0 -5 -4 -10 -10 -10 -5 0 -10 5 -10 10 0 6 5 10 10 10 6 0 10 -4 10
-10z m1510 1 c0 -6 -4 -13 -10 -16 -5 -3 -10 1 -10 9 0 9 5 16 10 16 6 0 10
-4 10 -9z m-1244 -26 c-3 -8 -1 -15 3 -17 5 -2 12 -13 16 -26 7 -23 6 -23 -14
-5 -22 18 -31 80 -10 68 6 -4 8 -13 5 -20z m834 -1 c0 -8 -7 -14 -15 -14 -8 0
-15 -5 -15 -12 0 -6 -2 -9 -5 -6 -3 3 -1 17 5 32 10 27 30 27 30 0z m570 16
c0 -5 -5 -10 -11 -10 -5 0 -7 5 -4 10 3 6 8 10 11 10 2 0 4 -4 4 -10z m-4240
-10 c0 -5 -5 -10 -11 -10 -5 0 -7 5 -4 10 3 6 8 10 11 10 2 0 4 -4 4 -10z
m2928 -14 c3 -14 -1 -17 -18 -11 -20 6 -21 5 -10 -15 6 -11 9 -26 6 -33 -2 -7
-5 -5 -5 5 -1 9 -5 18 -10 20 -4 2 -12 14 -16 27 -6 20 -4 23 9 18 9 -4 16 -2
16 4 0 17 25 4 28 -15z m350 -15 c-15 -5 -21 7 -13 26 7 17 8 17 15 -2 4 -11
3 -22 -2 -24z m520 15 c0 -22 -4 -24 -36 -22 -48 5 -55 26 -8 26 20 0 36 5 36
10 0 6 2 10 4 10 2 0 4 -11 4 -24z m-2298 4 c0 -5 -4 -10 -10 -10 -5 0 -10 5
-10 10 0 6 5 10 10 10 6 0 10 -4 10 -10z m183 -10 c-3 -11 -12 -20 -19 -20 -8
0 -14 9 -14 20 0 13 7 20 19 20 14 0 18 -5 14 -20z m857 16 c0 -3 -4 -8 -10
-11 -5 -3 -10 -1 -10 4 0 6 5 11 10 11 6 0 10 -2 10 -4z m700 -6 c0 -6 -2 -10
-4 -10 -2 0 -11 -3 -19 -6 -8 -3 -17 1 -20 8 -3 9 4 15 19 16 13 1 24 -3 24
-8z m275 -10 c3 -5 1 -10 -4 -10 -6 0 -11 5 -11 10 0 6 2 10 4 10 3 0 8 -4 11
-10z m3346 -3 c-1 -12 -15 -9 -19 4 -3 6 1 10 8 8 6 -3 11 -8 11 -12z m-2861
-12 c0 -8 -7 -15 -15 -15 -16 0 -20 12 -8 23 11 12 23 8 23 -8z m-980 -16 c0
-5 -4 -9 -10 -9 -5 0 -10 7 -10 16 0 8 5 12 10 9 6 -3 10 -10 10 -16z m47 -1
c-3 -8 -6 -5 -6 6 -1 11 2 17 5 13 3 -3 4 -12 1 -19z m113 6 c0 -8 -4 -12 -10
-9 -5 3 -10 10 -10 16 0 5 5 9 10 9 6 0 10 -7 10 -16z m420 -5 c0 -6 -4 -7
-10 -4 -5 3 -10 11 -10 16 0 6 5 7 10 4 6 -3 10 -11 10 -16z m-2380 -10 c0 -5
-4 -9 -10 -9 -5 0 -10 7 -10 16 0 8 5 12 10 9 6 -3 10 -10 10 -16z m260 -10
c0 -5 -4 -9 -10 -9 -5 0 -10 7 -10 16 0 8 5 12 10 9 6 -3 10 -10 10 -16z m100
17 c0 -3 -4 -8 -10 -11 -5 -3 -10 -1 -10 4 0 6 5 11 10 11 6 0 10 -2 10 -4z
m2447 -16 c-1 -11 -7 -20 -13 -20 -7 0 -10 8 -7 20 3 11 9 20 14 20 4 0 7 -9
6 -20z m393 -12 c0 -5 -7 -3 -15 6 -8 8 -15 18 -15 22 0 3 7 1 15 -6 8 -7 15
-17 15 -22z m-1203 0 c-3 -8 -6 -5 -6 6 -1 11 2 17 5 13 3 -3 4 -12 1 -19z
m-330 -14 c-9 -9 -28 6 -21 18 4 6 10 6 17 -1 6 -6 8 -13 4 -17z m973 11 c0
-8 -4 -15 -10 -15 -5 0 -10 7 -10 15 0 8 5 15 10 15 6 0 10 -7 10 -15z m-1260
-3 c0 -13 -12 -22 -22 -16 -10 6 -1 24 13 24 5 0 9 -4 9 -8z m565 -1 c-3 -6 3
-14 12 -20 16 -9 16 -10 2 -11 -17 0 -32 23 -22 34 10 9 15 7 8 -3z m-5435
-11 c0 -5 -2 -10 -4 -10 -3 0 -8 5 -11 10 -3 6 -1 10 4 10 6 0 11 -4 11 -10z
m5295 0 c-3 -5 -14 -10 -25 -10 -13 0 -17 -5 -13 -20 4 -14 0 -20 -11 -20 -25
0 -20 39 7 50 30 12 49 12 42 0z m-5035 -15 c0 -8 -4 -15 -10 -15 -5 0 -10 7
-10 15 0 8 5 15 10 15 6 0 10 -7 10 -15z m5270 10 c0 -2 -9 -9 -20 -15 -16 -9
-20 -8 -20 5 0 8 9 15 20 15 11 0 20 -2 20 -5z m970 -10 c0 -8 -4 -15 -10 -15
-5 0 -10 7 -10 15 0 8 5 15 10 15 6 0 10 -7 10 -15z m-440 -9 c0 -21 -12 -26
-26 -11 -18 18 -18 20 6 22 11 1 20 -4 20 -11z m3224 -2 c3 -8 2 -12 -4 -9 -6
3 -10 10 -10 16 0 14 7 11 14 -7z m-3974 -28 c0 -3 -7 -6 -15 -6 -9 0 -15 9
-15 21 0 18 2 19 15 5 8 -8 15 -17 15 -20z m415 25 c3 -5 1 -12 -5 -16 -5 -3
-10 1 -10 9 0 18 6 21 15 7z m175 5 c0 -3 -4 -8 -10 -11 -5 -3 -10 -1 -10 4 0
6 5 11 10 11 6 0 10 -2 10 -4z m810 -20 c0 -3 -4 -8 -10 -11 -5 -3 -10 -1 -10
4 0 6 5 11 10 11 6 0 10 -2 10 -4z m-695 -16 c3 -5 1 -10 -4 -10 -6 0 -11 5
-11 10 0 6 2 10 4 10 3 0 8 -4 11 -10z m-752 -32 c4 -12 4 -24 2 -27 -3 -2 -5
1 -5 7 0 7 -7 12 -15 12 -16 0 -20 12 -8 23 12 12 21 7 26 -15z m95 0 c-2 -13
-7 -23 -13 -23 -5 0 -11 10 -13 23 -2 15 2 22 13 22 11 0 15 -7 13 -22z m390
-5 c2 -14 -4 -22 -18 -26 -16 -4 -20 -1 -18 11 1 9 -1 22 -4 28 -4 6 1 10 15
9 14 -1 23 -9 25 -22z m182 17 c0 -5 -4 -10 -10 -10 -5 0 -10 5 -10 10 0 6 5
10 10 10 6 0 10 -4 10 -10z m-110 -10 c0 -5 -4 -10 -10 -10 -5 0 -10 5 -10 10
0 6 5 10 10 10 6 0 10 -4 10 -10z m-5346 -9 c3 -4 3 -11 0 -14 -8 -8 -34 3
-34 14 0 11 27 12 34 0z m3666 -6 c0 -8 -4 -15 -9 -15 -13 0 -22 16 -14 24 11
11 23 6 23 -9z m-5570 -11 c0 -8 -4 -12 -10 -9 -5 3 -10 10 -10 16 0 5 5 9 10
9 6 0 10 -7 10 -16z m2025 5 c10 -15 -1 -23 -20 -15 -9 3 -13 10 -10 16 8 13
22 13 30 -1z m5708 -9 c3 -11 1 -18 -4 -14 -5 3 -9 0 -9 -5 0 -6 -4 -11 -10
-11 -5 0 -10 11 -10 25 0 30 25 34 33 5z m-5473 -1 c0 -6 8 -8 19 -4 14 4 19
1 17 -10 -3 -20 -43 -48 -56 -40 -6 4 -10 3 -9 -2 4 -21 -2 -33 -17 -33 -8 0
-12 -5 -9 -10 4 -6 12 -7 18 -4 9 5 8 3 0 -6 -9 -10 -10 -17 -2 -27 7 -7 9
-13 6 -13 -4 0 0 -18 8 -40 9 -27 10 -38 3 -34 -8 5 -9 -3 -4 -27 4 -19 12
-61 17 -93 6 -33 12 -63 15 -68 3 -5 0 -16 -7 -24 -10 -13 -10 -17 1 -24 7 -4
22 -7 32 -5 17 4 18 -6 19 -133 0 -138 6 -189 29 -273 12 -41 11 -47 -6 -67
-21 -26 -42 -28 -50 -7 -7 18 -34 20 -34 2 0 -7 6 -19 12 -25 10 -10 10 -15
-2 -22 -12 -8 -11 -10 6 -10 11 0 25 5 31 11 12 12 56 2 48 -11 -7 -11 16 -63
32 -73 16 -10 63 -108 63 -130 0 -10 6 -17 13 -17 8 0 7 -4 -3 -10 -11 -7 -11
-10 -2 -10 7 0 10 -4 7 -10 -5 -9 6 -14 25 -12 12 1 9 -43 -3 -50 -8 -5 -6 -8
6 -8 9 0 17 -4 17 -9 0 -5 3 -18 6 -28 5 -15 4 -15 -5 -3 -5 8 -13 12 -16 8
-3 -3 1 -12 9 -21 8 -8 13 -17 10 -20 -3 -3 0 -8 7 -13 7 -4 10 -3 5 4 -3 6
-2 13 3 16 5 3 8 -7 7 -24 -1 -17 4 -32 11 -34 7 -3 13 -12 13 -21 0 -8 7 -15
15 -15 8 0 16 -4 16 -10 1 -5 2 -16 3 -22 0 -7 8 -13 16 -13 8 -1 14 -7 12
-14 -2 -8 4 -22 13 -31 14 -16 21 -34 24 -62 1 -5 10 -8 22 -8 11 0 17 -4 14
-10 -3 -5 0 -10 7 -10 9 0 9 -3 -2 -10 -13 -9 -7 -14 13 -11 12 2 8 -17 -5
-23 -7 -4 -4 -5 8 -2 16 2 21 -2 21 -18 1 -47 2 -49 18 -36 13 11 16 8 21 -19
4 -17 10 -28 15 -25 5 3 9 -2 9 -10 0 -9 5 -16 10 -16 6 0 10 -4 10 -10 0 -5
-9 -10 -20 -10 -14 0 -18 5 -14 18 5 14 4 15 -5 2 -8 -11 -7 -18 6 -27 9 -7
19 -10 23 -8 4 2 7 -2 7 -9 0 -7 -6 -13 -13 -13 -7 0 -11 4 -8 9 3 4 -1 8 -8
8 -7 0 -19 9 -26 21 -8 12 -9 18 -3 14 6 -3 11 -1 11 5 0 8 -11 9 -32 5 -25
-5 -29 -4 -18 4 11 8 11 11 2 11 -10 0 -10 5 -2 21 7 11 9 23 6 27 -3 3 -6 0
-6 -7 0 -7 -4 -10 -9 -7 -5 3 -8 0 -7 -7 3 -30 -18 -18 -40 23 -13 25 -24 39
-24 32 0 -7 7 -24 16 -38 9 -13 14 -27 11 -30 -5 -5 -43 69 -49 96 -5 26 -25
39 -49 34 -19 -5 -21 -4 -9 5 13 9 12 12 -8 17 -25 7 -58 66 -46 86 5 10 4 11
-7 0 -19 -18 -28 -15 -24 9 4 18 2 19 -12 7 -15 -11 -16 -10 -11 10 5 18 4 21
-6 13 -10 -8 -18 -5 -32 11 -16 19 -16 20 -1 9 10 -8 17 -9 17 -3 0 6 -12 20
-27 31 -21 16 -23 19 -8 15 14 -4 10 3 -14 25 -18 17 -30 31 -26 31 5 0 0 10
-11 22 -19 22 -19 23 1 8 15 -11 14 -8 -4 12 -13 15 -27 25 -31 23 -4 -2 -5 8
-3 23 4 21 2 24 -6 12 -9 -12 -11 -9 -11 14 0 17 -9 36 -22 47 -11 11 -18 19
-15 19 4 0 -2 16 -13 35 -11 19 -21 49 -22 65 -1 17 -3 30 -5 30 -6 0 -37 -67
-40 -88 -4 -27 20 -109 48 -162 26 -51 68 -154 96 -240 14 -41 29 -83 34 -92
5 -9 5 -19 0 -22 -5 -3 -14 -26 -20 -50 -13 -54 -49 -118 -62 -110 -5 3 -6 -1
-3 -9 3 -8 -5 -18 -20 -25 -20 -9 -27 -8 -40 7 -13 15 -14 18 -2 18 8 0 14 -3
13 -6 -2 -7 7 -11 24 -11 6 0 3 7 -6 16 -9 9 -26 14 -39 12 -14 -3 -27 1 -33
12 -7 11 -27 16 -64 17 -35 2 -49 -1 -40 -7 8 -4 16 -16 17 -25 2 -15 0 -15
-14 -3 -9 8 -26 13 -36 10 -12 -2 -15 -7 -8 -11 7 -4 4 -11 -9 -20 -12 -7 -18
-8 -15 -2 4 5 2 12 -3 15 -10 6 -24 -10 -27 -30 -1 -6 -8 -23 -16 -39 -15 -27
-15 -26 -21 42 -5 45 -2 87 6 120 10 38 10 50 1 50 -7 0 -10 -7 -7 -16 4 -14
3 -14 -6 0 -5 8 -13 49 -17 90 -5 62 -4 77 10 88 11 10 16 10 16 2 0 -7 5 -9
10 -6 6 3 11 -3 11 -14 2 -35 4 -40 16 -52 8 -8 10 -1 7 31 -2 23 -6 46 -9 50
-3 4 2 10 10 14 8 3 17 0 21 -6 5 -7 2 -8 -6 -3 -8 5 -11 4 -7 -3 13 -20 37
-5 69 44 18 27 52 67 76 90 45 44 50 54 27 54 -8 0 -15 7 -15 17 0 15 -1 15
-18 0 -10 -10 -22 -14 -25 -10 -4 3 -7 1 -7 -5 0 -7 -3 -11 -7 -10 -5 1 -18
-3 -30 -10 -20 -11 -23 -10 -23 5 0 12 -3 14 -8 6 -11 -18 -60 -34 -67 -22 -4
5 -11 7 -16 3 -5 -3 -6 -11 -2 -17 4 -7 0 -6 -10 2 -9 7 -14 18 -11 25 3 6 -1
3 -9 -7 -13 -15 -15 -16 -21 -2 -3 8 0 15 7 15 7 1 6 5 -4 13 -15 11 -22 58
-35 232 -2 28 -11 108 -19 179 -15 122 -14 130 2 150 14 16 14 18 2 8 -14 -11
-17 -7 -23 35 -17 133 -19 193 -6 208 10 12 10 15 -4 15 -12 0 -16 9 -16 36 0
21 4 33 10 29 6 -4 7 -11 4 -17 -5 -7 -2 -8 5 -3 9 5 9 11 3 17 -6 6 -8 18 -5
27 4 13 3 13 -5 2 -7 -9 -13 6 -21 54 -7 37 -10 70 -7 72 8 9 26 -8 26 -24 0
-11 6 -14 23 -9 12 3 33 6 46 6 18 0 22 4 16 18 -4 9 -11 37 -16 61 -10 51
-27 77 -42 62 -14 -14 -37 -2 -37 20 0 18 10 23 37 20 8 -1 12 7 10 21 -2 21
4 23 118 39 66 10 140 22 165 29 55 14 61 14 83 5 13 -6 17 -2 17 18 0 14 3
32 6 41 7 18 44 22 44 5z m3640 1 c0 -5 -5 -10 -11 -10 -5 0 -7 5 -4 10 3 6 8
10 11 10 2 0 4 -4 4 -10z m1080 6 c0 -3 -4 -8 -10 -11 -5 -3 -10 -1 -10 4 0 6
5 11 10 11 6 0 10 -2 10 -4z m-6700 -131 c38 38 73 66 77 62 4 -4 -24 -39 -62
-77 l-69 -70 97 0 c58 0 97 -4 97 -10 0 -6 -39 -10 -97 -10 l-97 0 69 -70 c38
-38 66 -73 62 -77 -4 -4 -39 24 -77 62 l-70 69 -2 -99 -2 -100 -3 98 c-2 53
-8 97 -13 97 -5 0 -17 -10 -27 -22 -11 -13 -40 -43 -66 -67 -75 -72 -68 -37 8
39 l69 70 -97 0 c-58 0 -97 4 -97 10 0 6 39 10 97 10 l97 0 -69 70 c-38 38
-66 73 -62 77 4 4 38 -23 75 -60 37 -37 71 -67 76 -67 4 0 7 37 6 83 -2 45 -1
89 1 97 2 8 5 -30 6 -84 l4 -100 69 69z m7034 110 c-4 -8 -10 -12 -15 -9 -14
8 -10 24 6 24 9 0 12 -6 9 -15z m-2408 -32 c-10 -10 -19 5 -10 18 6 11 8 11
12 0 2 -7 1 -15 -2 -18z m1924 6 c0 -6 -4 -7 -10 -4 -5 3 -10 11 -10 16 0 6 5
7 10 4 6 -3 10 -11 10 -16z m380 5 c0 -17 -22 -14 -28 4 -2 7 3 12 12 12 9 0
16 -7 16 -16z m40 6 c0 -5 -4 -10 -9 -10 -6 0 -13 5 -16 10 -3 6 1 10 9 10 9
0 16 -4 16 -10z m680 1 c0 -6 -4 -13 -10 -16 -5 -3 -10 1 -10 9 0 9 5 16 10
16 6 0 10 -4 10 -9z m-500 -11 c0 -5 -4 -10 -10 -10 -5 0 -10 5 -10 10 0 6 5
10 10 10 6 0 10 -4 10 -10z m-706 -12 c-5 -10 -4 -10 5 -2 6 6 24 9 40 6 21
-3 28 -9 27 -26 -2 -22 -36 -79 -36 -59 0 6 -3 20 -7 30 -6 16 -5 16 10 4 15
-12 17 -11 17 2 0 11 -11 17 -37 19 -27 2 -39 8 -41 21 -2 10 3 17 13 17 10 0
14 -5 9 -12z m3041 3 c3 -5 1 -12 -5 -16 -5 -3 -10 1 -10 9 0 18 6 21 15 7z
m-775 -11 c0 -5 -4 -10 -10 -10 -5 0 -10 5 -10 10 0 6 5 10 10 10 6 0 10 -4
10 -10z m1610 0 c0 -5 -2 -10 -4 -10 -3 0 -8 5 -11 10 -3 6 -1 10 4 10 6 0 11
-4 11 -10z m-3510 -10 c0 -5 -4 -10 -10 -10 -5 0 -10 5 -10 10 0 6 5 10 10 10
6 0 10 -4 10 -10z m-2220 -10 c0 -5 -5 -10 -11 -10 -5 0 -7 5 -4 10 3 6 8 10
11 10 2 0 4 -4 4 -10z m1670 0 c0 -5 -5 -10 -11 -10 -5 0 -7 5 -4 10 3 6 8 10
11 10 2 0 4 -4 4 -10z m34 -5 c-4 -8 -10 -12 -15 -9 -14 8 -10 24 6 24 9 0 12
-6 9 -15z m-2474 -5 c0 -5 -4 -10 -10 -10 -5 0 -10 5 -10 10 0 6 5 10 10 10 6
0 10 -4 10 -10z m600 0 c0 -5 -5 -10 -11 -10 -5 0 -7 5 -4 10 3 6 8 10 11 10
2 0 4 -4 4 -10z m1970 -43 c0 -41 -3 -48 -16 -43 -9 3 -20 6 -25 6 -5 0 -9 7
-9 16 0 8 4 13 8 10 4 -2 13 -1 20 3 10 6 8 14 -7 32 l-19 25 24 0 c22 0 24
-4 24 -49z m888 35 c2 -7 -3 -12 -12 -12 -9 0 -16 7 -16 16 0 17 22 14 28 -4z
m-858 -2 c0 -5 -4 -10 -10 -10 -5 0 -10 5 -10 10 0 6 5 10 10 10 6 0 10 -4 10
-10z m-4429 -34 c8 4 9 3 5 -4 -4 -7 -9 -21 -11 -33 -3 -15 0 -19 10 -15 18 7
19 -5 3 -25 -7 -8 -12 -12 -10 -10 1 2 -5 12 -13 21 -15 17 -20 43 -16 85 2
18 3 18 12 -3 5 -14 13 -20 20 -16z m130 -6 c16 0 10 -44 -11 -77 -22 -36 -35
-43 -28 -15 3 10 -1 23 -9 30 -10 10 -11 18 -3 35 11 21 10 21 -4 3 -9 -10
-13 -23 -10 -27 3 -5 1 -17 -5 -26 -7 -14 -9 -10 -8 17 2 36 24 73 39 64 4 -3
5 3 1 12 -4 12 -3 15 5 10 7 -4 13 -1 13 6 1 7 4 3 6 -9 2 -13 9 -23 14 -23z
m2153 19 c-3 -5 -10 -7 -15 -3 -5 3 -7 10 -3 15 3 5 10 7 15 3 5 -3 7 -10 3
-15z m2626 7 c0 -7 -7 -27 -15 -42 -12 -23 -15 -25 -15 -9 0 31 11 65 21 65 5
0 9 -6 9 -14z m-6070 -17 c0 -5 -4 -9 -10 -9 -5 0 -10 7 -10 16 0 8 5 12 10 9
6 -3 10 -10 10 -16z m1327 6 c0 -8 -4 -12 -9 -9 -5 3 -6 10 -3 15 9 13 12 11
12 -6z m4063 5 c0 -5 -5 -10 -11 -10 -5 0 -7 5 -4 10 3 6 8 10 11 10 2 0 4 -4
4 -10z m1080 -16 c0 -8 -5 -12 -10 -9 -6 4 -8 11 -5 16 9 14 15 11 15 -7z m80
6 c0 -5 -4 -10 -10 -10 -5 0 -10 5 -10 10 0 6 5 10 10 10 6 0 10 -4 10 -10z
m-787 -41 c-4 -15 -8 -17 -13 -8 -10 15 -1 41 10 34 5 -3 6 -14 3 -26z m-313
17 c0 -3 -4 -8 -10 -11 -5 -3 -10 -1 -10 4 0 6 5 11 10 11 6 0 10 -2 10 -4z
m746 -43 c-11 -11 -17 4 -9 23 7 18 8 18 11 1 2 -10 1 -21 -2 -24z m-961 8 c3
-5 1 -12 -5 -16 -5 -3 -10 1 -10 9 0 18 6 21 15 7z m-5128 -23 c-3 -8 -6 -5
-6 6 -1 11 2 17 5 13 3 -3 4 -12 1 -19z m6633 7 c0 -8 -4 -15 -10 -15 -5 0 -7
7 -4 15 4 8 8 15 10 15 2 0 4 -7 4 -15z m2830 -5 c0 -5 -2 -10 -4 -10 -3 0 -8
5 -11 10 -3 6 -1 10 4 10 6 0 11 -4 11 -10z m-3826 -45 c-7 -18 -8 -18 -14 1
-9 23 -1 39 11 27 6 -6 6 -18 3 -28z m496 18 c0 -5 -5 -15 -10 -23 -8 -12 -10
-11 -10 8 0 12 5 22 10 22 6 0 10 -3 10 -7z m1040 -8 c0 -8 -4 -15 -10 -15 -5
0 -10 7 -10 15 0 8 5 15 10 15 6 0 10 -7 10 -15z m-4170 -4 c0 -6 -4 -13 -10
-16 -5 -3 -10 1 -10 9 0 9 5 16 10 16 6 0 10 -4 10 -9z m257 -13 c-3 -8 -6 -5
-6 6 -1 11 2 17 5 13 3 -3 4 -12 1 -19z m2593 2 c0 -5 -2 -10 -4 -10 -3 0 -8
5 -11 10 -3 6 -1 10 4 10 6 0 11 -4 11 -10z m3330 0 c0 -5 -5 -10 -11 -10 -5
0 -7 5 -4 10 3 6 8 10 11 10 2 0 4 -4 4 -10z m-5813 -22 c-3 -8 -6 -5 -6 6 -1
11 2 17 5 13 3 -3 4 -12 1 -19z m2898 12 c-3 -5 -10 -10 -16 -10 -5 0 -9 5 -9
10 0 6 7 10 16 10 8 0 12 -4 9 -10z m-287 -44 c3 -12 -1 -17 -10 -14 -7 3 -15
13 -16 22 -3 12 1 17 10 14 7 -3 15 -13 16 -22z m922 14 c0 -5 -4 -10 -10 -10
-5 0 -10 5 -10 10 0 6 5 10 10 10 6 0 10 -4 10 -10z m-3635 -9 c3 -5 1 -12 -5
-16 -5 -3 -10 1 -10 9 0 18 6 21 15 7z m1645 -7 c0 -8 -5 -12 -10 -9 -6 4 -8
11 -5 16 9 14 15 11 15 -7z m3130 0 c0 -8 -5 -12 -10 -9 -6 4 -8 11 -5 16 9
14 15 11 15 -7z m-2408 -16 c-7 -7 -12 -8 -12 -2 0 14 12 26 19 19 2 -3 -1
-11 -7 -17z m33 12 c3 -5 1 -10 -4 -10 -6 0 -11 5 -11 10 0 6 2 10 4 10 3 0 8
-4 11 -10z m1521 -17 c-10 -10 -19 5 -10 18 6 11 8 11 12 0 2 -7 1 -15 -2 -18z
m-5684 -48 c43 -20 52 -38 37 -68 -12 -22 -12 -22 10 -3 16 15 20 16 16 5 -7
-18 19 -44 35 -34 19 12 10 -7 -13 -29 -30 -28 -67 -46 -95 -49 -12 0 -22 -6
-22 -12 0 -5 -4 -4 -9 3 -7 11 -9 10 -14 -3 -6 -13 -11 -14 -28 -4 -12 6 -19
7 -16 2 3 -4 -1 -14 -9 -21 -11 -10 -14 -10 -14 0 0 8 -3 9 -8 3 -4 -5 -11
-11 -17 -12 -9 -1 -13 19 -16 90 -1 16 -5 25 -8 20 -12 -16 -30 -13 -24 4 4 9
2 14 -3 11 -11 -8 -12 42 0 60 14 23 127 72 145 63 9 -5 33 -16 53 -26z m4668
21 c0 -3 -4 -8 -10 -11 -5 -3 -10 -1 -10 4 0 6 5 11 10 11 6 0 10 -2 10 -4z
m662 -38 c-9 -9 -12 -7 -12 12 0 19 3 21 12 12 9 -9 9 -15 0 -24z m1898 22 c0
-5 -4 -10 -10 -10 -5 0 -10 5 -10 10 0 6 5 10 10 10 6 0 10 -4 10 -10z m-5080
-21 c0 -5 -4 -9 -10 -9 -5 0 -10 7 -10 16 0 8 5 12 10 9 6 -3 10 -10 10 -16z
m1407 -5 c-9 -9 -28 6 -21 18 4 6 10 6 17 -1 6 -6 8 -13 4 -17z m213 22 c0 -3
-4 -8 -10 -11 -5 -3 -10 -1 -10 4 0 6 5 11 10 11 6 0 10 -2 10 -4z m1820 -6
c0 -5 -4 -10 -10 -10 -5 0 -10 5 -10 10 0 6 5 10 10 10 6 0 10 -4 10 -10z
m-1658 -25 c0 -5 -5 -11 -11 -13 -6 -2 -11 4 -11 13 0 9 5 15 11 13 6 -2 11
-8 11 -13z m2298 5 c0 -5 -5 -10 -11 -10 -5 0 -7 5 -4 10 3 6 8 10 11 10 2 0
4 -4 4 -10z m-7192 -23 c2 -10 -3 -17 -12 -17 -10 0 -16 9 -16 21 0 24 23 21
28 -4z m4442 13 c0 -5 -4 -10 -10 -10 -5 0 -10 5 -10 10 0 6 5 10 10 10 6 0
10 -4 10 -10z m-1269 -23 c-13 -13 -26 -3 -16 12 3 6 11 8 17 5 6 -4 6 -10 -1
-17z m2059 -17 c0 -5 -5 -10 -11 -10 -5 0 -7 5 -4 10 3 6 8 10 11 10 2 0 4 -4
4 -10z m390 -5 c0 -8 -4 -15 -10 -15 -5 0 -10 7 -10 15 0 8 5 15 10 15 6 0 10
-7 10 -15z m-2020 -15 c0 -5 -5 -10 -11 -10 -5 0 -7 5 -4 10 3 6 8 10 11 10 2
0 4 -4 4 -10z m540 0 c0 -5 -4 -10 -10 -10 -5 0 -10 5 -10 10 0 6 5 10 10 10
6 0 10 -4 10 -10z m780 6 c0 -3 -4 -8 -10 -11 -5 -3 -10 -1 -10 4 0 6 5 11 10
11 6 0 10 -2 10 -4z m-976 -14 c4 -8 -27 -42 -39 -42 -2 0 1 11 7 25 11 26 23
31 32 17z m3196 -8 c0 -8 -5 -12 -10 -9 -6 4 -8 11 -5 16 9 14 15 11 15 -7z
m-5220 -3 c0 -6 -4 -13 -10 -16 -5 -3 -10 1 -10 9 0 9 5 16 10 16 6 0 10 -4
10 -9z m1240 -1 c0 -5 -4 -10 -10 -10 -5 0 -10 5 -10 10 0 6 5 10 10 10 6 0
10 -4 10 -10z m2147 -12 c-3 -8 -6 -5 -6 6 -1 11 2 17 5 13 3 -3 4 -12 1 -19z
m406 7 c-3 -9 -8 -14 -10 -11 -3 3 -2 9 2 15 9 16 15 13 8 -4z m-83 -5 c0 -5
-5 -10 -11 -10 -5 0 -7 5 -4 10 3 6 8 10 11 10 2 0 4 -4 4 -10z m-5793 -47
c-3 -10 -5 -4 -5 12 0 17 2 24 5 18 2 -7 2 -21 0 -30z m5307 13 c-3 -9 -10
-16 -15 -16 -5 0 -4 9 3 20 14 22 21 20 12 -4z m606 -16 c0 -5 -5 -10 -11 -10
-5 0 -7 5 -4 10 3 6 8 10 11 10 2 0 4 -4 4 -10z m3580 0 c0 -5 -2 -10 -4 -10
-3 0 -8 5 -11 10 -3 6 -1 10 4 10 6 0 11 -4 11 -10z m-3845 -10 c3 -5 1 -10
-4 -10 -6 0 -11 5 -11 10 0 6 2 10 4 10 3 0 8 -4 11 -10z m-5788 -22 c-3 -8
-6 -5 -6 6 -1 11 2 17 5 13 3 -3 4 -12 1 -19z m103 2 c0 -11 -4 -20 -10 -20
-5 0 -10 9 -10 20 0 11 5 20 10 20 6 0 10 -9 10 -20z m4883 -10 c-7 -28 -13
-25 -13 6 0 14 4 23 9 20 5 -3 7 -15 4 -26z m607 20 c0 -5 -4 -10 -10 -10 -5
0 -10 5 -10 10 0 6 5 10 10 10 6 0 10 -4 10 -10z m1845 1 c3 -5 1 -12 -5 -16
-5 -3 -10 1 -10 9 0 18 6 21 15 7z m-3188 -23 c-3 -8 -6 -5 -6 6 -1 11 2 17 5
13 3 -3 4 -12 1 -19z m2603 8 c0 -3 -4 -8 -10 -11 -5 -3 -10 -1 -10 4 0 6 5
11 10 11 6 0 10 -2 10 -4z m-4325 -15 c3 -5 1 -12 -5 -16 -5 -3 -10 1 -10 9 0
18 6 21 15 7z m890 -1 c3 -5 1 -10 -4 -10 -6 0 -11 5 -11 10 0 6 2 10 4 10 3
0 8 -4 11 -10z m1928 -3 c3 -8 -1 -14 -8 -14 -7 0 -11 6 -8 14 3 7 6 13 8 13
2 0 5 -6 8 -13z m1327 3 c0 -5 -5 -10 -11 -10 -5 0 -7 5 -4 10 3 6 8 10 11 10
2 0 4 -4 4 -10z m-650 -21 c0 -6 -4 -7 -10 -4 -5 3 -10 11 -10 16 0 6 5 7 10
4 6 -3 10 -11 10 -16z m-4492 -38 c6 -18 3 -30 -13 -47 -19 -21 -25 -22 -66
-12 -71 16 -98 17 -92 2 2 -7 11 -15 18 -18 10 -3 4 -15 -21 -40 -31 -31 -41
-35 -76 -32 -47 5 -55 11 -38 31 10 12 10 15 -2 15 -8 0 -19 -5 -26 -12 -7 -7
-12 -9 -12 -4 0 4 -7 0 -16 -8 -8 -9 -19 -14 -24 -11 -4 3 -14 -3 -21 -12 -8
-10 -9 -14 -2 -10 6 4 14 3 17 -2 7 -10 -41 -24 -54 -16 -17 11 -11 27 8 21
14 -5 14 -4 -2 9 -17 13 -18 15 -3 15 9 0 17 4 17 10 0 5 21 19 48 31 68 30
77 36 75 48 -2 6 2 11 8 11 6 0 9 6 6 13 -3 8 -1 20 3 27 6 10 15 6 39 -17 21
-21 31 -26 35 -17 3 7 24 19 48 25 24 7 56 21 72 30 34 21 61 10 74 -30z
m1397 39 c-3 -5 -10 -10 -16 -10 -5 0 -9 5 -9 10 0 6 7 10 16 10 8 0 12 -4 9
-10z m2345 0 c0 -5 -4 -10 -10 -10 -5 0 -10 5 -10 10 0 6 5 10 10 10 6 0 10
-4 10 -10z m2320 -5 c0 -8 -4 -15 -10 -15 -5 0 -10 7 -10 15 0 8 5 15 10 15 6
0 10 -7 10 -15z m-3910 -19 c0 -8 -4 -18 -10 -21 -5 -3 -10 3 -10 14 0 12 5
21 10 21 6 0 10 -6 10 -14z m1120 -27 c0 -6 -4 -7 -10 -4 -5 3 -10 11 -10 16
0 6 5 7 10 4 6 -3 10 -11 10 -16z m-1505 -24 c0 -28 -29 -25 -33 3 -3 19 0 23
15 20 10 -2 18 -12 18 -23z m2797 10 c0 -5 -5 -11 -11 -13 -6 -2 -11 4 -11 13
0 9 5 15 11 13 6 -2 11 -8 11 -13z m108 6 c0 -6 -4 -13 -10 -16 -5 -3 -10 1
-10 9 0 9 5 16 10 16 6 0 10 -4 10 -9z m1207 -33 c-3 -8 -6 -5 -6 6 -1 11 2
17 5 13 3 -3 4 -12 1 -19z m-2067 -4 c0 -8 -4 -12 -10 -9 -5 3 -10 10 -10 16
0 5 5 9 10 9 6 0 10 -7 10 -16z m-2800 -8 c0 -3 -4 -8 -10 -11 -5 -3 -10 -1
-10 4 0 6 5 11 10 11 6 0 10 -2 10 -4z m3360 0 c0 -3 -4 -8 -10 -11 -5 -3 -10
-1 -10 4 0 6 5 11 10 11 6 0 10 -2 10 -4z m-5840 -26 c0 -11 -4 -20 -10 -20
-5 0 -10 9 -10 20 0 11 5 20 10 20 6 0 10 -9 10 -20z m4550 16 c0 -3 -4 -8
-10 -11 -5 -3 -10 -1 -10 4 0 6 5 11 10 11 6 0 10 -2 10 -4z m1540 -27 c0 -5
-130 -9 -335 -9 -212 0 -335 4 -335 10 0 6 74 11 188 12 270 4 482 -1 482 -13z
m42 6 c0 -5 -5 -11 -11 -13 -6 -2 -11 4 -11 13 0 9 5 15 11 13 6 -2 11 -8 11
-13z m-2237 -5 c3 -5 -1 -10 -10 -10 -9 0 -13 5 -10 10 3 6 8 10 10 10 2 0 7
-4 10 -10z m-5013 -22 c-7 -7 -12 -8 -12 -2 0 14 12 26 19 19 2 -3 -1 -11 -7
-17z m5608 12 c0 -5 -4 -10 -10 -10 -5 0 -10 5 -10 10 0 6 5 10 10 10 6 0 10
-4 10 -10z m5355 1 c3 -5 1 -12 -5 -16 -5 -3 -10 1 -10 9 0 18 6 21 15 7z
m-6795 -21 c0 -5 -2 -10 -4 -10 -3 0 -8 5 -11 10 -3 6 -1 10 4 10 6 0 11 -4
11 -10z m1930 -15 c0 -8 -4 -15 -10 -15 -5 0 -10 7 -10 15 0 8 5 15 10 15 6 0
10 -7 10 -15z m770 5 c0 -5 -2 -10 -4 -10 -3 0 -8 5 -11 10 -3 6 -1 10 4 10 6
0 11 -4 11 -10z m-105 -10 c3 -5 -1 -10 -9 -10 -9 0 -16 5 -16 10 0 6 4 10 9
10 6 0 13 -4 16 -10z m-4781 -16 c3 -8 2 -12 -4 -9 -6 3 -10 10 -10 16 0 14 7
11 14 -7z m3081 6 c3 -5 1 -10 -4 -10 -6 0 -11 5 -11 10 0 6 2 10 4 10 3 0 8
-4 11 -10z m1465 2 c0 -13 -12 -22 -22 -16 -10 6 -1 24 13 24 5 0 9 -4 9 -8z
m2273 -48 c-4 -10 -9 -12 -15 -6 -12 12 -1 35 12 27 5 -3 6 -13 3 -21z m-8566
-6 c-3 -8 -6 -5 -6 6 -1 11 2 17 5 13 3 -3 4 -12 1 -19z m2189 7 c-11 -8 -31
-15 -45 -14 -26 1 -26 1 4 14 42 19 66 19 41 0z m2072 -8 c2 -10 -3 -17 -12
-17 -18 0 -29 16 -21 31 9 14 29 6 33 -14z m2416 2 c-3 -5 -10 -7 -15 -3 -5 3
-7 10 -3 15 3 5 10 7 15 3 5 -3 7 -10 3 -15z m-2613 -12 c-13 -13 -26 -3 -16
12 3 6 11 8 17 5 6 -4 6 -10 -1 -17z m2029 13 c0 -5 -2 -10 -4 -10 -3 0 -8 5
-11 10 -3 6 -1 10 4 10 6 0 11 -4 11 -10z m110 -6 c0 -8 -4 -12 -10 -9 -5 3
-10 10 -10 16 0 5 5 9 10 9 6 0 10 -7 10 -16z m-2100 -9 c0 -8 -4 -15 -10 -15
-5 0 -10 7 -10 15 0 8 5 15 10 15 6 0 10 -7 10 -15z m4057 -27 c-3 -8 -6 -5
-6 6 -1 11 2 17 5 13 3 -3 4 -12 1 -19z m-3617 -19 c0 -5 -4 -9 -10 -9 -5 0
-10 7 -10 16 0 8 5 12 10 9 6 -3 10 -10 10 -16z m1055 11 c-3 -5 -10 -10 -16
-10 -5 0 -9 5 -9 10 0 6 7 10 16 10 8 0 12 -4 9 -10z m-2515 -10 c0 -5 -4 -10
-10 -10 -5 0 -10 5 -10 10 0 6 5 10 10 10 6 0 10 -4 10 -10z m-3140 -16 c0 -8
-4 -12 -10 -9 -5 3 -10 10 -10 16 0 5 5 9 10 9 6 0 10 -7 10 -16z m12645 6 c3
-5 1 -10 -4 -10 -6 0 -11 5 -11 10 0 6 2 10 4 10 3 0 8 -4 11 -10z m-7005 -15
c0 -8 -4 -15 -10 -15 -5 0 -10 7 -10 15 0 8 5 15 10 15 6 0 10 -7 10 -15z
m-4810 -22 c0 -20 -24 -11 -28 10 -2 12 1 15 12 11 9 -3 16 -13 16 -21z m8283
2 c-7 -21 -13 -19 -13 6 0 11 4 18 10 14 5 -3 7 -12 3 -20z m-2644 1 c8 -10 9
-16 1 -21 -5 -3 -10 1 -10 10 0 9 -4 13 -10 10 -5 -3 -10 -1 -10 4 0 15 15 14
29 -3z m-6022 -18 c-3 -8 -6 -5 -6 6 -1 11 2 17 5 13 3 -3 4 -12 1 -19z m9663
6 c0 -8 -5 -12 -10 -9 -6 4 -8 11 -5 16 9 14 15 11 15 -7z m-6370 -4 c0 -5 -4
-10 -10 -10 -5 0 -10 5 -10 10 0 6 5 10 10 10 6 0 10 -4 10 -10z m940 -5 c0
-8 -4 -15 -10 -15 -5 0 -10 7 -10 15 0 8 5 15 10 15 6 0 10 -7 10 -15z m1618
4 c-2 -6 -8 -10 -13 -10 -5 0 -11 4 -13 10 -2 6 4 11 13 11 9 0 15 -5 13 -11z
m58 -20 c10 -17 -13 -36 -27 -22 -12 12 -4 33 11 33 5 0 12 -5 16 -11z m-5456
-20 c0 -5 -4 -9 -10 -9 -5 0 -10 7 -10 16 0 8 5 12 10 9 6 -3 10 -10 10 -16z
m-1343 -11 c-3 -8 -6 -5 -6 6 -1 11 2 17 5 13 3 -3 4 -12 1 -19z m5665 -13 c0
-5 -5 -11 -11 -13 -6 -2 -11 4 -11 13 0 9 5 15 11 13 6 -2 11 -8 11 -13z
m1158 1 c0 -17 -14 -29 -23 -20 -8 8 3 34 14 34 5 0 9 -6 9 -14z m-5513 -18
c-3 -8 -6 -5 -6 6 -1 11 2 17 5 13 3 -3 4 -12 1 -19z m7743 12 c0 -5 -5 -10
-11 -10 -5 0 -7 5 -4 10 3 6 8 10 11 10 2 0 4 -4 4 -10z m-720 -10 c0 -5 -4
-10 -10 -10 -5 0 -10 5 -10 10 0 6 5 10 10 10 6 0 10 -4 10 -10z m-3660 -10
c0 -5 -4 -10 -10 -10 -5 0 -10 5 -10 10 0 6 5 10 10 10 6 0 10 -4 10 -10z
m-4340 -32 c0 -16 -3 -19 -11 -11 -6 6 -8 16 -5 22 11 17 16 13 16 -11z m1040
1 c0 -11 -4 -18 -10 -14 -5 3 -7 12 -3 20 7 21 13 19 13 -6z m4890 11 c0 -5
-4 -10 -10 -10 -5 0 -10 5 -10 10 0 6 5 10 10 10 6 0 10 -4 10 -10z m4540 -11
c0 -5 -4 -9 -10 -9 -5 0 -10 7 -10 16 0 8 5 12 10 9 6 -3 10 -10 10 -16z
m-5286 -10 c-3 -5 -10 -7 -15 -3 -5 3 -7 10 -3 15 3 5 10 7 15 3 5 -3 7 -10 3
-15z m-3939 -19 c-6 -9 -9 -9 -16 1 -10 17 0 34 13 21 6 -6 7 -16 3 -22z
m5355 26 c0 -3 -4 -8 -10 -11 -5 -3 -10 -1 -10 4 0 6 5 11 10 11 6 0 10 -2 10
-4z m-6100 -10 c0 -3 -4 -8 -10 -11 -5 -3 -10 -1 -10 4 0 6 5 11 10 11 6 0 10
-2 10 -4z m317 -18 c-3 -8 -6 -5 -6 6 -1 11 2 17 5 13 3 -3 4 -12 1 -19z
m-920 -10 c-3 -8 -6 -5 -6 6 -1 11 2 17 5 13 3 -3 4 -12 1 -19z m7020 7 c3 -9
3 -19 -1 -22 -8 -9 -37 18 -30 28 8 14 24 11 31 -6z m-5997 -15 c0 -5 -4 -10
-10 -10 -5 0 -10 5 -10 10 0 6 5 10 10 10 6 0 10 -4 10 -10z m5097 -12 c-3 -8
-6 -5 -6 6 -1 11 2 17 5 13 3 -3 4 -12 1 -19z m1403 12 c0 -5 -4 -10 -10 -10
-5 0 -10 5 -10 10 0 6 5 10 10 10 6 0 10 -4 10 -10z m250 -5 c0 -8 -4 -15 -10
-15 -5 0 -10 7 -10 15 0 8 5 15 10 15 6 0 10 -7 10 -15z m3610 5 c0 -5 -5 -10
-11 -10 -5 0 -7 5 -4 10 3 6 8 10 11 10 2 0 4 -4 4 -10z m-6955 -40 c-5 -8
-11 -8 -17 -2 -6 6 -7 16 -3 22 5 8 11 8 17 2 6 -6 7 -16 3 -22z m1035 -10 c0
-27 2 -30 19 -20 11 5 24 10 30 10 21 0 51 -40 51 -68 0 -42 -26 -61 -82 -60
l-48 1 0 84 c0 67 3 83 15 83 10 0 15 -10 15 -30z m1071 8 c1 -13 0 -34 -1
-48 -2 -21 0 -22 13 -11 9 7 13 20 10 29 -4 13 -3 14 5 3 8 -11 14 -9 31 8 12
12 26 19 31 16 15 -9 12 -35 -3 -35 -8 0 -22 -9 -32 -19 -16 -19 -16 -21 4
-50 25 -34 26 -41 8 -41 -8 0 -20 11 -27 25 -16 30 -34 28 -38 -3 -2 -12 -10
-22 -18 -22 -11 0 -14 18 -14 85 0 69 3 85 15 85 9 0 15 -10 16 -22z m1079
-63 c0 -69 -3 -85 -15 -85 -12 0 -15 16 -15 85 0 69 3 85 15 85 12 0 15 -16
15 -85z m650 75 c0 -5 -7 -10 -15 -10 -8 0 -15 5 -15 10 0 6 7 10 15 10 8 0
15 -4 15 -10z m1200 -42 l0 -52 28 27 c34 33 68 38 35 6 l-21 -21 25 -36 c30
-45 11 -59 -24 -18 -25 29 -43 27 -43 -5 0 -10 -4 -19 -10 -19 -6 0 -10 35
-10 85 0 50 4 85 10 85 6 0 10 -23 10 -52z m150 42 c0 -5 -4 -10 -9 -10 -6 0
-13 5 -16 10 -3 6 1 10 9 10 9 0 16 -4 16 -10z m80 -75 c0 -67 -3 -85 -14 -85
-11 0 -15 18 -18 69 -4 84 -1 101 18 101 11 0 14 -18 14 -85z m80 0 c0 -69 -3
-85 -15 -85 -12 0 -15 16 -15 85 0 69 3 85 15 85 12 0 15 -16 15 -85z m-5804
50 c14 -21 15 -31 6 -50 -7 -14 -16 -25 -22 -25 -5 0 -10 -8 -10 -17 0 -13 -3
-14 -12 -5 -20 20 -47 14 -54 -13 -12 -50 -24 -23 -24 55 l0 80 50 0 c42 0 52
-4 66 -25z m1064 15 c0 -5 -2 -10 -4 -10 -3 0 -8 5 -11 10 -3 6 -1 10 4 10 6
0 11 -4 11 -10z m1186 -66 c39 -86 39 -84 20 -84 -8 0 -18 9 -21 20 -5 16 -15
20 -46 20 -28 0 -42 -6 -51 -20 -7 -11 -19 -20 -26 -20 -13 0 -12 5 37 113 12
26 29 47 37 47 9 0 29 -30 50 -76z m96 24 c4 -67 -1 -108 -13 -108 -5 0 -9 29
-9 64 0 35 -3 71 -6 80 -4 10 -1 16 9 16 11 0 16 -14 19 -52z m-5602 32 c0 -5
-5 -10 -11 -10 -5 0 -7 5 -4 10 3 6 8 10 11 10 2 0 4 -4 4 -10z m240 -6 c0 -7
-8 -10 -20 -7 -22 6 -19 20 5 20 8 0 15 -6 15 -13z m4040 1 c0 -8 7 -15 15
-15 8 0 15 -4 15 -10 0 -5 -7 -10 -15 -10 -11 0 -15 -11 -15 -41 0 -32 3 -40
15 -35 9 3 15 0 15 -10 0 -11 -8 -14 -27 -12 -26 3 -28 7 -31 51 -2 26 -7 45
-13 42 -5 -4 -9 1 -9 9 0 9 5 16 10 16 6 0 10 7 10 15 0 8 7 15 15 15 8 0 15
-7 15 -15z m960 0 c0 -8 9 -15 20 -15 11 0 20 5 20 12 0 6 2 9 5 6 11 -10 -8
-38 -25 -38 -13 0 -17 -8 -16 -37 1 -30 5 -38 19 -37 9 1 17 -5 17 -13 0 -10
-9 -13 -27 -11 -25 3 -28 7 -31 48 -2 24 -9 48 -15 53 -9 7 -9 10 1 14 6 2 12
11 12 19 0 8 5 14 10 14 6 0 10 -7 10 -15z m-1350 -72 c0 -30 -34 -63 -65 -63
-52 0 -86 70 -49 101 41 34 58 36 87 10 15 -13 27 -35 27 -48z m3170 8 c0 -18
-6 -21 -46 -21 -41 0 -45 -2 -33 -16 9 -11 22 -14 41 -10 30 6 39 -8 12 -18
-46 -18 -82 4 -93 57 -5 20 -5 35 -1 32 4 -3 13 2 20 10 7 8 23 15 36 15 13 0
24 5 24 11 0 7 9 0 20 -14 11 -14 20 -35 20 -46z m1586 49 c19 0 34 -4 34 -10
0 -5 -13 -10 -30 -10 -16 0 -30 -4 -30 -9 0 -5 14 -14 30 -21 60 -25 24 -85
-39 -65 -32 10 -25 28 8 20 43 -9 46 10 6 34 -29 17 -34 24 -27 38 5 10 8 24
6 31 -1 7 0 8 3 2 2 -5 20 -10 39 -10z m-9599 -12 c-3 -8 -6 -5 -6 6 -1 11 2
17 5 13 3 -3 4 -12 1 -19z m1126 8 c3 -8 -1 -22 -9 -33 -13 -17 -14 -15 -12
15 2 33 12 42 21 18z m3225 -58 l3 -55 -47 1 c-61 1 -81 27 -45 57 13 10 32
19 42 19 10 0 19 5 19 11 0 8 -12 10 -36 6 -41 -7 -44 13 -3 24 48 12 64 -3
67 -63z m243 62 c5 0 9 -4 9 -10 0 -5 -13 -10 -30 -10 -39 0 -38 -12 1 -27 25
-10 30 -16 27 -40 -3 -25 -7 -28 -42 -28 -24 0 -41 5 -44 14 -3 10 3 12 26 6
41 -9 52 12 14 26 -41 14 -49 39 -21 62 12 10 29 15 36 12 8 -3 19 -5 24 -5z
m391 -7 c23 -21 26 -113 4 -113 -11 0 -16 14 -18 48 -3 43 -5 47 -28 47 -23 0
-25 -4 -28 -47 -2 -34 -7 -48 -18 -48 -11 0 -14 14 -14 59 l0 60 33 4 c17 2
36 5 41 5 5 1 18 -5 28 -15z m154 -6 c15 -17 19 -33 16 -64 l-4 -41 -51 1
c-50 2 -52 3 -52 31 0 26 5 31 40 40 43 12 35 30 -10 24 -31 -4 -34 15 -3 24
38 10 44 9 64 -15z m272 -22 c14 -30 7 -35 -45 -35 -23 0 -43 -4 -43 -9 0 -14
29 -22 56 -15 26 7 34 -10 8 -20 -47 -18 -94 8 -94 53 0 34 10 48 40 59 31 12
64 -2 78 -33z m2132 -23 c0 -34 -27 -62 -59 -62 -81 1 -91 108 -11 120 41 6
70 -18 70 -58z m1470 55 c36 5 40 3 50 -21 15 -41 13 -96 -4 -96 -11 0 -16 14
-18 48 -3 43 -5 47 -28 47 -22 0 -26 -6 -34 -47 -13 -66 -26 -60 -26 10 0 53
10 88 18 64 2 -6 21 -8 42 -5z m-8224 -8 c3 -6 1 -16 -5 -22 -8 -8 -11 -8 -11
2 0 7 -4 9 -10 6 -5 -3 -10 1 -10 9 0 18 25 22 36 5z m3694 1 c0 -5 -13 -10
-30 -10 -16 0 -30 -4 -30 -10 0 -5 7 -10 15 -10 8 0 24 -9 35 -20 38 -38 -8
-76 -64 -54 -28 11 -17 26 13 19 40 -9 51 13 13 26 -33 11 -45 30 -36 54 7 17
84 22 84 5z m190 -50 c0 -47 -3 -60 -15 -60 -12 0 -15 13 -15 60 0 47 3 60 15
60 12 0 15 -13 15 -60z m948 -4 c3 -47 0 -58 -11 -53 -8 3 -31 2 -50 -3 -20
-4 -36 -5 -35 -1 1 3 -2 14 -7 24 -10 23 12 47 46 51 32 3 31 21 -1 23 -41 2
-41 3 -35 14 4 5 26 9 48 7 l42 -3 3 -59z m328 39 c39 -60 -44 -127 -98 -78
-22 20 -24 66 -2 87 25 25 81 20 100 -9z m76 -17 c3 -38 6 -43 28 -43 22 0 25
5 28 43 2 26 8 42 16 42 15 0 26 -54 19 -92 -4 -22 -10 -26 -47 -26 -57 -1
-68 8 -74 67 -4 42 -2 51 11 51 11 0 17 -12 19 -42z m968 23 c21 -40 13 -51
-35 -51 -25 0 -45 -4 -45 -9 0 -14 29 -22 56 -15 37 9 29 -14 -8 -24 -27 -8
-37 -5 -55 11 -23 21 -28 44 -17 85 5 18 13 22 50 22 33 0 46 -5 54 -19z m144
3 c9 -8 16 -24 16 -35 0 -16 -7 -19 -45 -19 -25 0 -45 -4 -45 -9 0 -14 29 -22
56 -15 26 7 34 -10 8 -20 -48 -18 -94 8 -94 55 0 36 24 59 60 59 16 0 36 -7
44 -16z m165 -6 c11 -30 22 -118 15 -118 -17 0 -33 33 -36 71 -2 36 -7 45 -25
47 -25 4 -48 -29 -40 -58 5 -18 -8 -48 -17 -40 -4 5 -9 61 -7 95 1 18 9 21 51
23 44 2 52 -1 59 -20z m388 10 c7 -6 13 -31 13 -59 0 -38 -4 -49 -16 -49 -11
0 -15 9 -14 33 3 49 1 54 -16 61 -26 10 -44 -13 -44 -55 0 -28 -4 -39 -15 -39
-12 0 -15 13 -15 59 l0 58 47 1 c26 1 53 -4 60 -10z m457 -4 c3 -9 6 -35 6
-59 l0 -44 -46 2 c-50 2 -72 21 -61 51 4 11 18 16 42 16 25 0 35 4 35 16 0 11
-8 15 -27 14 -39 -3 -45 -1 -38 10 10 17 82 12 89 -6z m126 7 c0 -3 -9 -12
-20 -19 -15 -9 -20 -23 -20 -52 0 -29 -4 -40 -15 -40 -12 0 -15 13 -15 59 l0
59 35 0 c19 0 35 -3 35 -7z m137 -3 c17 -14 18 -111 1 -106 -7 3 -14 22 -16
44 -4 48 -16 62 -40 48 -11 -7 -18 -27 -20 -53 -2 -28 -8 -41 -18 -41 -11 0
-14 14 -14 59 l0 58 47 1 c26 1 53 -4 60 -10z m93 -48 c0 -47 -3 -60 -15 -60
-12 0 -15 13 -15 60 0 47 3 60 15 60 12 0 15 -13 15 -60z m160 34 c15 -39 13
-94 -4 -94 -11 0 -16 14 -18 47 -2 38 -7 49 -22 51 -26 5 -46 -24 -46 -65 0
-18 -4 -33 -10 -33 -6 0 -10 26 -10 58 l0 58 50 2 c46 2 51 0 60 -24z m160
-44 c0 -46 -4 -71 -14 -79 -17 -14 -87 -11 -86 4 0 5 14 8 32 6 18 -1 34 3 39
11 15 23 10 28 -21 21 -53 -10 -86 38 -60 88 9 16 20 19 60 18 l50 -2 0 -67z
m388 58 c7 -7 12 -22 12 -35 0 -20 -5 -23 -37 -24 -21 -1 -42 -1 -47 0 -5 1
-3 -5 4 -14 10 -12 23 -15 42 -11 35 7 37 -11 2 -20 -59 -15 -103 41 -70 91
18 28 72 35 94 13z m81 -39 l15 -44 14 48 c17 61 39 60 61 -3 l15 -45 15 48
c8 26 20 47 27 47 9 0 7 -16 -8 -61 -23 -68 -44 -75 -62 -22 -17 48 -23 49
-37 4 -7 -23 -18 -41 -25 -41 -13 0 -38 49 -51 98 -11 44 20 19 36 -29z m561
-9 c0 -69 -16 -82 -21 -17 -5 52 -1 77 12 77 5 0 9 -27 9 -60z m290 50 c0 -5
-13 -10 -30 -10 -36 0 -40 -17 -5 -26 36 -9 49 -28 35 -53 -11 -21 -43 -27
-74 -15 -30 12 -16 25 19 18 44 -8 47 9 5 31 -28 14 -39 43 -23 58 10 11 73 8
73 -3z m-8773 -32 c-3 -8 -6 -5 -6 6 -1 11 2 17 5 13 3 -3 4 -12 1 -19z m770
7 c0 -8 -4 -12 -9 -9 -5 3 -6 10 -3 15 9 13 12 11 12 -6z m-1080 -27 c-3 -8
-6 -5 -6 6 -1 11 2 17 5 13 3 -3 4 -12 1 -19z m28 12 c3 -5 1 -10 -4 -10 -6 0
-11 5 -11 10 0 6 2 10 4 10 3 0 8 -4 11 -10z m-495 -15 c0 -8 -4 -15 -10 -15
-5 0 -10 7 -10 15 0 8 5 15 10 15 6 0 10 -7 10 -15z m2558 -31 c6 -1 12 2 12
7 0 14 48 11 56 -3 7 -12 9 -41 4 -70 -1 -7 -6 1 -11 17 -7 27 -8 26 -4 -9 2
-22 9 -42 15 -46 7 -4 5 -12 -6 -21 -10 -8 -15 -9 -11 -2 5 7 -2 17 -15 24
-22 12 -22 11 -8 -6 13 -17 13 -18 -1 -13 -29 11 -40 -11 -23 -46 l15 -31 -21
24 c-14 17 -19 32 -15 48 3 13 2 23 -3 23 -12 0 -28 60 -24 93 2 18 7 25 15
20 7 -4 18 -8 25 -9z m3470 -27 c-7 -14 -13 -17 -16 -9 -6 19 6 44 18 37 7 -4
6 -14 -2 -28z m1109 11 c-3 -8 -6 -5 -6 6 -1 11 2 17 5 13 3 -3 4 -12 1 -19z
m2473 3 c0 -11 -4 -23 -10 -26 -6 -4 -10 5 -10 19 0 14 5 26 10 26 6 0 10 -9
10 -19z m-2660 -26 c0 -8 -7 -15 -15 -15 -16 0 -20 12 -8 23 11 12 23 8 23 -8z
m-6663 -27 c-3 -8 -6 -5 -6 6 -1 11 2 17 5 13 3 -3 4 -12 1 -19z m3477 7 c-4
-8 -8 -15 -10 -15 -2 0 -4 7 -4 15 0 8 4 15 10 15 5 0 7 -7 4 -15z m-474 -21
c0 -8 -4 -12 -10 -9 -5 3 -10 10 -10 16 0 5 5 9 10 9 6 0 10 -7 10 -16z m5410
-24 c0 -5 -4 -10 -10 -10 -5 0 -10 5 -10 10 0 6 5 10 10 10 6 0 10 -4 10 -10z
m-6110 -52 c0 -19 -2 -20 -10 -8 -13 19 -13 30 0 30 6 0 10 -10 10 -22z m1055
-17 c3 -5 1 -12 -5 -16 -5 -3 -10 1 -10 9 0 18 6 21 15 7z m3215 -6 c9 -11 10
-22 4 -36 -10 -21 -10 -21 -34 -1 -21 17 -22 22 -11 36 17 20 25 20 41 1z
m-785 -25 c-5 -8 -11 -8 -17 -2 -6 6 -7 16 -3 22 5 8 11 8 17 2 6 -6 7 -16 3
-22z m1585 -66 c0 -68 -3 -84 -15 -84 -12 0 -15 16 -15 83 0 46 3 87 6 90 17
16 24 -11 24 -89z m-2160 3 l0 -83 -45 -2 c-57 -2 -90 25 -80 66 11 44 25 55
67 49 36 -5 38 -4 38 24 0 16 5 29 10 29 6 0 10 -34 10 -83z m410 54 c0 -28 1
-29 39 -24 45 6 50 1 55 -66 4 -40 1 -51 -10 -51 -9 0 -14 11 -14 34 0 47 -9
66 -31 66 -23 0 -39 -29 -39 -69 0 -17 -4 -31 -10 -31 -9 0 -13 45 -12 125 0
43 1 45 12 45 6 0 10 -13 10 -29z m250 -56 c0 -69 -3 -85 -15 -85 -12 0 -15
16 -15 85 0 69 3 85 15 85 12 0 15 -16 15 -85z m920 75 c0 -5 -4 -10 -10 -10
-5 0 -10 5 -10 10 0 6 5 10 10 10 6 0 10 -4 10 -10z m-3750 -10 c0 -5 -7 -10
-16 -10 -8 0 -12 5 -9 10 3 6 10 10 16 10 5 0 9 -4 9 -10z m1563 -70 c26 -58
32 -80 22 -80 -8 0 -19 9 -25 20 -8 15 -21 20 -51 20 -32 0 -42 -4 -46 -20 -3
-11 -12 -20 -20 -20 -17 0 -12 18 26 102 15 34 32 58 42 58 10 0 28 -28 52
-80z m167 45 c0 -35 0 -35 45 -35 45 0 45 0 45 35 0 24 5 35 15 35 12 0 15
-16 15 -80 0 -64 -3 -80 -15 -80 -10 0 -15 11 -15 35 0 35 0 35 -45 35 -45 0
-45 0 -45 -35 0 -24 -5 -35 -15 -35 -12 0 -15 16 -15 80 0 64 3 80 15 80 10 0
15 -11 15 -35z m1220 25 c0 -5 -4 -10 -10 -10 -5 0 -10 5 -10 10 0 6 5 10 10
10 6 0 10 -4 10 -10z m238 -2 c17 -17 15 -24 -8 -46 -19 -17 -19 -20 -5 -32
14 -11 18 -11 25 -1 5 9 10 10 14 2 4 -6 4 -16 1 -21 -4 -6 -1 -18 6 -26 14
-17 4 -33 -12 -17 -7 7 -19 8 -38 0 -54 -20 -96 23 -62 64 14 18 17 29 9 42
-19 36 40 65 70 35z m483 2 c24 -13 25 -57 2 -82 -9 -10 -30 -18 -50 -18 -29
0 -33 -3 -33 -25 0 -16 -6 -25 -15 -25 -12 0 -15 16 -15 80 l0 80 46 0 c25 0
54 -5 65 -10z m1275 -27 c-3 -21 -6 -46 -6 -56 0 -10 -4 -15 -10 -12 -5 3 -10
28 -10 56 0 39 3 49 16 49 14 0 15 -7 10 -37z m62 20 c0 -10 -2 -35 -5 -56 -3
-27 -8 -35 -17 -28 -15 13 -8 101 8 101 7 0 13 -8 14 -17z m2541 -6 c0 -9 -2
-8 -6 1 -2 6 -10 9 -15 6 -7 -4 -8 -2 -4 5 9 13 26 5 25 -12z m-4919 3 c0 -5
-2 -10 -4 -10 -3 0 -8 5 -11 10 -3 6 -1 10 4 10 6 0 11 -4 11 -10z m-1443 -32
c-3 -8 -6 -5 -6 6 -1 11 2 17 5 13 3 -3 4 -12 1 -19z m1860 -10 c-3 -7 -5 -2
-5 12 0 14 2 19 5 13 2 -7 2 -19 0 -25z m703 -28 c3 -60 2 -70 -10 -70 -6 0
-10 29 -10 67 0 74 17 77 20 3z m149 44 c2 -2 -14 -23 -34 -48 l-37 -46 36 0
c20 0 36 -4 36 -10 0 -5 -22 -10 -50 -10 -59 0 -62 10 -19 60 l30 35 -31 3
c-28 3 -37 12 -24 24 5 6 85 -1 93 -8z m-7064 -12 c0 -18 -20 -15 -23 4 -3 10
1 15 10 12 7 -3 13 -10 13 -16z m5163 6 c7 -7 12 -29 12 -50 0 -40 -19 -58
-61 -58 -50 0 -79 69 -43 104 18 19 75 21 92 4z m326 -4 c36 -35 7 -104 -43
-104 -60 1 -86 59 -48 108 13 17 73 15 91 -4z m176 -3 c15 -29 12 -62 -7 -83
-18 -21 -53 -24 -71 -6 -9 9 -12 5 -12 -20 0 -22 -5 -32 -15 -32 -12 0 -15 15
-15 79 l0 78 55 2 c44 1 56 -3 65 -18z m250 -41 c0 -47 -3 -60 -15 -60 -12 0
-15 13 -15 60 0 47 3 60 15 60 12 0 15 -13 15 -60z m230 41 c21 -40 13 -51
-35 -51 -25 0 -45 -4 -45 -9 0 -14 29 -22 56 -15 14 4 24 2 24 -5 0 -19 -52
-25 -79 -10 -32 18 -40 68 -16 93 23 23 82 21 95 -3z m448 7 c7 -7 12 -33 12
-59 l0 -47 -42 0 c-47 -1 -68 11 -68 39 0 23 15 32 51 31 20 0 29 4 29 14 0
11 -9 15 -27 14 -39 -3 -45 -1 -38 10 9 14 68 13 83 -2z m612 6 c0 -3 -16 -25
-36 -47 l-35 -42 35 -3 c57 -5 42 -22 -19 -22 -30 0 -55 3 -55 6 0 4 16 27 36
50 l35 44 -30 0 c-17 0 -31 5 -31 10 0 6 23 10 50 10 28 0 50 -3 50 -6z m128
-6 c7 -7 12 -33 12 -59 l0 -48 -46 2 c-50 2 -72 21 -61 51 4 11 18 16 42 16
25 0 35 4 35 16 0 11 -8 15 -27 14 -39 -3 -45 -1 -38 10 9 14 68 13 83 -2z
m320 -20 c27 -58 -30 -109 -87 -77 -32 18 -40 68 -15 93 26 27 86 18 102 -16z
m73 -8 c7 -22 15 -40 19 -40 4 0 12 18 19 40 7 23 18 40 26 40 19 0 19 2 -10
-64 -14 -31 -31 -56 -38 -56 -7 0 -23 27 -35 60 -17 48 -18 60 -7 60 8 0 20
-18 26 -40z m209 21 c21 -40 13 -51 -36 -51 -41 0 -45 -2 -33 -16 9 -11 22
-14 41 -10 35 7 37 -11 2 -20 -59 -15 -103 41 -70 91 21 32 80 35 96 6z m120
9 c0 -5 -9 -12 -20 -15 -16 -5 -20 -15 -20 -51 0 -32 -4 -44 -15 -44 -12 0
-15 13 -15 59 l0 59 35 0 c19 0 35 -4 35 -8z m-8763 -22 c-3 -8 -6 -5 -6 6 -1
11 2 17 5 13 3 -3 4 -12 1 -19z m9423 2 c0 -5 -4 -10 -10 -10 -5 0 -10 5 -10
10 0 6 5 10 10 10 6 0 10 -4 10 -10z m-5693 -42 c-3 -8 -6 -5 -6 6 -1 11 2 17
5 13 3 -3 4 -12 1 -19z m2773 12 c0 -5 -4 -10 -10 -10 -5 0 -10 5 -10 10 0 6
5 10 10 10 6 0 10 -4 10 -10z m-5273 -32 c-3 -8 -6 -5 -6 6 -1 11 2 17 5 13 3
-3 4 -12 1 -19z m7584 -21 c-13 -13 -26 -3 -16 12 3 6 11 8 17 5 6 -4 6 -10
-1 -17z m60 0 c-13 -13 -26 -3 -16 12 3 6 11 8 17 5 6 -4 6 -10 -1 -17z m2609
7 c0 -8 -5 -12 -10 -9 -6 4 -8 11 -5 16 9 14 15 11 15 -7z m2545 6 c3 -5 1
-10 -4 -10 -6 0 -11 5 -11 10 0 6 2 10 4 10 3 0 8 -4 11 -10z m-11620 -20 c-3
-4 2 -13 10 -20 8 -7 15 -18 15 -24 0 -6 -11 2 -24 19 -23 28 -26 52 -5 39 5
-3 7 -9 4 -14z m8870 0 c3 -5 1 -10 -4 -10 -6 0 -11 5 -11 10 0 6 2 10 4 10 3
0 8 -4 11 -10z m-5535 -30 c0 -5 -4 -10 -10 -10 -5 0 -10 5 -10 10 0 6 5 10
10 10 6 0 10 -4 10 -10z m3895 0 c3 -5 1 -10 -4 -10 -6 0 -11 5 -11 10 0 6 2
10 4 10 3 0 8 -4 11 -10z m-7074 -23 c-10 -9 -11 -8 -5 6 3 10 9 15 12 12 3
-3 0 -11 -7 -18z m4919 -57 c0 -5 -4 -10 -10 -10 -5 0 -10 5 -10 10 0 6 5 10
10 10 6 0 10 -4 10 -10z m1050 -10 c0 -5 -4 -10 -10 -10 -5 0 -10 5 -10 10 0
6 5 10 10 10 6 0 10 -4 10 -10z m-5146 -29 c17 -31 13 -41 -16 -41 -19 0 -22
10 -12 48 8 28 10 28 28 -7z m-1418 -3 c3 -4 -1 -5 -10 -4 -8 1 -18 5 -22 8
-3 4 1 5 10 4 8 -1 18 -5 22 -8z m2671 -10 c-3 -8 -6 -5 -6 6 -1 11 2 17 5 13
3 -3 4 -12 1 -19z m-1617 -19 c0 -11 5 -17 10 -14 6 3 10 2 10 -4 0 -16 -10
-19 -117 -31 -97 -11 -102 -11 -122 9 l-20 20 37 6 c20 4 66 12 102 20 93 19
100 18 100 -6z m-1073 -4 c0 -8 -4 -12 -9 -9 -5 3 -6 10 -3 15 9 13 12 11 12
-6z m3543 -5 c0 -11 -4 -20 -9 -20 -14 0 -23 18 -16 30 10 17 25 11 25 -10z
m-3499 -7 c13 -16 12 -17 -3 -4 -10 7 -18 15 -18 17 0 8 8 3 21 -13z m1699 7
c0 -5 -4 -10 -10 -10 -5 0 -10 5 -10 10 0 6 5 10 10 10 6 0 10 -4 10 -10z
m3418 -31 c-2 -6 -8 -10 -13 -10 -5 0 -11 4 -13 10 -2 6 4 11 13 11 9 0 15 -5
13 -11z m-2098 -8 c0 -6 -4 -13 -10 -16 -5 -3 -10 1 -10 9 0 9 5 16 10 16 6 0
10 -4 10 -9z m660 -1 c0 -5 -4 -10 -10 -10 -5 0 -10 5 -10 10 0 6 5 10 10 10
6 0 10 -4 10 -10z m643 -4 c4 -10 1 -13 -9 -9 -7 3 -14 9 -14 14 0 14 17 10
23 -5z m87 -16 c0 -5 -5 -10 -11 -10 -5 0 -7 5 -4 10 3 6 8 10 11 10 2 0 4 -4
4 -10z m-890 -30 c0 -5 -4 -10 -10 -10 -5 0 -10 5 -10 10 0 6 5 10 10 10 6 0
10 -4 10 -10z m294 -25 c-4 -8 -10 -12 -15 -9 -14 8 -10 24 6 24 9 0 12 -6 9
-15z m-5337 -67 c-3 -8 -6 -5 -6 6 -1 11 2 17 5 13 3 -3 4 -12 1 -19z m4570 0
c-3 -8 -6 -5 -6 6 -1 11 2 17 5 13 3 -3 4 -12 1 -19z m-2087 -3 c0 -8 -4 -15
-10 -15 -5 0 -10 7 -10 15 0 8 5 15 10 15 6 0 10 -7 10 -15z m8540 1 c0 -3 -4
-8 -10 -11 -5 -3 -10 -1 -10 4 0 6 5 11 10 11 6 0 10 -2 10 -4z m-7013 -28
c-3 -8 -6 -5 -6 6 -1 11 2 17 5 13 3 -3 4 -12 1 -19z m-2667 -3 c0 -8 -4 -15
-10 -15 -5 0 -10 7 -10 15 0 8 5 15 10 15 6 0 10 -7 10 -15z m1750 -1 c0 -8
-4 -12 -10 -9 -5 3 -10 10 -10 16 0 5 5 9 10 9 6 0 10 -7 10 -16z m3040 -30
c0 -8 -4 -12 -10 -9 -5 3 -10 10 -10 16 0 5 5 9 10 9 6 0 10 -7 10 -16z m1330
0 c0 -8 -4 -12 -10 -9 -5 3 -10 10 -10 16 0 5 5 9 10 9 6 0 10 -7 10 -16z
m-770 -4 c0 -5 -4 -10 -10 -10 -5 0 -10 5 -10 10 0 6 5 10 10 10 6 0 10 -4 10
-10z m0 -40 c0 -5 -4 -10 -10 -10 -5 0 -10 5 -10 10 0 6 5 10 10 10 6 0 10 -4
10 -10z m2306 -47 c-10 -10 -19 5 -10 18 6 11 8 11 12 0 2 -7 1 -15 -2 -18z
m1559 17 c3 -5 1 -10 -4 -10 -6 0 -11 5 -11 10 0 6 2 10 4 10 3 0 8 -4 11 -10z
m-2183 -42 c-15 -15 -26 -4 -18 18 5 13 9 15 18 6 9 -9 9 -15 0 -24z m-2532
-14 c0 -17 -22 -14 -28 4 -2 7 3 12 12 12 9 0 16 -7 16 -16z m200 6 c0 -5 -4
-10 -10 -10 -5 0 -10 5 -10 10 0 6 5 10 10 10 6 0 10 -4 10 -10z m1660 -12 c0
-18 -2 -20 -9 -8 -6 8 -7 18 -5 22 9 14 14 9 14 -14z m-6403 -10 c-3 -8 -6 -5
-6 6 -1 11 2 17 5 13 3 -3 4 -12 1 -19z m4933 12 c0 -5 -4 -10 -10 -10 -5 0
-10 5 -10 10 0 6 5 10 10 10 6 0 10 -4 10 -10z m-700 -10 c0 -5 -4 -10 -10
-10 -5 0 -10 5 -10 10 0 6 5 10 10 10 6 0 10 -4 10 -10z"/>
<path d="M12424 2755 c-18 -13 -18 -14 4 -8 12 3 25 9 28 14 8 14 -10 11 -32
-6z"/>
<path d="M11836 2145 c-3 -8 -1 -15 4 -15 6 0 10 7 10 15 0 8 -2 15 -4 15 -2
0 -6 -7 -10 -15z"/>
<path d="M11710 2076 c0 -8 4 -17 9 -20 5 -4 7 3 4 14 -6 23 -13 26 -13 6z"/>
<path d="M11681 1914 c0 -11 3 -14 6 -6 3 7 2 16 -1 19 -3 4 -6 -2 -5 -13z"/>
<path d="M11715 1650 c-3 -5 -1 -10 4 -10 6 0 11 5 11 10 0 6 -2 10 -4 10 -3
0 -8 -4 -11 -10z"/>
<path d="M11810 1501 c0 -5 5 -13 10 -16 6 -3 10 -2 10 4 0 5 -4 13 -10 16 -5
3 -10 2 -10 -4z"/>
<path d="M2730 2556 c0 -8 4 -17 9 -20 5 -3 7 -15 4 -26 -3 -11 -1 -20 5 -20
13 0 20 30 13 55 -7 23 -31 32 -31 11z"/>
<path d="M2710 2410 c0 -11 4 -20 9 -20 5 0 7 9 4 20 -3 11 -7 20 -9 20 -2 0
-4 -9 -4 -20z"/>
<path d="M2145 1304 c-5 -1 -23 -5 -38 -8 -22 -5 -28 -12 -25 -29 3 -19 8 -22
43 -19 22 2 42 6 44 7 7 7 -14 52 -24 49z"/>
<path d="M2110 1221 c0 -6 4 -13 10 -16 6 -3 7 1 4 9 -7 18 -14 21 -14 7z"/>
<path d="M2695 1010 c-3 -5 -1 -10 4 -10 6 0 11 5 11 10 0 6 -2 10 -4 10 -3 0
-8 -4 -11 -10z"/>
<path d="M2963 505 c0 -8 4 -12 9 -9 5 3 6 10 3 15 -9 13 -12 11 -12 -6z"/>
<path d="M2473 2155 c0 -8 4 -12 9 -9 5 3 6 10 3 15 -9 13 -12 11 -12 -6z"/>
<path d="M6067 1033 c-12 -11 -7 -50 7 -62 11 -9 19 -9 35 1 22 13 25 25 15
52 -6 16 -45 22 -57 9z"/>
<path d="M4476 1071 c-4 -6 -4 -21 0 -35 5 -20 11 -24 32 -20 37 7 49 21 36
42 -12 19 -59 28 -68 13z"/>
<path d="M6751 1040 c-14 -42 -15 -40 14 -40 28 0 31 13 11 49 l-13 24 -12
-33z"/>
<path d="M5104 1026 c-16 -42 24 -83 52 -54 25 25 11 68 -22 68 -13 0 -27 -6
-30 -14z"/>
<path d="M8287 1033 c-16 -15 -5 -23 27 -21 23 1 32 6 29 15 -5 14 -45 18 -56
6z"/>
<path d="M4630 980 c0 -19 31 -23 48 -6 15 15 14 16 -16 16 -18 0 -32 -5 -32
-10z"/>
<path d="M5443 992 c-13 -2 -23 -8 -23 -13 0 -18 31 -22 47 -7 17 18 8 26 -24
20z"/>
<path d="M5687 1034 c-15 -15 -6 -24 24 -24 20 0 29 4 27 13 -5 14 -40 21 -51
11z"/>
<path d="M7812 1028 c-28 -28 -1 -75 36 -63 23 7 33 36 20 59 -11 19 -39 21
-56 4z"/>
<path d="M5923 992 c-28 -4 -31 -32 -4 -32 20 0 47 26 34 32 -4 2 -18 2 -30 0z"/>
<path d="M6227 1033 c-4 -3 -7 -19 -7 -34 0 -19 6 -30 20 -34 39 -12 66 35 38
63 -13 13 -41 16 -51 5z"/>
<path d="M7277 1034 c-15 -15 -6 -24 24 -24 20 0 29 4 27 13 -5 14 -40 21 -51
11z"/>
<path d="M7427 1034 c-15 -15 -6 -24 24 -24 20 0 29 4 27 13 -5 14 -40 21 -51
11z"/>
<path d="M8430 985 c-10 -12 -9 -16 4 -21 22 -8 46 2 46 21 0 19 -34 20 -50 0z"/>
<path d="M9094 1026 c-10 -26 1 -51 22 -54 27 -4 47 21 39 48 -7 24 -53 28
-61 6z"/>
<path d="M9497 1033 c-15 -15 -5 -23 28 -23 26 0 33 3 29 15 -6 15 -45 21 -57
8z"/>
<path d="M3475 931 c-3 -5 -2 -12 3 -15 5 -3 9 1 9 9 0 17 -3 19 -12 6z"/>
<path d="M6362 698 c-28 -28 -1 -75 37 -63 25 8 34 31 21 56 -12 21 -40 25
-58 7z"/>
<path d="M5771 700 c-10 -29 -9 -30 20 -30 33 0 33 0 17 35 -15 33 -24 32 -37
-5z"/>
<path d="M7417 747 c-7 -19 8 -41 22 -33 16 10 14 46 -3 46 -8 0 -16 -6 -19
-13z"/>
<path d="M7400 660 c0 -23 22 -35 46 -26 15 6 15 8 -1 26 -23 26 -45 26 -45 0z"/>
<path d="M7870 716 c0 -31 3 -36 23 -36 33 0 49 15 45 41 -2 19 -10 25 -35 27
-32 3 -33 2 -33 -32z"/>
<path d="M6202 698 c-16 -16 -15 -33 4 -52 22 -23 43 -20 56 9 19 41 -28 75
-60 43z"/>
<path d="M6532 698 c-28 -28 -1 -75 36 -63 23 7 33 36 20 59 -11 19 -39 21
-56 4z"/>
<path d="M6702 698 c-28 -28 -1 -75 36 -63 23 7 33 36 20 59 -11 19 -39 21
-56 4z"/>
<path d="M7187 703 c-15 -14 -6 -23 23 -23 20 0 30 5 30 15 0 15 -40 21 -53 8z"/>
<path d="M7653 663 c-7 -2 -13 -11 -13 -20 0 -21 44 -13 48 10 3 17 -10 21
-35 10z"/>
<path d="M8398 663 c-10 -2 -18 -11 -18 -19 0 -22 44 -14 48 9 4 17 1 18 -30
10z"/>
<path d="M8687 703 c-4 -3 -7 -19 -7 -34 0 -19 6 -30 20 -34 39 -12 66 35 38
63 -13 13 -41 16 -51 5z"/>
<path d="M8977 704 c-15 -16 -5 -24 29 -24 24 0 34 4 32 13 -5 13 -50 22 -61
11z"/>
<path d="M1101 4958 l22 -43 13 30 c20 47 17 55 -21 55 l-35 0 21 -42z"/>
<path d="M5424 4821 c-33 -20 -67 -63 -77 -96 -15 -48 -11 -140 7 -170 34 -59
129 -102 199 -91 125 20 184 129 128 237 -58 112 -178 168 -257 120z m1 -61
c0 -8 -8 -16 -17 -18 -13 -2 -18 3 -18 18 0 15 5 20 18 18 9 -2 17 -10 17 -18z
m73 -1 c-2 -6 -8 -10 -13 -10 -5 0 -11 4 -13 10 -2 6 4 11 13 11 9 0 15 -5 13
-11z m-91 -65 c8 -21 -13 -42 -28 -27 -13 13 -5 43 11 43 6 0 13 -7 17 -16z
m113 -18 c0 -8 -5 -18 -11 -22 -14 -8 -33 11 -25 25 10 16 36 13 36 -3z m-60
-11 c0 -8 -7 -15 -15 -15 -16 0 -20 12 -8 23 11 12 23 8 23 -8z m-40 -61 c0
-9 -5 -14 -12 -12 -18 6 -21 28 -4 28 9 0 16 -7 16 -16z m108 -31 c-5 -26 -38
-29 -38 -4 0 15 6 21 21 21 14 0 19 -5 17 -17z m-108 -38 c0 -8 -4 -15 -9 -15
-13 0 -22 16 -14 24 11 11 23 6 23 -9z m78 -2 c5 -17 -26 -29 -40 -15 -6 6 -7
15 -3 22 9 14 37 9 43 -7z m140 -10 c5 -18 -28 -29 -38 -12 -5 7 -6 17 -3 22
7 12 35 5 41 -10z m-83 -33 c-5 -8 -11 -8 -17 -2 -6 6 -7 16 -3 22 5 8 11 8
17 2 6 -6 7 -16 3 -22z"/>
<path d="M14925 2450 c-45 -7 -33 -16 33 -23 36 -4 42 -3 42 14 0 20 -6 21
-75 9z"/>
</g>
</svg>
